<?xml version="1.0" encoding="utf-8" ?><!DOCTYPE svg PUBLIC "-//W3C//DTD SVG 1.1//EN" "http://www.w3.org/Graphics/SVG/1.1/DTD/svg11.dtd" 
[ <!ATTLIST svg 
  xmlns:dsy CDATA #FIXED "http://www.3ds.com/print"  
    dsy:text-version CDATA #IMPLIED > 

  <!ATTLIST text 
  xmlns:dsy CDATA #FIXED "http://www.3ds.com/print" 
    dsy:text-version CDATA #IMPLIED > 
]><svg xmlns="http://www.w3.org/2000/svg" xmlns:dsy="http://www.3ds.com/print" dsy:text-version="18000" width="1189" height="841" viewBox="0 0 1189 841" version="1.1"><g stroke="rgb(0, 0, 0)" stroke-width="0.35" stroke-linecap="butt" stroke-linejoin="miter" fill="none"><path d="M 579.972 386.696 A 6 5.19977 -164.873 0 0 580.129 385.479"/><path d="M 576.503 380.45 A 6 5.19977 -164.873 0 0 571.25 380.379"/></g><g stroke="rgb(0, 0, 0)" stroke-width="0.13" stroke-linecap="butt" stroke-linejoin="miter" fill="none"><path d="M 571.25 380.379 L 571.12 380.861"/></g><g stroke="rgb(0, 0, 0)" stroke-width="0.35" stroke-linecap="butt" stroke-linejoin="miter" fill="none"><path d="M 576.98 390.363 A 6 5.19977 -164.873 0 0 579.842 387.178"/><path d="M 579.842 387.178 A 6 5.19977 -164.873 0 0 579.933 385.208"/><path d="M 577.132 381.323 A 6 5.19977 -164.873 0 0 571.12 380.861"/><path d="M 571.25 380.379 L 517.319 403.843"/></g><g stroke="rgb(0, 0, 0)" stroke-width="0.13" stroke-linecap="butt" stroke-linejoin="miter" fill="none"><path d="M 517.319 403.843 L 517.189 404.325"/></g><g stroke="rgb(0, 0, 0)" stroke-width="0.35" stroke-linecap="butt" stroke-linejoin="miter" fill="none"><path d="M 571.12 380.861 L 517.189 404.325"/><path d="M 517.319 403.843 A 6 5.19977 -164.873 0 0 514.456 407.029"/><path d="M 517.189 404.325 A 6 5.19977 -164.873 0 0 514.326 407.511"/><path d="M 576.98 390.363 L 527.97 411.686"/><path d="M 572.204 384.855 A 2 1.73328 -164.873 0 0 572.454 385.881"/><path d="M 575.981 386.134 A 2 1.73328 -164.873 1 0 572.119 385.09"/><path d="M 572.119 385.09 A 2 1.73328 -164.873 0 0 572.324 386.363"/><path d="M 572.454 385.881 A 2 1.73328 -164.873 0 0 576.026 385.887"/><path d="M 572.324 386.363 A 2 1.73328 -164.873 0 0 575.981 386.134"/><path d="M 518.269 408.576 A 2 1.73328 -164.873 0 0 518.523 409.345"/><path d="M 518.143 408.801 A 2 1.73328 -164.873 0 0 518.393 409.827"/><path d="M 518.523 409.345 A 2 1.73328 -164.873 0 0 521.968 409.576"/><path d="M 518.393 409.827 A 2 1.73328 -164.873 0 0 521.964 409.833"/><path d="M 539.845 398.933 A 2 1.73328 -164.873 0 0 540.095 399.96"/><path d="M 543.622 400.212 A 2 1.73328 -164.873 1 0 539.76 399.169"/><path d="M 539.76 399.169 A 2 1.73328 -164.873 0 0 539.965 400.441"/><path d="M 540.095 399.96 A 2 1.73328 -164.873 0 0 543.667 399.966"/><path d="M 539.965 400.441 A 2 1.73328 -164.873 0 0 543.622 400.212"/><path d="M 550.632 394.24 A 2 1.73328 -164.873 0 0 550.882 395.267"/><path d="M 554.408 395.52 A 2 1.73328 -164.873 1 0 550.547 394.476"/><path d="M 550.547 394.476 A 2 1.73328 -164.873 0 0 550.751 395.749"/><path d="M 550.882 395.267 A 2 1.73328 -164.873 0 0 554.453 395.273"/><path d="M 550.751 395.749 A 2 1.73328 -164.873 0 0 554.408 395.52"/><path d="M 565.194 390.827 A 2 1.73328 -164.873 1 0 561.333 389.783"/><path d="M 579.972 386.696 L 579.842 387.178"/><path d="M 514.456 407.029 L 514.326 407.511"/><path d="M 548.453 451.749 A 6 5.19977 -164.873 0 0 547.979 448.173"/></g><g stroke="rgb(0, 0, 0)" stroke-width="0.13" stroke-linecap="butt" stroke-linejoin="miter" fill="none"><path d="M 547.979 448.173 L 547.849 448.655"/></g><g stroke="rgb(0, 0, 0)" stroke-width="0.35" stroke-linecap="butt" stroke-linejoin="miter" fill="none"><path d="M 537.211 452.674 A 6 5.19977 -164.873 0 0 548.322 452.23"/><path d="M 548.322 452.23 A 6 5.19977 -164.873 0 0 547.849 448.655"/><path d="M 547.979 448.173 L 525.437 407.067"/></g><g stroke="rgb(0, 0, 0)" stroke-width="0.13" stroke-linecap="butt" stroke-linejoin="miter" fill="none"><path d="M 525.437 407.067 L 525.307 407.548"/></g><g stroke="rgb(0, 0, 0)" stroke-width="0.35" stroke-linecap="butt" stroke-linejoin="miter" fill="none"><path d="M 547.849 448.655 L 525.307 407.548"/><path d="M 525.437 407.067 A 6 5.19977 -164.873 0 0 514.326 407.51"/><path d="M 525.307 407.548 A 6 5.19977 -164.873 0 0 514.196 407.992"/><path d="M 514.196 407.992 A 6 5.19977 -164.873 0 0 514.669 411.568"/><path d="M 537.212 452.674 L 514.669 411.568"/><path d="M 518.143 408.8 A 2 1.73328 -164.873 0 0 521.964 409.833"/><path d="M 518.057 409.036 A 2 1.73328 -164.873 0 0 521.919 410.08"/><path d="M 521.919 410.08 A 2 1.73328 -164.873 0 0 519.1 407.938"/><path d="M 519.1 407.938 A 2 1.73328 -164.873 0 0 518.057 409.036"/><path d="M 523.778 419.077 A 2 1.73328 -164.873 0 0 527.6 420.11"/><path d="M 523.693 419.313 A 2 1.73328 -164.873 0 0 527.554 420.356"/><path d="M 527.554 420.356 A 2 1.73328 -164.873 0 0 524.736 418.215"/><path d="M 524.736 418.215 A 2 1.73328 -164.873 0 0 523.693 419.313"/><path d="M 529.414 429.354 A 2 1.73328 -164.873 0 0 533.235 430.386"/><path d="M 529.329 429.589 A 2 1.73328 -164.873 0 0 533.19 430.633"/><path d="M 533.19 430.633 A 2 1.73328 -164.873 0 0 530.371 428.491"/><path d="M 530.371 428.491 A 2 1.73328 -164.873 0 0 529.329 429.589"/><path d="M 535.049 439.63 A 2 1.73328 -164.873 0 0 538.871 440.663"/><path d="M 534.964 439.866 A 2 1.73328 -164.873 0 0 538.826 440.91"/><path d="M 538.826 440.91 A 2 1.73328 -164.873 0 0 536.007 438.768"/><path d="M 536.007 438.768 A 2 1.73328 -164.873 0 0 534.964 439.866"/><path d="M 548.453 451.749 L 548.322 452.23"/><path d="M 514.326 407.51 L 514.196 407.992"/><path d="M 571.901 459.148 A 6 5.19977 -164.873 0 0 568.516 452.94"/></g><g stroke="rgb(0, 0, 0)" stroke-width="0.13" stroke-linecap="butt" stroke-linejoin="miter" fill="none"><path d="M 568.516 452.94 L 568.386 453.421"/></g><g stroke="rgb(0, 0, 0)" stroke-width="0.35" stroke-linecap="butt" stroke-linejoin="miter" fill="none"><path d="M 563.571 462.706 A 6 5.19977 -164.873 0 0 571.77 459.629"/><path d="M 571.77 459.629 A 6 5.19977 -164.873 0 0 568.386 453.421"/><path d="M 568.516 452.94 L 544.653 442.108"/><path d="M 538.257 439.204 L 537.045 438.654"/><path d="M 568.386 453.421 L 545.048 442.828"/><path d="M 538.787 439.986 L 536.061 438.748"/><path d="M 528.904 437.525 A 6 5.19977 -164.873 0 0 526.316 440.582"/><path d="M 529.089 437.861 A 6 5.19977 -164.873 0 0 526.186 441.064"/><path d="M 526.186 441.064 A 6 5.19977 -164.873 0 0 529.571 447.272"/><path d="M 535.8 450.1 L 529.571 447.272"/><path d="M 563.571 462.706 L 546.385 454.905"/><path d="M 564.133 457.306 A 2 1.73328 -164.873 0 0 567.954 458.339"/><path d="M 564.048 457.542 A 2 1.73328 -164.873 1 0 567.909 458.585"/><path d="M 567.909 458.585 A 2 1.73328 -164.873 0 0 564.165 457.24"/><path d="M 564.165 457.24 A 2 1.73328 -164.873 0 0 564.048 457.542"/><path d="M 530.869 441.11 A 2 1.73328 -164.873 0 0 530.165 441.807"/><path d="M 530.133 441.872 A 2 1.73328 -164.873 0 0 532.398 443.896"/><path d="M 530.165 441.807 A 2 1.73328 -164.873 0 0 530.047 442.108"/><path d="M 530.047 442.108 A 2 1.73328 -164.873 0 0 532.632 444.322"/><path d="M 548.513 451.495 A 2 1.73328 -164.873 0 0 550.954 450.622"/><path d="M 548.39 451.979 A 2 1.73328 -164.873 0 0 550.909 450.868"/><path d="M 550.909 450.868 A 2 1.73328 -164.873 0 0 548.224 448.682"/><path d="M 552.799 452.161 A 2 1.73328 -164.873 0 0 556.621 453.194"/><path d="M 552.714 452.397 A 2 1.73328 -164.873 1 0 556.576 453.441"/><path d="M 556.576 453.441 A 2 1.73328 -164.873 0 0 552.832 452.096"/><path d="M 552.832 452.096 A 2 1.73328 -164.873 0 0 552.714 452.397"/><path d="M 571.901 459.148 L 571.77 459.629"/><path d="M 526.316 440.582 L 526.186 441.064"/><path d="M 571.213 455.215 A 4.5 3.89984 -164.873 0 0 566.358 451.23"/><path d="M 565.395 456.355 A 2 1.73328 -164.873 0 0 567.343 456.881"/><path d="M 564.133 457.306 A 2 1.73328 -164.873 0 0 567.954 458.339"/><path d="M 554.062 451.21 A 2 1.73328 -164.873 0 0 556.01 451.737"/><path d="M 552.799 452.161 A 2 1.73328 -164.873 0 0 556.621 453.194"/><path d="M 548.589 450.994 A 2 1.73328 -164.873 0 0 550.957 450.365"/><path d="M 545.768 441.884 L 568.435 452.173"/><path d="M 548.424 449.249 A 2 1.73328 -164.873 0 0 550.644 449.505"/></g><g stroke="rgb(0, 0, 0)" stroke-width="0.13" stroke-linecap="butt" stroke-linejoin="miter" fill="none"><path d="M 568.435 452.173 L 568.259 452.823"/><path d="M 545.768 441.884 L 545.593 442.534"/></g><g stroke="rgb(0, 0, 0)" stroke-width="0.35" stroke-linecap="butt" stroke-linejoin="miter" fill="none"><path d="M 547.652 442.739 A 4.5 3.89984 -164.873 0 0 544.016 440.947"/><path d="M 572.682 456.258 A 6 5.19977 -164.873 0 0 569.297 450.05"/></g><g stroke="rgb(0, 0, 0)" stroke-width="0.13" stroke-linecap="butt" stroke-linejoin="miter" fill="none"><path d="M 569.297 450.05 L 569.167 450.531"/></g><g stroke="rgb(0, 0, 0)" stroke-width="0.35" stroke-linecap="butt" stroke-linejoin="miter" fill="none"><path d="M 572.057 457.898 A 6 5.19977 -164.873 0 0 572.552 456.739"/><path d="M 572.552 456.739 A 6 5.19977 -164.873 0 0 569.167 450.531"/><path d="M 569.297 450.05 L 542.284 437.788"/><path d="M 569.167 450.531 L 542.679 438.508"/><path d="M 565.395 456.355 A 2 1.73328 -164.873 0 0 567.343 456.881"/><path d="M 548.395 448.638 A 2 1.73328 -164.873 0 0 550.343 449.165"/><path d="M 554.062 451.21 A 2 1.73328 -164.873 0 0 556.01 451.737"/><path d="M 520.867 409.926 L 521.043 410.247"/><path d="M 530.978 428.363 L 532.504 431.146"/><path d="M 550.95 441.721 A 6 5.19977 -164.873 0 0 550.323 439.503"/></g><g stroke="rgb(0, 0, 0)" stroke-width="0.13" stroke-linecap="butt" stroke-linejoin="miter" fill="none"><path d="M 550.323 439.503 L 550.193 439.985"/></g><g stroke="rgb(0, 0, 0)" stroke-width="0.35" stroke-linecap="butt" stroke-linejoin="miter" fill="none"><path d="M 550.765 441.637 A 6 5.19977 -164.873 0 0 550.193 439.985"/><path d="M 533.701 409.193 L 550.323 439.503"/><path d="M 533.383 409.331 L 550.193 439.985"/><path d="M 520.483 400.388 A 2 1.73328 -164.873 0 0 520.848 401.319"/><path d="M 520.356 400.612 A 2 1.73328 -164.873 0 0 520.498 401.436"/><path d="M 539.651 432.984 A 2 1.73328 -164.873 0 0 540.257 432.856"/><path d="M 541.169 432.24 A 2 1.73328 -164.873 0 0 538.124 430.201"/><path d="M 539.885 433.412 A 2 1.73328 -164.873 0 0 540.127 433.337"/><path d="M 540.257 432.856 A 2 1.73328 -164.873 0 0 541.214 431.993"/><path d="M 540.127 433.337 A 2 1.73328 -164.873 0 0 541.169 432.24"/><path d="M 534.015 422.708 A 2 1.73328 -164.873 0 0 534.621 422.579"/><path d="M 535.534 421.963 A 2 1.73328 -164.873 0 0 532.488 419.924"/><path d="M 534.25 423.135 A 2 1.73328 -164.873 0 0 534.491 423.061"/><path d="M 534.621 422.579 A 2 1.73328 -164.873 0 0 535.579 421.717"/><path d="M 534.491 423.061 A 2 1.73328 -164.873 0 0 535.534 421.963"/><path d="M 528.38 412.431 A 2 1.73328 -164.873 0 0 528.986 412.303"/><path d="M 528.614 412.858 A 2 1.73328 -164.873 0 0 528.856 412.784"/><path d="M 528.986 412.303 A 2 1.73328 -164.873 0 0 529.943 411.44"/><path d="M 528.856 412.784 A 2 1.73328 -164.873 0 0 529.898 411.686"/><path d="M 529.898 411.686 A 2 1.73328 -164.873 0 0 529.888 410.852"/><path d="M 582.073 376.666 A 6 5.19977 -164.873 0 0 579.682 373.35"/><path d="M 563.927 376.765 L 523.334 394.426"/><path d="M 563.679 377.298 L 524.343 394.412"/><path d="M 542.907 398.387 L 539.952 399.673"/><path d="M 553.693 393.694 L 550.738 394.98"/><path d="M 520.356 400.612 A 2 1.73328 -164.873 0 0 520.498 401.436"/><path d="M 521.565 399.673 A 2 1.73328 -164.873 0 0 520.271 400.848"/><path d="M 520.271 400.848 A 2 1.73328 -164.873 0 0 520.237 401.48"/><path d="M 541.929 391.227 A 2 1.73328 -164.873 0 0 542.179 392.253"/><path d="M 545.644 391.52 A 2 1.73328 -164.873 0 0 541.844 391.462"/><path d="M 541.844 391.462 A 2 1.73328 -164.873 0 0 542.048 392.735"/><path d="M 542.179 392.253 A 2 1.73328 -164.873 0 0 542.688 392.806"/><path d="M 542.048 392.735 A 2 1.73328 -164.873 0 0 542.244 392.998"/><path d="M 552.715 386.534 A 2 1.73328 -164.873 0 0 552.965 387.56"/><path d="M 556.43 386.827 A 2 1.73328 -164.873 0 0 552.63 386.769"/><path d="M 552.63 386.769 A 2 1.73328 -164.873 0 0 552.835 388.042"/><path d="M 552.965 387.56 A 2 1.73328 -164.873 0 0 553.475 388.113"/><path d="M 552.835 388.042 A 2 1.73328 -164.873 0 0 553.031 388.305"/><path d="M 537.502 438.862 A 6 5.19977 -344.873 0 0 537.419 438.735"/><path d="M 538.017 439.095 A 6 5.19977 -344.873 0 0 537.967 438.986"/><path d="M 526.087 442.987 L 520.307 438.349"/><path d="M 516.798 432.193 A 10 8.66626 -344.873 0 0 520.307 438.349"/><path d="M 514.764 411.739 L 516.798 432.193"/><path d="M 527.366 419.11 L 527.485 420.315"/><path d="M 521.423 410.078 A 2 1.73328 -344.873 0 0 519.515 410.173"/><path d="M 519.849 422.087 A 2 1.73328 -344.873 0 0 521.679 424.348"/><path d="M 520.132 421.531 A 2 1.73328 -344.873 0 0 519.849 422.087"/><path d="M 519.934 421.851 A 2 1.73328 -344.873 0 0 521.362 423.773"/><path d="M 524.799 434.084 A 2 1.73328 -344.873 1 0 520.938 433.04"/><path d="M 523.043 435.315 A 2 1.73328 -344.873 0 0 524.799 434.084"/><path d="M 523.173 434.833 A 2 1.73328 -344.873 0 0 524.845 433.837"/><path d="M 520.938 433.04 A 2 1.73328 -344.873 0 0 523.043 435.315"/><path d="M 521.023 432.805 A 2 1.73328 -344.873 0 0 523.173 434.833"/><path d="M 530.432 441.437 A 2 1.73328 -344.873 0 0 531.812 442.827"/><path d="M 530.66 441.24 A 2 1.73328 -344.873 0 0 531.409 442.094"/><path d="M 535.957 395.735 A 6 5.19977 -164.873 0 0 531.684 394.309"/></g><g stroke="rgb(0, 0, 0)" stroke-width="0.13" stroke-linecap="butt" stroke-linejoin="miter" fill="none"><path d="M 531.684 394.309 L 531.554 394.791"/></g><g stroke="rgb(0, 0, 0)" stroke-width="0.35" stroke-linecap="butt" stroke-linejoin="miter" fill="none"><path d="M 535.46 395.951 A 6 5.19977 -164.873 0 0 531.554 394.791"/><path d="M 518.351 394.496 L 531.684 394.309"/></g><g stroke="rgb(0, 0, 0)" stroke-width="0.13" stroke-linecap="butt" stroke-linejoin="miter" fill="none"><path d="M 518.351 394.496 L 518.22 394.977"/></g><g stroke="rgb(0, 0, 0)" stroke-width="0.35" stroke-linecap="butt" stroke-linejoin="miter" fill="none"><path d="M 518.22 394.977 L 531.554 394.791"/><path d="M 518.351 394.496 A 5 4.33313 -164.873 0 0 513.96 397.572"/><path d="M 518.22 394.977 A 5 4.33313 -164.873 0 0 513.829 398.054"/><path d="M 513.829 398.054 A 5 4.33313 -164.873 0 0 513.718 399.428"/><path d="M 514.469 406.983 L 513.718 399.428"/><path d="M 520.061 421.627 A 2 1.73328 -164.873 0 0 520.963 423.045"/><path d="M 519.934 421.851 A 2 1.73328 -164.873 0 0 521.362 423.773"/><path d="M 517.885 399.464 A 2 1.73328 -164.873 0 0 521.707 400.496"/><path d="M 517.8 399.699 A 2 1.73328 -164.873 1 0 521.662 400.743"/><path d="M 521.662 400.743 A 2 1.73328 -164.873 0 0 519.557 398.469"/><path d="M 519.557 398.469 A 2 1.73328 -164.873 0 0 517.8 399.699"/><path d="M 513.96 397.572 L 513.829 398.054"/><path d="M 546.262 452.19 A 4 3.46649 -344.873 0 0 538.539 450.102"/><path d="M 545.689 453.31 A 4 3.46649 -344.873 0 0 546.262 452.19"/><path d="M 546.392 451.708 A 4 3.46649 -344.873 0 0 538.669 449.62"/><path d="M 544.417 454.285 A 4 3.46649 -344.873 0 0 545.689 453.31"/><path d="M 538.539 450.102 A 4 3.46649 -344.873 0 0 539.077 452.842"/><path d="M 546.262 452.19 L 546.392 451.708"/><path d="M 538.539 450.102 L 538.669 449.62"/><path d="M 530.66 441.24 A 2 1.73328 -164.873 0 0 531.409 442.094"/><path d="M 530.432 441.437 A 2 1.73328 -164.873 0 0 531.812 442.827"/><path d="M 530.259 441.649 A 2 1.73328 -164.873 0 0 532.129 443.405"/><path d="M 530.133 441.872 A 2 1.73328 -344.873 0 0 532.398 443.896"/><path d="M 530.259 441.649 A 2 1.73328 -344.873 0 0 532.129 443.405"/><path d="M 545.296 451.929 A 3 2.59991 -164.873 0 0 539.504 450.363"/><path d="M 544.906 453.374 A 3 2.59991 -164.873 0 0 539.113 451.808"/><path d="M 539.113 451.808 A 3 2.59991 -164.873 0 0 544.388 454.317"/><path d="M 544.388 454.317 A 3 2.59991 -164.873 0 0 544.906 453.374"/><path d="M 543.94 453.113 A 2 1.73328 -164.873 0 0 540.424 451.44"/><path d="M 540.424 451.44 A 2 1.73328 -164.873 0 0 540.079 452.069"/><path d="M 539.504 450.363 L 539.113 451.808"/><path d="M 545.296 451.929 L 544.906 453.374"/><path d="M 543.745 453.835 A 2 1.73328 -164.873 0 0 539.883 452.792"/><path d="M 539.883 452.792 A 2 1.73328 -164.873 0 0 543.4 454.464"/><path d="M 543.4 454.464 A 2 1.73328 -164.873 0 0 543.745 453.835"/><path d="M 540.079 452.069 L 539.884 452.792"/><path d="M 543.94 453.113 L 543.745 453.835"/><path d="M 534.478 396.378 A 5 4.33313 -164.873 0 0 527.25 398.744"/><path d="M 527.25 398.744 L 527.011 399.626"/><path d="M 537.462 395.08 A 5 4.33313 -164.873 0 0 528.607 394.352"/><path d="M 531.989 408.036 A 2 1.73328 -164.873 0 0 528.128 406.992"/><path d="M 528.128 406.992 A 2 1.73328 -164.873 0 0 531.343 408.928"/><path d="M 531.343 408.928 A 2 1.73328 -164.873 0 0 531.989 408.036"/><path d="M 528.453 405.788 L 528.128 406.992"/><path d="M 532.315 406.832 L 531.989 408.036"/><path d="M 534.766 405.427 A 4 3.46649 -164.873 0 0 527.043 403.339"/><path d="M 534.636 405.909 A 4 3.46649 -164.873 0 0 526.913 403.821"/><path d="M 526.913 403.821 A 4 3.46649 -164.873 0 0 527.451 406.56"/><path d="M 532.792 408.004 A 4 3.46649 -164.873 0 0 533.343 407.693"/><path d="M 533.343 407.693 A 4 3.46649 -164.873 0 0 534.636 405.909"/><path d="M 527.043 403.339 L 526.913 403.821"/><path d="M 534.766 405.427 L 534.636 405.909"/><path d="M 533.671 405.648 A 3 2.59991 -164.873 0 0 527.878 404.082"/><path d="M 533.28 407.093 A 3 2.59991 -164.873 0 0 527.488 405.527"/><path d="M 527.488 405.527 A 3 2.59991 -164.873 0 0 528.165 407.915"/><path d="M 531.492 408.814 A 3 2.59991 -164.873 0 0 532.31 408.431"/><path d="M 532.31 408.431 A 3 2.59991 -164.873 0 0 533.28 407.093"/><path d="M 532.315 406.832 A 2 1.73328 -164.873 0 0 529.1 404.896"/><path d="M 529.1 404.896 A 2 1.73328 -164.873 0 0 528.453 405.788"/><path d="M 527.878 404.082 L 527.488 405.527"/><path d="M 533.671 405.648 L 533.28 407.093"/><path d="M 564.34 393.988 A 2 1.73328 -164.873 0 0 560.478 392.944"/><path d="M 560.478 392.944 A 2 1.73328 -164.873 0 0 563.869 394.742"/><path d="M 563.869 394.742 A 2 1.73328 -164.873 0 0 564.34 393.988"/><path d="M 561.333 389.783 L 560.478 392.944"/><path d="M 565.194 390.827 L 564.34 393.988"/><path d="M 575.513 373.33 A 2.04999 0.746399 -297.639 1 0 573.611 369.698"/><path d="M 573.611 369.698 A 2.04999 0.746399 -297.639 0 0 573.435 369.951"/><path d="M 574.892 373.15 A 2.04999 0.746399 -117.639 0 0 573.405 370.31"/><path d="M 573.435 369.951 A 2.04999 0.746399 -297.639 0 0 575.513 373.33"/><path d="M 570.765 363.223 L 570.173 363.534"/><path d="M 561.452 382.289 L 570.173 363.534"/><path d="M 574.457 391.461 L 585.514 392.946"/><path d="M 570.303 363.052 L 571.721 362.31"/><path d="M 571.721 362.31 L 569.768 369.535"/><path d="M 569.768 369.535 L 568.943 369.967"/><path d="M 570.765 363.223 L 568.943 369.967"/><path d="M 570.173 363.534 L 570.303 363.052"/><path d="M 561.32 382.371 L 570.303 363.052"/><path d="M 571.721 362.31 L 593.438 392.426"/><path d="M 569.768 369.535 L 591.485 399.651"/><path d="M 568.943 369.967 L 590.66 400.083"/><path d="M 591.485 399.651 L 590.66 400.083"/><path d="M 593.438 392.426 L 591.485 399.651"/><path d="M 582.49 383.006 A 2.04999 0.746399 -297.639 1 0 580.588 379.373"/><path d="M 580.588 379.373 A 2.04999 0.746399 -297.639 0 0 580.412 379.626"/><path d="M 580.412 379.626 A 2.04999 0.746399 -297.639 0 0 582.49 383.006"/><path d="M 589.467 392.681 A 2.04999 0.746399 -297.639 1 0 587.565 389.049"/><path d="M 587.565 389.049 A 2.04999 0.746399 -297.639 0 0 587.389 389.302"/><path d="M 587.389 389.302 A 2.04999 0.746399 -297.639 0 0 589.467 392.681"/><path d="M 581.87 382.825 A 2.04999 0.746399 -117.639 0 0 580.382 379.986"/><path d="M 588.847 392.501 A 2.04999 0.746399 -117.639 0 0 587.359 389.661"/><path d="M 566.837 382.3 A 5 4.33313 -164.873 0 0 559.609 384.665"/><path d="M 559.609 384.665 L 559.37 385.548"/><path d="M 586.485 370.722 A 6 5.19977 -164.873 0 0 577.957 364.325"/></g><g stroke="rgb(0, 0, 0)" stroke-width="0.13" stroke-linecap="butt" stroke-linejoin="miter" fill="none"><path d="M 577.957 364.325 L 577.827 364.807"/></g><g stroke="rgb(0, 0, 0)" stroke-width="0.35" stroke-linecap="butt" stroke-linejoin="miter" fill="none"><path d="M 583.298 374.47 A 6 5.19977 -164.873 0 0 586.355 371.204"/><path d="M 586.355 371.204 A 6 5.19977 -164.873 0 0 577.827 364.807"/><path d="M 577.957 364.325 L 574.23 365.789"/><path d="M 567.87 368.286 L 522.928 385.932"/></g><g stroke="rgb(0, 0, 0)" stroke-width="0.13" stroke-linecap="butt" stroke-linejoin="miter" fill="none"><path d="M 522.928 385.932 L 522.798 386.414"/></g><g stroke="rgb(0, 0, 0)" stroke-width="0.35" stroke-linecap="butt" stroke-linejoin="miter" fill="none"><path d="M 577.827 364.807 L 574.472 366.124"/><path d="M 567.625 368.813 L 522.798 386.414"/><path d="M 522.928 385.932 A 6 5.19977 -164.873 0 0 519.871 389.198"/><path d="M 522.798 386.414 A 6 5.19977 -164.873 0 0 519.741 389.68"/><path d="M 554.948 385.601 L 552.749 386.465"/><path d="M 583.298 374.47 L 581.455 375.194"/><path d="M 578.717 368.881 A 2 1.73328 -164.873 0 0 578.932 369.848"/><path d="M 582.493 370.16 A 2 1.73328 -164.873 0 0 578.632 369.116"/><path d="M 578.632 369.116 A 2 1.73328 -164.873 0 0 578.802 370.33"/><path d="M 578.932 369.848 A 2 1.73328 -164.873 0 0 582.538 369.914"/><path d="M 578.802 370.33 A 2 1.73328 -164.873 0 0 582.493 370.16"/><path d="M 523.684 390.745 A 2 1.73328 -164.873 0 0 523.902 391.455"/><path d="M 523.557 390.969 A 2 1.73328 -164.873 0 0 523.772 391.937"/><path d="M 523.902 391.455 A 2 1.73328 -164.873 0 0 527.382 391.745"/><path d="M 523.772 391.937 A 2 1.73328 -164.873 0 0 527.379 392.002"/><path d="M 545.699 381.845 A 2 1.73328 -164.873 0 0 545.914 382.812"/><path d="M 549.495 383.044 A 2 1.73328 -164.873 0 0 545.614 382.081"/><path d="M 545.614 382.081 A 2 1.73328 -164.873 0 0 545.784 383.294"/><path d="M 545.914 382.812 A 2 1.73328 -164.873 0 0 547.611 383.864"/><path d="M 549.407 383.082 A 2 1.73328 -164.873 0 0 549.521 382.878"/><path d="M 545.784 383.294 A 2 1.73328 -164.873 0 0 546.849 384.195"/><path d="M 556.705 377.524 A 2 1.73328 -164.873 0 0 556.92 378.491"/><path d="M 560.525 378.245 A 2 1.73328 -164.873 0 0 556.62 377.759"/><path d="M 556.62 377.759 A 2 1.73328 -164.873 0 0 556.79 378.973"/><path d="M 556.92 378.491 A 2 1.73328 -164.873 0 0 557.935 379.372"/><path d="M 556.79 378.973 A 2 1.73328 -164.873 0 0 557.376 379.614"/><path d="M 586.485 370.722 L 586.355 371.204"/><path d="M 519.871 389.198 L 519.741 389.68"/><path d="M 554.601 433.634 A 6 5.19977 -164.873 0 0 554.083 429.979"/></g><g stroke="rgb(0, 0, 0)" stroke-width="0.13" stroke-linecap="butt" stroke-linejoin="miter" fill="none"><path d="M 554.083 429.979 L 553.953 430.461"/></g><g stroke="rgb(0, 0, 0)" stroke-width="0.35" stroke-linecap="butt" stroke-linejoin="miter" fill="none"><path d="M 549.39 437.802 A 6 5.19977 -164.873 0 0 554.47 434.116"/><path d="M 554.47 434.116 A 6 5.19977 -164.873 0 0 553.953 430.461"/><path d="M 554.083 429.979 L 540.536 406.219"/><path d="M 531.729 390.773 L 530.807 389.156"/></g><g stroke="rgb(0, 0, 0)" stroke-width="0.13" stroke-linecap="butt" stroke-linejoin="miter" fill="none"><path d="M 530.807 389.156 L 530.677 389.638"/></g><g stroke="rgb(0, 0, 0)" stroke-width="0.35" stroke-linecap="butt" stroke-linejoin="miter" fill="none"><path d="M 553.953 430.461 L 540.212 406.36"/><path d="M 531.405 390.914 L 530.677 389.638"/><path d="M 530.807 389.156 A 6 5.19977 -164.873 0 0 519.741 389.679"/><path d="M 530.677 389.638 A 6 5.19977 -164.873 0 0 519.611 390.161"/><path d="M 519.611 390.161 A 6 5.19977 -164.873 0 0 520.128 393.816"/><path d="M 520.499 394.466 L 520.128 393.816"/><path d="M 529.922 410.992 L 529.851 410.868"/><path d="M 523.557 390.969 A 2 1.73328 -164.873 0 0 527.379 392.002"/><path d="M 527.046 392.811 A 2 1.73328 -164.873 0 0 527.334 392.249"/><path d="M 527.334 392.249 A 2 1.73328 -164.873 0 0 524.486 390.119"/><path d="M 524.486 390.119 A 2 1.73328 -164.873 0 0 523.472 391.205"/><path d="M 523.472 391.205 A 2 1.73328 -164.873 0 0 525.51 393.479"/><path d="M 535.543 412.552 A 2 1.73328 -164.873 0 0 539.016 412.414"/><path d="M 536.139 413.638 A 2 1.73328 -164.873 0 0 538.971 412.66"/><path d="M 538.971 412.66 A 2 1.73328 -164.873 0 0 536.123 410.53"/><path d="M 535.195 411.381 A 2 1.73328 -164.873 0 0 535.289 412.088"/><path d="M 536.123 410.53 A 2 1.73328 -164.873 0 0 535.11 411.616"/><path d="M 535.11 411.616 A 2 1.73328 -164.873 0 0 535.086 411.718"/><path d="M 541.014 421.587 A 2 1.73328 -164.873 0 0 544.835 422.619"/><path d="M 541.617 423.627 A 2 1.73328 -164.873 0 0 544.79 422.866"/><path d="M 544.79 422.866 A 2 1.73328 -164.873 0 0 541.942 420.736"/><path d="M 541.942 420.736 A 2 1.73328 -164.873 0 0 540.929 421.822"/><path d="M 540.929 421.822 A 2 1.73328 -164.873 0 0 540.878 422.279"/><path d="M 554.601 433.634 L 554.47 434.116"/><path d="M 519.741 389.679 L 519.611 390.161"/><path d="M 577.974 435.747 A 6 5.19977 -164.873 0 0 574.917 433.336"/></g><g stroke="rgb(0, 0, 0)" stroke-width="0.13" stroke-linecap="butt" stroke-linejoin="miter" fill="none"><path d="M 574.917 433.336 L 574.787 433.818"/></g><g stroke="rgb(0, 0, 0)" stroke-width="0.35" stroke-linecap="butt" stroke-linejoin="miter" fill="none"><path d="M 570.719 443.415 A 6 5.19977 -164.873 0 0 572.354 443.824"/><path d="M 577.658 435.963 A 6 5.19977 -164.873 0 0 574.787 433.818"/><path d="M 574.917 433.336 L 550.684 424.018"/><path d="M 544.644 421.695 L 542.048 420.697"/><path d="M 574.787 433.818 L 551.073 424.699"/><path d="M 544.833 422.3 L 541.471 421.007"/><path d="M 534.734 420.079 A 6 5.19977 -164.873 0 0 533.203 421.228"/><path d="M 535.066 420.354 A 6 5.19977 -164.873 0 0 533.326 421.452"/><path d="M 541.183 432.058 L 538.597 431.063"/><path d="M 570.719 443.415 L 552.859 436.548"/><path d="M 574.728 438.587 A 2 1.73328 -164.873 0 0 570.89 437.9"/><path d="M 570.908 437.859 A 2 1.73328 -164.873 0 0 573.883 439.709"/><path d="M 570.89 437.9 A 2 1.73328 -164.873 0 0 570.822 438.095"/><path d="M 570.822 438.095 A 2 1.73328 -164.873 0 0 573.534 440.273"/><path d="M 554.632 433.509 A 2 1.73328 -164.873 0 0 557.214 432.421"/><path d="M 557.214 432.421 A 2 1.73328 -164.873 0 0 554.268 430.333"/><path d="M 554.723 433.012 A 2 1.73328 -164.873 0 0 557.259 432.174"/><path d="M 559.176 433.616 A 2 1.73328 -164.873 1 0 563.037 434.66"/><path d="M 563.037 434.66 A 2 1.73328 -164.873 0 0 559.243 433.422"/><path d="M 559.261 433.381 A 2 1.73328 -164.873 0 0 563.082 434.414"/><path d="M 559.243 433.422 A 2 1.73328 -164.873 0 0 559.176 433.616"/><path d="M 577.985 435.739 A 4.5 3.89984 -164.873 0 0 572.82 431.799"/><path d="M 572.17 436.908 A 2 1.73328 -164.873 0 0 574.118 437.435"/><path d="M 570.908 437.859 A 2 1.73328 -164.873 0 0 573.883 439.709"/><path d="M 560.523 432.43 A 2 1.73328 -164.873 0 0 562.471 432.956"/><path d="M 559.261 433.381 A 2 1.73328 -164.873 0 0 563.082 434.414"/><path d="M 554.758 432.491 A 2 1.73328 -164.873 0 0 557.263 431.916"/><path d="M 551.636 423.652 L 574.929 432.609"/><path d="M 554.268 430.332 A 2 1.73328 -164.873 0 0 556.949 431.057"/></g><g stroke="rgb(0, 0, 0)" stroke-width="0.13" stroke-linecap="butt" stroke-linejoin="miter" fill="none"><path d="M 574.929 432.609 L 574.75 433.272"/><path d="M 551.636 423.652 L 551.457 424.315"/></g><g stroke="rgb(0, 0, 0)" stroke-width="0.35" stroke-linecap="butt" stroke-linejoin="miter" fill="none"><path d="M 553.618 424.414 A 4.5 3.89984 -164.873 0 0 550.005 422.827"/><path d="M 579.539 434.791 A 6 5.19977 -164.873 0 0 575.698 430.446"/></g><g stroke="rgb(0, 0, 0)" stroke-width="0.13" stroke-linecap="butt" stroke-linejoin="miter" fill="none"><path d="M 575.698 430.446 L 575.568 430.928"/></g><g stroke="rgb(0, 0, 0)" stroke-width="0.35" stroke-linecap="butt" stroke-linejoin="miter" fill="none"><path d="M 579.329 434.909 A 6 5.19977 -164.873 0 0 575.568 430.928"/><path d="M 575.698 430.446 L 548.354 419.932"/><path d="M 575.568 430.928 L 548.743 420.613"/><path d="M 572.17 436.908 A 2 1.73328 -164.873 0 0 574.118 437.435"/><path d="M 554.7 430.191 A 2 1.73328 -164.873 0 0 556.648 430.717"/><path d="M 560.523 432.43 A 2 1.73328 -164.873 0 0 562.471 432.956"/><path d="M 536.863 410.386 L 538.41 413.1"/><path d="M 557.075 423.285 A 6 5.19977 -164.873 0 0 556.427 421.309"/></g><g stroke="rgb(0, 0, 0)" stroke-width="0.13" stroke-linecap="butt" stroke-linejoin="miter" fill="none"><path d="M 556.427 421.309 L 556.296 421.791"/></g><g stroke="rgb(0, 0, 0)" stroke-width="0.35" stroke-linecap="butt" stroke-linejoin="miter" fill="none"><path d="M 556.85 423.199 A 6 5.19977 -164.873 0 0 556.296 421.791"/><path d="M 546.375 403.679 L 556.427 421.309"/><path d="M 546.05 403.82 L 556.296 421.791"/><path d="M 542.99 398.452 L 543.663 399.633"/><path d="M 525.897 382.557 A 2 1.73328 -164.873 0 0 526.616 383.844"/><path d="M 525.771 382.781 A 2 1.73328 -164.873 0 0 526.169 384.016"/><path d="M 545.511 414.945 A 2 1.73328 -164.873 0 0 546.25 414.801"/><path d="M 547.134 414.196 A 2 1.73328 -164.873 0 0 543.963 412.23"/><path d="M 545.763 415.387 A 2 1.73328 -164.873 0 0 546.12 415.282"/><path d="M 546.25 414.801 A 2 1.73328 -164.873 0 0 547.179 413.949"/><path d="M 546.12 415.282 A 2 1.73328 -164.873 0 0 547.134 414.196"/><path d="M 568.905 360.991 L 528.095 377.014"/><path d="M 568.722 361.493 L 529.244 376.994"/><path d="M 548.615 381.199 L 545.729 382.332"/><path d="M 559.621 376.878 L 556.735 378.011"/><path d="M 525.771 382.781 A 2 1.73328 -164.873 0 0 525.986 383.748"/><path d="M 526.947 381.85 A 2 1.73328 -164.873 0 0 525.686 383.017"/><path d="M 525.686 383.017 A 2 1.73328 -164.873 0 0 525.778 384.076"/><path d="M 525.986 383.748 A 2 1.73328 -164.873 0 0 526.169 384.016"/><path d="M 547.783 374.138 A 2 1.73328 -164.873 0 0 547.997 375.106"/><path d="M 551.574 374.685 A 2 1.73328 -164.873 0 0 547.697 374.374"/><path d="M 547.697 374.374 A 2 1.73328 -164.873 0 0 547.867 375.587"/><path d="M 547.997 375.106 A 2 1.73328 -164.873 0 0 548.687 375.817"/><path d="M 547.867 375.587 A 2 1.73328 -164.873 0 0 548.194 376.012"/><path d="M 558.789 369.817 A 2 1.73328 -164.873 0 0 559.003 370.784"/><path d="M 562.58 370.364 A 2 1.73328 -164.873 0 0 558.703 370.052"/><path d="M 558.703 370.052 A 2 1.73328 -164.873 0 0 558.873 371.266"/><path d="M 559.003 370.784 A 2 1.73328 -164.873 0 0 559.693 371.496"/><path d="M 558.873 371.266 A 2 1.73328 -164.873 0 0 559.2 371.69"/><path d="M 543.132 421.114 A 6 5.19977 -344.873 0 0 542.702 420.591"/><path d="M 543.699 421.332 A 6 5.19977 -344.873 0 0 543.285 420.664"/><path d="M 521.037 399.881 L 521.168 401.138"/><path d="M 520.465 394.407 L 520.471 394.466"/><path d="M 541.861 378.498 A 6 5.19977 -164.873 0 0 537.292 376.85"/></g><g stroke="rgb(0, 0, 0)" stroke-width="0.13" stroke-linecap="butt" stroke-linejoin="miter" fill="none"><path d="M 537.292 376.85 L 537.162 377.332"/></g><g stroke="rgb(0, 0, 0)" stroke-width="0.35" stroke-linecap="butt" stroke-linejoin="miter" fill="none"><path d="M 541.373 378.69 A 6 5.19977 -164.873 0 0 537.162 377.332"/><path d="M 523.964 377.088 L 537.292 376.85"/></g><g stroke="rgb(0, 0, 0)" stroke-width="0.13" stroke-linecap="butt" stroke-linejoin="miter" fill="none"><path d="M 523.964 377.088 L 523.834 377.57"/></g><g stroke="rgb(0, 0, 0)" stroke-width="0.35" stroke-linecap="butt" stroke-linejoin="miter" fill="none"><path d="M 523.834 377.57 L 537.162 377.332"/><path d="M 523.964 377.088 A 5 4.33313 -164.873 0 0 519.595 380.164"/><path d="M 523.834 377.57 A 5 4.33313 -164.873 0 0 519.465 380.646"/><path d="M 519.465 380.646 A 5 4.33313 -164.873 0 0 519.355 382.039"/><path d="M 520.048 388.675 L 519.355 382.039"/><path d="M 523.524 382.052 A 2 1.73328 -164.873 0 0 527.346 383.085"/><path d="M 523.439 382.287 A 2 1.73328 -164.873 1 0 527.301 383.331"/><path d="M 527.301 383.331 A 2 1.73328 -164.873 0 0 525.187 381.057"/><path d="M 525.187 381.057 A 2 1.73328 -164.873 0 0 523.439 382.287"/><path d="M 519.595 380.164 L 519.465 380.646"/><path d="M 594.134 364.4 A 2.04999 0.753357 -298.211 0 0 596.072 368.013"/><path d="M 596.072 368.013 A 2.04999 0.753357 -298.211 0 0 596.247 367.76"/><path d="M 596.247 367.76 A 2.04999 0.753357 -298.211 0 0 594.134 364.4"/><path d="M 595.456 367.849 A 2.04999 0.753357 -118.211 0 0 593.93 365.004"/><path d="M 575.271 345.393 L 574.451 345.833"/><path d="M 565.963 369.034 L 574.451 345.833"/><path d="M 596.594 376.135 L 598.002 375.38"/><path d="M 598.002 375.38 L 599.955 368.155"/><path d="M 566.016 369.014 L 574.321 346.315"/><path d="M 574.451 345.833 L 574.321 346.315"/><path d="M 581.69 375.101 L 596.594 376.135"/><path d="M 598.002 375.38 L 575.96 345.435"/><path d="M 574.321 346.315 L 575.96 345.435"/><path d="M 599.955 368.155 L 577.913 338.21"/><path d="M 577.913 338.21 L 577.094 338.65"/><path d="M 575.96 345.435 L 577.913 338.21"/><path d="M 575.271 345.393 L 577.094 338.65"/><path d="M 587.053 354.78 A 2.04999 0.753357 -298.211 0 0 588.991 358.393"/><path d="M 588.991 358.393 A 2.04999 0.753357 -298.211 0 0 589.166 358.14"/><path d="M 589.166 358.14 A 2.04999 0.753357 -298.211 0 0 587.053 354.78"/><path d="M 579.971 345.159 A 2.04999 0.753357 -298.211 0 0 581.91 348.772"/><path d="M 581.91 348.772 A 2.04999 0.753357 -298.211 0 0 582.084 348.52"/><path d="M 582.084 348.52 A 2.04999 0.753357 -298.211 0 0 579.971 345.159"/><path d="M 588.375 358.228 A 2.04999 0.753357 -118.211 0 0 586.849 355.384"/><path d="M 581.293 348.608 A 2.04999 0.753357 -118.211 0 0 579.768 345.764"/><path d="M 552.409 434.075 A 4 3.46649 -344.873 0 0 545.462 430.639"/><path d="M 551.803 435.237 A 4 3.46649 -344.873 0 0 552.409 434.075"/><path d="M 552.54 433.594 A 4 3.46649 -344.873 0 0 545.35 430.436"/><path d="M 550.565 436.17 A 4 3.46649 -344.873 0 0 551.803 435.237"/><path d="M 552.409 434.075 L 552.54 433.594"/><path d="M 551.444 433.814 A 3 2.59991 -164.873 0 0 545.968 431.562"/><path d="M 548.977 437.049 A 3 2.59991 -164.873 0 0 550.517 436.224"/><path d="M 550.517 436.224 A 3 2.59991 -164.873 0 0 551.054 435.259"/><path d="M 551.054 435.259 A 3 2.59991 -164.873 0 0 546.358 432.273"/><path d="M 550.088 434.998 A 2 1.73328 -164.873 0 0 546.814 433.105"/><path d="M 551.444 433.814 L 551.054 435.259"/><path d="M 548.851 436.818 A 2 1.73328 -164.873 0 0 549.535 436.364"/><path d="M 549.535 436.364 A 2 1.73328 -164.873 0 0 549.893 435.721"/><path d="M 549.893 435.721 A 2 1.73328 -164.873 0 0 547.074 433.579"/><path d="M 550.088 434.998 L 549.893 435.721"/><path d="M 540.383 379.078 A 5 4.33313 -164.873 0 0 532.884 381.284"/><path d="M 532.884 381.284 L 532.661 382.111"/><path d="M 543.253 377.952 A 5 4.33313 -164.873 0 0 534.233 376.905"/><path d="M 536.698 388.612 A 2 1.73328 -164.873 0 0 533.762 389.533"/><path d="M 533.762 389.533 A 2 1.73328 -164.873 0 0 533.71 389.911"/><path d="M 534.087 388.329 L 533.762 389.533"/><path d="M 540.497 386.959 A 4 3.46649 -164.873 0 0 532.677 385.88"/><path d="M 540.313 387.039 A 4 3.46649 -164.873 0 0 532.547 386.362"/><path d="M 532.547 386.362 A 4 3.46649 -164.873 0 0 533.085 389.101"/><path d="M 532.677 385.88 L 532.547 386.362"/><path d="M 539.378 387.446 A 3 2.59991 -164.873 0 0 533.513 386.623"/><path d="M 538.634 387.77 A 3 2.59991 -164.873 0 0 533.122 388.068"/><path d="M 533.122 388.068 A 3 2.59991 -164.873 0 0 533.457 390.021"/><path d="M 537.771 388.145 A 2 1.73328 -164.873 0 0 534.73 387.439"/><path d="M 534.73 387.439 A 2 1.73328 -164.873 0 0 534.087 388.329"/><path d="M 533.513 386.623 L 533.122 388.068"/><path d="M 568.216 362.874 A 5 4.33313 -164.873 0 0 566.813 364.948"/><path d="M 566.614 367.251 A 5 4.33313 -164.873 0 0 565.771 368.802"/><path d="M 565.771 368.802 A 5 4.33313 -164.873 0 0 565.697 369.139"/><path d="M 566.813 364.948 L 565.771 368.802"/><path d="M 646.057 432.206 L 644.608 429.319"/><path d="M 640.826 421.784 L 639.377 418.898"/><path d="M 635.595 411.363 L 634.146 408.476"/><path d="M 637.171 389.273 A 6 5.19977 -344.873 0 0 636.367 388.084"/></g><g stroke="rgb(0, 0, 0)" stroke-width="0.13" stroke-linecap="butt" stroke-linejoin="miter" fill="none"><path d="M 637.171 389.273 L 637.301 388.791"/></g><g stroke="rgb(0, 0, 0)" stroke-width="0.35" stroke-linecap="butt" stroke-linejoin="miter" fill="none"><path d="M 637.301 388.791 A 6 5.19977 -344.873 0 0 636.439 387.537"/><path d="M 653.316 434.036 A 2 1.73328 -344.873 0 0 654.533 433.294"/><path d="M 653.508 434.437 A 2 1.73328 -344.873 0 0 654.53 433.552"/><path d="M 637.623 402.771 A 2 1.73328 -344.873 0 0 638.967 401.805"/><path d="M 638.922 402.052 A 2 1.73328 -344.873 0 0 636.167 399.887"/><path d="M 637.815 403.172 A 2 1.73328 -344.873 0 0 638.922 402.052"/><path d="M 642.854 413.193 A 2 1.73328 -344.873 0 0 644.198 412.227"/><path d="M 644.153 412.473 A 2 1.73328 -344.873 0 0 641.398 410.309"/><path d="M 643.047 413.594 A 2 1.73328 -344.873 0 0 644.153 412.473"/><path d="M 648.085 423.614 A 2 1.73328 -344.873 0 0 649.429 422.648"/><path d="M 649.384 422.895 A 2 1.73328 -344.873 0 0 646.629 420.73"/><path d="M 648.277 424.015 A 2 1.73328 -344.873 0 0 649.384 422.895"/></g><g stroke="rgb(0, 0, 0)" stroke-width="0.13" stroke-linecap="butt" stroke-linejoin="miter" fill="none"><path d="M 655.751 439.629 L 655.881 439.148"/></g><g stroke="rgb(0, 0, 0)" stroke-width="0.35" stroke-linecap="butt" stroke-linejoin="miter" fill="none"><path d="M 656.133 443.03 A 6 5.19977 -344.873 0 0 655.751 439.629"/><path d="M 644.93 443.3 A 6 5.19977 -344.873 0 0 656.133 443.03"/><path d="M 656.263 442.548 A 6 5.19977 -344.873 0 0 655.881 439.148"/><path d="M 644.93 443.3 L 624.006 401.613"/><path d="M 623.624 398.213 A 6 5.19977 -344.873 0 0 624.006 401.613"/><path d="M 634.827 397.943 A 6 5.19977 -344.873 0 0 623.624 398.213"/></g><g stroke="rgb(0, 0, 0)" stroke-width="0.13" stroke-linecap="butt" stroke-linejoin="miter" fill="none"><path d="M 634.827 397.943 L 634.957 397.461"/></g><g stroke="rgb(0, 0, 0)" stroke-width="0.35" stroke-linecap="butt" stroke-linejoin="miter" fill="none"><path d="M 634.957 397.461 A 6 5.19977 -344.873 0 0 623.755 397.731"/><path d="M 655.751 439.629 L 634.827 397.943"/><path d="M 655.881 439.148 L 634.957 397.461"/><path d="M 648.41 440.942 A 2 1.73328 -344.873 1 0 652.271 441.986"/><path d="M 649.516 439.822 A 2 1.73328 -344.873 0 0 648.41 440.942"/><path d="M 648.495 440.707 A 2 1.73328 -344.873 0 0 652.316 441.74"/><path d="M 652.271 441.986 A 2 1.73328 -344.873 0 0 649.516 439.822"/><path d="M 628.592 398.136 A 2 1.73328 -344.873 0 0 627.486 399.256"/><path d="M 631.347 400.3 A 2 1.73328 -344.873 0 0 628.592 398.136"/><path d="M 632.717 409.678 A 2 1.73328 -344.873 1 0 636.578 410.722"/><path d="M 633.823 408.557 A 2 1.73328 -344.873 0 0 632.717 409.678"/><path d="M 632.802 409.442 A 2 1.73328 -344.873 0 0 636.623 410.475"/><path d="M 636.578 410.722 A 2 1.73328 -344.873 0 0 633.823 408.557"/><path d="M 637.948 420.099 A 2 1.73328 -344.873 1 0 641.809 421.143"/><path d="M 639.054 418.979 A 2 1.73328 -344.873 0 0 637.948 420.099"/><path d="M 638.033 419.864 A 2 1.73328 -344.873 0 0 641.854 420.897"/><path d="M 641.809 421.143 A 2 1.73328 -344.873 0 0 639.054 418.979"/><path d="M 643.179 430.521 A 2 1.73328 -344.873 1 0 647.04 431.565"/><path d="M 644.285 429.4 A 2 1.73328 -344.873 0 0 643.179 430.521"/><path d="M 643.264 430.285 A 2 1.73328 -344.873 0 0 647.085 431.318"/><path d="M 647.04 431.565 A 2 1.73328 -344.873 0 0 644.285 429.4"/><path d="M 656.133 443.03 L 656.263 442.548"/><path d="M 623.624 398.213 L 623.755 397.731"/><path d="M 648.938 441.347 A 10 8.66626 -344.873 0 0 648.776 440.29"/><path d="M 646.762 431.711 A 6 5.19977 -344.873 0 0 646.738 431.802"/><path d="M 647.068 430.898 A 6 5.19977 -344.873 0 0 646.762 431.711"/><path d="M 654.847 428.583 A 6 5.19977 -344.873 0 0 650.41 428.247"/><path d="M 647.041 430.773 A 6 5.19977 -344.873 0 0 646.892 431.229"/><path d="M 654.515 427.921 A 6 5.19977 -344.873 0 0 650.218 427.865"/><path d="M 660.26 438.122 L 661.357 441.394"/></g><g stroke="rgb(0, 0, 0)" stroke-width="0.13" stroke-linecap="butt" stroke-linejoin="miter" fill="none"><path d="M 661.357 441.394 L 661.487 440.913"/></g><g stroke="rgb(0, 0, 0)" stroke-width="0.35" stroke-linecap="butt" stroke-linejoin="miter" fill="none"><path d="M 660.522 438.033 L 661.487 440.913"/><path d="M 661.519 445.926 A 10 8.66626 -344.873 0 0 661.357 441.394"/><path d="M 660.604 448.003 A 10 8.66626 -344.873 0 0 661.519 445.926"/><path d="M 661.649 445.444 A 10 8.66626 -344.873 0 0 661.487 440.913"/><path d="M 659.649 449.513 L 660.604 448.003"/><path d="M 639.183 459.663 L 646.658 447.847"/><path d="M 639.313 459.182 L 646.608 447.651"/><path d="M 653.491 431.795 A 2 1.73328 -344.873 0 0 652.067 431.55"/><path d="M 654.485 433.798 A 2 1.73328 -344.873 0 0 653.491 431.795"/><path d="M 653.69 434.782 A 2 1.73328 -344.873 0 0 654.485 433.798"/><path d="M 653.509 434.437 A 2 1.73328 -344.873 0 0 654.53 433.551"/><path d="M 646.762 431.711 L 646.892 431.229"/><path d="M 661.519 445.926 L 661.649 445.444"/></g><g stroke="rgb(0, 0, 0)" stroke-width="0.13" stroke-linecap="butt" stroke-linejoin="miter" fill="none"><path d="M 645.706 453.766 L 645.836 453.284"/></g><g stroke="rgb(0, 0, 0)" stroke-width="0.35" stroke-linecap="butt" stroke-linejoin="miter" fill="none"><path d="M 645.706 453.766 A 10 8.66626 -344.873 0 0 646.621 451.688"/><path d="M 646.621 451.688 A 10 8.66626 -344.873 0 0 646.459 447.157"/><path d="M 645.836 453.284 A 10 8.66626 -344.873 0 0 646.682 451.446"/><path d="M 645.445 444.132 L 646.459 447.157"/><path d="M 656.165 439.83 A 6 5.19977 -344.873 0 0 655.881 439.147"/></g><g stroke="rgb(0, 0, 0)" stroke-width="0.13" stroke-linecap="butt" stroke-linejoin="miter" fill="none"><path d="M 656.165 439.83 L 656.296 439.348"/></g><g stroke="rgb(0, 0, 0)" stroke-width="0.35" stroke-linecap="butt" stroke-linejoin="miter" fill="none"><path d="M 656.296 439.348 A 6 5.19977 -344.873 0 0 654.859 437.11"/><path d="M 656.165 439.83 L 659.274 449.101"/></g><g stroke="rgb(0, 0, 0)" stroke-width="0.13" stroke-linecap="butt" stroke-linejoin="miter" fill="none"><path d="M 659.274 449.101 L 659.404 448.619"/></g><g stroke="rgb(0, 0, 0)" stroke-width="0.35" stroke-linecap="butt" stroke-linejoin="miter" fill="none"><path d="M 656.296 439.348 L 659.404 448.619"/><path d="M 659.436 453.632 A 10 8.66626 -344.873 0 0 659.274 449.101"/><path d="M 658.521 455.71 A 10 8.66626 -344.873 0 0 659.436 453.632"/><path d="M 659.566 453.151 A 10 8.66626 -344.873 0 0 659.404 448.619"/><path d="M 647.586 472.995 L 658.521 455.71"/><path d="M 636.55 468.617 A 6 5.19977 -344.873 0 0 647.586 472.995"/><path d="M 637.099 467.37 A 6 5.19977 -344.873 0 0 636.55 468.617"/></g><g stroke="rgb(0, 0, 0)" stroke-width="0.13" stroke-linecap="butt" stroke-linejoin="miter" fill="none"><path d="M 637.099 467.37 L 637.23 466.888"/></g><g stroke="rgb(0, 0, 0)" stroke-width="0.35" stroke-linecap="butt" stroke-linejoin="miter" fill="none"><path d="M 637.23 466.888 A 6 5.19977 -344.873 0 0 636.681 468.135"/><path d="M 637.099 467.37 L 645.706 453.766"/><path d="M 637.23 466.888 L 645.836 453.284"/><path d="M 640.412 469.66 A 2 1.73328 -344.873 0 0 644.273 470.704"/><path d="M 643.279 468.701 A 2 1.73328 -344.873 0 0 640.412 469.66"/><path d="M 640.497 469.425 A 2 1.73328 -344.873 0 0 644.318 470.458"/><path d="M 644.273 470.704 A 2 1.73328 -344.873 0 0 643.279 468.701"/><path d="M 646.267 460.405 A 2 1.73328 -344.873 0 0 650.129 461.448"/><path d="M 649.135 459.446 A 2 1.73328 -344.873 0 0 646.267 460.405"/><path d="M 646.353 460.169 A 2 1.73328 -344.873 0 0 650.174 461.202"/><path d="M 650.129 461.448 A 2 1.73328 -344.873 0 0 649.135 459.446"/><path d="M 652.123 451.149 A 2 1.73328 -344.873 0 0 655.984 452.192"/><path d="M 654.991 450.19 A 2 1.73328 -344.873 0 0 652.123 451.149"/><path d="M 652.208 450.913 A 2 1.73328 -344.873 0 0 656.03 451.946"/><path d="M 655.984 452.192 A 2 1.73328 -344.873 0 0 654.991 450.19"/><path d="M 648.495 440.707 A 2 1.73328 -344.873 0 0 652.316 441.74"/><path d="M 648.622 440.483 A 2 1.73328 -344.873 0 0 652.32 441.482"/><path d="M 659.436 453.633 L 659.566 453.151"/><path d="M 636.55 468.617 L 636.681 468.135"/><path d="M 607.367 388.285 A 2.04999 0.723816 -33.9186 0 0 610.77 385.997"/><path d="M 610.77 385.997 A 2.04999 0.723816 -33.9186 0 0 607.341 387.974"/><path d="M 610.628 386.656 A 2.04999 0.723816 -213.919 0 0 608.032 388.402"/><path d="M 607.341 387.974 A 2.04999 0.723816 -33.9186 0 0 607.367 388.285"/><path d="M 637.848 371.379 L 638.37 372.156"/><path d="M 624.203 396.651 L 610.432 390.465"/><path d="M 635.427 394.8 L 638.37 372.156"/><path d="M 604.161 386.177 L 602.208 393.402"/><path d="M 602.208 393.402 L 602.73 394.178"/><path d="M 635.469 394.995 L 638.5 371.674"/><path d="M 638.37 372.156 L 638.5 371.674"/><path d="M 604.161 386.177 L 637.456 370.121"/><path d="M 638.5 371.674 L 637.456 370.121"/><path d="M 602.208 393.402 L 635.503 377.346"/><path d="M 602.73 394.178 L 636.025 378.123"/><path d="M 635.503 377.346 L 636.025 378.123"/><path d="M 637.456 370.121 L 635.503 377.346"/><path d="M 637.848 371.379 L 636.025 378.123"/><path d="M 618.064 383.126 A 2.04999 0.723816 -33.9186 0 0 621.466 380.839"/><path d="M 621.466 380.839 A 2.04999 0.723816 -33.9186 0 0 618.037 382.816"/><path d="M 618.037 382.816 A 2.04999 0.723816 -33.9186 0 0 618.064 383.126"/><path d="M 628.76 377.968 A 2.04999 0.723816 -33.9186 0 0 632.163 375.68"/><path d="M 632.163 375.68 A 2.04999 0.723816 -33.9186 0 0 628.733 377.658"/><path d="M 628.733 377.658 A 2.04999 0.723816 -33.9186 0 0 628.76 377.968"/><path d="M 621.325 381.498 A 2.04999 0.723816 -213.919 0 0 618.728 383.243"/><path d="M 632.021 376.34 A 2.04999 0.723816 -213.919 0 0 629.424 378.085"/><path d="M 635.545 396.266 A 5 4.33313 -344.873 0 0 635.558 394.321"/><path d="M 635.472 396.504 A 5 4.33313 -344.873 0 0 635.545 396.266"/><path d="M 636.587 392.413 A 5 4.33313 -344.873 0 0 636.193 389.433"/><path d="M 635.545 396.266 L 636.587 392.413"/><path d="M 635.541 395.569 A 5 4.33313 -344.873 0 0 625.762 394.138"/><path d="M 635.415 396.748 A 5 4.33313 -344.873 0 0 635.541 395.569"/><path d="M 625.47 395.217 L 625.762 394.138"/><path d="M 635.129 397.805 L 635.415 396.748"/><path d="M 626.249 403.832 A 2 1.73328 -164.873 0 0 630.11 404.876"/><path d="M 630.11 404.876 A 2 1.73328 -164.873 0 0 629.744 403.38"/><path d="M 629.744 403.38 A 2 1.73328 -164.873 0 0 626.249 403.832"/><path d="M 631.347 400.3 L 630.11 404.876"/><path d="M 627.486 399.256 L 626.249 403.832"/><path d="M 660.481 445.138 A 4.5 3.89984 -164.873 0 0 658.245 440.632"/><path d="M 658.245 440.632 A 4.5 3.89984 -164.873 0 0 656.538 440.072"/><path d="M 659.83 447.546 A 4.5 3.89984 -164.873 0 0 657.594 443.04"/><path d="M 657.594 443.04 A 4.5 3.89984 -164.873 0 0 657.521 443.002"/><path d="M 639.973 462.293 L 646.495 451.983"/><path d="M 640.616 461.535 A 4.5 3.89984 -164.873 0 0 639.973 462.293"/><path d="M 640.363 460.848 L 646.827 450.631"/></g><g stroke="rgb(0, 0, 0)" stroke-width="0.13" stroke-linecap="butt" stroke-linejoin="miter" fill="none"><path d="M 640.363 460.848 L 639.973 462.293"/></g><g stroke="rgb(0, 0, 0)" stroke-width="0.35" stroke-linecap="butt" stroke-linejoin="miter" fill="none"><path d="M 641.161 459.586 A 4.5 3.89984 -164.873 0 0 640.082 461.301"/><path d="M 660.481 445.138 L 659.83 447.546"/><path d="M 640.082 461.302 L 639.572 463.185"/><path d="M 641.759 468.474 A 2 1.73328 -164.873 0 0 643.707 469"/><path d="M 647.615 459.218 A 2 1.73328 -164.873 0 0 649.562 459.745"/><path d="M 659.83 447.546 A 4.5 3.89984 -164.873 0 0 657.521 443.002"/><path d="M 653.47 449.962 A 2 1.73328 -164.873 0 0 655.418 450.489"/><path d="M 659.83 447.546 L 659.478 448.85"/><path d="M 641.759 468.474 A 2 1.73328 -164.873 0 0 643.707 469"/><path d="M 640.497 469.425 A 2 1.73328 -164.873 0 0 644.318 470.458"/><path d="M 647.615 459.218 A 2 1.73328 -164.873 0 0 649.562 459.745"/><path d="M 646.353 460.169 A 2 1.73328 -164.873 0 0 650.174 461.202"/><path d="M 653.47 449.962 A 2 1.73328 -164.873 0 0 655.418 450.489"/><path d="M 652.208 450.913 A 2 1.73328 -164.873 0 0 656.03 451.946"/><path d="M 648.694 422.591 A 2.04999 1.77661 -344.873 0 0 649.4 422.165"/><path d="M 647.611 422.672 A 2.04999 1.77661 -344.873 0 0 648.694 422.591"/><path d="M 635.382 410.937 A 5 4.33313 -344.873 0 0 635.416 411.414"/><path d="M 645.252 407.365 L 646.293 403.511"/><path d="M 644.923 403.976 L 646.293 403.511"/><path d="M 645.131 404.78 L 644.35 407.67"/><path d="M 645.252 407.365 L 644.35 407.67"/><path d="M 660.627 437.997 L 661.669 434.144"/><path d="M 661.669 434.144 L 646.293 403.511"/><path d="M 645.252 407.365 L 660.627 437.997"/><path d="M 659.725 438.303 L 660.627 437.997"/><path d="M 644.207 429.429 L 645.647 432.298"/><path d="M 638.976 419.007 L 640.416 421.876"/><path d="M 659.725 438.303 L 644.35 407.67"/><path d="M 642.38 412.25 A 2.04999 1.77661 -344.873 0 0 644.169 411.743"/><path d="M 652.842 433.093 A 2.04999 1.77661 -344.873 0 0 654.406 432.771"/><path d="M 572.374 443.669 A 35 17.3373 -352.812 0 0 641.823 452.428"/><path d="M 641.823 452.428 A 35 17.3373 -352.812 0 0 572.606 442.494"/><path d="M 569.765 464.354 A 35 17.3373 -352.812 0 0 638.981 474.294"/><path d="M 572.606 442.494 A 35 17.3373 -352.812 0 0 572.374 443.669"/><path d="M 641.385 455.907 L 641.823 452.428"/><path d="M 569.765 464.354 L 570.043 462.152"/><path d="M 571.381 451.539 L 572.374 443.669"/></g><g stroke="rgb(0, 0, 0)" stroke-width="0.13" stroke-linecap="butt" stroke-linejoin="miter" fill="none"><path d="M 589.091 497.916 L 588.445 497.916 L 588.445 498.34 L 590.2 498.34 L 590.2 497.916 L 589.555 497.916 L 589.555 495.264 L 590.2 495.264 L 590.2 494.84 L 588.445 494.84 L 588.445 495.264 L 589.091 495.264 L 589.091 497.916 L 589.091 497.916 z M 592.641 496.761 L 592.212 496.661 L 591.895 496.545 L 591.789 496.308 L 591.819 496.141 L 591.925 496.02 L 592.096 495.944 L 592.344 495.914 L 592.581 495.944 L 592.767 496.035 L 592.888 496.171 L 592.939 496.353 L 593.372 496.353 L 593.372 496.343 L 593.297 496.015 L 593.09 495.758 L 592.767 495.596 L 592.344 495.536 L 591.915 495.596 L 591.602 495.763 L 591.405 496.01 L 591.345 496.323 L 591.39 496.625 L 591.532 496.837 L 591.764 496.988 L 592.101 497.094 L 592.596 497.215 L 592.898 497.341 L 592.979 497.442 L 593.009 497.594 L 592.964 497.78 L 592.843 497.921 L 592.646 498.012 L 592.384 498.042 L 592.107 498.012 L 591.905 497.906 L 591.769 497.735 L 591.713 497.498 L 591.284 497.498 L 591.355 497.901 L 591.562 498.194 L 591.89 498.37 L 592.344 498.436 L 592.818 498.37 L 593.166 498.194 L 593.377 497.911 L 593.453 497.543 L 593.398 497.225 L 593.241 497.009 L 592.984 496.867 L 592.641 496.761 L 592.641 496.761 z M 594.22 496.988 L 594.3 497.604 L 594.532 498.058 L 594.9 498.34 L 595.395 498.436 L 595.884 498.34 L 596.252 498.063 L 596.484 497.609 L 596.57 496.988 L 596.484 496.373 L 596.252 495.914 L 595.884 495.637 L 595.395 495.536 L 594.9 495.637 L 594.532 495.919 L 594.3 496.373 L 594.22 496.988 L 594.22 496.988 z M 594.673 496.983 L 594.719 496.529 L 594.86 496.202 L 595.087 496 L 595.395 495.929 L 595.697 496 L 595.924 496.197 L 596.065 496.529 L 596.116 496.983 L 596.065 497.442 L 595.924 497.775 L 595.697 497.977 L 595.395 498.042 L 595.087 497.977 L 594.86 497.775 L 594.719 497.442 L 594.673 496.983 L 594.673 496.983 z M 597.21 498.34 L 597.619 498.34 L 597.619 496.529 L 597.644 496.257 L 597.72 496.06 L 597.836 495.944 L 597.987 495.899 L 598.108 495.939 L 598.189 496.04 L 598.229 496.212 L 598.244 496.439 L 598.244 498.34 L 598.627 498.34 L 598.627 496.529 L 598.653 496.262 L 598.728 496.065 L 598.849 495.944 L 599.001 495.899 L 599.122 495.939 L 599.202 496.04 L 599.253 496.439 L 599.253 498.34 L 599.661 498.34 L 599.661 496.469 L 599.636 496.081 L 599.555 495.783 L 599.394 495.601 L 599.132 495.536 L 598.824 495.637 L 598.587 495.929 L 598.4 495.642 L 598.088 495.536 L 597.8 495.637 L 597.604 495.919 L 597.604 495.632 L 597.21 495.632 L 597.21 498.34 L 597.21 498.34 z M 600.811 497.114 L 602.586 497.114 L 602.591 496.908 L 602.511 496.328 L 602.289 495.894 L 601.936 495.632 L 601.467 495.536 L 601.008 495.637 L 600.655 495.919 L 600.428 496.378 L 600.347 496.983 L 600.423 497.604 L 600.65 498.058 L 600.998 498.34 L 601.452 498.436 L 601.845 498.37 L 602.168 498.199 L 602.405 497.926 L 602.541 497.563 L 602.102 497.563 L 602.011 497.765 L 601.88 497.916 L 601.507 498.037 L 601.22 497.982 L 601.003 497.805 L 600.862 497.518 L 600.811 497.13 L 600.811 497.114 L 600.811 497.114 z M 600.811 496.741 L 600.867 496.393 L 601.003 496.136 L 601.209 495.98 L 601.482 495.924 L 601.749 495.98 L 601.956 496.136 L 602.082 496.393 L 602.127 496.741 L 600.811 496.741 L 600.811 496.741 z M 604.054 496.101 L 604.054 497.457 L 604.084 497.896 L 604.225 498.199 L 604.508 498.375 L 604.987 498.436 L 605.511 498.411 L 605.511 498.027 L 605.128 498.058 L 604.78 498.017 L 604.593 497.891 L 604.513 497.679 L 604.498 497.382 L 604.498 496.101 L 605.511 496.101 L 605.511 495.723 L 604.498 495.723 L 604.498 494.931 L 604.054 494.931 L 604.054 495.723 L 603.287 495.723 L 603.287 496.101 L 604.054 496.101 L 604.054 496.101 z M 606.661 498.34 L 607.105 498.34 L 607.105 496.792 L 607.15 496.418 L 607.287 496.151 L 607.508 495.99 L 607.806 495.934 L 608.028 495.97 L 608.194 496.07 L 608.295 496.242 L 608.331 496.474 L 608.779 496.474 L 608.719 496.065 L 608.552 495.773 L 608.275 495.596 L 607.897 495.536 L 607.64 495.576 L 607.418 495.677 L 607.221 495.849 L 607.065 496.081 L 607.065 495.632 L 606.661 495.632 L 606.661 498.34 L 606.661 498.34 z M 610.887 497.967 L 610.887 495.723 L 609.748 495.723 L 609.748 496.101 L 610.444 496.101 L 610.444 497.967 L 609.536 497.967 L 609.536 498.34 L 611.805 498.34 L 611.805 497.967 L 610.887 497.967 L 610.887 497.967 z M 610.903 494.719 L 610.433 494.719 L 610.433 495.223 L 610.903 495.223 L 610.903 494.719 L 610.903 494.719 z M 614.292 496.529 L 614.73 496.529 L 614.64 496.126 L 614.423 495.808 L 614.085 495.612 L 613.646 495.536 L 613.162 495.637 L 612.794 495.919 L 612.562 496.378 L 612.481 496.993 L 612.557 497.604 L 612.784 498.058 L 613.142 498.34 L 613.631 498.436 L 614.065 498.36 L 614.403 498.148 L 614.635 497.815 L 614.735 497.372 L 614.312 497.372 L 614.236 497.654 L 614.095 497.866 L 613.893 497.997 L 613.646 498.037 L 613.338 497.972 L 613.116 497.77 L 612.98 497.442 L 612.935 496.978 L 612.98 496.524 L 613.122 496.197 L 613.348 495.995 L 613.646 495.924 L 613.908 495.97 L 614.105 496.086 L 614.236 496.277 L 614.292 496.529 L 614.292 496.529 z M 619.451 498.34 L 619.92 498.34 L 620.908 495.632 L 620.449 495.632 L 619.688 497.815 L 618.911 495.632 L 618.447 495.632 L 619.451 498.34 L 619.451 498.34 z M 623.031 497.967 L 623.031 495.723 L 621.892 495.723 L 621.892 496.101 L 622.588 496.101 L 622.588 497.967 L 621.68 497.967 L 621.68 498.34 L 623.949 498.34 L 623.949 497.967 L 623.031 497.967 L 623.031 497.967 z M 623.047 494.719 L 622.578 494.719 L 622.578 495.223 L 623.047 495.223 L 623.047 494.719 L 623.047 494.719 z M 625.099 497.114 L 626.874 497.114 L 626.879 496.908 L 626.799 496.328 L 626.577 495.894 L 626.224 495.632 L 625.755 495.536 L 625.296 495.637 L 624.943 495.919 L 624.716 496.378 L 624.635 496.983 L 624.711 497.604 L 624.938 498.058 L 625.286 498.34 L 625.74 498.436 L 626.133 498.37 L 626.456 498.199 L 626.693 497.926 L 626.829 497.563 L 626.39 497.563 L 626.299 497.765 L 626.168 497.916 L 625.795 498.037 L 625.508 497.982 L 625.291 497.805 L 625.15 497.518 L 625.099 497.13 L 625.099 497.114 L 625.099 497.114 z M 625.099 496.741 L 625.155 496.393 L 625.291 496.136 L 625.498 495.98 L 625.77 495.924 L 626.037 495.98 L 626.244 496.136 L 626.37 496.393 L 626.415 496.741 L 625.099 496.741 L 625.099 496.741 z M 628.387 498.34 L 628.791 496.04 L 629.194 498.34 L 629.618 498.34 L 630.284 495.632 L 629.855 495.632 L 629.406 497.931 L 629.008 495.632 L 628.569 495.632 L 628.17 497.931 L 627.722 495.632 L 627.298 495.632 L 627.964 498.34 L 628.387 498.34 L 628.387 498.34 z" stroke="none" fill-rule="evenodd" fill="rgb(0, 0, 0)"/></g><g stroke="rgb(0, 0, 0)" stroke-width="0.13" stroke-linecap="butt" stroke-linejoin="miter" fill="none"><path d="M 588.526 503.232 L 588.067 503.232 L 588.168 503.766 L 588.42 504.16 L 588.808 504.397 L 589.333 504.483 L 589.852 504.402 L 590.24 504.18 L 590.488 503.832 L 590.578 503.373 L 590.503 502.96 L 590.291 502.692 L 589.948 502.516 L 589.489 502.385 L 589.096 502.289 L 588.839 502.178 L 588.692 502.016 L 588.647 501.764 L 588.692 501.537 L 588.823 501.366 L 589.025 501.25 L 589.302 501.21 L 589.585 501.26 L 589.807 501.396 L 589.953 501.623 L 590.024 501.931 L 590.483 501.931 L 590.483 501.921 L 590.402 501.447 L 590.165 501.094 L 589.792 500.872 L 589.287 500.796 L 588.833 500.872 L 588.48 501.083 L 588.253 501.411 L 588.173 501.835 L 588.238 502.213 L 588.43 502.47 L 588.733 502.642 L 589.146 502.773 L 589.555 502.889 L 589.862 503 L 590.049 503.161 L 590.114 503.424 L 590.054 503.691 L 589.898 503.893 L 589.661 504.019 L 589.353 504.059 L 589.01 504.004 L 588.748 503.842 L 588.581 503.58 L 588.526 503.232 L 588.526 503.232 z M 593.039 502.576 L 593.478 502.576 L 593.387 502.173 L 593.171 501.855 L 592.833 501.658 L 592.394 501.583 L 591.91 501.684 L 591.542 501.966 L 591.31 502.425 L 591.229 503.04 L 591.305 503.65 L 591.532 504.104 L 591.89 504.387 L 592.379 504.483 L 592.813 504.407 L 593.15 504.195 L 593.382 503.862 L 593.483 503.418 L 593.06 503.418 L 592.984 503.701 L 592.843 503.913 L 592.641 504.044 L 592.394 504.084 L 592.086 504.019 L 591.864 503.817 L 591.728 503.489 L 591.683 503.025 L 591.728 502.571 L 591.869 502.243 L 592.096 502.042 L 592.394 501.971 L 592.656 502.016 L 592.853 502.132 L 592.984 502.324 L 593.039 502.576 L 593.039 502.576 z M 595.959 504.034 L 595.959 504.049 L 595.985 504.22 L 596.06 504.341 L 596.378 504.437 L 596.625 504.397 L 596.625 504.054 L 596.519 504.069 L 596.378 504.004 L 596.353 503.802 L 596.353 502.4 L 596.292 502.042 L 596.116 501.79 L 595.808 501.638 L 595.375 501.583 L 594.951 501.643 L 594.638 501.815 L 594.441 502.082 L 594.376 502.435 L 594.376 502.465 L 594.774 502.465 L 594.81 502.254 L 594.921 502.102 L 595.102 502.011 L 595.359 501.976 L 595.606 502.001 L 595.783 502.077 L 595.889 502.208 L 595.924 502.39 L 595.904 502.601 L 595.823 502.707 L 595.622 502.758 L 595.243 502.798 L 594.81 502.889 L 594.502 503.05 L 594.32 503.302 L 594.265 503.676 L 594.315 504.009 L 594.472 504.256 L 594.724 504.412 L 595.072 504.467 L 595.541 504.362 L 595.959 504.034 L 595.959 504.034 z M 595.909 503.439 L 595.849 503.701 L 595.687 503.903 L 595.445 504.034 L 595.148 504.079 L 594.956 504.054 L 594.82 503.973 L 594.734 503.832 L 594.709 503.635 L 594.729 503.459 L 594.81 503.333 L 595.132 503.192 L 595.541 503.131 L 595.909 503.01 L 595.909 503.439 L 595.909 503.439 z M 598.269 501.139 L 598.269 504.014 L 597.356 504.014 L 597.356 504.387 L 599.621 504.387 L 599.621 504.014 L 598.713 504.014 L 598.713 500.766 L 597.573 500.766 L 597.573 501.139 L 598.269 501.139 L 598.269 501.139 z M 600.811 503.161 L 602.586 503.161 L 602.591 502.954 L 602.511 502.375 L 602.289 501.941 L 601.936 501.679 L 601.467 501.583 L 601.008 501.684 L 600.655 501.966 L 600.428 502.425 L 600.347 503.03 L 600.423 503.65 L 600.65 504.104 L 600.998 504.387 L 601.452 504.483 L 601.845 504.417 L 602.168 504.246 L 602.405 503.973 L 602.541 503.61 L 602.102 503.61 L 602.011 503.812 L 601.88 503.963 L 601.507 504.084 L 601.22 504.029 L 601.003 503.852 L 600.862 503.565 L 600.811 503.176 L 600.811 503.161 L 600.811 503.161 z M 600.811 502.788 L 600.867 502.44 L 601.003 502.183 L 601.209 502.027 L 601.482 501.971 L 601.749 502.027 L 601.956 502.183 L 602.082 502.44 L 602.127 502.788 L 600.811 502.788 L 600.811 502.788 z M 604.155 504.387 L 604.851 504.387 L 604.851 503.635 L 604.155 503.635 L 604.155 504.387 L 604.155 504.387 z M 604.155 502.43 L 604.851 502.43 L 604.851 501.679 L 604.155 501.679 L 604.155 502.43 L 604.155 502.43 z" stroke="none" fill-rule="evenodd" fill="rgb(0, 0, 0)"/></g><g stroke="rgb(0, 0, 0)" stroke-width="0.13" stroke-linecap="butt" stroke-linejoin="miter" fill="none"><path d="M 613.52 504.387 L 613.979 504.387 L 613.979 500.862 L 613.636 500.862 L 613.545 501.169 L 613.364 501.376 L 613.086 501.497 L 612.703 501.537 L 612.703 501.895 L 613.52 501.895 L 613.52 504.387 L 613.52 504.387 z M 616.299 504.387 L 616.995 504.387 L 616.995 503.635 L 616.299 503.635 L 616.299 504.387 L 616.299 504.387 z M 616.299 502.43 L 616.995 502.43 L 616.995 501.679 L 616.299 501.679 L 616.299 502.43 L 616.299 502.43 z M 619.592 504.387 L 620.051 504.387 L 620.051 500.862 L 619.708 500.862 L 619.617 501.169 L 619.436 501.376 L 619.158 501.497 L 618.775 501.537 L 618.775 501.895 L 619.592 501.895 L 619.592 504.387 L 619.592 504.387 z" stroke="none" fill-rule="evenodd" fill="rgb(0, 0, 0)"/></g></svg>