<?xml version="1.0" encoding="UTF-8" standalone="no"?>
<!-- Created with Inkscape (http://www.inkscape.org/) -->
<svg xmlns:dc="http://purl.org/dc/elements/1.1/" xmlns:cc="http://creativecommons.org/ns#" xmlns:rdf="http://www.w3.org/1999/02/22-rdf-syntax-ns#" xmlns:svg="http://www.w3.org/2000/svg" xmlns="http://www.w3.org/2000/svg" xmlns:xlink="http://www.w3.org/1999/xlink" xmlns:sodipodi="http://sodipodi.sourceforge.net/DTD/sodipodi-0.dtd" xmlns:inkscape="http://www.inkscape.org/namespaces/inkscape" width="128" height="128" id="svg2" version="1.1" inkscape:version="0.48.0 r9654" sodipodi:docname="racing gloves.svg">
  <title id="title4123">Racing Gloves</title>
  <defs id="defs4">
    <linearGradient inkscape:collect="always" xlink:href="#linearGradient3800-2" id="linearGradient3806-1" x1="124.37875" y1="240.93481" x2="131.28479" y2="177.13026" gradientUnits="userSpaceOnUse" gradientTransform="matrix(0.14455353,0,0,0.20111951,37.968558,918.30518)"/>
    <linearGradient inkscape:collect="always" id="linearGradient3800-2">
      <stop style="stop-color:#cccccc;stop-opacity:1" offset="0" id="stop3802-1"/>
      <stop style="stop-color:#999999;stop-opacity:0;" offset="1" id="stop3804-4"/>
    </linearGradient>
    <linearGradient inkscape:collect="always" xlink:href="#linearGradient3812-8" id="linearGradient3824-9" gradientUnits="userSpaceOnUse" x1="71.894051" y1="353.2186" x2="221.93381" y2="364.67996" gradientTransform="matrix(0.23978234,0,0,-0.17498253,24.828859,1078.4577)"/>
    <linearGradient inkscape:collect="always" id="linearGradient3812-8">
      <stop style="stop-color:#666666;stop-opacity:1;" offset="0" id="stop3814-2"/>
      <stop style="stop-color:#666666;stop-opacity:0;" offset="1" id="stop3816-4"/>
    </linearGradient>
    <filter color-interpolation-filters="sRGB" inkscape:collect="always" id="filter3946-5">
      <feGaussianBlur inkscape:collect="always" stdDeviation="2.4743975" id="feGaussianBlur3948-2"/>
    </filter>
    <linearGradient gradientTransform="matrix(0.23952654,0,0,0.23952648,26.111259,909.32828)" inkscape:collect="always" xlink:href="#linearGradient3784-9" id="linearGradient3790-9" x1="42.719654" y1="522.01331" x2="249.02432" y2="522.01331" gradientUnits="userSpaceOnUse"/>
    <linearGradient inkscape:collect="always" id="linearGradient3784-9">
      <stop style="stop-color:#2d2d2d;stop-opacity:1;" offset="0" id="stop3786-8"/>
      <stop style="stop-color:#364e59;stop-opacity:1" offset="1" id="stop3788-3"/>
    </linearGradient>
    <linearGradient inkscape:collect="always" xlink:href="#linearGradient3950-6" id="linearGradient3856-8" x1="149.48808" y1="538.80695" x2="140.69763" y2="138.16585" gradientUnits="userSpaceOnUse" gradientTransform="matrix(0.96417296,0,0,1.0094076,1.4095696,-6.176892)"/>
    <linearGradient inkscape:collect="always" id="linearGradient3950-6">
      <stop style="stop-color:#0e232e;stop-opacity:1;" offset="0" id="stop3952-9"/>
      <stop style="stop-color:#cccccc;stop-opacity:1" offset="1" id="stop3954-8"/>
    </linearGradient>
    <linearGradient y2="138.16585" x2="140.69763" y1="538.80695" x1="149.48808" gradientTransform="matrix(0.23094502,0,0,0.24177987,26.448899,907.84874)" gradientUnits="userSpaceOnUse" id="linearGradient4052" xlink:href="#linearGradient3950-6" inkscape:collect="always"/>
  </defs>
  <sodipodi:namedview id="base" pagecolor="#ffffff" bordercolor="#666666" borderopacity="1.0" inkscape:pageopacity="0.0" inkscape:pageshadow="2" inkscape:zoom="0.47331205" inkscape:cx="333.57512" inkscape:cy="-9.9295338" inkscape:document-units="px" inkscape:current-layer="layer1" showgrid="false" inkscape:window-width="1280" inkscape:window-height="712" inkscape:window-x="-4" inkscape:window-y="-4" inkscape:window-maximized="1">
    <inkscape:grid type="xygrid" id="grid2985" empspacing="5" visible="true" enabled="true" snapvisiblegridlinesonly="true"/>
  </sodipodi:namedview>
  <metadata id="metadata7">
    <rdf:RDF>
      <cc:Work rdf:about="">
        <dc:format>image/svg+xml</dc:format>
        <dc:type rdf:resource="http://purl.org/dc/dcmitype/StillImage"/>
        <dc:title>Racing Gloves</dc:title>
        <dc:subject>
          <rdf:Bag>
            <rdf:li>racing gloves</rdf:li>
            <rdf:li>racing attire</rdf:li>
            <rdf:li>racing uniform</rdf:li>
            <rdf:li>gloves</rdf:li>
            <rdf:li>motor sports gloves</rdf:li>
            <rdf:li>racing safety</rdf:li>
          </rdf:Bag>
        </dc:subject>
        <dc:date>2011-01-20</dc:date>
        <dc:creator>
          <cc:Agent>
            <dc:title>netalloy</dc:title>
          </cc:Agent>
        </dc:creator>
        <cc:license rdf:resource="http://creativecommons.org/licenses/publicdomain/"/>
        <dc:description>Motor Sports Clipart by NetAlloy</dc:description>
      </cc:Work>
      <cc:License rdf:about="http://creativecommons.org/licenses/publicdomain/">
        <cc:permits rdf:resource="http://creativecommons.org/ns#Reproduction"/>
        <cc:permits rdf:resource="http://creativecommons.org/ns#Distribution"/>
        <cc:permits rdf:resource="http://creativecommons.org/ns#DerivativeWorks"/>
      </cc:License>
    </rdf:RDF>
  </metadata>
  <g inkscape:label="Layer 1" inkscape:groupmode="layer" id="layer1" transform="translate(0,-924.36217)">
    <path sodipodi:nodetypes="cscccccsssccssssssccsscsssscsssccccsc" inkscape:connector-curvature="0" id="path3852" d="m 64.461006,932.7067 c -2.09343,0.0435 -5.24,1.23435 -5.36225,3.4227 -0.47797,8.55572 -4.597089,27.45671 -2.100169,29.55003 l 0.23095,1.46579 -0.70007,1.4658 0.23097,-3.17338 -1.16194,-7.82006 c 0,0 0.14742,-10.85408 -1.8665,-15.62502 -0.71124,-1.68492 -0.8263,-3.68258 -2.572,-3.9138 -1.97142,-0.26114 -5.316519,1.11822 -5.131299,3.18092 0.694689,7.73648 -0.23094,27.59312 -0.23094,27.59312 l -0.46912,2.448 c 0,0 -0.13917,-0.15987 -0.46186,-1.46579 -1.0658,-4.31312 -3.41295,-12.5725 -0.76131,-19.53882 0.50929,-1.33801 -0.91705,-2.71418 -2.27709,-2.93157 -1.61613,-0.25837 -4.23914,0.49896 -4.43124,2.19869 -0.62996,5.57386 -1.24933,11.07171 -0.93101,16.60725 0.99728,17.34263 3.98437,23.09855 6.76292,44.20474 0.9971,7.5742 -7.6939,27.5963 -7.6939,27.5963 16.104009,8.6665 30.220148,6.9333 43.857887,2.6898 0,0 -4.22752,-12.5383 -4.2003,-19.0553 0.0175,-4.1861 1.37527,-8.2985 2.80022,-12.2099 2.51688,-6.9086 10.031669,-19.53878 10.031669,-19.53878 0,0 2.04413,-8.88065 3.96212,-12.94277 0.9655,-2.0448 3.202429,-3.40298 3.738449,-5.61385 0.34646,-1.42908 0.47549,-3.30378 -0.46912,-4.39736 -0.7468,-0.86458 -2.243709,-1.18661 -3.269329,-0.73288 -5.15631,2.28109 -13.532799,13.79606 -13.762859,13.67566 l 3.29362,-19.16963 c 0.18064,-1.05128 -0.38815,-11.27709 -0.0244,-17.22581 0.11641,-1.90361 -2.38485,-3.49502 -4.20032,-3.65691 -1.70111,-0.15167 -6.00359,0.89602 -6.06428,2.68225 -0.50029,8.70399 -1.664229,16.97628 -0.93623,24.6691 l -1.161949,1.22402 c -1.5693,-10.59422 -1.57026,-26.32932 -0.46911,-33.22209 0.28636,-1.64933 -2.59939,-2.4737 -4.20031,-2.44045 z" style="fill:url(#linearGradient4052);fill-opacity:1;stroke:#000000;stroke-width:0;stroke-linecap:butt;stroke-linejoin:miter;stroke-miterlimit:4;stroke-opacity:1;stroke-dasharray:none"/>
    <path style="fill:url(#linearGradient3790-9);fill-opacity:1;stroke:#000000;stroke-width:0;stroke-linecap:butt;stroke-linejoin:miter;stroke-miterlimit:4;stroke-opacity:1;stroke-dasharray:none" d="m 64.098696,933.95455 c -2.17124,0.0431 -5.43475,1.22286 -5.56153,3.3908 -0.495739,8.47598 -4.767889,27.20085 -2.178179,29.27465 l 0.23953,1.45212 -0.72608,1.45212 0.23952,-3.14377 -1.20511,-7.7472 c 0,0 0.15291,-12.25035 -1.93584,-16.97684 -0.73768,-1.66921 0.64042,-1.90127 -1.17014,-2.13031 -2.04469,-0.25868 -6.729319,0.84266 -6.819409,2.90168 -0.37641,8.60535 -0.23952,27.33597 -0.23952,27.33597 l -0.48652,2.42519 c 0,0 -1.08827,-0.24958 -0.47905,-1.45212 1.78974,-3.53282 -3.99805,-11.70661 -1.2479,-18.608 0.52821,-1.32552 -0.49285,-3.43759 -1.90338,-3.653 -1.67619,-0.25592 -4.64626,0.99347 -4.84549,2.67735 -0.65337,5.5219 -1.04616,10.46938 -0.71604,15.95332 1.03436,17.18106 4.13244,22.88333 7.01423,43.79269 1.03416,7.5036 -7.979789,27.3392 -7.979789,27.3392 16.702388,8.5857 31.343037,6.8686 45.487556,2.6647 0,0 -4.38462,-12.4215 -4.35636,-18.8777 0.0182,-4.1471 1.42636,-8.2211 2.90424,-12.0961 2.61044,-6.8442 10.404419,-19.35666 10.404419,-19.35666 0,0 2.12009,-8.79788 4.10938,-12.82215 1.001379,-2.02573 3.321429,-3.37124 3.877349,-5.56153 0.35935,-1.41578 0.49319,-3.27299 -0.48655,-4.35637 -0.77451,-0.8565 -2.32709,-1.17556 -3.390799,-0.72608 -5.3479,2.25987 -14.035649,13.66752 -14.274279,13.54822 l 3.416019,-18.99096 c 0.18732,-1.04147 -0.402569,-11.17197 -0.0252,-17.06524 0.12077,-1.88592 -2.473449,-3.46247 -4.356399,-3.62286 -1.76431,-0.15029 -6.22664,0.88766 -6.28962,2.65725 -0.51885,8.62287 -1.726039,16.81805 -0.97103,24.4392 l -1.205099,1.2126 c -1.6276,-10.49547 -1.62859,-26.08392 -0.48655,-32.91244 0.297,-1.63396 -2.69596,-2.45069 -4.35637,-2.41773 z" id="path3003" inkscape:connector-curvature="0" sodipodi:nodetypes="sscccccsssccssssssccsscsssscsssccccs"/>
    <path sodipodi:nodetypes="sscccccsssccssssssccsscssssccssccccs" inkscape:connector-curvature="0" id="path3826" d="m 380.93747,454.11093 c -7.78043,0.17668 -19.47514,5.01312 -19.92967,13.90081 -1.77642,34.74714 -17.08565,111.5103 -7.80535,120.01162 l 0.8583,5.95308 -2.60187,5.95309 0.85831,-12.88807 -4.31848,-31.7597 c 0,0 0.5479,-44.08171 -6.93719,-63.45796 -2.64349,-6.84315 -3.07116,-14.95619 -9.55902,-15.89518 -7.32718,-1.06061 -17.027,4.79964 -19.0713,12.91864 -9.39794,37.32392 -0.85832,112.06417 -0.85832,112.06417 l -1.74352,9.94214 c 0,0 -3.89981,-1.02303 -1.71668,-5.95286 6.41358,-14.48291 -9.85516,-51.06081 0,-79.35333 1.89285,-5.43397 -6.23787,-11.02318 -11.29253,-11.90617 -6.00663,-1.04913 -15.75542,2.02654 -16.4694,8.92963 -2.34129,22.63708 -4.64325,44.96569 -3.46017,67.44716 3.70652,70.43406 14.80849,93.81047 25.1353,179.52932 3.70588,30.76098 -28.5955,112.07703 -28.5955,112.07703 59.85297,35.19705 112.31754,28.15807 163.00411,10.92426 0,0 -15.71216,-50.92229 -15.61096,-77.38953 0.0657,-17.00102 5.11129,-33.7029 10.40723,-49.58803 9.35444,-28.05842 37.28419,-79.35321 37.28419,-79.35321 0,0 7.59731,-36.06712 14.72593,-52.56473 3.58832,-8.30457 11.90218,-13.82053 13.89435,-22.79954 1.28774,-5.80393 16.13419,9.70274 12.62328,5.26122 -2.77549,-3.51136 -6.12883,43.73327 -29.83305,20.1437 -15.29564,-15.22166 -46.98129,9.78991 -47.8364,9.30078 l 8.6639,-62.50682 c -3.75259,-0.62414 2.13476,-61.14677 3.48713,-85.30641 0.43265,-7.73121 -8.8636,-14.19424 -15.6112,-14.85187 -6.32226,-0.61611 -22.31311,3.63898 -22.53864,10.89343 -1.8595,35.3497 -6.18534,68.94591 -3.47978,100.18884 l -4.31847,4.97119 c -5.83245,-43.02639 -5.83599,-106.93146 -1.74357,-134.92517 1.06428,-6.69836 -9.66093,-10.04655 -15.61096,-9.91153 z" style="opacity:0.20975611;fill:#0e232e;fill-opacity:1;stroke:#000000;stroke-width:0;stroke-linecap:butt;stroke-linejoin:miter;stroke-miterlimit:4;stroke-opacity:1;stroke-dasharray:none;filter:url(#filter3946-5)" transform="matrix(0.23952656,0,0,0.23952649,-29.694956,825.53838)"/>
    <path style="fill:#999999;stroke:#000000;stroke-width:0;stroke-linecap:butt;stroke-linejoin:miter;stroke-miterlimit:4;stroke-opacity:1;stroke-dasharray:none" d="m 41.054158,990.43494 c 2.38093,4.41613 0.42824,13.49496 2.40199,12.24926 10.044589,-6.33932 32.820447,-1.5857 32.907267,-2.77342 l 0.98893,-13.52521 c 0.15743,-2.15325 -38.679107,-0.36672 -36.298187,4.04937 z" id="path3808" inkscape:connector-curvature="0" sodipodi:nodetypes="zsssz"/>
    <path sodipodi:nodetypes="zsssz" inkscape:connector-curvature="0" id="path3810" d="m 41.783218,990.33582 c -0.63198,4.4569 -0.0883,12.49628 2.28416,11.15088 9.762499,-5.53618 31.247787,-1.4417 31.293087,-2.52477 l 0.47795,-11.4294 c 0.0822,-1.96372 -33.423217,-1.65361 -34.055197,2.80329 z" style="fill:#999999;fill-opacity:1;stroke:#b2b2b2;stroke-width:0.52432334;stroke-linecap:butt;stroke-linejoin:miter;stroke-miterlimit:4;stroke-opacity:1;stroke-dasharray:0.5243235, 0.5243235;stroke-dashoffset:0"/>
    <path sodipodi:nodetypes="zsssz" inkscape:connector-curvature="0" id="path3820" d="m 39.787708,1019.2065 c -1.58489,-3.2261 -0.53805,-9.8584 2.40457,-8.9485 10.947959,3.3857 34.989947,1.166 34.858617,2.0261 l -1.67577,10.9746 c -0.23809,1.5592 -34.002507,-0.826 -35.587417,-4.0522 z" style="fill:#999999;stroke:#000000;stroke-width:0;stroke-linecap:butt;stroke-linejoin:miter;stroke-miterlimit:4;stroke-opacity:1;stroke-dasharray:none"/>
    <path style="fill:url(#linearGradient3824-9);fill-opacity:1;stroke:#b2b2b2;stroke-width:0.44838583;stroke-linecap:butt;stroke-linejoin:miter;stroke-miterlimit:4;stroke-opacity:1;stroke-dasharray:0.44838561, 0.44838561;stroke-dashoffset:0" d="m 40.517538,1019.2789 c -1.50716,-2.9368 -0.51164,-8.9744 2.28663,-8.1461 10.410919,3.0822 33.360457,1.0612 33.242667,1.8444 -0.47427,3.1537 -0.61007,5.6305 -1.68754,9.9905 -0.34451,1.3941 -32.334587,-0.7519 -33.841757,-3.6888 z" id="path3822" inkscape:connector-curvature="0" sodipodi:nodetypes="zsssz"/>
    <path style="fill:#999999;stroke:#000000;stroke-width:0;stroke-linecap:butt;stroke-linejoin:miter;stroke-miterlimit:4;stroke-opacity:1;stroke-dasharray:none" d="m 42.996648,955.94381 c 0,0.91243 -2.0409,21.62764 -0.0546,16.28085 0.37713,-1.01529 0.24171,-1.82484 0.24171,-1.82484 0,0 0.66516,0.34719 0.52319,-0.22813 -0.8326,-3.37405 -0.71025,-14.22788 -0.71025,-14.22788 z" id="path3006" inkscape:connector-curvature="0" sodipodi:nodetypes="cscsc"/>
    <path sodipodi:nodetypes="cscsc" inkscape:connector-curvature="0" id="path3008" d="m 54.544067,959.4683 c 0.28078,0.77512 -1.48276,9.86243 1.01032,12.49807 0.74036,0.78269 0.48358,-0.50158 0.48358,-0.50158 0,0 0.74503,-0.91973 0.56629,-1.46654 -1.26147,-3.85953 -1.89827,-10.6379 -2.06019,-10.52995 z" style="fill:#999999;stroke:#000000;stroke-width:0;stroke-linecap:butt;stroke-linejoin:miter;stroke-miterlimit:4;stroke-opacity:1;stroke-dasharray:none"/>
    <path style="fill:url(#linearGradient3806-1);fill-opacity:1;stroke:#000000;stroke-width:0;stroke-linecap:butt;stroke-linejoin:miter;stroke-miterlimit:4;stroke-opacity:1;stroke-dasharray:none" d="m 56.391897,954.72639 c 0,0.81266 2.422619,13.80405 -0.37699,15.74765 -0.66479,0.46151 -1.89827,-1.62529 -1.89827,-1.62529 0,0 1.24755,0.25995 1.16818,-0.20316 -0.83158,-4.85099 0.97903,-14.02161 1.10708,-13.9192 z" id="path3010" inkscape:connector-curvature="0" sodipodi:nodetypes="cscsc"/>
    <path sodipodi:nodetypes="ccsc" inkscape:connector-curvature="0" id="path3780" d="m 69.418466,956.97093 c 1.172129,5.06192 -0.529,14.70129 0.1868,12.40543 0,0 -1.4321,-1.25657 -1.3297,-1.73071 0.67229,-3.11361 0.84607,-10.91685 1.1429,-10.67472 z" style="fill:#cccccc;fill-opacity:1;stroke:#000000;stroke-width:0;stroke-linecap:butt;stroke-linejoin:miter;stroke-miterlimit:4;stroke-opacity:1;stroke-dasharray:none"/>
    <path style="fill:#cccccc;stroke:#000000;stroke-width:0;stroke-linecap:butt;stroke-linejoin:miter;stroke-miterlimit:4;stroke-opacity:1;stroke-dasharray:none" d="m 79.020735,975.71464 -1.24786,8.73503 c 19.030698,-10.19994 21.484618,-23.24191 10.482049,-16.47178 -1.99658,1.45724 -3.99316,3.96097 -5.98974,6.73845 l -1.996579,2.24616 z" id="path3782" inkscape:connector-curvature="0" sodipodi:nodetypes="cccccc"/>
    <rect style="opacity:0;fill:#0e232e;fill-opacity:1;stroke:#b2b2b2;stroke-width:0;stroke-linecap:round;stroke-linejoin:round;stroke-miterlimit:4;stroke-opacity:1;stroke-dasharray:none;stroke-dashoffset:0" id="rect4121" width="128.00003" height="128.00002" x="5.4077686e-006" y="924.36218"/>
  </g>
</svg>