<?xml version="1.0" encoding="utf-8" ?><!DOCTYPE svg PUBLIC "-//W3C//DTD SVG 1.1//EN" "http://www.w3.org/Graphics/SVG/1.1/DTD/svg11.dtd" 
[ <!ATTLIST svg 
  xmlns:dsy CDATA #FIXED "http://www.3ds.com/print"  
    dsy:text-version CDATA #IMPLIED > 

  <!ATTLIST text 
  xmlns:dsy CDATA #FIXED "http://www.3ds.com/print" 
    dsy:text-version CDATA #IMPLIED > 
]><svg xmlns="http://www.w3.org/2000/svg" xmlns:dsy="http://www.3ds.com/print" dsy:text-version="18000" width="229" height="162" viewBox="0 0 229 162" version="1.1"><g stroke="rgb(0, 0, 0)" stroke-width="0.35" stroke-linecap="butt" stroke-linejoin="miter" fill="none"><path d="M 85.7887 46.1455 A 6 5.32845 -59.5812 0 0 83.5632 43.2598"/><path d="M 85.4292 46.04 A 6 5.32845 -59.5812 0 0 83.1668 43.027"/><path d="M 83.1668 43.027 A 6 5.32845 -59.5812 0 0 75.6635 45.2919"/><path d="M 51.4723 90.2458 L 46.9823 98.5966"/><path d="M 47.8962 108.646 A 6 5.32845 -59.5812 0 0 48.6414 109"/><path d="M 47.4997 108.413 A 6 5.32845 -59.5812 0 0 47.7633 108.556"/><path d="M 59.2495 99.2593 L 58.562 100.538"/><path d="M 58.8728 98.9897 L 58.1518 100.331"/><path d="M 51.5159 101.573 A 2 1.77615 -59.5812 0 0 49.5597 104.905"/><path d="M 51.3437 101.412 A 2 1.77615 -59.5812 0 0 49.3351 104.832"/><path d="M 83.5632 43.2598 L 83.1668 43.027"/><path d="M 47.8962 108.646 L 47.4997 108.413"/></g><g stroke="rgb(0, 0, 0)" stroke-width="0.13" stroke-linecap="butt" stroke-linejoin="miter" fill="none"><path d="M 88.024 128.876 L 87.6276 128.644"/></g><g stroke="rgb(0, 0, 0)" stroke-width="0.35" stroke-linecap="butt" stroke-linejoin="miter" fill="none"><path d="M 88.024 128.876 A 6 5.32845 -59.5812 0 0 93.836 118.385"/><path d="M 87.6276 128.644 A 6 5.32845 -59.5812 0 0 93.4396 118.152"/><path d="M 93.4396 118.152 A 6 5.32845 -59.5812 0 0 93.1756 118.008"/><path d="M 93.1756 118.008 L 52.915 97.6879"/><path d="M 47.4995 108.413 A 6 5.32845 -59.5812 0 0 47.7634 108.557"/></g><g stroke="rgb(0, 0, 0)" stroke-width="0.13" stroke-linecap="butt" stroke-linejoin="miter" fill="none"><path d="M 47.7634 108.557 L 47.367 108.324"/></g><g stroke="rgb(0, 0, 0)" stroke-width="0.35" stroke-linecap="butt" stroke-linejoin="miter" fill="none"><path d="M 52.915 97.6879 A 6 5.32845 -59.5812 0 0 47.103 108.18"/><path d="M 47.103 108.18 A 6 5.32845 -59.5812 0 0 47.367 108.324"/><path d="M 88.024 128.876 L 47.7634 108.557"/><path d="M 87.6276 128.644 L 47.367 108.324"/><path d="M 51.3434 101.412 A 2 1.77615 -59.5812 0 0 48.9511 102.438"/><path d="M 49.1284 104.731 A 2 1.77615 -59.5812 0 0 51.1536 101.281"/><path d="M 51.1536 101.281 A 2 1.77615 -59.5812 0 0 48.5547 102.205"/><path d="M 48.9511 102.438 A 2 1.77615 -59.5812 0 0 49.3351 104.832"/><path d="M 48.5547 102.205 A 2 1.77615 -59.5812 0 0 49.1284 104.731"/><path d="M 61.4088 106.492 A 2 1.77615 -59.5812 0 0 59.0163 107.518"/><path d="M 59.1936 109.811 A 2 1.77615 -59.5812 0 0 61.2188 106.361"/><path d="M 61.2188 106.361 A 2 1.77615 -59.5812 0 0 58.6199 107.285"/><path d="M 59.0163 107.518 A 2 1.77615 -59.5812 0 0 59.4003 109.912"/><path d="M 58.6199 107.285 A 2 1.77615 -59.5812 0 0 59.1936 109.811"/><path d="M 71.474 111.572 A 2 1.77615 -59.5812 0 0 69.0814 112.598"/><path d="M 69.2587 114.891 A 2 1.77615 -59.5812 0 0 71.2839 111.441"/><path d="M 71.2839 111.441 A 2 1.77615 -59.5812 0 0 68.685 112.365"/><path d="M 69.0814 112.598 A 2 1.77615 -59.5812 0 0 69.4654 114.992"/><path d="M 68.685 112.365 A 2 1.77615 -59.5812 0 0 69.2587 114.891"/><path d="M 81.5391 116.652 A 2 1.77615 -59.5812 0 0 79.1466 117.678"/><path d="M 79.3239 119.971 A 2 1.77615 -59.5812 0 0 81.349 116.521"/><path d="M 81.349 116.521 A 2 1.77615 -59.5812 0 0 78.7501 117.445"/><path d="M 79.1466 117.678 A 2 1.77615 -59.5812 0 0 79.5305 120.072"/><path d="M 78.7501 117.445 A 2 1.77615 -59.5812 0 0 79.3239 119.971"/><path d="M 93.836 118.385 L 93.4396 118.152"/><path d="M 47.4995 108.413 L 47.103 108.18"/></g><g stroke="rgb(0, 0, 0)" stroke-width="0.13" stroke-linecap="butt" stroke-linejoin="miter" fill="none"><path d="M 116.778 122.661 L 116.382 122.428"/></g><g stroke="rgb(0, 0, 0)" stroke-width="0.35" stroke-linecap="butt" stroke-linejoin="miter" fill="none"><path d="M 116.778 122.661 A 6 5.32845 -59.5812 0 0 118.593 111.962"/><path d="M 116.382 122.428 A 6 5.32845 -59.5812 0 0 118.197 111.729"/><path d="M 118.197 111.729 A 6 5.32845 -59.5812 0 0 113.936 111.378"/><path d="M 113.936 111.378 L 93.8534 118.395"/><path d="M 78.9493 134.039 A 6 5.32845 -59.5812 0 0 83.2101 134.39"/></g><g stroke="rgb(0, 0, 0)" stroke-width="0.13" stroke-linecap="butt" stroke-linejoin="miter" fill="none"><path d="M 83.2101 134.39 L 82.8137 134.157"/></g><g stroke="rgb(0, 0, 0)" stroke-width="0.35" stroke-linecap="butt" stroke-linejoin="miter" fill="none"><path d="M 78.5731 124.107 A 6 5.32845 -59.5812 0 0 78.5529 133.806"/><path d="M 78.5529 133.806 A 6 5.32845 -59.5812 0 0 82.8137 134.157"/><path d="M 116.778 122.661 L 83.2101 134.39"/><path d="M 116.382 122.428 L 82.8137 134.157"/><path d="M 116.362 115.31 A 2 1.77615 -59.5812 0 0 113.765 117.762"/><path d="M 114.146 118.628 A 2 1.77615 -59.5812 0 0 116.172 115.179"/><path d="M 116.172 115.179 A 2 1.77615 -59.5812 0 0 113.369 117.529"/><path d="M 113.765 117.762 A 2 1.77615 -59.5812 0 0 114.353 118.73"/><path d="M 113.369 117.529 A 2 1.77615 -59.5812 0 0 114.146 118.628"/><path d="M 82.7933 127.038 A 2 1.77615 -59.5812 0 0 80.1968 129.49"/><path d="M 80.578 130.357 A 2 1.77615 -59.5812 0 0 82.6033 126.907"/><path d="M 82.6033 126.907 A 2 1.77615 -59.5812 0 0 79.8004 129.257"/><path d="M 80.1968 129.49 A 2 1.77615 -59.5812 0 0 80.7849 130.459"/><path d="M 79.8004 129.257 A 2 1.77615 -59.5812 0 0 80.578 130.357"/><path d="M 99.5774 121.174 A 2 1.77615 -59.5812 0 0 96.9809 123.626"/><path d="M 97.3622 124.492 A 2 1.77615 -59.5812 0 0 99.3875 121.043"/><path d="M 99.3875 121.043 A 2 1.77615 -59.5812 0 0 96.5845 123.393"/><path d="M 96.9809 123.626 A 2 1.77615 -59.5812 0 0 97.569 124.594"/><path d="M 96.5845 123.393 A 2 1.77615 -59.5812 0 0 97.3622 124.492"/><path d="M 105.172 119.219 A 2 1.77615 -59.5812 0 0 102.576 121.671"/><path d="M 102.957 122.537 A 2 1.77615 -59.5812 0 0 104.982 119.088"/><path d="M 104.982 119.088 A 2 1.77615 -59.5812 0 0 102.179 121.438"/><path d="M 102.576 121.671 A 2 1.77615 -59.5812 0 0 103.164 122.639"/><path d="M 102.179 121.438 A 2 1.77615 -59.5812 0 0 102.957 122.537"/><path d="M 118.593 111.962 L 118.197 111.729"/><path d="M 78.9493 134.039 L 78.5529 133.806"/><path d="M 116.777 122.662 A 4.5 3.99634 -59.5812 0 0 121.566 116.892"/><path d="M 121.566 116.892 A 4.5 3.99634 -59.5812 0 0 120.976 115.51"/><path d="M 116.986 116.515 A 2 1.77615 -59.5812 0 0 115.71 118.688"/><path d="M 116.362 115.31 A 2 1.77615 -59.5812 0 0 113.765 117.762"/><path d="M 113.765 117.762 A 2 1.77615 -59.5812 0 0 114.353 118.73"/><path d="M 105.796 120.424 A 2 1.77615 -59.5812 0 0 104.521 122.598"/><path d="M 105.172 119.219 A 2 1.77615 -59.5812 0 0 102.576 121.671"/><path d="M 102.576 121.671 A 2 1.77615 -59.5812 0 0 103.164 122.639"/><path d="M 118.058 122.211 L 116.948 122.599"/></g><g stroke="rgb(0, 0, 0)" stroke-width="0.13" stroke-linecap="butt" stroke-linejoin="miter" fill="none"><path d="M 118.058 122.211 L 117.911 122.124"/></g><g stroke="rgb(0, 0, 0)" stroke-width="0.35" stroke-linecap="butt" stroke-linejoin="miter" fill="none"><path d="M 97.3673 123.05 A 4.5 3.99634 -59.5812 0 0 97.0634 122.477"/><path d="M 99.7495 121.334 A 2 1.77615 -59.5812 0 0 97.3672 123.05"/><path d="M 97.7008 124.557 A 2 1.77615 -59.5812 0 0 97.7935 124.667"/><path d="M 97.7033 124.642 A 4.5 3.99634 -59.5812 0 0 97.7008 124.557"/><path d="M 100.138 122.034 A 2 1.77615 -59.5812 0 0 98.5565 123.749"/><path d="M 98.5565 123.749 L 97.3673 123.05"/><path d="M 97.9333 124.694 L 97.7008 124.557"/><path d="M 94.3978 130.481 A 4.5 3.99634 -59.5812 0 0 97.6075 129.357"/><path d="M 99.1212 124.453 A 4.5 3.99634 -59.5812 0 0 98.6489 123.408"/><path d="M 97.3044 124.324 A 4.5 3.99634 -59.5812 0 0 97.2047 123.548"/><path d="M 97.2047 123.548 A 4.5 3.99634 -59.5812 0 0 96.9706 122.817"/></g><g stroke="rgb(0, 0, 0)" stroke-width="0.13" stroke-linecap="butt" stroke-linejoin="miter" fill="none"><path d="M 119.157 124.058 L 118.761 123.825"/></g><g stroke="rgb(0, 0, 0)" stroke-width="0.35" stroke-linecap="butt" stroke-linejoin="miter" fill="none"><path d="M 119.157 124.058 A 6 5.32845 -59.5812 0 0 120.972 113.358"/><path d="M 118.761 123.825 A 6 5.32845 -59.5812 0 0 120.575 113.126"/><path d="M 120.575 113.126 A 6 5.32845 -59.5812 0 0 119.513 112.666"/><path d="M 81.3279 135.435 A 6 5.32845 -59.5812 0 0 85.5886 135.786"/></g><g stroke="rgb(0, 0, 0)" stroke-width="0.13" stroke-linecap="butt" stroke-linejoin="miter" fill="none"><path d="M 85.5886 135.786 L 85.1922 135.554"/></g><g stroke="rgb(0, 0, 0)" stroke-width="0.35" stroke-linecap="butt" stroke-linejoin="miter" fill="none"><path d="M 81.2155 135.357 A 6 5.32845 -59.5812 0 0 85.1922 135.554"/><path d="M 119.157 124.058 L 85.5886 135.786"/><path d="M 118.761 123.825 L 85.1922 135.554"/><path d="M 116.976 116.987 A 2 1.77615 -59.5812 0 0 116.117 118.449"/><path d="M 116.986 116.515 A 2 1.77615 -59.5812 0 0 115.71 118.688"/><path d="M 83.4077 128.715 A 2 1.77615 -59.5812 0 0 82.5492 130.177"/><path d="M 83.418 128.243 A 2 1.77615 -59.5812 0 0 82.1419 130.418"/><path d="M 100.192 122.851 A 2 1.77615 -59.5812 0 0 99.3333 124.313"/><path d="M 100.202 122.379 A 2 1.77615 -59.5812 0 0 98.9529 123.982"/><path d="M 105.787 120.896 A 2 1.77615 -59.5812 0 0 104.928 122.358"/><path d="M 105.796 120.424 A 2 1.77615 -59.5812 0 0 104.521 122.598"/><path d="M 120.972 113.358 L 120.575 113.126"/><path d="M 81.3279 135.435 L 81.1927 135.356"/><path d="M 94.4293 132.697 L 95.1596 133.066"/></g><g stroke="rgb(0, 0, 0)" stroke-width="0.13" stroke-linecap="butt" stroke-linejoin="miter" fill="none"><path d="M 95.1596 133.066 L 94.7632 132.833"/></g><g stroke="rgb(0, 0, 0)" stroke-width="0.35" stroke-linecap="butt" stroke-linejoin="miter" fill="none"><path d="M 94.4675 132.684 L 94.7632 132.833"/><path d="M 95.1596 133.066 A 6 5.32845 -59.5812 0 0 102.889 129.741"/><path d="M 94.7632 132.833 A 6 5.32845 -59.5812 0 0 102.276 129.956"/><path d="M 78.9416 118.249 A 2 1.77615 -59.5812 0 0 78.9932 118.156"/><path d="M 78.9932 118.156 A 2 1.77615 -59.5812 0 0 79.1983 117.584"/><path d="M 68.8765 113.169 A 2 1.77615 -59.5812 0 0 68.9281 113.076"/><path d="M 68.9281 113.076 A 2 1.77615 -59.5812 0 0 69.1331 112.504"/><path d="M 65.6089 102.952 L 65.1258 103.851"/><path d="M 65.2078 102.728 L 64.7156 103.644"/><path d="M 73.0947 121.342 A 10 8.88074 -239.581 0 0 74.3227 122.231"/><path d="M 74.3227 122.231 A 10 8.88074 -239.581 0 0 76.667 123.145"/><path d="M 73.4073 121.499 A 10 8.88074 -239.581 0 0 74.5225 122.345"/><path d="M 82.049 135.163 A 6 5.32845 -239.581 0 0 86.448 133.259"/></g><g stroke="rgb(0, 0, 0)" stroke-width="0.13" stroke-linecap="butt" stroke-linejoin="miter" fill="none"><path d="M 82.049 135.163 L 82.4454 135.396"/></g><g stroke="rgb(0, 0, 0)" stroke-width="0.35" stroke-linecap="butt" stroke-linejoin="miter" fill="none"><path d="M 82.4454 135.396 A 6 5.32845 -239.581 0 0 87.2986 132.961"/><path d="M 82.049 135.163 L 72.1823 134.851"/></g><g stroke="rgb(0, 0, 0)" stroke-width="0.13" stroke-linecap="butt" stroke-linejoin="miter" fill="none"><path d="M 72.1823 134.851 L 72.5787 135.084"/></g><g stroke="rgb(0, 0, 0)" stroke-width="0.35" stroke-linecap="butt" stroke-linejoin="miter" fill="none"><path d="M 82.4454 135.396 L 72.5787 135.084"/><path d="M 68.3378 133.754 A 10 8.88074 -239.581 0 0 72.1822 134.851"/><path d="M 66.1048 131.8 A 10 8.88074 -239.581 0 0 68.3378 133.754"/><path d="M 68.7342 133.986 A 10 8.88074 -239.581 0 0 72.5787 135.084"/><path d="M 53.096 115.28 L 66.1048 131.8"/><path d="M 52.072 110.731 A 6 5.32845 -239.581 0 0 53.096 115.28"/><path d="M 61.8509 107.275 A 6 5.32845 -239.581 0 0 60.9279 106.379"/></g><g stroke="rgb(0, 0, 0)" stroke-width="0.13" stroke-linecap="butt" stroke-linejoin="miter" fill="none"><path d="M 61.8509 107.275 L 61.9667 107.343"/></g><g stroke="rgb(0, 0, 0)" stroke-width="0.35" stroke-linecap="butt" stroke-linejoin="miter" fill="none"><path d="M 61.8672 107.08 A 6 5.32845 -239.581 0 0 60.9883 106.385"/><path d="M 61.8509 107.275 L 61.9964 107.46"/><path d="M 56.4608 113.002 A 2 1.77615 -239.581 0 0 56.9372 113.187"/><path d="M 56.2096 112.819 A 2 1.77615 -239.581 0 0 56.4608 113.002"/><path d="M 56.5326 112.983 A 2 1.77615 -239.581 0 0 56.6676 113.104"/><path d="M 65.4522 118.4 A 2 1.77615 -239.581 1 0 63.4269 121.849"/><path d="M 65.5541 121.54 A 2 1.77615 -239.581 0 0 65.4522 118.4"/><path d="M 65.6422 118.531 A 2 1.77615 -239.581 0 0 63.6336 121.951"/><path d="M 63.4269 121.849 A 2 1.77615 -239.581 0 0 65.5541 121.54"/><path d="M 72.4182 127.246 A 2 1.77615 -239.581 1 0 70.3929 130.695"/><path d="M 72.5201 130.386 A 2 1.77615 -239.581 0 0 72.4182 127.246"/><path d="M 72.6082 127.377 A 2 1.77615 -239.581 0 0 70.5997 130.797"/><path d="M 70.3929 130.695 A 2 1.77615 -239.581 0 0 72.5201 130.386"/><path d="M 83.119 127.392 A 2 1.77615 -239.581 0 0 81.2525 130.571"/><path d="M 83.2498 127.622 A 2 1.77615 -239.581 0 0 81.5172 130.573"/><path d="M 68.3378 133.754 L 68.7342 133.986"/><path d="M 61.7735 106.906 L 61.5413 106.612"/><path d="M 61.2102 101.14 A 3 2.66422 -59.5812 0 0 60.7589 101.647"/></g><g stroke="rgb(0, 0, 0)" stroke-width="0.13" stroke-linecap="butt" stroke-linejoin="miter" fill="none"><path d="M 61.2102 101.14 L 60.8137 100.907"/></g><g stroke="rgb(0, 0, 0)" stroke-width="0.35" stroke-linecap="butt" stroke-linejoin="miter" fill="none"><path d="M 60.8137 100.907 A 3 2.66422 -59.5812 0 0 60.3453 101.438"/><path d="M 61.2102 101.14 L 61.6474 100.74"/><path d="M 60.8137 100.907 L 61.2433 100.514"/><path d="M 52.4301 114.164 L 48.2224 108.82"/><path d="M 65.8142 118.691 A 2 1.77615 -59.5812 0 0 64.1178 119.174"/><path d="M 65.6422 118.531 A 2 1.77615 -59.5812 0 0 63.7214 118.942"/><path d="M 64.1178 119.174 A 2 1.77615 -59.5812 0 0 63.8581 122.023"/><path d="M 63.7214 118.942 A 2 1.77615 -59.5812 0 0 63.6336 121.951"/><path d="M 56.8707 113.153 A 2 1.77615 -59.5812 0 0 56.8921 113.177"/><path d="M 56.5326 112.983 A 2 1.77615 -59.5812 0 0 56.6676 113.104"/><path d="M 49.6503 102.228 A 2 1.77615 -59.5812 0 0 50.0979 104.491"/><path d="M 49.1249 103.338 A 2 1.77615 -59.5812 0 0 49.8912 104.389"/><path d="M 49.8912 104.389 A 2 1.77615 -59.5812 0 0 51.0701 104.573"/><path d="M 92.0303 119.644 A 4 3.5523 -239.581 0 0 89.0066 119.479"/><path d="M 93.6771 122.747 A 4 3.5523 -239.581 0 0 92.0303 119.644"/><path d="M 94.0735 122.98 A 4 3.5523 -239.581 0 0 92.4268 119.876"/><path d="M 87.98 126.542 A 4 3.5523 -239.581 0 0 93.6771 122.747"/><path d="M 86.3627 123.984 A 4 3.5523 -239.581 0 0 87.98 126.542"/><path d="M 88.3764 126.775 A 4 3.5523 -239.581 0 0 94.0735 122.98"/><path d="M 92.0303 119.644 L 92.4268 119.876"/><path d="M 87.98 126.542 L 88.3764 126.775"/><path d="M 83.418 128.243 A 2 1.77615 -59.5812 0 0 82.4829 129.055"/><path d="M 83.3545 127.899 A 2 1.77615 -59.5812 0 0 82.0865 128.822"/><path d="M 82.4829 129.055 A 2 1.77615 -59.5812 0 0 82.1418 130.417"/><path d="M 82.0865 128.822 A 2 1.77615 -59.5812 0 0 81.8096 130.529"/><path d="M 83.3546 127.899 A 2 1.77615 -59.5812 0 0 81.8946 129.194"/><path d="M 83.2502 127.622 A 2 1.77615 -59.5812 0 0 81.4982 128.962"/><path d="M 81.8946 129.194 A 2 1.77615 -59.5812 0 0 81.8096 130.529"/><path d="M 81.4982 128.962 A 2 1.77615 -59.5812 0 0 81.517 130.573"/><path d="M 83.119 127.392 A 2 1.77615 -59.5812 0 0 81.1034 128.725"/><path d="M 82.9648 127.199 A 2 1.77615 -59.5812 0 0 80.707 128.492"/><path d="M 81.1034 128.725 A 2 1.77615 -59.5812 0 0 81.2523 130.571"/><path d="M 80.707 128.492 A 2 1.77615 -59.5812 0 0 81.0092 130.531"/><path d="M 80.3093 128.262 A 2 1.77615 -239.581 0 0 80.785 130.459"/><path d="M 80.7058 128.495 A 2 1.77615 -239.581 0 0 81.0092 130.531"/><path d="M 82.7931 127.038 A 2 1.77615 -239.581 0 0 80.3093 128.262"/><path d="M 82.9648 127.199 A 2 1.77615 -239.581 0 0 80.7058 128.495"/><path d="M 88.4861 125.68 A 3 2.66422 -59.5812 0 0 92.7535 122.982"/><path d="M 90.3349 119.808 A 3 2.66422 -59.5812 0 0 87.2969 124.982"/><path d="M 87.2969 124.982 A 3 2.66422 -59.5812 0 0 91.5642 122.284"/><path d="M 92.7535 122.982 A 3 2.66422 -59.5812 0 0 91.5242 120.506"/><path d="M 91.5642 122.284 A 3 2.66422 -59.5812 0 0 90.3349 119.808"/><path d="M 87.8032 124.119 A 2 1.77615 -59.5812 0 0 89.8286 120.67"/><path d="M 88.4861 125.68 L 87.2969 124.982"/><path d="M 91.5242 120.506 L 90.3349 119.808"/><path d="M 89.234 120.321 A 2 1.77615 -59.5812 0 0 87.2086 123.77"/><path d="M 87.2086 123.77 A 2 1.77615 -59.5812 0 0 90.0535 121.972"/><path d="M 90.0535 121.972 A 2 1.77615 -59.5812 0 0 89.234 120.321"/><path d="M 87.8032 124.119 L 87.2086 123.77"/><path d="M 89.8286 120.67 L 89.234 120.321"/><path d="M 61.6258 100.76 A 5 4.44037 -59.5812 0 0 61.7055 100.772"/><path d="M 52.1041 91.408 A 2 1.77615 -59.5812 0 0 52.6217 92.2658"/><path d="M 54.4304 95.6804 A 4 3.5523 -59.5812 0 0 55.5795 96.0846"/><path d="M 52.4168 92.8882 A 4 3.5523 -59.5812 0 0 54.034 95.4477"/><path d="M 54.034 95.4477 A 4 3.5523 -59.5812 0 0 55.3838 95.8756"/><path d="M 54.4304 95.6804 L 54.034 95.4477"/><path d="M 52.119 91.4637 A 3 2.66422 -59.5812 0 0 53.351 93.8871"/><path d="M 53.351 93.8871 A 3 2.66422 -59.5812 0 0 53.9148 94.1265"/><path d="M 54.0437 94.2938 L 53.351 93.8871"/><path d="M 73.2834 36.4427 A 2.05 0.0568619 -152.655 0 0 76.9252 38.3261"/><path d="M 76.9252 38.3261 A 2.05 0.0568619 -152.655 0 0 76.734 38.1978"/><path d="M 76.734 38.1978 A 2.05 0.0568619 -152.655 0 0 73.2834 36.4427"/><path d="M 103.657 51.8777 L 103.198 52.7656"/><path d="M 72.2547 36.2047 L 103.657 51.8777"/><path d="M 72.2547 36.2047 L 71.9251 36.8421"/><path d="M 72.6176 45.8281 L 71.9251 36.8421"/><path d="M 100.94 53.9611 L 103.198 52.7656"/><path d="M 67.164 32.0583 L 66.7049 32.9462"/><path d="M 72.2547 36.2047 L 66.7049 32.9462"/><path d="M 101.347 54.1883 L 103.594 52.9984"/><path d="M 103.198 52.7656 L 103.594 52.9984"/><path d="M 103.594 52.9984 L 104.512 51.2225"/><path d="M 67.164 32.0583 L 98.5661 47.7312"/><path d="M 66.7049 32.9462 L 98.1069 48.6192"/><path d="M 98.5661 47.7312 L 98.1069 48.6192"/><path d="M 104.512 51.2225 L 98.5661 47.7312"/><path d="M 103.657 51.8777 L 98.1069 48.6192"/><path d="M 83.3718 41.4779 A 2.05 0.0568619 -152.655 0 0 87.0136 43.3613"/><path d="M 87.0136 43.3613 A 2.05 0.0568619 -152.655 0 0 86.8224 43.233"/><path d="M 86.8224 43.233 A 2.05 0.0568619 -152.655 0 0 83.3718 41.4779"/><path d="M 93.4602 46.5131 A 2.05 0.0568619 -152.655 0 0 97.102 48.3965"/><path d="M 97.102 48.3965 A 2.05 0.0568619 -152.655 0 0 96.9109 48.2682"/><path d="M 96.9109 48.2682 A 2.05 0.0568619 -152.655 0 0 93.4602 46.5131"/><path d="M 103.07 55.1509 A 6 5.32845 -59.5812 0 0 101.9 53.8946"/><path d="M 102.685 54.935 A 6 5.32845 -59.5812 0 0 101.832 53.9312"/><path d="M 73.161 107.17 L 72.7991 107.724"/><path d="M 72.7591 106.946 L 72.3867 107.515"/></g><g stroke="rgb(0, 0, 0)" stroke-width="0.13" stroke-linecap="butt" stroke-linejoin="miter" fill="none"><path d="M 101.145 136.76 L 100.748 136.527"/></g><g stroke="rgb(0, 0, 0)" stroke-width="0.35" stroke-linecap="butt" stroke-linejoin="miter" fill="none"><path d="M 101.145 136.76 A 6 5.32845 -59.5812 0 0 108.551 127.763"/><path d="M 100.748 136.527 A 6 5.32845 -59.5812 0 0 108.344 127.836"/><path d="M 101.145 136.76 L 93.7218 132.945"/><path d="M 100.748 136.527 L 93.7554 132.933"/></g><g stroke="rgb(0, 0, 0)" stroke-width="0.13" stroke-linecap="butt" stroke-linejoin="miter" fill="none"><path d="M 129.911 131.313 L 129.515 131.08"/></g><g stroke="rgb(0, 0, 0)" stroke-width="0.35" stroke-linecap="butt" stroke-linejoin="miter" fill="none"><path d="M 129.911 131.313 A 6 5.32845 -59.5812 0 0 131.888 120.559"/><path d="M 129.515 131.08 A 6 5.32845 -59.5812 0 0 131.492 120.327"/><path d="M 131.492 120.327 A 6 5.32845 -59.5812 0 0 127.394 119.922"/><path d="M 127.394 119.922 L 122.352 121.516"/><path d="M 92.0291 141.588 A 6 5.32845 -59.5812 0 0 96.1271 141.994"/></g><g stroke="rgb(0, 0, 0)" stroke-width="0.13" stroke-linecap="butt" stroke-linejoin="miter" fill="none"><path d="M 96.1271 141.994 L 95.7307 141.761"/></g><g stroke="rgb(0, 0, 0)" stroke-width="0.35" stroke-linecap="butt" stroke-linejoin="miter" fill="none"><path d="M 89.6383 134.372 A 6 5.32845 -59.5812 0 0 91.6327 141.356"/><path d="M 91.6327 141.356 A 6 5.32845 -59.5812 0 0 95.7307 141.761"/><path d="M 129.911 131.313 L 96.1271 141.994"/><path d="M 129.515 131.08 L 95.7307 141.761"/><path d="M 129.657 123.907 A 2 1.77615 -59.5812 0 0 127.049 126.303"/><path d="M 127.442 127.226 A 2 1.77615 -59.5812 0 0 129.467 123.776"/><path d="M 129.467 123.776 A 2 1.77615 -59.5812 0 0 126.652 126.071"/><path d="M 127.049 126.303 A 2 1.77615 -59.5812 0 0 127.649 127.328"/><path d="M 126.652 126.071 A 2 1.77615 -59.5812 0 0 127.442 127.226"/><path d="M 95.873 134.588 A 2 1.77615 -59.5812 0 0 93.2651 136.984"/><path d="M 93.6578 137.906 A 2 1.77615 -59.5812 0 0 95.6831 134.457"/><path d="M 95.6831 134.457 A 2 1.77615 -59.5812 0 0 92.8686 136.751"/><path d="M 93.2651 136.984 A 2 1.77615 -59.5812 0 0 93.8647 138.008"/><path d="M 92.8686 136.751 A 2 1.77615 -59.5812 0 0 93.6578 137.906"/><path d="M 112.765 129.247 A 2 1.77615 -59.5812 0 0 110.157 131.644"/><path d="M 110.55 132.566 A 2 1.77615 -59.5812 0 0 112.575 129.117"/><path d="M 112.575 129.117 A 2 1.77615 -59.5812 0 0 109.761 131.411"/><path d="M 110.157 131.644 A 2 1.77615 -59.5812 0 0 110.757 132.668"/><path d="M 109.761 131.411 A 2 1.77615 -59.5812 0 0 110.55 132.566"/><path d="M 118.395 127.467 A 2 1.77615 -59.5812 0 0 115.788 129.863"/><path d="M 116.18 130.786 A 2 1.77615 -59.5812 0 0 118.206 127.336"/><path d="M 118.206 127.336 A 2 1.77615 -59.5812 0 0 115.391 129.631"/><path d="M 115.788 129.863 A 2 1.77615 -59.5812 0 0 116.387 130.888"/><path d="M 115.391 129.631 A 2 1.77615 -59.5812 0 0 116.18 130.786"/><path d="M 131.888 120.559 L 131.492 120.327"/><path d="M 92.0291 141.588 L 91.6327 141.356"/><path d="M 130.072 131.259 A 4.5 3.99634 -59.5812 0 0 134.887 125.616"/><path d="M 134.887 125.616 A 4.5 3.99634 -59.5812 0 0 134.271 124.108"/><path d="M 130.281 125.113 A 2 1.77615 -59.5812 0 0 129.005 127.286"/><path d="M 129.657 123.907 A 2 1.77615 -59.5812 0 0 127.049 126.303"/><path d="M 127.049 126.303 A 2 1.77615 -59.5812 0 0 127.649 127.328"/><path d="M 119.02 128.673 A 2 1.77615 -59.5812 0 0 117.744 130.846"/><path d="M 118.395 127.467 A 2 1.77615 -59.5812 0 0 115.788 129.863"/><path d="M 115.788 129.863 A 2 1.77615 -59.5812 0 0 116.387 130.888"/><path d="M 131.232 130.849 L 130.578 131.056"/></g><g stroke="rgb(0, 0, 0)" stroke-width="0.13" stroke-linecap="butt" stroke-linejoin="miter" fill="none"><path d="M 131.232 130.849 L 131.111 130.778"/></g><g stroke="rgb(0, 0, 0)" stroke-width="0.35" stroke-linecap="butt" stroke-linejoin="miter" fill="none"><path d="M 110.566 131.066 A 4.5 3.99634 -59.5812 0 0 110.278 130.478"/><path d="M 112.938 129.408 A 2 1.77615 -59.5812 0 0 110.566 131.066"/><path d="M 110.856 132.587 A 2 1.77615 -59.5812 0 0 110.981 132.74"/><path d="M 110.855 132.704 A 4.5 3.99634 -59.5812 0 0 110.856 132.587"/><path d="M 113.325 130.108 A 2 1.77615 -59.5812 0 0 111.756 131.764"/><path d="M 111.756 131.764 L 110.566 131.066"/><path d="M 111.175 132.775 L 110.856 132.587"/><path d="M 107.556 138.38 A 4.5 3.99634 -59.5812 0 0 110.542 137.437"/><path d="M 112.318 132.522 A 4.5 3.99634 -59.5812 0 0 111.864 131.41"/><path d="M 110.459 132.354 A 4.5 3.99634 -59.5812 0 0 110.382 131.572"/><path d="M 110.382 131.572 A 4.5 3.99634 -59.5812 0 0 110.17 130.832"/></g><g stroke="rgb(0, 0, 0)" stroke-width="0.13" stroke-linecap="butt" stroke-linejoin="miter" fill="none"><path d="M 132.289 132.71 L 131.893 132.477"/></g><g stroke="rgb(0, 0, 0)" stroke-width="0.35" stroke-linecap="butt" stroke-linejoin="miter" fill="none"><path d="M 132.289 132.71 A 6 5.32845 -59.5812 0 0 134.267 121.956"/><path d="M 131.893 132.477 A 6 5.32845 -59.5812 0 0 133.871 121.723"/><path d="M 133.871 121.723 A 6 5.32845 -59.5812 0 0 132.809 121.263"/><path d="M 94.4077 142.985 A 6 5.32845 -59.5812 0 0 98.5057 143.39"/></g><g stroke="rgb(0, 0, 0)" stroke-width="0.13" stroke-linecap="butt" stroke-linejoin="miter" fill="none"><path d="M 98.5057 143.39 L 98.1092 143.157"/></g><g stroke="rgb(0, 0, 0)" stroke-width="0.35" stroke-linecap="butt" stroke-linejoin="miter" fill="none"><path d="M 94.1873 142.851 A 6 5.32845 -59.5812 0 0 98.1092 143.157"/><path d="M 132.289 132.71 L 98.5057 143.39"/><path d="M 131.893 132.477 L 98.1092 143.157"/><path d="M 130.271 125.585 A 2 1.77615 -59.5812 0 0 129.413 127.047"/><path d="M 130.281 125.113 A 2 1.77615 -59.5812 0 0 129.005 127.286"/><path d="M 96.4873 136.265 A 2 1.77615 -59.5812 0 0 95.6289 137.727"/><path d="M 96.4972 135.793 A 2 1.77615 -59.5812 0 0 95.2216 137.967"/><path d="M 113.379 130.925 A 2 1.77615 -59.5812 0 0 112.521 132.387"/><path d="M 113.39 130.453 A 2 1.77615 -59.5812 0 0 112.152 131.997"/><path d="M 119.01 129.145 A 2 1.77615 -59.5812 0 0 118.151 130.607"/><path d="M 119.02 128.673 A 2 1.77615 -59.5812 0 0 117.744 130.846"/><path d="M 134.267 121.956 L 133.871 121.723"/><path d="M 94.4077 142.985 L 94.1778 142.85"/><path d="M 107.498 140.547 L 108.28 140.949"/></g><g stroke="rgb(0, 0, 0)" stroke-width="0.13" stroke-linecap="butt" stroke-linejoin="miter" fill="none"><path d="M 108.28 140.949 L 107.884 140.717"/></g><g stroke="rgb(0, 0, 0)" stroke-width="0.35" stroke-linecap="butt" stroke-linejoin="miter" fill="none"><path d="M 107.533 140.536 L 107.884 140.717"/><path d="M 108.28 140.949 A 6 5.32845 -59.5812 0 0 115.928 137.882"/><path d="M 107.884 140.717 A 6 5.32845 -59.5812 0 0 115.303 138.08"/><path d="M 79.5907 110.761 L 79.3988 111.055"/><path d="M 79.1889 110.537 L 78.9863 110.846"/><path d="M 94.9146 142.701 A 6 5.32845 -239.581 0 0 99.3698 140.968"/></g><g stroke="rgb(0, 0, 0)" stroke-width="0.13" stroke-linecap="butt" stroke-linejoin="miter" fill="none"><path d="M 94.9146 142.701 L 95.311 142.934"/></g><g stroke="rgb(0, 0, 0)" stroke-width="0.35" stroke-linecap="butt" stroke-linejoin="miter" fill="none"><path d="M 95.311 142.934 A 6 5.32845 -239.581 0 0 100.23 140.697"/><path d="M 94.9146 142.701 L 85.1075 141.975"/></g><g stroke="rgb(0, 0, 0)" stroke-width="0.13" stroke-linecap="butt" stroke-linejoin="miter" fill="none"><path d="M 85.1075 141.975 L 85.5039 142.208"/></g><g stroke="rgb(0, 0, 0)" stroke-width="0.35" stroke-linecap="butt" stroke-linejoin="miter" fill="none"><path d="M 95.311 142.934 L 85.5039 142.208"/><path d="M 81.6198 140.896 A 10 8.88074 -239.581 0 0 85.1074 141.975"/><path d="M 79.1734 138.66 A 10 8.88074 -239.581 0 0 81.6198 140.896"/><path d="M 82.0162 141.129 A 10 8.88074 -239.581 0 0 85.5039 142.208"/><path d="M 76.6917 135.214 L 79.1734 138.66"/><path d="M 71.1226 127.48 L 72.8941 129.94"/><path d="M 65.8568 118.739 A 6 5.32845 -239.581 0 0 66.223 120.391"/><path d="M 85.6104 137.51 A 2 1.77615 -239.581 0 0 86.3633 135.515"/><path d="M 83.5415 137.767 A 2 1.77615 -239.581 0 0 85.6104 137.51"/><path d="M 82.7343 135.984 A 2 1.77615 -239.581 0 0 83.5415 137.767"/><path d="M 83.1571 136.057 A 2 1.77615 -239.581 0 0 83.7482 137.869"/><path d="M 96.1984 134.941 A 2 1.77615 -239.581 0 0 94.3321 138.12"/><path d="M 96.3294 135.171 A 2 1.77615 -239.581 0 0 94.5971 138.123"/><path d="M 81.6198 140.896 L 82.0162 141.129"/><path d="M 74.9736 108.182 A 3 2.66422 -59.5812 0 0 74.668 108.667"/><path d="M 74.5712 107.957 A 3 2.66422 -59.5812 0 0 74.2582 108.46"/><path d="M 66.1989 120.326 L 65.0217 118.691"/><path d="M 118.253 60.4491 L 117.923 61.0865"/><path d="M 115.903 62.3176 L 117.923 61.0865"/><path d="M 117.527 60.8538 L 118.316 59.3284"/><path d="M 118.316 59.3284 L 124.262 62.8197"/><path d="M 124.262 62.8197 L 123.803 63.7076"/><path d="M 118.253 60.4491 L 123.803 63.7076"/><path d="M 117.923 61.0865 L 117.527 60.8538"/><path d="M 115.497 62.0908 L 117.527 60.8538"/><path d="M 118.316 59.3284 L 104.012 52.1895"/><path d="M 123.803 63.7076 L 118.052 60.8374"/><path d="M 106.824 130.793 A 4 3.5523 -239.581 0 0 106.249 128.567"/><path d="M 107.22 131.026 A 4 3.5523 -239.581 0 0 106.43 128.505"/><path d="M 101.131 134.441 A 4 3.5523 -239.581 0 0 106.824 130.793"/><path d="M 99.8281 132.991 A 4 3.5523 -239.581 0 0 101.131 134.441"/><path d="M 101.528 134.674 A 4 3.5523 -239.581 0 0 107.22 131.026"/><path d="M 101.131 134.441 L 101.528 134.674"/><path d="M 96.4972 135.793 A 2 1.77615 -59.5812 0 0 96.0662 136.051"/><path d="M 96.4344 135.448 A 2 1.77615 -59.5812 0 0 95.6698 135.819"/><path d="M 96.0662 136.051 A 2 1.77615 -59.5812 0 0 95.2216 137.967"/><path d="M 95.6698 135.819 A 2 1.77615 -59.5812 0 0 94.8894 138.078"/><path d="M 96.4335 135.448 A 2 1.77615 -59.5812 0 0 95.3684 136.103"/><path d="M 96.3302 135.171 A 2 1.77615 -59.5812 0 0 94.972 135.87"/><path d="M 95.3684 136.103 A 2 1.77615 -59.5812 0 0 94.8894 138.078"/><path d="M 94.972 135.87 A 2 1.77615 -59.5812 0 0 94.5968 138.122"/><path d="M 96.1985 134.941 A 2 1.77615 -59.5812 0 0 94.5297 135.692"/><path d="M 96.0454 134.748 A 2 1.77615 -59.5812 0 0 94.1332 135.459"/><path d="M 94.5297 135.692 A 2 1.77615 -59.5812 0 0 94.3321 138.12"/><path d="M 94.1332 135.459 A 2 1.77615 -59.5812 0 0 94.0884 138.08"/><path d="M 93.7835 135.171 A 2 1.77615 -239.581 0 0 93.8648 138.008"/><path d="M 94.1799 135.404 A 2 1.77615 -239.581 0 0 94.0891 138.081"/><path d="M 95.8729 134.588 A 2 1.77615 -239.581 0 0 93.7835 135.171"/><path d="M 96.0446 134.748 A 2 1.77615 -239.581 0 0 94.1799 135.404"/><path d="M 101.638 133.579 A 3 2.66422 -59.5812 0 0 105.897 130.979"/><path d="M 100.258 132.756 A 3 2.66422 -59.5812 0 0 100.449 132.881"/><path d="M 100.449 132.881 A 3 2.66422 -59.5812 0 0 104.708 130.281"/><path d="M 105.897 130.979 A 3 2.66422 -59.5812 0 0 105.277 128.907"/><path d="M 104.708 130.281 A 3 2.66422 -59.5812 0 0 104.598 129.144"/><path d="M 101.144 132.113 A 2 1.77615 -59.5812 0 0 103.698 129.458"/><path d="M 101.638 133.579 L 100.449 132.881"/><path d="M 101.403 131.876 A 2 1.77615 -59.5812 0 0 103.2 129.936"/><path d="M 103.2 129.936 A 2 1.77615 -59.5812 0 0 103.206 129.63"/><path d="M 73.0854 107.286 A 5 4.44037 -59.5812 0 0 73.4453 107.329"/><path d="M 74.731 108.55 A 5 4.44037 -59.5812 0 0 76.3802 108.968"/><path d="M 141.889 78.1881 L 141.298 75.2438"/><path d="M 139.525 66.427 L 138.866 63.1459"/><path d="M 137.161 54.6658 L 136.501 51.3847"/><path d="M 134.797 42.9046 L 134.137 39.6236"/><path d="M 141.738 28.5491 A 6 5.32845 -239.581 0 0 138.874 27.903"/><path d="M 144.094 31.9548 A 6 5.32845 -239.581 0 0 141.738 28.5491"/></g><g stroke="rgb(0, 0, 0)" stroke-width="0.13" stroke-linecap="butt" stroke-linejoin="miter" fill="none"><path d="M 144.094 31.9548 L 144.49 32.1875"/></g><g stroke="rgb(0, 0, 0)" stroke-width="0.35" stroke-linecap="butt" stroke-linejoin="miter" fill="none"><path d="M 144.49 32.1876 A 6 5.32845 -239.581 0 0 142.135 28.7819"/><path d="M 147.562 49.2073 L 144.094 31.9548"/><path d="M 147.959 49.44 L 144.49 32.1875"/><path d="M 146.922 82.3348 A 2 1.77615 -239.581 0 0 146.955 82.3615"/><path d="M 147.785 78.9141 A 2 1.77615 -239.581 0 0 147.139 79.2695"/><path d="M 146.939 82.0994 A 2 1.77615 -239.581 0 0 147.179 82.4341"/><path d="M 148.181 79.1469 A 2 1.77615 -239.581 0 0 147.087 79.9964"/><path d="M 148.963 78.9412 A 2 1.77615 -239.581 0 0 147.785 78.9141"/><path d="M 149.136 79.102 A 2 1.77615 -239.581 0 0 148.181 79.1469"/><path d="M 141.253 47.3881 A 2 1.77615 -239.581 0 0 142.077 43.7595"/><path d="M 140.692 43.6306 A 2 1.77615 -239.581 0 0 140.511 43.7"/><path d="M 141.088 43.8634 A 2 1.77615 -239.581 0 0 140.594 44.1066"/><path d="M 142.077 43.7595 A 2 1.77615 -239.581 0 0 140.692 43.6306"/><path d="M 142.267 43.8905 A 2 1.77615 -239.581 0 0 141.088 43.8634"/><path d="M 143.617 59.1493 A 2 1.77615 -239.581 0 0 144.441 55.5207"/><path d="M 143.056 55.3918 A 2 1.77615 -239.581 0 0 142.876 55.4612"/><path d="M 143.453 55.6246 A 2 1.77615 -239.581 0 0 142.958 55.8677"/><path d="M 144.441 55.5207 A 2 1.77615 -239.581 0 0 143.056 55.3918"/><path d="M 144.631 55.6517 A 2 1.77615 -239.581 0 0 143.453 55.6246"/><path d="M 145.981 70.9104 A 2 1.77615 -239.581 0 0 146.806 67.2819"/><path d="M 145.42 67.153 A 2 1.77615 -239.581 0 0 145.24 67.2224"/><path d="M 145.817 67.3857 A 2 1.77615 -239.581 0 0 145.322 67.6289"/><path d="M 146.806 67.2819 A 2 1.77615 -239.581 0 0 145.42 67.153"/><path d="M 146.995 67.4128 A 2 1.77615 -239.581 0 0 145.817 67.3857"/><path d="M 141.738 28.5491 L 142.135 28.7819"/></g><g stroke="rgb(0, 0, 0)" stroke-width="0.13" stroke-linecap="butt" stroke-linejoin="miter" fill="none"><path d="M 146.415 74.8099 L 146.812 75.0426"/></g><g stroke="rgb(0, 0, 0)" stroke-width="0.35" stroke-linecap="butt" stroke-linejoin="miter" fill="none"><path d="M 137.984 81.7522 A 6 5.32845 -239.581 0 0 146.415 74.8099"/><path d="M 135.628 78.3465 A 6 5.32845 -239.581 0 0 137.984 81.7522"/><path d="M 138.38 81.9849 A 6 5.32845 -239.581 0 0 146.812 75.0426"/><path d="M 135.628 78.3465 L 126.171 31.3018"/><path d="M 126.261 28.548 A 6 5.32845 -239.581 0 0 126.171 31.3018"/><path d="M 134.603 24.3595 A 6 5.32845 -239.581 0 0 128.119 25.3821"/><path d="M 136.958 27.7652 A 6 5.32845 -239.581 0 0 134.603 24.3595"/></g><g stroke="rgb(0, 0, 0)" stroke-width="0.13" stroke-linecap="butt" stroke-linejoin="miter" fill="none"><path d="M 136.958 27.7652 L 137.355 27.998"/></g><g stroke="rgb(0, 0, 0)" stroke-width="0.35" stroke-linecap="butt" stroke-linejoin="miter" fill="none"><path d="M 137.355 27.998 A 6 5.32845 -239.581 0 0 134.999 24.5923"/><path d="M 146.415 74.8099 L 136.958 27.7652"/><path d="M 146.812 75.0426 L 137.355 27.998"/><path d="M 140.009 78.3029 A 2 1.77615 -239.581 0 0 142.034 74.8534"/><path d="M 140.649 74.7246 A 2 1.77615 -239.581 0 0 140.009 78.3029"/><path d="M 141.045 74.9573 A 2 1.77615 -239.581 0 0 140.216 78.4048"/><path d="M 142.034 74.8534 A 2 1.77615 -239.581 0 0 140.649 74.7246"/><path d="M 142.224 74.9844 A 2 1.77615 -239.581 0 0 141.045 74.9573"/><path d="M 130.552 31.2582 A 2 1.77615 -239.581 0 0 132.577 27.8088"/><path d="M 132.916 43.0194 A 2 1.77615 -239.581 0 0 134.941 39.5699"/><path d="M 133.556 39.4411 A 2 1.77615 -239.581 0 0 132.916 43.0194"/><path d="M 133.953 39.6738 A 2 1.77615 -239.581 0 0 133.123 43.1214"/><path d="M 134.941 39.5699 A 2 1.77615 -239.581 0 0 133.556 39.4411"/><path d="M 135.131 39.701 A 2 1.77615 -239.581 0 0 133.953 39.6738"/><path d="M 135.281 54.7806 A 2 1.77615 -239.581 0 0 137.306 51.3311"/><path d="M 135.921 51.2022 A 2 1.77615 -239.581 0 0 135.281 54.7806"/><path d="M 136.317 51.435 A 2 1.77615 -239.581 0 0 135.487 54.8825"/><path d="M 137.306 51.3311 A 2 1.77615 -239.581 0 0 135.921 51.2022"/><path d="M 137.496 51.4621 A 2 1.77615 -239.581 0 0 136.317 51.435"/><path d="M 137.645 66.5417 A 2 1.77615 -239.581 0 0 139.67 63.0923"/><path d="M 138.285 62.9634 A 2 1.77615 -239.581 0 0 137.645 66.5417"/><path d="M 138.681 63.1962 A 2 1.77615 -239.581 0 0 137.852 66.6437"/><path d="M 139.67 63.0923 A 2 1.77615 -239.581 0 0 138.285 62.9634"/><path d="M 139.86 63.2233 A 2 1.77615 -239.581 0 0 138.681 63.1962"/><path d="M 137.984 81.7522 L 138.38 81.9849"/><path d="M 134.603 24.3595 L 134.999 24.5923"/><path d="M 150.799 75.361 A 6 5.32845 -239.581 0 0 147.104 74.8444"/><path d="M 150.908 75.427 A 6 5.32845 -239.581 0 0 150.799 75.361"/><path d="M 153.017 83.7223 L 152.51 90.9081"/></g><g stroke="rgb(0, 0, 0)" stroke-width="0.13" stroke-linecap="butt" stroke-linejoin="miter" fill="none"><path d="M 152.51 90.9081 L 152.907 91.1409"/></g><g stroke="rgb(0, 0, 0)" stroke-width="0.35" stroke-linecap="butt" stroke-linejoin="miter" fill="none"><path d="M 153.414 83.9551 L 152.907 91.1409"/><path d="M 149.344 97.8641 A 10 8.88074 -239.581 0 0 152.51 90.9081"/></g><g stroke="rgb(0, 0, 0)" stroke-width="0.13" stroke-linecap="butt" stroke-linejoin="miter" fill="none"><path d="M 149.344 97.8641 L 149.74 98.0968"/></g><g stroke="rgb(0, 0, 0)" stroke-width="0.35" stroke-linecap="butt" stroke-linejoin="miter" fill="none"><path d="M 149.74 98.0968 A 10 8.88074 -239.581 0 0 152.907 91.1409"/><path d="M 133.101 114.372 L 149.344 97.8641"/></g><g stroke="rgb(0, 0, 0)" stroke-width="0.13" stroke-linecap="butt" stroke-linejoin="miter" fill="none"><path d="M 133.101 114.372 L 133.497 114.605"/></g><g stroke="rgb(0, 0, 0)" stroke-width="0.35" stroke-linecap="butt" stroke-linejoin="miter" fill="none"><path d="M 133.497 114.605 L 149.74 98.0968"/><path d="M 126.47 115.54 A 6 5.32845 -239.581 0 0 133.101 114.372"/><path d="M 124.218 112.566 A 6 5.32845 -239.581 0 0 126.47 115.54"/><path d="M 126.866 115.773 A 6 5.32845 -239.581 0 0 133.497 114.605"/><path d="M 148.773 78.8103 A 2 1.77615 -239.581 0 0 147.174 78.7659"/><path d="M 149.152 79.1206 A 2 1.77615 -239.581 0 0 148.773 78.8103"/><path d="M 148.963 78.9412 A 2 1.77615 -239.581 0 0 147.139 79.2691"/><path d="M 146.921 82.3476 A 2 1.77615 -239.581 0 0 149.152 79.1206"/><path d="M 146.923 82.335 A 2 1.77615 -239.581 0 0 146.955 82.3617"/><path d="M 150.799 75.361 L 150.907 75.4248"/><path d="M 126.47 115.54 L 126.866 115.773"/><path d="M 132.356 89.6437 A 10 8.88074 -239.581 0 0 135.522 82.6877"/><path d="M 135.786 78.9541 L 135.522 82.6877"/><path d="M 146.911 76.6431 A 6 5.32845 -239.581 0 0 146.812 75.0428"/></g><g stroke="rgb(0, 0, 0)" stroke-width="0.13" stroke-linecap="butt" stroke-linejoin="miter" fill="none"><path d="M 146.911 76.6431 L 147.307 76.8758"/></g><g stroke="rgb(0, 0, 0)" stroke-width="0.35" stroke-linecap="butt" stroke-linejoin="miter" fill="none"><path d="M 147.307 76.8758 A 6 5.32845 -239.581 0 0 146.496 73.4732"/><path d="M 146.911 76.6431 L 146.168 87.1841"/></g><g stroke="rgb(0, 0, 0)" stroke-width="0.13" stroke-linecap="butt" stroke-linejoin="miter" fill="none"><path d="M 146.168 87.1841 L 146.564 87.4168"/></g><g stroke="rgb(0, 0, 0)" stroke-width="0.35" stroke-linecap="butt" stroke-linejoin="miter" fill="none"><path d="M 147.307 76.8758 L 146.564 87.4168"/><path d="M 143.001 94.14 A 10 8.88074 -239.581 0 0 146.168 87.1841"/></g><g stroke="rgb(0, 0, 0)" stroke-width="0.13" stroke-linecap="butt" stroke-linejoin="miter" fill="none"><path d="M 143.001 94.14 L 143.398 94.3728"/></g><g stroke="rgb(0, 0, 0)" stroke-width="0.35" stroke-linecap="butt" stroke-linejoin="miter" fill="none"><path d="M 143.398 94.3728 A 10 8.88074 -239.581 0 0 146.564 87.4168"/><path d="M 126.758 110.648 L 143.001 94.14"/></g><g stroke="rgb(0, 0, 0)" stroke-width="0.13" stroke-linecap="butt" stroke-linejoin="miter" fill="none"><path d="M 126.758 110.648 L 127.154 110.881"/></g><g stroke="rgb(0, 0, 0)" stroke-width="0.35" stroke-linecap="butt" stroke-linejoin="miter" fill="none"><path d="M 127.154 110.881 L 143.398 94.3728"/><path d="M 120.127 111.816 A 6 5.32845 -239.581 0 0 126.758 110.648"/><path d="M 119.572 102.636 A 6 5.32845 -239.581 0 0 120.127 111.816"/><path d="M 120.523 112.049 A 6 5.32845 -239.581 0 0 127.154 110.881"/><path d="M 119.572 102.636 L 132.356 89.6437"/><path d="M 124.177 104.917 A 2 1.77615 -239.581 1 0 122.152 108.367"/><path d="M 124.556 105.228 A 2 1.77615 -239.581 0 0 124.177 104.917"/><path d="M 124.367 105.048 A 2 1.77615 -239.581 0 0 122.359 108.469"/><path d="M 122.152 108.367 A 2 1.77615 -239.581 0 0 124.556 105.228"/><path d="M 132.875 96.0777 A 2 1.77615 -239.581 1 0 130.85 99.5271"/><path d="M 133.255 96.388 A 2 1.77615 -239.581 0 0 132.875 96.0777"/><path d="M 133.065 96.2086 A 2 1.77615 -239.581 0 0 131.057 99.6291"/><path d="M 130.85 99.5271 A 2 1.77615 -239.581 0 0 133.255 96.388"/><path d="M 141.574 87.2379 A 2 1.77615 -239.581 1 0 139.548 90.6873"/><path d="M 141.953 87.5482 A 2 1.77615 -239.581 0 0 141.574 87.2379"/><path d="M 141.763 87.3688 A 2 1.77615 -239.581 0 0 139.755 90.7894"/><path d="M 139.548 90.6873 A 2 1.77615 -239.581 0 0 141.953 87.5482"/><path d="M 142.224 74.9844 A 2 1.77615 -239.581 0 0 140.216 78.405"/><path d="M 142.396 75.1451 A 2 1.77615 -239.581 0 0 140.44 78.4769"/><path d="M 120.127 111.816 L 120.523 112.049"/><path d="M 109.994 33.288 A 2.05 0.941444 -62.4615 0 0 111.666 30.0816"/><path d="M 112.172 30.0726 A 2.05 0.941444 -242.462 1 0 110.276 33.7081"/><path d="M 110.276 33.7081 A 2.05 0.941444 -242.462 0 0 112.191 30.0832"/><path d="M 112.191 30.0832 A 2.05 0.941444 -242.462 0 0 112.172 30.0726"/><path d="M 129.283 4.90144 L 130.071 5.31215"/><path d="M 110.654 39.723 L 129.283 4.90144"/><path d="M 110.654 39.723 L 111.219 40.0179"/><path d="M 127.347 37.1529 L 111.219 40.0179"/><path d="M 138.655 28.1411 L 130.071 5.31215"/><path d="M 111.616 40.2506 L 110.263 39.5451"/><path d="M 110.263 39.5451 L 104.316 36.0538"/><path d="M 104.316 36.0538 L 105.104 36.4645"/><path d="M 110.654 39.723 L 105.104 36.4645"/><path d="M 111.219 40.0179 L 111.616 40.2506"/><path d="M 139.712 30.7915 L 140.031 30.9786"/><path d="M 139.702 31.5937 L 140.031 30.9786"/><path d="M 140.031 30.9786 L 130.467 5.54491"/><path d="M 130.071 5.31215 L 130.467 5.54491"/><path d="M 127.406 37.4456 L 111.616 40.2506"/><path d="M 104.316 36.0538 L 122.946 1.23218"/><path d="M 105.104 36.4645 L 123.733 1.64288"/><path d="M 122.946 1.23218 L 123.733 1.64288"/><path d="M 129.283 4.90144 L 123.733 1.64288"/><path d="M 115.979 22.101 A 2.05 0.941444 -62.4615 0 0 117.651 18.8946"/><path d="M 121.964 10.9141 A 2.05 0.941444 -62.4615 0 0 123.636 7.70766"/><path d="M 118.157 18.8857 A 2.05 0.941444 -242.462 1 0 116.261 22.5211"/><path d="M 116.261 22.5211 A 2.05 0.941444 -242.462 0 0 118.176 18.8962"/><path d="M 118.176 18.8962 A 2.05 0.941444 -242.462 0 0 118.157 18.8857"/><path d="M 124.142 7.69867 A 2.05 0.941444 -242.462 1 0 122.246 11.3342"/><path d="M 122.246 11.3342 A 2.05 0.941444 -242.462 0 0 124.161 7.70921"/><path d="M 124.161 7.70921 A 2.05 0.941444 -242.462 0 0 124.142 7.69867"/><path d="M 139.871 29.8178 A 5 4.44037 -239.581 0 0 139.051 28.3734"/><path d="M 143.043 31.6798 A 5 4.44037 -239.581 0 0 141.232 29.4114"/><path d="M 138.752 34.9518 A 5 4.44037 -239.581 0 0 139.871 29.8178"/><path d="M 139.449 38.4131 A 5 4.44037 -239.581 0 0 143.043 31.6798"/><path d="M 138.934 28.062 L 141.232 29.4114"/><path d="M 139.648 32.004 A 5 4.44037 -239.581 0 0 137.664 27.3166"/><path d="M 138.636 34.3704 A 5 4.44037 -239.581 0 0 139.648 32.004"/><path d="M 137.033 26.9458 L 137.664 27.3166"/><path d="M 128.811 25.5977 A 2 1.77615 -59.5812 1 0 126.786 29.0471"/><path d="M 126.786 29.0471 A 2 1.77615 -59.5812 0 0 129.462 26.3212"/><path d="M 129.462 26.3212 A 2 1.77615 -59.5812 0 0 128.811 25.5977"/><path d="M 130.552 31.2582 L 126.786 29.0471"/><path d="M 132.577 27.8088 L 128.811 25.5977"/><path d="M 147.868 96.8137 A 4.5 3.99634 -59.5812 0 0 150.035 89.5043"/><path d="M 150.035 89.5043 A 4.5 3.99634 -59.5812 0 0 149.182 88.8061"/><path d="M 145.886 95.6499 A 4.5 3.99634 -59.5812 0 0 148.053 88.3406"/><path d="M 148.053 88.3406 A 4.5 3.99634 -59.5812 0 0 147.2 87.6423"/><path d="M 137.495 104.178 A 3.92038 3.48157 -59.5812 0 0 139.942 101.69"/><path d="M 149.202 95.4582 L 140.504 104.298"/></g><g stroke="rgb(0, 0, 0)" stroke-width="0.13" stroke-linecap="butt" stroke-linejoin="miter" fill="none"><path d="M 149.202 95.4582 L 148.013 94.7599"/></g><g stroke="rgb(0, 0, 0)" stroke-width="0.35" stroke-linecap="butt" stroke-linejoin="miter" fill="none"><path d="M 148.013 94.7599 L 139.315 103.6"/><path d="M 130.617 112.44 A 4.5 3.99634 -59.5812 0 0 131.985 109.777"/><path d="M 139.315 103.6 L 130.617 112.44"/><path d="M 145.452 96.0917 A 4.5 3.99634 -59.5812 0 0 148.013 94.7599"/><path d="M 140.504 104.298 L 131.806 113.138"/></g><g stroke="rgb(0, 0, 0)" stroke-width="0.13" stroke-linecap="butt" stroke-linejoin="miter" fill="none"><path d="M 131.806 113.138 L 130.617 112.44"/></g><g stroke="rgb(0, 0, 0)" stroke-width="0.35" stroke-linecap="butt" stroke-linejoin="miter" fill="none"><path d="M 127.229 114.247 A 4.5 3.99634 -59.5812 0 0 133.336 111.582"/><path d="M 125.247 113.083 A 4.5 3.99634 -59.5812 0 0 131.354 110.418"/><path d="M 149.182 88.8061 L 147.2 87.6423"/><path d="M 127.229 114.247 L 125.247 113.083"/><path d="M 125.247 113.083 A 4.5 3.99634 -59.5812 0 0 131.354 110.418"/><path d="M 124.782 112.4 A 4.5 3.99634 -59.5812 0 0 129.372 109.254"/><path d="M 124.992 106.253 A 2 1.77615 -59.5812 0 0 123.716 108.428"/><path d="M 133.69 97.4137 A 2 1.77615 -59.5812 0 0 132.414 99.5879"/><path d="M 135.513 103.014 A 3.92038 3.48157 -59.5812 0 0 137.96 100.527"/><path d="M 146.031 93.5962 L 128.635 111.276"/><path d="M 143.47 94.9279 A 4.5 3.99634 -59.5812 0 0 146.031 93.5962"/><path d="M 128.635 111.276 A 4.5 3.99634 -59.5812 0 0 130.003 108.613"/><path d="M 147.22 94.2944 L 129.824 111.974"/></g><g stroke="rgb(0, 0, 0)" stroke-width="0.13" stroke-linecap="butt" stroke-linejoin="miter" fill="none"><path d="M 129.824 111.974 L 128.635 111.276"/><path d="M 147.22 94.2944 L 146.031 93.5962"/></g><g stroke="rgb(0, 0, 0)" stroke-width="0.35" stroke-linecap="butt" stroke-linejoin="miter" fill="none"><path d="M 145.886 95.6499 A 4.5 3.99634 -59.5812 0 0 147.2 87.6423"/><path d="M 143.904 94.4861 A 4.5 3.99634 -59.5812 0 0 146.529 87.8106"/><path d="M 142.389 88.5739 A 2 1.77615 -59.5812 0 0 141.112 90.7481"/><path d="M 125.247 113.083 L 124.321 112.54"/><path d="M 147.2 87.6423 L 146.574 87.2748"/><path d="M 124.782 112.4 A 4.5 3.99634 -59.5812 0 0 129.372 109.254"/><path d="M 124.992 106.253 A 2 1.77615 -59.5812 0 0 123.716 108.428"/><path d="M 124.367 105.048 A 2 1.77615 -59.5812 0 0 122.359 108.469"/><path d="M 133.69 97.4137 A 2 1.77615 -59.5812 0 0 132.414 99.5879"/><path d="M 133.065 96.2086 A 2 1.77615 -59.5812 0 0 131.057 99.6291"/><path d="M 145.238 93.1307 L 127.842 110.81"/></g><g stroke="rgb(0, 0, 0)" stroke-width="0.13" stroke-linecap="butt" stroke-linejoin="miter" fill="none"><path d="M 127.842 110.81 L 127.45 110.58"/><path d="M 145.238 93.1307 L 144.682 92.804"/></g><g stroke="rgb(0, 0, 0)" stroke-width="0.35" stroke-linecap="butt" stroke-linejoin="miter" fill="none"><path d="M 143.904 94.4861 A 4.5 3.99634 -59.5812 0 0 146.529 87.8106"/><path d="M 142.389 88.5739 A 2 1.77615 -59.5812 0 0 141.112 90.7481"/><path d="M 141.763 87.3688 A 2 1.77615 -59.5812 0 0 139.755 90.7894"/><path d="M 147.291 67.7238 A 2.05 1.82055 -239.581 0 0 145.525 68.6426"/><path d="M 146.466 48.5637 L 149.637 50.4257"/><path d="M 146.466 48.5637 L 145.567 48.8584"/><path d="M 153.415 83.1336 L 156.587 84.9956"/><path d="M 156.587 84.9956 L 149.637 50.4257"/><path d="M 146.466 48.5637 L 153.415 83.1336"/><path d="M 154.895 84.8248 L 152.516 83.4283"/><path d="M 154.895 84.8248 L 153.316 85.3425"/><path d="M 156.587 84.9956 L 153.263 86.0851"/><path d="M 152.516 83.4283 L 153.415 83.1336"/><path d="M 140.935 75.4415 L 141.526 78.383"/><path d="M 138.489 63.2709 L 139.162 66.6218"/><path d="M 152.516 83.4283 L 145.567 48.8584"/><path d="M 144.253 56.0536 A 2.05 1.82055 -239.581 0 0 143.161 56.8814"/><path d="M 144.927 55.9626 A 2.05 1.82055 -239.581 0 0 144.253 56.0536"/><path d="M 148.981 79.5759 A 2.05 1.82055 -239.581 0 0 147.648 82.4787"/><path d="M 149.403 79.489 A 2.05 1.82055 -239.581 0 0 148.981 79.5759"/><path d="M 125.451 136.373 A 30 26.6492 -60.8173 0 0 126.423 136.887"/><path d="M 90.5545 48.1609 A 30 26.6492 -60.8173 1 0 61.2971 100.544"/><path d="M 61.2971 100.544 A 30 26.6492 -60.8173 0 0 62.2692 101.058"/><path d="M 126.423 136.887 A 30 26.6492 -60.8173 0 0 156.426 85.0478"/><path d="M 62.2692 101.058 A 30 26.6492 -60.8173 0 0 90.5545 48.1609"/><path d="M 125.451 136.373 L 123.734 135.414"/><path d="M 86.8524 114.816 L 61.2971 100.544"/><path d="M 149.467 81.0627 L 148.008 80.248"/><path d="M 141.129 76.4061 L 140.383 75.9892"/><path d="M 134.493 72.6998 L 90.5545 48.1609"/></g><g stroke="rgb(0, 0, 0)" stroke-width="0.13" stroke-linecap="butt" stroke-linejoin="miter" fill="none"><path d="M 107.383 155.079 L 106.738 155.079 L 106.738 155.503 L 108.493 155.503 L 108.493 155.079 L 107.847 155.079 L 107.847 152.426 L 108.493 152.426 L 108.493 152.003 L 106.738 152.003 L 106.738 152.426 L 107.383 152.426 L 107.383 155.079 L 107.383 155.079 z M 110.934 153.924 L 110.505 153.823 L 110.187 153.707 L 110.082 153.47 L 110.112 153.304 L 110.218 153.183 L 110.389 153.107 L 110.636 153.077 L 110.873 153.107 L 111.06 153.198 L 111.181 153.334 L 111.231 153.516 L 111.665 153.516 L 111.665 153.506 L 111.589 153.178 L 111.383 152.92 L 111.06 152.759 L 110.636 152.699 L 110.208 152.759 L 109.895 152.926 L 109.698 153.173 L 109.638 153.485 L 109.683 153.788 L 109.824 154 L 110.056 154.151 L 110.394 154.257 L 110.888 154.378 L 111.191 154.504 L 111.272 154.605 L 111.302 154.756 L 111.257 154.943 L 111.136 155.084 L 110.939 155.175 L 110.677 155.205 L 110.399 155.175 L 110.198 155.069 L 110.061 154.897 L 110.006 154.66 L 109.577 154.66 L 109.648 155.064 L 109.855 155.356 L 110.182 155.533 L 110.636 155.598 L 111.11 155.533 L 111.458 155.356 L 111.67 155.074 L 111.746 154.706 L 111.69 154.388 L 111.534 154.171 L 111.277 154.03 L 110.934 153.924 L 110.934 153.924 z M 112.512 154.151 L 112.593 154.766 L 112.825 155.22 L 113.193 155.503 L 113.687 155.598 L 114.177 155.503 L 114.545 155.225 L 114.777 154.771 L 114.863 154.151 L 114.777 153.536 L 114.545 153.077 L 114.177 152.799 L 113.687 152.699 L 113.193 152.799 L 112.825 153.082 L 112.593 153.536 L 112.512 154.151 L 112.512 154.151 z M 112.966 154.146 L 113.012 153.692 L 113.153 153.364 L 113.38 153.163 L 113.687 153.092 L 113.99 153.163 L 114.217 153.359 L 114.358 153.692 L 114.409 154.146 L 114.358 154.605 L 114.217 154.938 L 113.99 155.14 L 113.687 155.205 L 113.38 155.14 L 113.153 154.938 L 113.012 154.605 L 112.966 154.146 L 112.966 154.146 z M 115.503 155.503 L 115.911 155.503 L 115.911 153.692 L 115.937 153.42 L 116.012 153.223 L 116.128 153.107 L 116.28 153.062 L 116.401 153.102 L 116.481 153.203 L 116.522 153.374 L 116.537 153.601 L 116.537 155.503 L 116.92 155.503 L 116.92 153.692 L 116.945 153.425 L 117.021 153.228 L 117.142 153.107 L 117.293 153.062 L 117.414 153.102 L 117.495 153.203 L 117.546 153.601 L 117.546 155.503 L 117.954 155.503 L 117.954 153.632 L 117.929 153.243 L 117.848 152.946 L 117.687 152.764 L 117.424 152.699 L 117.117 152.799 L 116.88 153.092 L 116.693 152.804 L 116.381 152.699 L 116.093 152.799 L 115.896 153.082 L 115.896 152.794 L 115.503 152.794 L 115.503 155.503 L 115.503 155.503 z M 119.104 154.277 L 120.879 154.277 L 120.884 154.07 L 120.803 153.49 L 120.582 153.057 L 120.229 152.794 L 119.759 152.699 L 119.301 152.799 L 118.948 153.082 L 118.721 153.541 L 118.64 154.146 L 118.716 154.766 L 118.942 155.22 L 119.29 155.503 L 119.744 155.598 L 120.138 155.533 L 120.46 155.361 L 120.698 155.089 L 120.834 154.726 L 120.395 154.726 L 120.304 154.928 L 120.173 155.079 L 119.8 155.2 L 119.512 155.145 L 119.296 154.968 L 119.154 154.681 L 119.104 154.292 L 119.104 154.277 L 119.104 154.277 z M 119.104 153.904 L 119.159 153.556 L 119.296 153.299 L 119.502 153.142 L 119.775 153.087 L 120.042 153.142 L 120.249 153.299 L 120.375 153.556 L 120.42 153.904 L 119.104 153.904 L 119.104 153.904 z M 122.347 153.263 L 122.347 154.62 L 122.377 155.059 L 122.518 155.361 L 122.801 155.538 L 123.28 155.598 L 123.804 155.573 L 123.804 155.19 L 123.421 155.22 L 123.073 155.18 L 122.886 155.054 L 122.806 154.842 L 122.79 154.544 L 122.79 153.263 L 123.804 153.263 L 123.804 152.885 L 122.79 152.885 L 122.79 152.093 L 122.347 152.093 L 122.347 152.885 L 121.58 152.885 L 121.58 153.263 L 122.347 153.263 L 122.347 153.263 z M 124.954 155.503 L 125.398 155.503 L 125.398 153.954 L 125.443 153.581 L 125.579 153.314 L 125.801 153.152 L 126.099 153.097 L 126.321 153.132 L 126.487 153.233 L 126.588 153.405 L 126.623 153.637 L 127.072 153.637 L 127.012 153.228 L 126.845 152.936 L 126.568 152.759 L 126.19 152.699 L 125.932 152.739 L 125.71 152.84 L 125.514 153.011 L 125.357 153.243 L 125.357 152.794 L 124.954 152.794 L 124.954 155.503 L 124.954 155.503 z M 129.18 155.129 L 129.18 152.885 L 128.04 152.885 L 128.04 153.263 L 128.736 153.263 L 128.736 155.129 L 127.829 155.129 L 127.829 155.503 L 130.098 155.503 L 130.098 155.129 L 129.18 155.129 L 129.18 155.129 z M 129.195 151.882 L 128.726 151.882 L 128.726 152.386 L 129.195 152.386 L 129.195 151.882 L 129.195 151.882 z M 132.584 153.692 L 133.023 153.692 L 132.932 153.289 L 132.716 152.971 L 132.378 152.774 L 131.939 152.699 L 131.455 152.799 L 131.087 153.082 L 130.855 153.541 L 130.774 154.156 L 130.85 154.766 L 131.076 155.22 L 131.435 155.503 L 131.924 155.598 L 132.357 155.523 L 132.695 155.311 L 132.927 154.978 L 133.028 154.534 L 132.605 154.534 L 132.529 154.817 L 132.388 155.029 L 132.186 155.16 L 131.939 155.2 L 131.631 155.134 L 131.409 154.933 L 131.273 154.605 L 131.228 154.141 L 131.273 153.687 L 131.414 153.359 L 131.641 153.158 L 131.939 153.087 L 132.201 153.132 L 132.398 153.248 L 132.529 153.44 L 132.584 153.692 L 132.584 153.692 z M 137.744 155.503 L 138.213 155.503 L 139.201 152.794 L 138.742 152.794 L 137.981 154.978 L 137.204 152.794 L 136.74 152.794 L 137.744 155.503 L 137.744 155.503 z M 141.324 155.129 L 141.324 152.885 L 140.185 152.885 L 140.185 153.263 L 140.881 153.263 L 140.881 155.129 L 139.973 155.129 L 139.973 155.503 L 142.242 155.503 L 142.242 155.129 L 141.324 155.129 L 141.324 155.129 z M 141.339 151.882 L 140.87 151.882 L 140.87 152.386 L 141.339 152.386 L 141.339 151.882 L 141.339 151.882 z M 143.392 154.277 L 145.167 154.277 L 145.172 154.07 L 145.092 153.49 L 144.87 153.057 L 144.517 152.794 L 144.048 152.699 L 143.589 152.799 L 143.236 153.082 L 143.009 153.541 L 142.928 154.146 L 143.004 154.766 L 143.231 155.22 L 143.579 155.503 L 144.033 155.598 L 144.426 155.533 L 144.749 155.361 L 144.986 155.089 L 145.122 154.726 L 144.683 154.726 L 144.592 154.928 L 144.461 155.079 L 144.088 155.2 L 143.801 155.145 L 143.584 154.968 L 143.443 154.681 L 143.392 154.292 L 143.392 154.277 L 143.392 154.277 z M 143.392 153.904 L 143.448 153.556 L 143.584 153.299 L 143.79 153.142 L 144.063 153.087 L 144.33 153.142 L 144.537 153.299 L 144.663 153.556 L 144.708 153.904 L 143.392 153.904 L 143.392 153.904 z M 146.68 155.503 L 147.084 153.203 L 147.487 155.503 L 147.911 155.503 L 148.577 152.794 L 148.148 152.794 L 147.699 155.094 L 147.301 152.794 L 146.862 152.794 L 146.463 155.094 L 146.015 152.794 L 145.591 152.794 L 146.257 155.503 L 146.68 155.503 L 146.68 155.503 z" stroke="none" fill-rule="evenodd" fill="rgb(0, 0, 0)"/></g><g stroke="rgb(0, 0, 0)" stroke-width="0.13" stroke-linecap="butt" stroke-linejoin="miter" fill="none"><path d="M 106.819 160.395 L 106.36 160.395 L 106.46 160.929 L 106.713 161.323 L 107.101 161.56 L 107.625 161.645 L 108.145 161.565 L 108.533 161.343 L 108.78 160.995 L 108.871 160.536 L 108.795 160.122 L 108.584 159.855 L 108.241 159.678 L 107.782 159.547 L 107.388 159.451 L 107.131 159.341 L 106.985 159.179 L 106.94 158.927 L 106.985 158.7 L 107.116 158.529 L 107.318 158.413 L 107.595 158.372 L 107.878 158.423 L 108.1 158.559 L 108.246 158.786 L 108.316 159.093 L 108.775 159.093 L 108.775 159.083 L 108.695 158.609 L 108.458 158.256 L 108.084 158.034 L 107.58 157.959 L 107.126 158.034 L 106.773 158.246 L 106.546 158.574 L 106.466 158.998 L 106.531 159.376 L 106.723 159.633 L 107.025 159.804 L 107.439 159.936 L 107.847 160.052 L 108.155 160.163 L 108.342 160.324 L 108.407 160.586 L 108.347 160.853 L 108.19 161.055 L 107.953 161.181 L 107.646 161.222 L 107.303 161.166 L 107.04 161.005 L 106.874 160.743 L 106.819 160.395 L 106.819 160.395 z M 111.332 159.739 L 111.771 159.739 L 111.68 159.335 L 111.463 159.018 L 111.125 158.821 L 110.687 158.745 L 110.203 158.846 L 109.834 159.129 L 109.602 159.588 L 109.522 160.203 L 109.597 160.813 L 109.824 161.267 L 110.182 161.549 L 110.672 161.645 L 111.105 161.57 L 111.443 161.358 L 111.675 161.025 L 111.776 160.581 L 111.352 160.581 L 111.277 160.864 L 111.136 161.075 L 110.934 161.207 L 110.687 161.247 L 110.379 161.181 L 110.157 160.98 L 110.021 160.652 L 109.976 160.188 L 110.021 159.734 L 110.162 159.406 L 110.389 159.204 L 110.687 159.134 L 110.949 159.179 L 111.146 159.295 L 111.277 159.487 L 111.332 159.739 L 111.332 159.739 z M 114.252 161.196 L 114.252 161.212 L 114.277 161.383 L 114.353 161.504 L 114.671 161.6 L 114.918 161.56 L 114.918 161.217 L 114.812 161.232 L 114.671 161.166 L 114.646 160.964 L 114.646 159.562 L 114.585 159.204 L 114.409 158.952 L 114.101 158.801 L 113.667 158.745 L 113.244 158.806 L 112.931 158.977 L 112.734 159.245 L 112.669 159.598 L 112.669 159.628 L 113.067 159.628 L 113.102 159.416 L 113.213 159.265 L 113.395 159.174 L 113.652 159.139 L 113.899 159.164 L 114.076 159.24 L 114.182 159.371 L 114.217 159.552 L 114.197 159.764 L 114.116 159.87 L 113.914 159.92 L 113.536 159.961 L 113.102 160.052 L 112.795 160.213 L 112.613 160.465 L 112.558 160.838 L 112.608 161.171 L 112.765 161.418 L 113.017 161.575 L 113.365 161.63 L 113.834 161.524 L 114.252 161.196 L 114.252 161.196 z M 114.202 160.601 L 114.141 160.864 L 113.98 161.065 L 113.738 161.196 L 113.44 161.242 L 113.249 161.217 L 113.113 161.136 L 113.027 160.995 L 113.002 160.798 L 113.022 160.621 L 113.102 160.495 L 113.425 160.354 L 113.834 160.294 L 114.202 160.173 L 114.202 160.601 L 114.202 160.601 z M 116.562 158.302 L 116.562 161.176 L 115.649 161.176 L 115.649 161.549 L 117.914 161.549 L 117.914 161.176 L 117.006 161.176 L 117.006 157.928 L 115.866 157.928 L 115.866 158.302 L 116.562 158.302 L 116.562 158.302 z M 119.104 160.324 L 120.879 160.324 L 120.884 160.117 L 120.803 159.537 L 120.582 159.103 L 120.229 158.841 L 119.759 158.745 L 119.301 158.846 L 118.948 159.129 L 118.721 159.588 L 118.64 160.193 L 118.716 160.813 L 118.942 161.267 L 119.29 161.549 L 119.744 161.645 L 120.138 161.58 L 120.46 161.408 L 120.698 161.136 L 120.834 160.773 L 120.395 160.773 L 120.304 160.975 L 120.173 161.126 L 119.8 161.247 L 119.512 161.191 L 119.296 161.015 L 119.154 160.727 L 119.104 160.339 L 119.104 160.324 L 119.104 160.324 z M 119.104 159.951 L 119.159 159.603 L 119.296 159.346 L 119.502 159.189 L 119.775 159.134 L 120.042 159.189 L 120.249 159.346 L 120.375 159.603 L 120.42 159.951 L 119.104 159.951 L 119.104 159.951 z M 122.448 161.549 L 123.143 161.549 L 123.143 160.798 L 122.448 160.798 L 122.448 161.549 L 122.448 161.549 z M 122.448 159.593 L 123.143 159.593 L 123.143 158.841 L 122.448 158.841 L 122.448 159.593 L 122.448 159.593 z" stroke="none" fill-rule="evenodd" fill="rgb(0, 0, 0)"/></g><g stroke="rgb(0, 0, 0)" stroke-width="0.13" stroke-linecap="butt" stroke-linejoin="miter" fill="none"><path d="M 131.813 161.549 L 132.272 161.549 L 132.272 158.024 L 131.929 158.024 L 131.838 158.332 L 131.656 158.539 L 131.379 158.66 L 130.996 158.7 L 130.996 159.058 L 131.813 159.058 L 131.813 161.549 L 131.813 161.549 z M 134.592 161.549 L 135.288 161.549 L 135.288 160.798 L 134.592 160.798 L 134.592 161.549 L 134.592 161.549 z M 134.592 159.593 L 135.288 159.593 L 135.288 158.841 L 134.592 158.841 L 134.592 159.593 L 134.592 159.593 z M 137.885 161.549 L 138.344 161.549 L 138.344 158.024 L 138.001 158.024 L 137.91 158.332 L 137.729 158.539 L 137.451 158.66 L 137.068 158.7 L 137.068 159.058 L 137.885 159.058 L 137.885 161.549 L 137.885 161.549 z" stroke="none" fill-rule="evenodd" fill="rgb(0, 0, 0)"/></g></svg>