<?xml version="1.0" encoding="utf-8" ?><!DOCTYPE svg PUBLIC "-//W3C//DTD SVG 1.1//EN" "http://www.w3.org/Graphics/SVG/1.1/DTD/svg11.dtd" 
[ <!ATTLIST svg 
  xmlns:dsy CDATA #FIXED "http://www.3ds.com/print"  
    dsy:text-version CDATA #IMPLIED > 

  <!ATTLIST text 
  xmlns:dsy CDATA #FIXED "http://www.3ds.com/print" 
    dsy:text-version CDATA #IMPLIED > 
]><svg xmlns="http://www.w3.org/2000/svg" xmlns:dsy="http://www.3ds.com/print" dsy:text-version="18000" width="1189" height="841" viewBox="0 0 1189 841" version="1.1"><g stroke="rgb(0, 0, 0)" stroke-width="0.35" stroke-linecap="butt" stroke-linejoin="miter" fill="none"><path d="M 609.585 386.631 A 6 5.05945 -175.678 0 0 609.498 385.39"/><path d="M 606.754 381.94 A 6 5.05945 -175.678 0 0 599.163 382.679"/></g><g stroke="rgb(0, 0, 0)" stroke-width="0.13" stroke-linecap="butt" stroke-linejoin="miter" fill="none"><path d="M 599.163 382.679 L 599.122 383.215"/></g><g stroke="rgb(0, 0, 0)" stroke-width="0.35" stroke-linecap="butt" stroke-linejoin="miter" fill="none"><path d="M 608.001 390.215 A 6 5.05945 -175.678 0 0 609.545 387.167"/><path d="M 609.545 387.167 A 6 5.05945 -175.678 0 0 609.091 384.878"/><path d="M 607.729 383.165 A 6 5.05945 -175.678 0 0 599.122 383.215"/><path d="M 599.163 382.679 L 557.193 420.824"/></g><g stroke="rgb(0, 0, 0)" stroke-width="0.13" stroke-linecap="butt" stroke-linejoin="miter" fill="none"><path d="M 557.193 420.824 L 557.152 421.36"/></g><g stroke="rgb(0, 0, 0)" stroke-width="0.35" stroke-linecap="butt" stroke-linejoin="miter" fill="none"><path d="M 599.122 383.215 L 557.152 421.36"/><path d="M 557.193 420.824 A 6 5.05945 -175.678 0 0 555.649 423.871"/><path d="M 557.152 421.36 A 6 5.05945 -175.678 0 0 555.609 424.407"/><path d="M 608.001 390.215 L 569.639 425.079"/><path d="M 601.613 386.298 A 2 1.68646 -175.678 0 0 602.259 387.399"/><path d="M 605.556 386.866 A 2 1.68646 -175.678 0 0 601.567 386.564"/><path d="M 601.567 386.564 A 2 1.68646 -175.678 0 0 602.219 387.935"/><path d="M 602.259 387.399 A 2 1.68646 -175.678 0 0 605.551 386.595"/><path d="M 602.219 387.935 A 2 1.68646 -175.678 0 0 605.556 386.866"/><path d="M 559.701 424.717 A 2 1.68646 -175.678 0 0 560.289 425.544"/><path d="M 559.602 424.978 A 2 1.68646 -175.678 0 0 560.248 426.08"/><path d="M 560.289 425.544 A 2 1.68646 -175.678 0 0 563.482 425.002"/><path d="M 560.248 426.08 A 2 1.68646 -175.678 0 0 563.54 425.275"/><path d="M 576.431 409.184 A 2 1.68646 -175.678 0 0 577.077 410.286"/><path d="M 580.374 409.752 A 2 1.68646 -175.678 0 0 576.385 409.451"/><path d="M 576.385 409.451 A 2 1.68646 -175.678 0 0 577.036 410.822"/><path d="M 577.077 410.286 A 2 1.68646 -175.678 0 0 580.369 409.482"/><path d="M 577.036 410.822 A 2 1.68646 -175.678 0 0 580.374 409.752"/><path d="M 584.825 401.555 A 2 1.68646 -175.678 0 0 585.471 402.657"/><path d="M 588.768 402.123 A 2 1.68646 -175.678 0 0 584.779 401.822"/><path d="M 584.779 401.822 A 2 1.68646 -175.678 0 0 585.431 403.193"/><path d="M 585.471 402.657 A 2 1.68646 -175.678 0 0 588.763 401.853"/><path d="M 585.431 403.193 A 2 1.68646 -175.678 0 0 588.768 402.123"/><path d="M 597.162 394.494 A 2 1.68646 -175.678 0 0 593.173 394.193"/><path d="M 609.585 386.631 L 609.545 387.167"/><path d="M 555.649 423.871 L 555.609 424.407"/><path d="M 601.16 458.142 A 6 5.05945 -175.678 0 0 599.669 454.434"/></g><g stroke="rgb(0, 0, 0)" stroke-width="0.13" stroke-linecap="butt" stroke-linejoin="miter" fill="none"><path d="M 599.669 454.434 L 599.629 454.97"/></g><g stroke="rgb(0, 0, 0)" stroke-width="0.35" stroke-linecap="butt" stroke-linejoin="miter" fill="none"><path d="M 590.644 461.481 A 6 5.05945 -175.678 0 0 601.119 458.678"/><path d="M 601.119 458.678 A 6 5.05945 -175.678 0 0 599.629 454.97"/><path d="M 599.669 454.434 L 566.084 421.604"/></g><g stroke="rgb(0, 0, 0)" stroke-width="0.13" stroke-linecap="butt" stroke-linejoin="miter" fill="none"><path d="M 566.084 421.604 L 566.043 422.14"/></g><g stroke="rgb(0, 0, 0)" stroke-width="0.35" stroke-linecap="butt" stroke-linejoin="miter" fill="none"><path d="M 599.629 454.97 L 566.043 422.14"/><path d="M 566.084 421.604 A 6 5.05945 -175.678 0 0 555.608 424.407"/><path d="M 566.043 422.14 A 6 5.05945 -175.678 0 0 555.568 424.943"/><path d="M 555.568 424.943 A 6 5.05945 -175.678 0 0 557.059 428.651"/><path d="M 590.644 461.481 L 557.059 428.651"/><path d="M 559.602 424.978 A 2 1.68646 -175.678 0 0 563.54 425.276"/><path d="M 559.557 425.244 A 2 1.68646 -175.678 0 0 563.545 425.546"/><path d="M 563.545 425.546 A 2 1.68646 -175.678 0 0 560.228 424.102"/><path d="M 560.228 424.102 A 2 1.68646 -175.678 0 0 559.557 425.244"/><path d="M 567.999 433.186 A 2 1.68646 -175.678 0 0 571.936 433.483"/><path d="M 567.953 433.452 A 2 1.68646 -175.678 0 0 571.942 433.754"/><path d="M 571.942 433.754 A 2 1.68646 -175.678 0 0 568.624 432.309"/><path d="M 568.624 432.309 A 2 1.68646 -175.678 0 0 567.953 433.452"/><path d="M 576.395 441.393 A 2 1.68646 -175.678 0 0 580.333 441.691"/><path d="M 576.349 441.66 A 2 1.68646 -175.678 0 0 580.338 441.961"/><path d="M 580.338 441.961 A 2 1.68646 -175.678 0 0 577.02 440.517"/><path d="M 577.02 440.517 A 2 1.68646 -175.678 0 0 576.349 441.66"/><path d="M 584.791 449.601 A 2 1.68646 -175.678 0 0 588.729 449.899"/><path d="M 584.746 449.867 A 2 1.68646 -175.678 0 0 588.734 450.169"/><path d="M 588.734 450.169 A 2 1.68646 -175.678 0 0 585.417 448.725"/><path d="M 585.417 448.725 A 2 1.68646 -175.678 0 0 584.746 449.867"/><path d="M 601.16 458.142 L 601.119 458.678"/><path d="M 555.608 424.407 L 555.568 424.943"/><path d="M 624.914 456.934 A 6 5.05945 -175.678 0 0 621.103 454.581"/></g><g stroke="rgb(0, 0, 0)" stroke-width="0.13" stroke-linecap="butt" stroke-linejoin="miter" fill="none"><path d="M 621.103 454.581 L 621.063 455.117"/></g><g stroke="rgb(0, 0, 0)" stroke-width="0.35" stroke-linecap="butt" stroke-linejoin="miter" fill="none"><path d="M 618.508 464.956 A 6 5.05945 -175.678 0 0 624.653 463.098"/><path d="M 624.887 457.489 A 6 5.05945 -175.678 0 0 621.063 455.117"/><path d="M 621.103 454.581 L 594.137 449.027"/><path d="M 621.063 455.117 L 594.843 449.717"/><path d="M 578.096 449.216 A 6 5.05945 -175.678 0 0 577.234 451.508"/><path d="M 578.314 449.428 A 6 5.05945 -175.678 0 0 577.193 452.044"/><path d="M 577.193 452.044 A 6 5.05945 -175.678 0 0 581.899 457.416"/><path d="M 587.71 458.613 L 581.899 457.416"/><path d="M 618.508 464.956 L 600.106 461.166"/><path d="M 617.791 459.886 A 2 1.68646 -175.678 1 0 621.779 460.187"/><path d="M 621.779 460.187 A 2 1.68646 -175.678 0 0 617.833 459.634"/><path d="M 617.836 459.619 A 2 1.68646 -175.678 0 0 621.774 459.917"/><path d="M 617.833 459.634 A 2 1.68646 -175.678 0 0 617.791 459.886"/><path d="M 581.277 452.324 A 2 1.68646 -175.678 0 0 582.5 453.52"/><path d="M 581.194 452.243 A 2 1.68646 -175.678 0 0 581.182 452.346"/><path d="M 581.182 452.346 A 2 1.68646 -175.678 0 0 583.18 454.184"/><path d="M 601.17 457.927 A 2 1.68646 -175.678 0 0 603.475 456.417"/><path d="M 603.475 456.417 A 2 1.68646 -175.678 0 0 600.154 454.975"/><path d="M 601.149 457.381 A 2 1.68646 -175.678 0 0 603.47 456.147"/><path d="M 605.588 457.372 A 2 1.68646 -175.678 1 0 609.576 457.674"/><path d="M 609.576 457.674 A 2 1.68646 -175.678 0 0 605.63 457.121"/><path d="M 605.634 457.106 A 2 1.68646 -175.678 0 0 609.571 457.404"/><path d="M 605.63 457.121 A 2 1.68646 -175.678 0 0 605.588 457.372"/><path d="M 577.234 451.508 L 577.193 452.044"/><path d="M 624.485 456.415 A 4.5 3.79456 -175.678 0 0 618.61 453.185"/><path d="M 619.322 458.384 A 2 1.68646 -175.678 0 0 620.491 458.472"/><path d="M 617.836 459.619 A 2 1.68646 -175.678 0 0 621.774 459.917"/><path d="M 609.262 451.26 A 3.92035 3.30579 -175.678 0 0 608.036 451.008"/><path d="M 607.119 455.871 A 2 1.68646 -175.678 0 0 608.288 455.959"/><path d="M 605.634 457.106 A 2 1.68646 -175.678 0 0 609.571 457.404"/><path d="M 601.053 456.816 A 2 1.68646 -175.678 0 0 603.411 455.873"/><path d="M 596.54 448.64 L 620.946 453.667"/><path d="M 600.377 454.835 A 2 1.68646 -175.678 0 0 602.787 455.017"/></g><g stroke="rgb(0, 0, 0)" stroke-width="0.13" stroke-linecap="butt" stroke-linejoin="miter" fill="none"><path d="M 620.946 453.667 L 620.88 454.535"/><path d="M 596.54 448.64 L 596.474 449.508"/></g><g stroke="rgb(0, 0, 0)" stroke-width="0.35" stroke-linecap="butt" stroke-linejoin="miter" fill="none"><path d="M 598.689 449.083 A 4.5 3.79456 -175.678 0 0 593.497 448.401"/><path d="M 625.323 453.96 A 6 5.05945 -175.678 0 0 621.346 451.365"/></g><g stroke="rgb(0, 0, 0)" stroke-width="0.13" stroke-linecap="butt" stroke-linejoin="miter" fill="none"><path d="M 621.346 451.365 L 621.306 451.901"/></g><g stroke="rgb(0, 0, 0)" stroke-width="0.35" stroke-linecap="butt" stroke-linejoin="miter" fill="none"><path d="M 625.048 454.161 A 6 5.05945 -175.678 0 0 621.306 451.901"/><path d="M 621.346 451.365 L 589.904 444.889"/><path d="M 621.306 451.901 L 590.61 445.579"/><path d="M 619.322 458.384 A 2 1.68646 -175.678 0 0 620.491 458.472"/><path d="M 601.018 454.614 A 2 1.68646 -175.678 0 0 602.187 454.702"/><path d="M 607.119 455.871 A 2 1.68646 -175.678 0 0 608.288 455.959"/><path d="M 601.82 447.343 A 6 5.05945 -175.678 0 0 600.398 444.786"/></g><g stroke="rgb(0, 0, 0)" stroke-width="0.13" stroke-linecap="butt" stroke-linejoin="miter" fill="none"><path d="M 600.398 444.786 L 600.358 445.322"/></g><g stroke="rgb(0, 0, 0)" stroke-width="0.35" stroke-linecap="butt" stroke-linejoin="miter" fill="none"><path d="M 601.627 447.303 A 6 5.05945 -175.678 0 0 600.358 445.322"/><path d="M 575.132 420.088 L 600.398 444.786"/><path d="M 574.827 420.365 L 600.358 445.322"/><path d="M 560.39 415.604 A 2 1.68646 -175.678 0 0 560.578 415.999"/><path d="M 560.291 415.866 A 2 1.68646 -175.678 0 0 560.404 416.288"/><path d="M 585.52 439.953 A 2 1.68646 -175.678 0 0 588.833 441.128"/><path d="M 589.463 440.521 A 2 1.68646 -175.678 1 0 585.475 440.219"/><path d="M 585.475 440.219 A 2 1.68646 -175.678 0 0 585.493 440.576"/><path d="M 586.932 441.984 A 2 1.68646 -175.678 0 0 588.792 441.664"/><path d="M 588.833 441.128 A 2 1.68646 -175.678 0 0 589.458 440.251"/><path d="M 588.792 441.664 A 2 1.68646 -175.678 0 0 589.463 440.521"/><path d="M 577.124 431.745 A 2 1.68646 -175.678 0 0 580.437 432.92"/><path d="M 581.067 432.313 A 2 1.68646 -175.678 1 0 577.078 432.012"/><path d="M 577.078 432.012 A 2 1.68646 -175.678 0 0 577.096 432.369"/><path d="M 578.536 433.777 A 2 1.68646 -175.678 0 0 580.396 433.456"/><path d="M 580.437 432.92 A 2 1.68646 -175.678 0 0 581.062 432.043"/><path d="M 580.396 433.456 A 2 1.68646 -175.678 0 0 581.067 432.313"/><path d="M 569.825 424.91 A 2 1.68646 -175.678 0 0 572.04 424.712"/><path d="M 570.14 425.569 A 2 1.68646 -175.678 0 0 572 425.248"/><path d="M 572.04 424.712 A 2 1.68646 -175.678 0 0 572.666 423.835"/><path d="M 572 425.248 A 2 1.68646 -175.678 0 0 572.671 424.106"/><path d="M 572.671 424.106 A 2 1.68646 -175.678 0 0 572.124 422.822"/><path d="M 596.341 377.257 L 561.198 409.196"/><path d="M 595.947 378.114 L 562.013 408.955"/><path d="M 579.434 408.191 L 577.105 410.307"/><path d="M 587.828 400.562 L 585.499 402.679"/><path d="M 560.291 415.866 A 2 1.68646 -175.678 0 0 560.404 416.288"/><path d="M 560.546 415.35 A 2 1.68646 -175.678 0 0 560.245 416.132"/><path d="M 560.245 416.132 A 2 1.68646 -175.678 0 0 560.258 416.457"/><path d="M 577.079 400.608 A 2 1.68646 -175.678 0 0 577.725 401.71"/><path d="M 580.344 399.784 A 2 1.68646 -175.678 0 0 577.033 400.875"/><path d="M 577.033 400.875 A 2 1.68646 -175.678 0 0 577.657 402.224"/><path d="M 577.725 401.71 A 2 1.68646 -175.678 0 0 578.014 401.9"/><path d="M 585.473 392.979 A 2 1.68646 -175.678 0 0 586.119 394.081"/><path d="M 588.738 392.155 A 2 1.68646 -175.678 0 0 585.427 393.246"/><path d="M 585.427 393.246 A 2 1.68646 -175.678 0 0 586.051 394.595"/><path d="M 586.119 394.081 A 2 1.68646 -175.678 0 0 586.408 394.271"/><path d="M 576.413 441.334 A 10 8.43243 -355.678 0 0 578.165 442.947"/><path d="M 576.593 440.96 A 10 8.43243 -355.678 0 0 578.959 442.903"/><path d="M 577.554 454.132 L 570.958 451.48"/><path d="M 565.717 446.661 A 10 8.43243 -355.678 0 0 570.958 451.48"/><path d="M 558.216 429.782 L 565.717 446.661"/><path d="M 563.365 424.727 A 2 1.68646 -355.678 0 0 561.116 425.943"/><path d="M 565.742 437.139 A 2 1.68646 -355.678 0 0 566.295 437.68"/><path d="M 573.904 446.46 A 2 1.68646 -355.678 0 0 569.915 446.158"/><path d="M 572.618 447.903 A 2 1.68646 -355.678 0 0 573.904 446.46"/><path d="M 572.658 447.367 A 2 1.68646 -355.678 0 0 573.899 446.19"/><path d="M 569.915 446.158 A 2 1.68646 -355.678 0 0 572.618 447.903"/><path d="M 569.961 445.892 A 2 1.68646 -355.678 0 0 572.658 447.367"/><path d="M 572.285 407.107 A 6 5.05945 -175.678 0 0 568.266 407.089"/></g><g stroke="rgb(0, 0, 0)" stroke-width="0.13" stroke-linecap="butt" stroke-linejoin="miter" fill="none"><path d="M 568.266 407.089 L 568.225 407.625"/></g><g stroke="rgb(0, 0, 0)" stroke-width="0.35" stroke-linecap="butt" stroke-linejoin="miter" fill="none"><path d="M 571.821 407.53 A 6 5.05945 -175.678 0 0 568.225 407.625"/><path d="M 555.653 410.853 L 568.266 407.089"/></g><g stroke="rgb(0, 0, 0)" stroke-width="0.13" stroke-linecap="butt" stroke-linejoin="miter" fill="none"><path d="M 555.653 410.853 L 555.612 411.389"/></g><g stroke="rgb(0, 0, 0)" stroke-width="0.35" stroke-linecap="butt" stroke-linejoin="miter" fill="none"><path d="M 555.612 411.389 L 568.225 407.625"/><path d="M 555.653 410.853 A 5 4.21619 -175.678 0 0 552.437 414.46"/><path d="M 555.612 411.389 A 5 4.21619 -175.678 0 0 552.397 414.996"/><path d="M 552.397 414.996 A 5 4.21619 -175.678 0 0 552.711 416.767"/><path d="M 555.696 423.484 L 552.711 416.767"/><path d="M 561.207 425.708 A 2 1.68646 -175.678 0 0 561.324 425.984"/><path d="M 556.722 415.474 A 2 1.68646 -175.678 0 0 560.66 415.772"/><path d="M 556.677 415.74 A 2 1.68646 -175.678 0 0 560.665 416.042"/><path d="M 560.665 416.042 A 2 1.68646 -175.678 0 0 557.963 414.297"/><path d="M 557.963 414.297 A 2 1.68646 -175.678 0 0 556.677 415.74"/><path d="M 552.437 414.46 L 552.397 414.996"/><path d="M 599.084 459.063 A 4 3.37299 -355.678 1 0 591.107 458.46"/><path d="M 598.872 459.95 A 4 3.37299 -355.678 0 0 599.084 459.063"/><path d="M 599.125 458.527 A 4 3.37299 -355.678 1 0 591.148 457.924"/><path d="M 597.781 461.321 A 4 3.37299 -355.678 0 0 598.872 459.95"/><path d="M 591.107 458.46 A 4 3.37299 -355.678 0 0 592.057 460.888"/><path d="M 599.084 459.063 L 599.125 458.527"/><path d="M 591.107 458.46 L 591.148 457.924"/><path d="M 581.277 452.324 A 2 1.68646 -355.678 0 0 582.499 453.52"/><path d="M 598.087 458.988 A 3 2.52972 -175.678 0 0 592.104 458.536"/><path d="M 597.966 460.596 A 3 2.52972 -175.678 0 0 591.983 460.144"/><path d="M 591.983 460.144 A 3 2.52972 -175.678 0 0 597.753 461.38"/><path d="M 597.753 461.38 A 3 2.52972 -175.678 0 0 597.966 460.596"/><path d="M 596.969 460.52 A 2 1.68646 -175.678 0 0 593.122 459.696"/><path d="M 593.122 459.696 A 2 1.68646 -175.678 0 0 592.98 460.219"/><path d="M 592.104 458.536 L 591.983 460.144"/><path d="M 598.087 458.988 L 597.966 460.596"/><path d="M 596.908 461.324 A 2 1.68646 -175.678 0 0 592.919 461.023"/><path d="M 592.919 461.023 A 2 1.68646 -175.678 0 0 596.766 461.848"/><path d="M 596.766 461.848 A 2 1.68646 -175.678 0 0 596.908 461.324"/><path d="M 592.98 460.219 L 592.919 461.023"/><path d="M 596.969 460.52 L 596.908 461.324"/><path d="M 571.037 408.242 A 5 4.21619 -175.678 0 0 565.364 412.03"/><path d="M 565.364 412.03 L 565.253 413.498"/><path d="M 573.964 405.581 A 5 4.21619 -175.678 0 0 565.706 407.854"/><path d="M 571.716 420.865 A 2 1.68646 -175.678 0 0 567.728 420.564"/><path d="M 567.728 420.564 A 2 1.68646 -175.678 0 0 571.428 421.63"/><path d="M 571.428 421.63 A 2 1.68646 -175.678 0 0 571.716 420.865"/><path d="M 567.829 419.224 L 567.728 420.564"/><path d="M 571.818 419.525 L 571.716 420.865"/><path d="M 573.974 417.532 A 4 3.37299 -175.678 0 0 565.997 416.929"/><path d="M 573.934 418.068 A 4 3.37299 -175.678 0 0 565.956 417.465"/><path d="M 565.956 417.465 A 4 3.37299 -175.678 0 0 566.906 419.893"/><path d="M 572.63 420.326 A 4 3.37299 -175.678 0 0 573.358 419.598"/><path d="M 573.358 419.598 A 4 3.37299 -175.678 0 0 573.934 418.068"/><path d="M 565.997 416.929 L 565.956 417.465"/><path d="M 573.974 417.532 L 573.934 418.068"/><path d="M 572.936 417.993 A 3 2.52972 -175.678 0 0 566.954 417.54"/><path d="M 572.815 419.601 A 3 2.52972 -175.678 0 0 566.832 419.148"/><path d="M 566.832 419.148 A 3 2.52972 -175.678 0 0 567.833 421.224"/><path d="M 571.514 421.502 A 3 2.52972 -175.678 0 0 572.383 420.748"/><path d="M 572.383 420.748 A 3 2.52972 -175.678 0 0 572.815 419.601"/><path d="M 571.818 419.525 A 2 1.68646 -175.678 0 0 568.117 418.459"/><path d="M 568.117 418.459 A 2 1.68646 -175.678 0 0 567.829 419.224"/><path d="M 566.953 417.54 L 566.832 419.148"/><path d="M 572.936 417.992 L 572.815 419.601"/><path d="M 596.896 398.012 A 2 1.68646 -175.678 0 0 592.907 397.711"/><path d="M 592.907 397.711 A 2 1.68646 -175.678 0 0 596.723 398.597"/><path d="M 596.723 398.597 A 2 1.68646 -175.678 0 0 596.896 398.012"/><path d="M 593.173 394.193 L 592.908 397.711"/><path d="M 597.162 394.494 L 596.896 398.012"/><path d="M 607.107 377.292 A 2.04999 0.678711 -299.072 0 0 605.115 373.708"/><path d="M 605.115 373.708 A 2.04999 0.678711 -299.072 0 0 604.955 374.047"/><path d="M 606.415 377.018 A 2.04999 0.678711 -119.072 0 0 604.982 374.44"/><path d="M 604.955 374.047 A 2.04999 0.678711 -299.072 0 0 607.107 377.292"/><path d="M 601.591 367.236 L 600.999 367.565"/><path d="M 592.478 386.114 L 600.999 367.565"/><path d="M 603.66 394.16 L 617.339 395.242"/><path d="M 601.04 367.029 L 602.456 366.241"/><path d="M 602.456 366.241 L 601.849 374.281"/><path d="M 601.849 374.281 L 601.024 374.74"/><path d="M 601.591 367.236 L 601.024 374.74"/><path d="M 600.999 367.565 L 601.04 367.029"/><path d="M 592.177 386.321 L 601.04 367.029"/><path d="M 602.456 366.241 L 624.738 394.241"/><path d="M 601.849 374.281 L 624.13 402.281"/><path d="M 601.024 374.74 L 623.305 402.74"/><path d="M 624.13 402.281 L 623.305 402.74"/><path d="M 624.738 394.241 L 624.13 402.281"/><path d="M 614.265 386.287 A 2.04999 0.678711 -299.072 0 0 612.273 382.704"/><path d="M 612.273 382.704 A 2.04999 0.678711 -299.072 0 0 612.113 383.042"/><path d="M 612.113 383.042 A 2.04999 0.678711 -299.072 0 0 614.265 386.287"/><path d="M 621.424 395.282 A 2.04999 0.678711 -299.072 0 0 619.432 391.699"/><path d="M 619.432 391.699 A 2.04999 0.678711 -299.072 0 0 619.271 392.037"/><path d="M 619.271 392.037 A 2.04999 0.678711 -299.072 0 0 621.424 395.282"/><path d="M 613.573 386.013 A 2.04999 0.678711 -119.072 0 0 612.14 383.436"/><path d="M 620.732 395.009 A 2.04999 0.678711 -119.072 0 0 619.298 392.431"/><path d="M 596.219 385.355 A 5 4.21619 -175.678 0 0 590.547 389.143"/><path d="M 590.547 389.143 L 590.436 390.611"/><path d="M 615.998 372.713 A 6 5.05945 -175.678 0 0 608.157 367.406"/></g><g stroke="rgb(0, 0, 0)" stroke-width="0.13" stroke-linecap="butt" stroke-linejoin="miter" fill="none"><path d="M 608.157 367.406 L 608.116 367.942"/></g><g stroke="rgb(0, 0, 0)" stroke-width="0.35" stroke-linecap="butt" stroke-linejoin="miter" fill="none"><path d="M 611.833 377.651 A 6 5.05945 -175.678 0 0 615.958 373.249"/><path d="M 615.958 373.249 A 6 5.05945 -175.678 0 0 608.116 367.942"/><path d="M 608.157 367.406 L 604.185 368.413"/><path d="M 599.905 369.499 L 548.785 382.467"/></g><g stroke="rgb(0, 0, 0)" stroke-width="0.13" stroke-linecap="butt" stroke-linejoin="miter" fill="none"><path d="M 548.785 382.467 L 548.744 383.003"/></g><g stroke="rgb(0, 0, 0)" stroke-width="0.35" stroke-linecap="butt" stroke-linejoin="miter" fill="none"><path d="M 608.116 367.942 L 604.533 368.851"/><path d="M 599.632 370.094 L 548.744 383.003"/><path d="M 548.785 382.467 A 6 5.05945 -175.678 0 0 545.317 384.882"/><path d="M 548.744 383.003 A 6 5.05945 -175.678 0 0 546.743 383.899"/><path d="M 589.741 383.255 L 554.707 392.142"/><path d="M 611.833 377.651 L 611.586 377.714"/><path d="M 608.026 372.379 A 2 1.68646 -175.678 0 0 608.115 372.742"/><path d="M 611.969 372.947 A 2 1.68646 -175.678 0 0 607.98 372.645"/><path d="M 607.98 372.645 A 2 1.68646 -175.678 0 0 608.075 373.278"/><path d="M 608.115 372.742 A 2 1.68646 -175.678 0 0 611.964 372.677"/><path d="M 608.075 373.278 A 2 1.68646 -175.678 0 0 608.094 373.325"/><path d="M 608.663 374.041 A 2 1.68646 -175.678 0 0 611.969 372.947"/><path d="M 548.713 387.714 A 2 1.68646 -175.678 0 0 548.744 387.803"/><path d="M 548.614 387.976 A 2 1.68646 -175.678 0 0 548.703 388.339"/><path d="M 548.744 387.803 A 2 1.68646 -175.678 0 0 552.494 388"/><path d="M 548.703 388.339 A 2 1.68646 -175.678 0 0 552.552 388.274"/><path d="M 572.403 381.416 A 2 1.68646 -175.678 0 0 572.492 381.779"/><path d="M 576.346 381.984 A 2 1.68646 -175.678 0 0 572.357 381.682"/><path d="M 572.357 381.682 A 2 1.68646 -175.678 0 0 572.452 382.315"/><path d="M 572.492 381.779 A 2 1.68646 -175.678 0 0 576.341 381.713"/><path d="M 572.452 382.315 A 2 1.68646 -175.678 0 0 576.346 381.984"/><path d="M 584.277 378.404 A 2 1.68646 -175.678 0 0 584.367 378.767"/><path d="M 588.22 378.971 A 2 1.68646 -175.678 0 0 584.232 378.67"/><path d="M 584.232 378.67 A 2 1.68646 -175.678 0 0 584.326 379.303"/><path d="M 584.367 378.767 A 2 1.68646 -175.678 0 0 588.215 378.701"/><path d="M 584.326 379.303 A 2 1.68646 -175.678 0 0 588.22 378.971"/><path d="M 597.774 374.136 A 2 1.68646 -175.678 0 0 596.106 375.658"/><path d="M 615.998 372.713 L 615.958 373.249"/></g><g stroke="rgb(0, 0, 0)" stroke-width="0.13" stroke-linecap="butt" stroke-linejoin="miter" fill="none"><path d="M 507.935 410.635 L 507.894 411.171"/></g><g stroke="rgb(0, 0, 0)" stroke-width="0.35" stroke-linecap="butt" stroke-linejoin="miter" fill="none"><path d="M 507.935 410.635 A 6 5.05945 -175.678 0 0 505.812 414.141"/><path d="M 507.894 411.171 A 6 5.05945 -175.678 0 0 505.771 414.677"/><path d="M 505.771 414.677 A 6 5.05945 -175.678 0 0 515.614 419.088"/><path d="M 515.614 419.088 L 554.422 392.352"/><path d="M 556.586 388.31 A 6 5.05945 -175.678 0 0 546.743 383.899"/></g><g stroke="rgb(0, 0, 0)" stroke-width="0.13" stroke-linecap="butt" stroke-linejoin="miter" fill="none"><path d="M 546.743 383.899 L 546.703 384.435"/></g><g stroke="rgb(0, 0, 0)" stroke-width="0.35" stroke-linecap="butt" stroke-linejoin="miter" fill="none"><path d="M 554.422 392.352 A 6 5.05945 -175.678 0 0 556.545 388.846"/><path d="M 556.545 388.846 A 6 5.05945 -175.678 0 0 546.703 384.435"/><path d="M 507.935 410.635 L 546.743 383.899"/><path d="M 507.894 411.171 L 546.703 384.435"/><path d="M 548.614 387.977 A 2 1.68646 -175.678 0 0 552.552 388.274"/><path d="M 548.568 388.243 A 2 1.68646 -175.678 1 0 552.557 388.544"/><path d="M 552.557 388.544 A 2 1.68646 -175.678 0 0 552.092 387.34"/><path d="M 552.092 387.34 A 2 1.68646 -175.678 0 0 548.568 388.243"/><path d="M 538.912 394.661 A 2 1.68646 -175.678 0 0 542.85 394.958"/><path d="M 538.866 394.927 A 2 1.68646 -175.678 1 0 542.855 395.228"/><path d="M 542.855 395.228 A 2 1.68646 -175.678 0 0 542.39 394.024"/><path d="M 542.39 394.024 A 2 1.68646 -175.678 0 0 538.866 394.927"/><path d="M 529.21 401.345 A 2 1.68646 -175.678 0 0 533.148 401.642"/><path d="M 529.164 401.611 A 2 1.68646 -175.678 1 0 533.153 401.912"/><path d="M 533.153 401.912 A 2 1.68646 -175.678 0 0 532.687 400.708"/><path d="M 532.687 400.708 A 2 1.68646 -175.678 0 0 529.164 401.611"/><path d="M 519.508 408.029 A 2 1.68646 -175.678 0 0 523.445 408.326"/><path d="M 519.462 408.295 A 2 1.68646 -175.678 1 0 523.451 408.596"/><path d="M 523.451 408.596 A 2 1.68646 -175.678 0 0 522.985 407.392"/><path d="M 522.985 407.392 A 2 1.68646 -175.678 0 0 519.462 408.295"/><path d="M 505.812 414.141 L 505.771 414.677"/><path d="M 556.586 388.31 L 556.545 388.846"/></g><g stroke="rgb(0, 0, 0)" stroke-width="0.13" stroke-linecap="butt" stroke-linejoin="miter" fill="none"><path d="M 491.34 423.779 L 491.299 424.315"/></g><g stroke="rgb(0, 0, 0)" stroke-width="0.35" stroke-linecap="butt" stroke-linejoin="miter" fill="none"><path d="M 491.34 423.779 A 6 5.05945 -175.678 0 0 489.937 426.693"/><path d="M 491.299 424.315 A 6 5.05945 -175.678 0 0 489.897 427.229"/><path d="M 489.897 427.229 A 6 5.05945 -175.678 0 0 500.46 431.048"/><path d="M 500.46 431.048 L 511.563 420.186"/><path d="M 522.721 409.27 L 523.259 408.744"/><path d="M 523.882 399.649 A 6 5.05945 -175.678 0 0 515.516 400.127"/></g><g stroke="rgb(0, 0, 0)" stroke-width="0.13" stroke-linecap="butt" stroke-linejoin="miter" fill="none"><path d="M 515.516 400.127 L 515.476 400.663"/></g><g stroke="rgb(0, 0, 0)" stroke-width="0.35" stroke-linecap="butt" stroke-linejoin="miter" fill="none"><path d="M 523.463 399.937 A 6 5.05945 -175.678 0 0 515.476 400.663"/><path d="M 491.34 423.779 L 515.516 400.127"/><path d="M 491.299 424.315 L 515.476 400.663"/><path d="M 493.931 427.265 A 2 1.68646 -175.678 0 0 497.869 427.562"/><path d="M 493.885 427.531 A 2 1.68646 -175.678 0 0 497.874 427.832"/><path d="M 497.874 427.832 A 2 1.68646 -175.678 0 0 497.169 426.42"/><path d="M 497.169 426.42 A 2 1.68646 -175.678 0 0 493.885 427.531"/><path d="M 518.108 403.612 A 2 1.68646 -175.678 0 0 518.109 403.626"/><path d="M 519.974 402.341 A 2 1.68646 -175.678 0 0 518.103 403.63"/><path d="M 501.99 419.381 A 2 1.68646 -175.678 0 0 505.927 419.678"/><path d="M 501.944 419.647 A 2 1.68646 -175.678 0 0 505.933 419.948"/><path d="M 505.933 419.948 A 2 1.68646 -175.678 0 0 505.228 418.536"/><path d="M 505.228 418.536 A 2 1.68646 -175.678 0 0 501.944 419.647"/><path d="M 489.937 426.693 L 489.897 427.229"/><path d="M 494.142 421.013 A 4.5 3.79456 -175.678 0 0 491.798 423.331"/><path d="M 495.417 426.029 A 2 1.68646 -175.678 0 0 496.585 426.118"/><path d="M 493.931 427.265 A 2 1.68646 -175.678 0 0 497.869 427.562"/><path d="M 503.475 418.145 A 2 1.68646 -175.678 0 0 504.644 418.234"/><path d="M 501.99 419.381 A 2 1.68646 -175.678 0 0 505.927 419.678"/><path d="M 492.647 422.476 L 500.706 414.592"/></g><g stroke="rgb(0, 0, 0)" stroke-width="0.13" stroke-linecap="butt" stroke-linejoin="miter" fill="none"><path d="M 492.647 422.476 L 492.645 422.502"/></g><g stroke="rgb(0, 0, 0)" stroke-width="0.35" stroke-linecap="butt" stroke-linejoin="miter" fill="none"><path d="M 500.706 414.592 L 508.765 406.708"/></g><g stroke="rgb(0, 0, 0)" stroke-width="0.13" stroke-linecap="butt" stroke-linejoin="miter" fill="none"><path d="M 508.765 406.708 L 508.763 406.734"/></g><g stroke="rgb(0, 0, 0)" stroke-width="0.35" stroke-linecap="butt" stroke-linejoin="miter" fill="none"><path d="M 510.301 405.229 A 4.5 3.79456 -175.678 0 0 507.929 407.527"/></g><g stroke="rgb(0, 0, 0)" stroke-width="0.13" stroke-linecap="butt" stroke-linejoin="miter" fill="none"><path d="M 491.583 420.563 L 491.542 421.099"/></g><g stroke="rgb(0, 0, 0)" stroke-width="0.35" stroke-linecap="butt" stroke-linejoin="miter" fill="none"><path d="M 491.583 420.563 A 6 5.05945 -175.678 0 0 490.18 423.477"/><path d="M 491.542 421.099 A 6 5.05945 -175.678 0 0 490.14 424.013"/><path d="M 490.14 424.013 A 6 5.05945 -175.678 0 0 490.253 425.369"/><path d="M 491.583 420.563 L 514.747 397.901"/><path d="M 491.542 421.099 L 514.661 398.481"/><path d="M 495.417 426.029 A 2 1.68646 -175.678 0 0 496.585 426.118"/><path d="M 519.593 402.377 A 2 1.68646 -175.678 0 0 519.826 402.443"/><path d="M 503.475 418.145 A 2 1.68646 -175.678 0 0 504.644 418.234"/><path d="M 490.18 423.477 L 490.14 424.013"/><path d="M 552.127 373.208 A 6 5.05945 -175.678 0 0 549.93 373.256"/><path d="M 542.17 377.904 L 539.97 379.42"/><path d="M 532.761 384.386 L 530.458 385.972"/><path d="M 523.254 390.935 L 520.575 392.781"/><path d="M 514.93 396.67 L 508.664 400.987"/></g><g stroke="rgb(0, 0, 0)" stroke-width="0.13" stroke-linecap="butt" stroke-linejoin="miter" fill="none"><path d="M 508.664 400.987 L 508.624 401.523"/></g><g stroke="rgb(0, 0, 0)" stroke-width="0.35" stroke-linecap="butt" stroke-linejoin="miter" fill="none"><path d="M 542.604 378.113 L 540.302 379.699"/><path d="M 533.1 384.66 L 530.883 386.188"/><path d="M 523.509 391.268 L 521.002 392.995"/><path d="M 514.846 397.236 L 508.624 401.523"/><path d="M 508.664 400.987 A 6 5.05945 -175.678 0 0 506.541 404.493"/><path d="M 508.624 401.523 A 6 5.05945 -175.678 0 0 506.5 405.029"/><path d="M 506.5 405.029 A 6 5.05945 -175.678 0 0 506.529 405.941"/><path d="M 533.882 392.264 A 2 1.68646 -175.678 0 0 533.363 391.007"/><path d="M 530.225 393.014 A 2 1.68646 -175.678 0 0 530.358 393.167"/><path d="M 530.566 392.783 A 2 1.68646 -175.678 0 0 533.877 391.994"/><path d="M 530.358 393.167 A 2 1.68646 -175.678 0 0 532.452 393.745"/><path d="M 533.68 392.898 A 2 1.68646 -175.678 0 0 533.882 392.264"/><path d="M 540.678 386.357 A 2 1.68646 -175.678 0 0 543.579 385.31"/><path d="M 540.233 386.639 A 2 1.68646 -175.678 0 0 542.154 387.061"/><path d="M 543.382 386.214 A 2 1.68646 -175.678 0 0 543.584 385.58"/><path d="M 543.584 385.58 A 2 1.68646 -175.678 0 0 543.346 384.662"/><path d="M 506.541 404.493 L 506.5 405.029"/><path d="M 596.94 361.839 L 558.371 371.623"/><path d="M 553.141 372.95 L 550.5 373.62"/><path d="M 596.733 362.418 L 558.758 372.051"/><path d="M 546.505 382.272 A 6 5.05945 -175.678 0 0 547.332 383.028"/><path d="M 573.051 372.84 A 2 1.68646 -175.678 0 0 573.141 373.203"/><path d="M 576.994 373.407 A 2 1.68646 -175.678 0 0 573.006 373.106"/><path d="M 573.006 373.106 A 2 1.68646 -175.678 0 0 573.1 373.739"/><path d="M 573.141 373.203 A 2 1.68646 -175.678 0 0 576.989 373.137"/><path d="M 573.1 373.739 A 2 1.68646 -175.678 0 0 576.994 373.407"/><path d="M 584.926 369.828 A 2 1.68646 -175.678 0 0 585.015 370.19"/><path d="M 588.869 370.395 A 2 1.68646 -175.678 0 0 584.88 370.094"/><path d="M 584.88 370.094 A 2 1.68646 -175.678 0 0 584.974 370.727"/><path d="M 585.015 370.19 A 2 1.68646 -175.678 0 0 588.863 370.125"/><path d="M 584.974 370.727 A 2 1.68646 -175.678 0 0 588.869 370.395"/><path d="M 530.631 392.742 A 10 8.43243 -355.678 0 0 527.015 397.491"/></g><g stroke="rgb(0, 0, 0)" stroke-width="0.13" stroke-linecap="butt" stroke-linejoin="miter" fill="none"><path d="M 514.251 401.364 L 514.269 401.129"/></g><g stroke="rgb(0, 0, 0)" stroke-width="0.35" stroke-linecap="butt" stroke-linejoin="miter" fill="none"><path d="M 514.269 401.129 A 6 5.05945 -355.678 0 0 514.24 401.375"/><path d="M 514.277 401.339 L 515.57 392.614"/></g><g stroke="rgb(0, 0, 0)" stroke-width="0.13" stroke-linecap="butt" stroke-linejoin="miter" fill="none"><path d="M 515.57 392.614 L 515.61 392.078"/></g><g stroke="rgb(0, 0, 0)" stroke-width="0.35" stroke-linecap="butt" stroke-linejoin="miter" fill="none"><path d="M 514.269 401.129 L 515.61 392.078"/><path d="M 519.348 387.08 A 10 8.43243 -355.678 0 0 515.57 392.614"/></g><g stroke="rgb(0, 0, 0)" stroke-width="0.13" stroke-linecap="butt" stroke-linejoin="miter" fill="none"><path d="M 519.348 387.08 L 519.389 386.544"/></g><g stroke="rgb(0, 0, 0)" stroke-width="0.35" stroke-linecap="butt" stroke-linejoin="miter" fill="none"><path d="M 519.389 386.544 A 10 8.43243 -355.678 0 0 515.61 392.078"/><path d="M 537.755 375.382 L 519.348 387.08"/></g><g stroke="rgb(0, 0, 0)" stroke-width="0.13" stroke-linecap="butt" stroke-linejoin="miter" fill="none"><path d="M 537.755 375.382 L 537.796 374.846"/></g><g stroke="rgb(0, 0, 0)" stroke-width="0.35" stroke-linecap="butt" stroke-linejoin="miter" fill="none"><path d="M 537.796 374.846 L 519.389 386.544"/><path d="M 547.42 379.91 A 6 5.05945 -355.678 0 0 537.755 375.382"/><path d="M 545.119 383.534 A 6 5.05945 -355.678 0 0 547.42 379.91"/><path d="M 547.461 379.374 A 6 5.05945 -355.678 0 0 537.796 374.846"/><path d="M 545.119 383.534 L 530.631 392.742"/><path d="M 543.431 379.609 A 2 1.68646 -355.678 0 0 539.443 379.307"/><path d="M 539.86 380.461 A 2 1.68646 -355.678 0 0 543.431 379.609"/><path d="M 539.901 379.924 A 2 1.68646 -355.678 0 0 543.426 379.339"/><path d="M 539.443 379.307 A 2 1.68646 -355.678 0 0 539.86 380.461"/><path d="M 539.489 379.041 A 2 1.68646 -355.678 0 0 539.901 379.924"/><path d="M 533.575 385.873 A 2 1.68646 -355.678 0 0 529.586 385.572"/><path d="M 530.003 386.725 A 2 1.68646 -355.678 0 0 533.575 385.873"/><path d="M 530.044 386.189 A 2 1.68646 -355.678 0 0 533.57 385.603"/><path d="M 529.586 385.572 A 2 1.68646 -355.678 0 0 530.003 386.725"/><path d="M 529.632 385.305 A 2 1.68646 -355.678 0 0 530.044 386.189"/><path d="M 523.718 392.138 A 2 1.68646 -355.678 0 0 519.729 391.836"/><path d="M 520.146 392.989 A 2 1.68646 -355.678 0 0 523.718 392.138"/><path d="M 520.187 392.453 A 2 1.68646 -355.678 0 0 523.713 391.867"/><path d="M 519.729 391.836 A 2 1.68646 -355.678 0 0 520.146 392.989"/><path d="M 519.775 391.57 A 2 1.68646 -355.678 0 0 520.187 392.453"/><path d="M 518.641 402.888 A 2 1.68646 -355.678 0 0 518.869 403.101"/><path d="M 518.365 403.093 A 2 1.68646 -355.678 0 0 518.527 403.337"/><path d="M 518.6 402.841 A 2 1.68646 -355.678 0 0 518.641 402.888"/><path d="M 547.42 379.91 L 547.461 379.374"/></g><g stroke="rgb(0, 0, 0)" stroke-width="0.13" stroke-linecap="butt" stroke-linejoin="miter" fill="none"><path d="M 527.979 380.574 L 527.939 381.11"/></g><g stroke="rgb(0, 0, 0)" stroke-width="0.35" stroke-linecap="butt" stroke-linejoin="miter" fill="none"><path d="M 527.979 380.574 A 6 5.05945 -175.678 0 0 526.423 382.074"/><path d="M 546.675 382.035 L 547.919 381.244"/><path d="M 552.002 381.651 A 3 2.52972 -175.678 0 0 547.919 381.244"/><path d="M 555.493 368.436 L 562.167 375.825"/></g><g stroke="rgb(0, 0, 0)" stroke-width="0.13" stroke-linecap="butt" stroke-linejoin="miter" fill="none"><path d="M 555.493 368.436 L 555.452 368.972"/></g><g stroke="rgb(0, 0, 0)" stroke-width="0.35" stroke-linecap="butt" stroke-linejoin="miter" fill="none"><path d="M 555.452 368.972 L 561.7 375.888"/><path d="M 555.492 368.436 A 5 4.21619 -175.678 0 0 548.482 367.544"/></g><g stroke="rgb(0, 0, 0)" stroke-width="0.13" stroke-linecap="butt" stroke-linejoin="miter" fill="none"><path d="M 548.482 367.544 L 548.441 368.08"/></g><g stroke="rgb(0, 0, 0)" stroke-width="0.35" stroke-linecap="butt" stroke-linejoin="miter" fill="none"><path d="M 555.452 368.972 A 5 4.21619 -175.678 0 0 548.441 368.08"/><path d="M 527.979 380.574 L 548.482 367.544"/><path d="M 527.939 381.11 L 548.441 368.08"/><path d="M 529.731 385.044 A 2 1.68646 -175.678 0 0 533.511 385.329"/><path d="M 529.632 385.305 A 2 1.68646 -175.678 0 0 533.57 385.603"/><path d="M 539.587 378.779 A 2 1.68646 -175.678 0 0 543.368 379.065"/><path d="M 539.489 379.041 A 2 1.68646 -175.678 0 0 543.426 379.339"/><path d="M 549.386 372.241 A 2 1.68646 -175.678 0 0 553.324 372.538"/><path d="M 549.34 372.507 A 2 1.68646 -175.678 0 0 553.329 372.809"/><path d="M 553.329 372.809 A 2 1.68646 -175.678 0 0 552.911 371.656"/><path d="M 552.911 371.656 A 2 1.68646 -175.678 0 0 549.34 372.507"/><path d="M 557.848 379.748 A 2 1.68646 -175.678 0 0 557.238 380.323"/><path d="M 621.446 364.3 A 2.04999 0.687317 -299.614 1 0 623.472 367.864"/><path d="M 623.472 367.864 A 2.04999 0.687317 -299.614 0 0 623.632 367.526"/><path d="M 623.632 367.526 A 2.04999 0.687317 -299.614 0 0 621.446 364.3"/><path d="M 622.787 367.614 A 2.04999 0.687317 -119.614 0 0 621.311 365.016"/><path d="M 602.787 347.42 L 601.968 347.886"/><path d="M 593.606 371.097 L 601.968 347.886"/><path d="M 624.764 376.108 L 626.171 375.308"/><path d="M 626.171 375.308 L 626.779 367.268"/><path d="M 593.774 371.054 L 601.928 348.422"/><path d="M 601.968 347.886 L 601.928 348.422"/><path d="M 614.771 375.939 L 624.764 376.108"/><path d="M 626.171 375.308 L 603.566 347.491"/><path d="M 601.928 348.422 L 603.566 347.491"/><path d="M 626.779 367.268 L 604.174 339.451"/><path d="M 604.174 339.451 L 603.355 339.916"/><path d="M 603.566 347.491 L 604.174 339.451"/><path d="M 602.787 347.42 L 603.355 339.916"/><path d="M 614.183 355.363 A 2.04999 0.687317 -299.614 1 0 616.209 358.927"/><path d="M 616.209 358.927 A 2.04999 0.687317 -299.614 0 0 616.37 358.589"/><path d="M 616.37 358.589 A 2.04999 0.687317 -299.614 0 0 614.183 355.363"/><path d="M 606.921 346.426 A 2.04999 0.687317 -299.614 1 0 608.947 349.991"/><path d="M 608.947 349.991 A 2.04999 0.687317 -299.614 0 0 609.107 349.652"/><path d="M 609.107 349.652 A 2.04999 0.687317 -299.614 0 0 606.921 346.426"/><path d="M 615.525 358.677 A 2.04999 0.687317 -119.614 0 0 614.048 356.079"/><path d="M 608.263 349.741 A 2.04999 0.687317 -119.614 0 0 606.786 347.143"/><path d="M 515.702 415.967 A 4 3.37299 -355.678 0 0 507.725 415.364"/><path d="M 514.399 418.224 A 4 3.37299 -355.678 0 0 515.702 415.967"/><path d="M 515.743 415.431 A 4 3.37299 -355.678 0 0 507.766 414.828"/><path d="M 507.725 415.364 A 4 3.37299 -355.678 0 0 508.674 417.792"/><path d="M 515.702 415.967 L 515.743 415.431"/><path d="M 507.725 415.364 L 507.766 414.828"/><path d="M 519.594 402.377 A 2 1.68646 -175.678 0 0 519.826 402.443"/><path d="M 518.953 402.598 A 2 1.68646 -175.678 0 0 519.296 402.807"/><path d="M 518.952 402.598 A 2 1.68646 -175.678 0 0 519.296 402.807"/><path d="M 518.6 402.841 A 2 1.68646 -175.678 0 0 518.87 403.102"/><path d="M 518.365 403.093 A 2 1.68646 -175.678 0 0 518.527 403.337"/><path d="M 518.208 403.355 A 2 1.68646 -175.678 0 0 518.269 403.516"/><path d="M 518.107 403.612 A 2 1.68646 -355.678 0 0 518.109 403.625"/><path d="M 518.206 403.35 A 2 1.68646 -355.678 0 0 518.269 403.516"/><path d="M 514.705 415.891 A 3 2.52972 -175.678 1 0 508.722 415.439"/><path d="M 514.584 417.5 A 3 2.52972 -175.678 1 0 508.601 417.048"/><path d="M 508.601 417.048 A 3 2.52972 -175.678 0 0 510.326 419.541"/><path d="M 510.326 419.541 A 3 2.52972 -175.678 0 0 514.584 417.5"/><path d="M 513.586 417.424 A 2 1.68646 -175.678 0 0 512.436 415.762"/><path d="M 512.436 415.762 A 2 1.68646 -175.678 0 0 509.598 417.123"/><path d="M 508.722 415.44 L 508.601 417.048"/><path d="M 514.705 415.892 L 514.584 417.5"/><path d="M 513.526 418.228 A 2 1.68646 -175.678 1 0 509.537 417.927"/><path d="M 509.537 417.927 A 2 1.68646 -175.678 0 0 510.687 419.589"/><path d="M 510.687 419.589 A 2 1.68646 -175.678 0 0 513.526 418.228"/><path d="M 509.598 417.123 L 509.537 417.927"/><path d="M 513.586 417.424 L 513.526 418.228"/><path d="M 567.047 377.834 A 5 4.21619 -175.678 0 0 557.856 379.644"/><path d="M 557.856 379.644 L 557.816 380.176"/><path d="M 568.111 376.646 A 5 4.21619 -175.678 0 0 559.716 373.111"/><path d="M 567.382 377.749 A 5 4.21619 -175.678 0 0 561.738 375.353"/><path d="M 568.111 376.646 L 568.041 377.582"/><path d="M 564.208 388.48 A 2 1.68646 -175.678 0 0 560.22 388.179"/><path d="M 560.22 388.179 A 2 1.68646 -175.678 0 0 563.247 389.797"/><path d="M 563.247 389.797 A 2 1.68646 -175.678 0 0 564.208 388.48"/><path d="M 560.321 386.839 L 560.22 388.179"/><path d="M 564.31 387.14 L 564.208 388.48"/><path d="M 566.466 385.147 A 4 3.37299 -175.678 0 0 558.489 384.544"/><path d="M 566.425 385.683 A 4 3.37299 -175.678 0 0 558.448 385.08"/><path d="M 558.448 385.08 A 4 3.37299 -175.678 0 0 559.397 387.507"/><path d="M 565.122 387.94 A 4 3.37299 -175.678 0 0 566.425 385.683"/><path d="M 558.489 384.544 L 558.448 385.08"/><path d="M 566.466 385.147 L 566.425 385.683"/><path d="M 565.428 385.607 A 3 2.52972 -175.678 0 0 559.445 385.155"/><path d="M 565.307 387.215 A 3 2.52972 -175.678 0 0 559.324 386.763"/><path d="M 559.324 386.763 A 3 2.52972 -175.678 0 0 560.325 388.839"/><path d="M 564.005 389.117 A 3 2.52972 -175.678 0 0 565.307 387.215"/><path d="M 564.31 387.14 A 2 1.68646 -175.678 0 0 561.283 385.522"/><path d="M 561.283 385.522 A 2 1.68646 -175.678 0 0 560.321 386.839"/><path d="M 559.445 385.155 L 559.324 386.763"/><path d="M 565.428 385.607 L 565.307 387.215"/><path d="M 596.106 375.658 L 595.959 377.604"/><path d="M 596.35 363.479 A 5 4.21619 -175.678 0 0 593.763 366.855"/><path d="M 594.373 368.963 A 5 4.21619 -175.678 0 0 593.439 371.143"/><path d="M 593.763 366.855 L 593.439 371.143"/><path d="M 668.507 389.661 A 6 5.05945 -355.678 0 0 667.746 388.009"/></g><g stroke="rgb(0, 0, 0)" stroke-width="0.13" stroke-linecap="butt" stroke-linejoin="miter" fill="none"><path d="M 668.507 389.661 L 668.547 389.125"/></g><g stroke="rgb(0, 0, 0)" stroke-width="0.35" stroke-linecap="butt" stroke-linejoin="miter" fill="none"><path d="M 668.547 389.125 A 6 5.05945 -355.678 0 0 667.797 387.488"/><path d="M 665.669 411.49 A 2 1.68646 -355.678 0 0 665.665 411.573"/><path d="M 666.347 410.342 A 2 1.68646 -355.678 0 0 665.669 411.49"/><path d="M 665.715 411.223 A 2 1.68646 -355.678 0 0 665.774 411.5"/><path d="M 668.185 422.041 A 2 1.68646 -355.678 0 0 668.181 422.124"/><path d="M 668.864 420.893 A 2 1.68646 -355.678 0 0 668.185 422.041"/><path d="M 668.231 421.774 A 2 1.68646 -355.678 0 0 668.29 422.051"/></g><g stroke="rgb(0, 0, 0)" stroke-width="0.13" stroke-linecap="butt" stroke-linejoin="miter" fill="none"><path d="M 677.842 441.514 L 677.883 440.978"/></g><g stroke="rgb(0, 0, 0)" stroke-width="0.35" stroke-linecap="butt" stroke-linejoin="miter" fill="none"><path d="M 677.95 442.843 A 6 5.05945 -355.678 0 0 677.842 441.514"/><path d="M 666.091 443.268 A 6 5.05945 -355.678 0 0 677.95 442.843"/><path d="M 677.99 442.307 A 6 5.05945 -355.678 0 0 677.883 440.978"/><path d="M 666.091 443.268 L 656.026 401.063"/><path d="M 655.919 399.734 A 6 5.05945 -355.678 0 0 656.026 401.063"/><path d="M 667.777 399.309 A 6 5.05945 -355.678 0 0 655.919 399.734"/></g><g stroke="rgb(0, 0, 0)" stroke-width="0.13" stroke-linecap="butt" stroke-linejoin="miter" fill="none"><path d="M 667.777 399.309 L 667.818 398.773"/></g><g stroke="rgb(0, 0, 0)" stroke-width="0.35" stroke-linecap="butt" stroke-linejoin="miter" fill="none"><path d="M 667.818 398.773 A 6 5.05945 -355.678 0 0 655.959 399.198"/><path d="M 677.842 441.514 L 667.777 399.309"/><path d="M 677.883 440.978 L 667.818 398.773"/><path d="M 669.972 442.24 A 2 1.68646 -355.678 0 0 673.961 442.542"/><path d="M 671.57 440.728 A 2 1.68646 -355.678 0 0 669.972 442.24"/><path d="M 670.018 441.974 A 2 1.68646 -355.678 0 0 673.956 442.271"/><path d="M 673.961 442.542 A 2 1.68646 -355.678 0 0 671.57 440.728"/><path d="M 661.505 398.523 A 2 1.68646 -355.678 0 0 659.907 400.035"/><path d="M 663.896 400.337 A 2 1.68646 -355.678 0 0 661.505 398.523"/><path d="M 662.423 410.587 A 2 1.68646 -355.678 0 0 666.412 410.888"/><path d="M 664.021 409.074 A 2 1.68646 -355.678 0 0 662.423 410.587"/><path d="M 662.469 410.32 A 2 1.68646 -355.678 0 0 666.407 410.618"/><path d="M 666.412 410.888 A 2 1.68646 -355.678 0 0 664.021 409.074"/><path d="M 664.94 421.138 A 2 1.68646 -355.678 0 0 668.928 421.439"/><path d="M 666.537 419.626 A 2 1.68646 -355.678 0 0 664.94 421.138"/><path d="M 664.985 420.871 A 2 1.68646 -355.678 0 0 668.923 421.169"/><path d="M 668.928 421.439 A 2 1.68646 -355.678 0 0 666.537 419.626"/><path d="M 667.456 431.689 A 2 1.68646 -355.678 0 0 671.445 431.991"/><path d="M 669.054 430.177 A 2 1.68646 -355.678 0 0 667.456 431.689"/><path d="M 667.502 431.423 A 2 1.68646 -355.678 0 0 671.44 431.72"/><path d="M 671.445 431.991 A 2 1.68646 -355.678 0 0 669.054 430.177"/><path d="M 677.95 442.843 L 677.99 442.307"/><path d="M 655.919 399.734 L 655.959 399.198"/></g><g stroke="rgb(0, 0, 0)" stroke-width="0.13" stroke-linecap="butt" stroke-linejoin="miter" fill="none"><path d="M 659.92 440.774 L 659.96 440.238"/></g><g stroke="rgb(0, 0, 0)" stroke-width="0.35" stroke-linecap="butt" stroke-linejoin="miter" fill="none"><path d="M 659.92 440.774 A 10 8.43243 -355.678 0 0 664.591 436.981"/><path d="M 659.96 440.238 A 10 8.43243 -355.678 0 0 664.511 436.644"/><path d="M 677.079 429.958 A 6 5.05945 -355.678 0 0 674.942 428.648"/><path d="M 676.905 429.229 A 6 5.05945 -355.678 0 0 674.8 428.047"/><path d="M 678.305 435.096 L 677.137 437.849"/><path d="M 639.937 451.252 A 6 5.05945 -355.678 0 0 641.18 454.702"/><path d="M 643.343 447.076 A 6 5.05945 -355.678 0 0 639.937 451.252"/></g><g stroke="rgb(0, 0, 0)" stroke-width="0.13" stroke-linecap="butt" stroke-linejoin="miter" fill="none"><path d="M 643.343 447.076 L 643.384 446.54"/></g><g stroke="rgb(0, 0, 0)" stroke-width="0.35" stroke-linecap="butt" stroke-linejoin="miter" fill="none"><path d="M 643.384 446.54 A 6 5.05945 -355.678 0 0 639.977 450.716"/><path d="M 643.343 447.076 L 659.92 440.774"/><path d="M 643.384 446.54 L 659.96 440.238"/><path d="M 671.343 431.977 A 2 1.68646 -355.678 0 0 670.803 432.606"/><path d="M 639.937 451.252 L 639.977 450.716"/></g><g stroke="rgb(0, 0, 0)" stroke-width="0.13" stroke-linecap="butt" stroke-linejoin="miter" fill="none"><path d="M 659.272 449.35 L 659.312 448.814"/></g><g stroke="rgb(0, 0, 0)" stroke-width="0.35" stroke-linecap="butt" stroke-linejoin="miter" fill="none"><path d="M 659.272 449.35 A 10 8.43243 -355.678 0 0 664.394 444.665"/></g><g stroke="rgb(0, 0, 0)" stroke-width="0.13" stroke-linecap="butt" stroke-linejoin="miter" fill="none"><path d="M 664.394 444.665 L 664.435 444.129"/></g><g stroke="rgb(0, 0, 0)" stroke-width="0.35" stroke-linecap="butt" stroke-linejoin="miter" fill="none"><path d="M 659.312 448.814 A 10 8.43243 -355.678 0 0 664.435 444.129"/><path d="M 665.694 441.603 L 664.394 444.665"/><path d="M 665.626 441.321 L 664.435 444.129"/><path d="M 677.99 442.307 A 6 5.05945 -355.678 0 0 677.883 440.978"/><path d="M 678.031 441.771 A 6 5.05945 -355.678 0 0 677.483 439.301"/><path d="M 676.971 445.288 L 674.031 452.217"/><path d="M 668.908 456.902 A 10 8.43243 -355.678 0 0 674.031 452.217"/><path d="M 647.847 464.908 L 668.908 456.902"/><path d="M 639.288 459.828 A 6 5.05945 -355.678 0 0 647.847 464.908"/><path d="M 642.695 455.652 A 6 5.05945 -355.678 0 0 639.288 459.828"/></g><g stroke="rgb(0, 0, 0)" stroke-width="0.13" stroke-linecap="butt" stroke-linejoin="miter" fill="none"><path d="M 642.695 455.652 L 642.736 455.116"/></g><g stroke="rgb(0, 0, 0)" stroke-width="0.35" stroke-linecap="butt" stroke-linejoin="miter" fill="none"><path d="M 642.736 455.116 A 6 5.05945 -355.678 0 0 639.329 459.292"/><path d="M 642.695 455.652 L 659.272 449.35"/><path d="M 642.736 455.116 L 659.312 448.814"/><path d="M 643.277 460.129 A 2 1.68646 -355.678 0 0 647.266 460.431"/><path d="M 647.076 459.594 A 2 1.68646 -355.678 0 0 643.277 460.129"/><path d="M 643.323 459.863 A 2 1.68646 -355.678 0 0 647.26 460.16"/><path d="M 647.266 460.431 A 2 1.68646 -355.678 0 0 647.076 459.594"/><path d="M 654.555 455.842 A 2 1.68646 -355.678 0 0 658.544 456.143"/><path d="M 658.354 455.307 A 2 1.68646 -355.678 0 0 654.555 455.842"/><path d="M 654.601 455.575 A 2 1.68646 -355.678 0 0 658.538 455.873"/><path d="M 658.544 456.143 A 2 1.68646 -355.678 0 0 658.354 455.307"/><path d="M 665.833 451.554 A 2 1.68646 -355.678 0 0 669.822 451.856"/><path d="M 669.632 451.019 A 2 1.68646 -355.678 0 0 665.833 451.554"/><path d="M 665.879 451.288 A 2 1.68646 -355.678 0 0 669.816 451.585"/><path d="M 669.822 451.856 A 2 1.68646 -355.678 0 0 669.632 451.019"/><path d="M 670.018 441.974 A 2 1.68646 -355.678 0 0 673.956 442.272"/><path d="M 670.117 441.712 A 2 1.68646 -355.678 0 0 673.898 441.998"/><path d="M 677.99 442.307 L 678.031 441.771"/><path d="M 639.288 459.828 L 639.329 459.292"/><path d="M 639.245 390.424 A 2.04999 0.878723 -37.583 1 0 642.494 387.923"/><path d="M 642.494 387.923 A 2.04999 0.878723 -37.583 0 0 639.161 390.09"/><path d="M 642.539 388.459 A 2.04999 0.878723 -217.583 0 0 639.751 390.604"/><path d="M 639.161 390.09 A 2.04999 0.878723 -37.583 0 0 639.245 390.424"/><path d="M 668.749 371.649 L 669.3 372.365"/><path d="M 656.618 397.206 L 643.428 392.437"/><path d="M 667.108 394.428 L 669.3 372.365"/><path d="M 635.315 388.065 L 634.707 396.106"/><path d="M 634.707 396.106 L 635.259 396.822"/><path d="M 669.3 372.365 L 669.34 371.829"/><path d="M 635.315 388.065 L 668.238 370.397"/><path d="M 669.34 371.829 L 668.238 370.397"/><path d="M 634.707 396.106 L 667.631 378.437"/><path d="M 635.259 396.822 L 668.182 379.153"/><path d="M 667.631 378.437 L 668.182 379.153"/><path d="M 668.238 370.397 L 667.631 378.437"/><path d="M 668.749 371.649 L 668.182 379.153"/><path d="M 649.822 384.747 A 2.04999 0.878723 -37.583 1 0 653.071 382.247"/><path d="M 653.071 382.247 A 2.04999 0.878723 -37.583 0 0 649.738 384.414"/><path d="M 649.738 384.414 A 2.04999 0.878723 -37.583 0 0 649.822 384.747"/><path d="M 660.399 379.071 A 2.04999 0.878723 -37.583 1 0 663.648 376.571"/><path d="M 663.648 376.571 A 2.04999 0.878723 -37.583 0 0 660.315 378.738"/><path d="M 660.315 378.738 A 2.04999 0.878723 -37.583 0 0 660.399 379.071"/><path d="M 653.116 382.783 A 2.04999 0.878723 -217.583 0 0 650.328 384.928"/><path d="M 663.693 377.107 A 2.04999 0.878723 -217.583 0 0 660.905 379.252"/><path d="M 667.292 395.203 A 5 4.21619 -355.678 0 0 667.158 393.924"/><path d="M 667.262 395.469 A 5 4.21619 -355.678 0 0 667.292 395.203"/><path d="M 667.617 390.915 A 5 4.21619 -355.678 0 0 667.555 389.932"/><path d="M 667.292 395.203 L 667.617 390.915"/><path d="M 667.252 395.739 A 5 4.21619 -355.678 0 0 657.28 394.985"/><path d="M 667.139 397.238 L 667.252 395.739"/><path d="M 657.167 396.485 L 657.28 394.985"/><path d="M 659.522 405.128 A 2 1.68646 -175.678 1 0 663.511 405.429"/><path d="M 663.511 405.429 A 2 1.68646 -175.678 0 0 663.331 404.61"/><path d="M 663.331 404.61 A 2 1.68646 -175.678 0 0 659.522 405.128"/><path d="M 663.896 400.337 L 663.511 405.429"/><path d="M 659.907 400.035 L 659.522 405.128"/><path d="M 672.949 442.845 A 4.5 3.79456 -175.678 0 0 672.535 441.585"/><path d="M 672.535 441.585 A 4.5 3.79456 -175.678 0 0 671.861 440.703"/><path d="M 665.384 440.304 A 4.5 3.79456 -175.678 0 0 664.826 440.831"/><path d="M 664.76 443.362 A 4.5 3.79456 -175.678 0 0 664.623 443.511"/><path d="M 657.365 446.271 A 3.92035 3.30579 -175.678 0 0 653.799 447.626"/><path d="M 643.825 450.377 L 665.238 442.236"/><path d="M 646.978 450.22 A 4.5 3.79456 -175.678 0 0 643.825 450.377"/><path d="M 665.109 442.539 A 4.5 3.79456 -175.678 0 0 664.185 443.678"/><path d="M 643.947 448.769 L 665.453 440.593"/></g><g stroke="rgb(0, 0, 0)" stroke-width="0.13" stroke-linecap="butt" stroke-linejoin="miter" fill="none"><path d="M 643.947 448.769 L 643.825 450.377"/></g><g stroke="rgb(0, 0, 0)" stroke-width="0.35" stroke-linecap="butt" stroke-linejoin="miter" fill="none"><path d="M 646.183 447.919 A 4.5 3.79456 -175.678 0 0 641.432 451.365"/><path d="M 645.981 450.599 A 4.5 3.79456 -175.678 0 0 641.23 454.045"/><path d="M 641.432 451.365 L 641.23 454.045"/><path d="M 645.981 450.599 A 4.5 3.79456 -175.678 0 0 641.23 454.045"/><path d="M 645.778 453.279 A 4.5 3.79456 -175.678 0 0 641.169 455.994"/><path d="M 644.809 458.628 A 2 1.68646 -175.678 0 0 645.977 458.716"/><path d="M 656.087 454.34 A 2 1.68646 -175.678 0 0 657.255 454.429"/><path d="M 657.162 448.951 A 3.92035 3.30579 -175.678 0 0 653.596 450.306"/><path d="M 643.744 451.449 L 655.022 447.161"/></g><g stroke="rgb(0, 0, 0)" stroke-width="0.13" stroke-linecap="butt" stroke-linejoin="miter" fill="none"><path d="M 643.744 451.449 L 643.623 453.057"/></g><g stroke="rgb(0, 0, 0)" stroke-width="0.35" stroke-linecap="butt" stroke-linejoin="miter" fill="none"><path d="M 643.623 453.057 L 654.901 448.769"/><path d="M 654.901 448.769 L 663.74 445.409"/><path d="M 646.776 452.9 A 4.5 3.79456 -175.678 0 0 643.623 453.057"/><path d="M 655.022 447.161 L 664.711 443.478"/><path d="M 664.76 443.362 A 4.5 3.79456 -175.678 0 0 664.623 443.511"/><path d="M 667.365 450.053 A 2 1.68646 -175.678 0 0 668.533 450.141"/><path d="M 641.23 454.045 L 641.077 456.068"/><path d="M 645.778 453.279 A 4.5 3.79456 -175.678 0 0 641.169 455.994"/><path d="M 644.809 458.628 A 2 1.68646 -175.678 0 0 645.977 458.716"/><path d="M 643.323 459.863 A 2 1.68646 -175.678 0 0 647.26 460.16"/><path d="M 656.087 454.34 A 2 1.68646 -175.678 0 0 657.255 454.429"/><path d="M 654.601 455.575 A 2 1.68646 -175.678 0 0 658.538 455.873"/><path d="M 643.542 454.129 L 654.82 449.841"/></g><g stroke="rgb(0, 0, 0)" stroke-width="0.13" stroke-linecap="butt" stroke-linejoin="miter" fill="none"><path d="M 643.542 454.129 L 643.489 454.829"/></g><g stroke="rgb(0, 0, 0)" stroke-width="0.35" stroke-linecap="butt" stroke-linejoin="miter" fill="none"><path d="M 654.82 449.841 L 662.379 446.967"/><path d="M 667.365 450.053 A 2 1.68646 -175.678 0 0 668.533 450.141"/><path d="M 665.879 451.288 A 2 1.68646 -175.678 0 0 669.816 451.585"/><path d="M 668.466 421.287 A 2.04999 1.72864 -355.678 0 0 668.715 421.619"/><path d="M 672.94 408.348 L 673.264 404.06"/><path d="M 672.149 404.227 L 673.264 404.06"/><path d="M 672.204 405.278 L 671.961 408.494"/><path d="M 672.94 408.348 L 671.961 408.494"/><path d="M 680.336 439.362 L 680.66 435.074"/><path d="M 680.66 435.074 L 673.264 404.06"/><path d="M 672.94 408.348 L 680.336 439.362"/><path d="M 678.625 436.437 L 677.676 436.579"/><path d="M 679.357 439.508 L 680.336 439.362"/><path d="M 679.357 439.508 L 671.961 408.494"/><path d="M 665.95 410.735 A 2.04999 1.72864 -355.678 0 0 666.199 411.068"/><path d="M 671.177 432.111 A 2.04999 1.72864 -355.678 0 0 671.231 432.171"/><path d="M 637.925 457.001 A 5 2.64063 -357.725 0 0 627.933 456.604"/><path d="M 627.933 456.604 A 5 2.64063 -357.725 0 0 637.925 457.013"/><path d="M 637.925 457.013 A 5 2.64063 -357.725 0 0 637.925 457.001"/><path d="M 625.054 454.029 L 633.164 451.929"/><path d="M 624.819 458.902 L 625.054 454.029"/><path d="M 632.695 461.675 L 624.819 458.902"/><path d="M 639.28 459.97 L 632.695 461.675"/><path d="M 641.04 454.702 L 640.97 456.159"/><path d="M 633.164 451.929 L 641.04 454.702"/><path d="M 624.549 465.69 L 624.819 458.902"/><path d="M 632.425 468.463 L 624.549 465.69"/><path d="M 632.425 468.463 L 632.695 461.675"/><path d="M 640.535 466.363 L 632.425 468.463"/><path d="M 640.535 466.363 L 640.653 463.408"/><path d="M 640.676 463.433 L 640.535 466.363"/><path d="M 640.982 456.147 L 641.04 454.702"/></g><g stroke="rgb(0, 0, 0)" stroke-width="0.13" stroke-linecap="butt" stroke-linejoin="miter" fill="none"><path d="M 586.558 479.896 L 585.913 479.896 L 585.913 480.32 L 587.668 480.32 L 587.668 479.896 L 587.022 479.896 L 587.022 477.244 L 587.668 477.244 L 587.668 476.82 L 585.913 476.82 L 585.913 477.244 L 586.558 477.244 L 586.558 479.896 L 586.558 479.896 z M 590.109 478.741 L 589.68 478.641 L 589.362 478.525 L 589.256 478.288 L 589.287 478.121 L 589.393 478 L 589.564 477.924 L 589.811 477.894 L 590.048 477.924 L 590.235 478.015 L 590.356 478.151 L 590.406 478.333 L 590.84 478.333 L 590.84 478.323 L 590.764 477.995 L 590.558 477.738 L 590.235 477.576 L 589.811 477.516 L 589.383 477.576 L 589.07 477.743 L 588.873 477.99 L 588.813 478.303 L 588.858 478.605 L 588.999 478.817 L 589.231 478.968 L 589.569 479.074 L 590.063 479.195 L 590.366 479.321 L 590.447 479.422 L 590.477 479.574 L 590.431 479.76 L 590.31 479.901 L 590.114 479.992 L 589.852 480.022 L 589.574 479.992 L 589.372 479.886 L 589.236 479.715 L 589.181 479.478 L 588.752 479.478 L 588.823 479.881 L 589.029 480.174 L 589.357 480.35 L 589.811 480.416 L 590.285 480.35 L 590.633 480.174 L 590.845 479.891 L 590.921 479.523 L 590.865 479.205 L 590.709 478.989 L 590.452 478.847 L 590.109 478.741 L 590.109 478.741 z M 591.687 478.968 L 591.768 479.584 L 592 480.038 L 592.368 480.32 L 592.862 480.416 L 593.352 480.32 L 593.72 480.043 L 593.952 479.589 L 594.037 478.968 L 593.952 478.353 L 593.72 477.894 L 593.352 477.617 L 592.862 477.516 L 592.368 477.617 L 592 477.899 L 591.768 478.353 L 591.687 478.968 L 591.687 478.968 z M 592.141 478.963 L 592.187 478.509 L 592.328 478.182 L 592.555 477.98 L 592.862 477.909 L 593.165 477.98 L 593.392 478.177 L 593.533 478.509 L 593.583 478.963 L 593.533 479.422 L 593.392 479.755 L 593.165 479.957 L 592.862 480.022 L 592.555 479.957 L 592.328 479.755 L 592.187 479.422 L 592.141 478.963 L 592.141 478.963 z M 594.678 480.32 L 595.086 480.32 L 595.086 478.509 L 595.112 478.237 L 595.187 478.04 L 595.303 477.924 L 595.455 477.879 L 595.576 477.919 L 595.656 478.02 L 595.697 478.192 L 595.712 478.419 L 595.712 480.32 L 596.095 480.32 L 596.095 478.509 L 596.12 478.242 L 596.196 478.046 L 596.317 477.924 L 596.468 477.879 L 596.589 477.919 L 596.67 478.02 L 596.72 478.419 L 596.72 480.32 L 597.129 480.32 L 597.129 478.449 L 597.104 478.061 L 597.023 477.763 L 596.862 477.582 L 596.599 477.516 L 596.292 477.617 L 596.055 477.909 L 595.868 477.622 L 595.555 477.516 L 595.268 477.617 L 595.071 477.899 L 595.071 477.612 L 594.678 477.612 L 594.678 480.32 L 594.678 480.32 z M 598.279 479.094 L 600.054 479.094 L 600.059 478.888 L 599.978 478.308 L 599.756 477.874 L 599.403 477.612 L 598.934 477.516 L 598.475 477.617 L 598.122 477.899 L 597.895 478.358 L 597.815 478.963 L 597.89 479.584 L 598.117 480.038 L 598.465 480.32 L 598.919 480.416 L 599.313 480.35 L 599.635 480.179 L 599.872 479.906 L 600.009 479.543 L 599.57 479.543 L 599.479 479.745 L 599.348 479.896 L 598.975 480.017 L 598.687 479.962 L 598.47 479.785 L 598.329 479.498 L 598.279 479.11 L 598.279 479.094 L 598.279 479.094 z M 598.279 478.721 L 598.334 478.373 L 598.47 478.116 L 598.677 477.96 L 598.949 477.904 L 599.217 477.96 L 599.424 478.116 L 599.55 478.373 L 599.595 478.721 L 598.279 478.721 L 598.279 478.721 z M 601.521 478.081 L 601.521 479.437 L 601.552 479.876 L 601.693 480.179 L 601.975 480.355 L 602.454 480.416 L 602.979 480.391 L 602.979 480.007 L 602.596 480.038 L 602.248 479.997 L 602.061 479.871 L 601.98 479.659 L 601.965 479.362 L 601.965 478.081 L 602.979 478.081 L 602.979 477.703 L 601.965 477.703 L 601.965 476.911 L 601.521 476.911 L 601.521 477.703 L 600.755 477.703 L 600.755 478.081 L 601.521 478.081 L 601.521 478.081 z M 604.129 480.32 L 604.573 480.32 L 604.573 478.772 L 604.618 478.398 L 604.754 478.131 L 604.976 477.97 L 605.274 477.914 L 605.496 477.95 L 605.662 478.051 L 605.763 478.222 L 605.798 478.454 L 606.247 478.454 L 606.186 478.046 L 606.02 477.753 L 605.743 477.576 L 605.364 477.516 L 605.107 477.556 L 604.885 477.657 L 604.689 477.829 L 604.532 478.061 L 604.532 477.612 L 604.129 477.612 L 604.129 480.32 L 604.129 480.32 z M 608.355 479.947 L 608.355 477.703 L 607.215 477.703 L 607.215 478.081 L 607.911 478.081 L 607.911 479.947 L 607.003 479.947 L 607.003 480.32 L 609.273 480.32 L 609.273 479.947 L 608.355 479.947 L 608.355 479.947 z M 608.37 476.699 L 607.901 476.699 L 607.901 477.203 L 608.37 477.203 L 608.37 476.699 L 608.37 476.699 z M 611.759 478.509 L 612.198 478.509 L 612.107 478.106 L 611.89 477.788 L 611.552 477.592 L 611.114 477.516 L 610.63 477.617 L 610.261 477.899 L 610.029 478.358 L 609.949 478.973 L 610.024 479.584 L 610.251 480.038 L 610.609 480.32 L 611.099 480.416 L 611.532 480.34 L 611.87 480.128 L 612.102 479.795 L 612.203 479.352 L 611.779 479.352 L 611.704 479.634 L 611.563 479.846 L 611.361 479.977 L 611.114 480.017 L 610.806 479.952 L 610.584 479.75 L 610.448 479.422 L 610.403 478.958 L 610.448 478.504 L 610.589 478.177 L 610.816 477.975 L 611.114 477.904 L 611.376 477.95 L 611.573 478.066 L 611.704 478.257 L 611.759 478.509 L 611.759 478.509 z M 616.918 480.32 L 617.387 480.32 L 618.376 477.612 L 617.917 477.612 L 617.155 479.795 L 616.379 477.612 L 615.915 477.612 L 616.918 480.32 L 616.918 480.32 z M 620.499 479.947 L 620.499 477.703 L 619.359 477.703 L 619.359 478.081 L 620.055 478.081 L 620.055 479.947 L 619.148 479.947 L 619.148 480.32 L 621.417 480.32 L 621.417 479.947 L 620.499 479.947 L 620.499 479.947 z M 620.514 476.699 L 620.045 476.699 L 620.045 477.203 L 620.514 477.203 L 620.514 476.699 L 620.514 476.699 z M 622.567 479.094 L 624.342 479.094 L 624.347 478.888 L 624.266 478.308 L 624.044 477.874 L 623.691 477.612 L 623.222 477.516 L 622.763 477.617 L 622.41 477.899 L 622.184 478.358 L 622.103 478.963 L 622.178 479.584 L 622.405 480.038 L 622.753 480.32 L 623.207 480.416 L 623.601 480.35 L 623.923 480.179 L 624.16 479.906 L 624.297 479.543 L 623.858 479.543 L 623.767 479.745 L 623.636 479.896 L 623.263 480.017 L 622.975 479.962 L 622.758 479.785 L 622.617 479.498 L 622.567 479.11 L 622.567 479.094 L 622.567 479.094 z M 622.567 478.721 L 622.622 478.373 L 622.758 478.116 L 622.965 477.96 L 623.238 477.904 L 623.505 477.96 L 623.712 478.116 L 623.838 478.373 L 623.883 478.721 L 622.567 478.721 L 622.567 478.721 z M 625.855 480.32 L 626.258 478.02 L 626.662 480.32 L 627.086 480.32 L 627.751 477.612 L 627.323 477.612 L 626.874 479.911 L 626.475 477.612 L 626.036 477.612 L 625.638 479.911 L 625.189 477.612 L 624.766 477.612 L 625.431 480.32 L 625.855 480.32 L 625.855 480.32 z" stroke="none" fill-rule="evenodd" fill="rgb(0, 0, 0)"/></g><g stroke="rgb(0, 0, 0)" stroke-width="0.13" stroke-linecap="butt" stroke-linejoin="miter" fill="none"><path d="M 585.993 485.212 L 585.535 485.212 L 585.635 485.746 L 585.888 486.14 L 586.276 486.377 L 586.8 486.463 L 587.32 486.382 L 587.708 486.16 L 587.955 485.812 L 588.046 485.353 L 587.97 484.94 L 587.759 484.672 L 587.416 484.496 L 586.957 484.365 L 586.563 484.269 L 586.306 484.158 L 586.16 483.996 L 586.115 483.744 L 586.16 483.517 L 586.291 483.346 L 586.493 483.23 L 586.77 483.19 L 587.053 483.24 L 587.274 483.376 L 587.421 483.603 L 587.491 483.911 L 587.95 483.911 L 587.95 483.901 L 587.87 483.427 L 587.633 483.074 L 587.259 482.852 L 586.755 482.776 L 586.301 482.852 L 585.948 483.063 L 585.721 483.391 L 585.64 483.815 L 585.706 484.193 L 585.898 484.45 L 586.2 484.622 L 586.614 484.753 L 587.022 484.869 L 587.33 484.98 L 587.516 485.141 L 587.582 485.404 L 587.522 485.671 L 587.365 485.873 L 587.128 485.999 L 586.821 486.039 L 586.478 485.984 L 586.215 485.822 L 586.049 485.56 L 585.993 485.212 L 585.993 485.212 z M 590.507 484.556 L 590.946 484.556 L 590.855 484.153 L 590.638 483.835 L 590.3 483.638 L 589.862 483.563 L 589.377 483.664 L 589.009 483.946 L 588.777 484.405 L 588.697 485.02 L 588.772 485.63 L 588.999 486.084 L 589.357 486.367 L 589.846 486.463 L 590.28 486.387 L 590.618 486.175 L 590.85 485.842 L 590.951 485.398 L 590.527 485.398 L 590.452 485.681 L 590.31 485.893 L 590.109 486.024 L 589.862 486.064 L 589.554 485.999 L 589.332 485.797 L 589.196 485.469 L 589.151 485.005 L 589.196 484.551 L 589.337 484.223 L 589.564 484.022 L 589.862 483.951 L 590.124 483.996 L 590.321 484.112 L 590.452 484.304 L 590.507 484.556 L 590.507 484.556 z M 593.427 486.014 L 593.427 486.029 L 593.452 486.2 L 593.528 486.321 L 593.846 486.417 L 594.093 486.377 L 594.093 486.034 L 593.987 486.049 L 593.846 485.984 L 593.82 485.782 L 593.82 484.38 L 593.76 484.022 L 593.583 483.77 L 593.276 483.618 L 592.842 483.563 L 592.419 483.623 L 592.106 483.795 L 591.909 484.062 L 591.844 484.415 L 591.844 484.445 L 592.242 484.445 L 592.277 484.234 L 592.388 484.082 L 592.57 483.991 L 592.827 483.956 L 593.074 483.981 L 593.251 484.057 L 593.357 484.188 L 593.392 484.37 L 593.372 484.581 L 593.291 484.687 L 593.089 484.738 L 592.711 484.778 L 592.277 484.869 L 591.97 485.03 L 591.788 485.283 L 591.733 485.656 L 591.783 485.989 L 591.939 486.236 L 592.192 486.392 L 592.54 486.447 L 593.009 486.342 L 593.427 486.014 L 593.427 486.014 z M 593.377 485.419 L 593.316 485.681 L 593.155 485.883 L 592.913 486.014 L 592.615 486.059 L 592.424 486.034 L 592.287 485.953 L 592.202 485.812 L 592.176 485.615 L 592.197 485.439 L 592.277 485.313 L 592.6 485.172 L 593.009 485.111 L 593.377 484.99 L 593.377 485.419 L 593.377 485.419 z M 595.737 483.119 L 595.737 485.994 L 594.824 485.994 L 594.824 486.367 L 597.089 486.367 L 597.089 485.994 L 596.181 485.994 L 596.181 482.746 L 595.041 482.746 L 595.041 483.119 L 595.737 483.119 L 595.737 483.119 z M 598.279 485.141 L 600.054 485.141 L 600.059 484.935 L 599.978 484.355 L 599.756 483.921 L 599.403 483.659 L 598.934 483.563 L 598.475 483.664 L 598.122 483.946 L 597.895 484.405 L 597.815 485.01 L 597.89 485.63 L 598.117 486.084 L 598.465 486.367 L 598.919 486.463 L 599.313 486.397 L 599.635 486.226 L 599.872 485.953 L 600.009 485.59 L 599.57 485.59 L 599.479 485.792 L 599.348 485.943 L 598.975 486.064 L 598.687 486.009 L 598.47 485.832 L 598.329 485.545 L 598.279 485.156 L 598.279 485.141 L 598.279 485.141 z M 598.279 484.768 L 598.334 484.42 L 598.47 484.163 L 598.677 484.007 L 598.949 483.951 L 599.217 484.007 L 599.424 484.163 L 599.55 484.42 L 599.595 484.768 L 598.279 484.768 L 598.279 484.768 z M 601.622 486.367 L 602.318 486.367 L 602.318 485.615 L 601.622 485.615 L 601.622 486.367 L 601.622 486.367 z M 601.622 484.41 L 602.318 484.41 L 602.318 483.659 L 601.622 483.659 L 601.622 484.41 L 601.622 484.41 z" stroke="none" fill-rule="evenodd" fill="rgb(0, 0, 0)"/></g><g stroke="rgb(0, 0, 0)" stroke-width="0.13" stroke-linecap="butt" stroke-linejoin="miter" fill="none"><path d="M 610.988 486.367 L 611.447 486.367 L 611.447 482.842 L 611.104 482.842 L 611.013 483.149 L 610.831 483.356 L 610.554 483.477 L 610.171 483.517 L 610.171 483.875 L 610.988 483.875 L 610.988 486.367 L 610.988 486.367 z M 613.766 486.367 L 614.462 486.367 L 614.462 485.615 L 613.766 485.615 L 613.766 486.367 L 613.766 486.367 z M 613.766 484.41 L 614.462 484.41 L 614.462 483.659 L 613.766 483.659 L 613.766 484.41 L 613.766 484.41 z M 617.06 486.367 L 617.519 486.367 L 617.519 482.842 L 617.176 482.842 L 617.085 483.149 L 616.903 483.356 L 616.626 483.477 L 616.243 483.517 L 616.243 483.875 L 617.06 483.875 L 617.06 486.367 L 617.06 486.367 z" stroke="none" fill-rule="evenodd" fill="rgb(0, 0, 0)"/></g></svg>