<?xml version="1.0" encoding="utf-8" ?><!DOCTYPE svg PUBLIC "-//W3C//DTD SVG 1.1//EN" "http://www.w3.org/Graphics/SVG/1.1/DTD/svg11.dtd" 
[ <!ATTLIST svg 
  xmlns:dsy CDATA #FIXED "http://www.3ds.com/print"  
    dsy:text-version CDATA #IMPLIED > 

  <!ATTLIST text 
  xmlns:dsy CDATA #FIXED "http://www.3ds.com/print" 
    dsy:text-version CDATA #IMPLIED > 
]><svg xmlns="http://www.w3.org/2000/svg" xmlns:dsy="http://www.3ds.com/print" dsy:text-version="18000" width="1189" height="841" viewBox="0 0 1189 841" version="1.1"><g stroke="rgb(0, 0, 0)" stroke-width="0.35" stroke-linecap="butt" stroke-linejoin="miter" fill="none"><path d="M 204.453 254.162 L 199.159 251.75"/><path d="M 193.635 249.232 L 187.635 246.498"/><path d="M 178.747 245.275 A 6 2.8497 -322.189 0 0 178.593 247.202"/><path d="M 179.286 244.58 A 6 2.8497 -322.189 0 0 179.014 245.183"/><path d="M 199.93 259.852 L 188.721 254.743"/><path d="M 200.48 259.161 L 188.9 253.884"/><path d="M 184.622 248.721 A 2 0.94989 -322.189 0 0 183.431 247.796"/><path d="M 185.697 248.997 A 2 0.94989 -322.189 0 0 182.896 246.824"/><path d="M 178.747 245.275 L 179.286 244.58"/></g><g stroke="rgb(0, 0, 0)" stroke-width="0.13" stroke-linecap="butt" stroke-linejoin="miter" fill="none"><path d="M 173.672 270.765 L 174.212 270.07"/></g><g stroke="rgb(0, 0, 0)" stroke-width="0.35" stroke-linecap="butt" stroke-linejoin="miter" fill="none"><path d="M 173.672 270.765 A 6 2.8497 -322.189 0 0 183.425 277.518"/><path d="M 174.212 270.07 A 6 2.8497 -322.189 0 0 183.964 276.823"/><path d="M 183.964 276.823 A 6 2.8497 -322.189 0 0 184.236 276.22"/><path d="M 184.236 276.22 L 189.578 250.638"/><path d="M 179.286 244.58 A 6 2.8497 -322.189 0 0 179.014 245.183"/></g><g stroke="rgb(0, 0, 0)" stroke-width="0.13" stroke-linecap="butt" stroke-linejoin="miter" fill="none"><path d="M 179.014 245.183 L 179.554 244.488"/></g><g stroke="rgb(0, 0, 0)" stroke-width="0.35" stroke-linecap="butt" stroke-linejoin="miter" fill="none"><path d="M 189.578 250.638 A 6 2.8497 -322.189 0 0 179.826 243.885"/><path d="M 179.826 243.885 A 6 2.8497 -322.189 0 0 179.554 244.488"/><path d="M 173.672 270.765 L 179.014 245.183"/><path d="M 174.212 270.07 L 179.554 244.488"/><path d="M 185.697 248.997 A 2 0.94989 -322.189 0 0 184.237 247.25"/><path d="M 182.986 246.337 A 2 0.94989 -322.189 1 0 186.146 248.789"/><path d="M 186.146 248.789 A 2 0.94989 -322.189 0 0 184.777 246.555"/><path d="M 184.237 247.25 A 2 0.94989 -322.189 0 0 182.896 246.824"/><path d="M 184.777 246.555 A 2 0.94989 -322.189 0 0 182.986 246.337"/><path d="M 184.361 255.393 A 2 0.94989 -322.189 0 0 182.902 253.646"/><path d="M 181.65 252.732 A 2 0.94989 -322.189 1 0 184.811 255.184"/><path d="M 184.811 255.184 A 2 0.94989 -322.189 0 0 183.441 252.95"/><path d="M 182.902 253.646 A 2 0.94989 -322.189 0 0 181.56 253.219"/><path d="M 183.441 252.95 A 2 0.94989 -322.189 0 0 181.65 252.732"/><path d="M 183.026 261.789 A 2 0.94989 -322.189 0 0 181.566 260.041"/><path d="M 180.315 259.128 A 2 0.94989 -322.189 1 0 183.475 261.58"/><path d="M 183.475 261.58 A 2 0.94989 -322.189 0 0 182.105 259.346"/><path d="M 181.566 260.041 A 2 0.94989 -322.189 0 0 180.225 259.615"/><path d="M 182.105 259.346 A 2 0.94989 -322.189 0 0 180.315 259.128"/><path d="M 181.628 267.96 A 2 0.94989 -322.189 0 0 180.23 266.437"/><path d="M 178.979 265.523 A 2 0.94989 -322.189 0 0 180.753 267.972"/><path d="M 181.997 268.097 A 2 0.94989 -322.189 0 0 182.139 267.975"/><path d="M 182.139 267.975 A 2 0.94989 -322.189 0 0 180.77 265.741"/><path d="M 180.23 266.437 A 2 0.94989 -322.189 0 0 178.889 266.01"/><path d="M 180.77 265.741 A 2 0.94989 -322.189 0 0 178.979 265.523"/><path d="M 183.425 277.518 L 183.964 276.823"/><path d="M 179.286 244.58 L 179.826 243.885"/></g><g stroke="rgb(0, 0, 0)" stroke-width="0.13" stroke-linecap="butt" stroke-linejoin="miter" fill="none"><path d="M 178.649 294.049 L 179.189 293.353"/></g><g stroke="rgb(0, 0, 0)" stroke-width="0.35" stroke-linecap="butt" stroke-linejoin="miter" fill="none"><path d="M 178.649 294.049 A 6 2.8497 -322.189 0 0 188.073 298.937"/><path d="M 179.189 293.353 A 6 2.8497 -322.189 0 0 188.613 298.242"/><path d="M 188.557 295.774 L 180.398 277.931"/><path d="M 166.764 265.709 A 6 2.8497 -322.189 0 0 166.82 268.177"/></g><g stroke="rgb(0, 0, 0)" stroke-width="0.13" stroke-linecap="butt" stroke-linejoin="miter" fill="none"><path d="M 166.82 268.177 L 167.36 267.482"/></g><g stroke="rgb(0, 0, 0)" stroke-width="0.35" stroke-linecap="butt" stroke-linejoin="miter" fill="none"><path d="M 174.459 266.997 A 6 2.8497 -322.189 0 0 167.304 265.014"/><path d="M 167.304 265.014 A 6 2.8497 -322.189 0 0 167.36 267.482"/><path d="M 178.649 294.049 L 166.82 268.177"/><path d="M 179.189 293.353 L 167.36 267.482"/><path d="M 185.003 295.998 A 2 0.94989 -322.189 0 0 182.702 293.879"/><path d="M 182.293 293.337 A 2 0.94989 -322.189 0 0 185.453 295.79"/><path d="M 185.453 295.79 A 2 0.94989 -322.189 0 0 183.242 293.184"/><path d="M 182.702 293.879 A 2 0.94989 -322.189 0 0 182.202 293.825"/><path d="M 183.242 293.184 A 2 0.94989 -322.189 0 0 182.293 293.337"/><path d="M 173.175 270.127 A 2 0.94989 -322.189 0 0 170.874 268.008"/><path d="M 170.464 267.466 A 2 0.94989 -322.189 0 0 173.624 269.919"/><path d="M 173.624 269.919 A 2 0.94989 -322.189 0 0 171.413 267.313"/><path d="M 170.874 268.008 A 2 0.94989 -322.189 0 0 170.373 267.953"/><path d="M 171.413 267.313 A 2 0.94989 -322.189 0 0 170.464 267.466"/><path d="M 179.089 283.063 A 2 0.94989 -322.189 0 0 176.788 280.944"/><path d="M 176.378 280.402 A 2 0.94989 -322.189 0 0 179.538 282.854"/><path d="M 179.538 282.854 A 2 0.94989 -322.189 0 0 177.327 280.248"/><path d="M 176.788 280.944 A 2 0.94989 -322.189 0 0 176.288 280.889"/><path d="M 177.327 280.248 A 2 0.94989 -322.189 0 0 176.378 280.402"/><path d="M 181.06 287.374 A 2 0.94989 -322.189 0 0 178.759 285.255"/><path d="M 178.35 284.714 A 2 0.94989 -322.189 0 0 181.51 287.166"/><path d="M 181.51 287.166 A 2 0.94989 -322.189 0 0 179.299 284.56"/><path d="M 178.759 285.255 A 2 0.94989 -322.189 0 0 178.259 285.201"/><path d="M 179.299 284.56 A 2 0.94989 -322.189 0 0 178.35 284.714"/><path d="M 166.764 265.709 L 167.304 265.014"/><path d="M 177.08 295.976 A 4.5 2.13727 -322.189 0 0 182.055 301.84"/><path d="M 182.055 301.84 A 4.5 2.13727 -322.189 0 0 184.191 301.494"/><path d="M 185.003 295.998 A 2 0.94989 -322.189 0 0 182.702 293.879"/><path d="M 182.702 293.879 A 2 0.94989 -322.189 0 0 182.202 293.825"/><path d="M 173.463 287.947 A 3.92038 1.86197 -322.189 0 0 174.841 290.963"/><path d="M 181.06 287.374 A 2 0.94989 -322.189 0 0 178.759 285.255"/><path d="M 178.759 285.255 A 2 0.94989 -322.189 0 0 178.259 285.201"/><path d="M 177.662 297.132 L 173.719 288.508"/></g><g stroke="rgb(0, 0, 0)" stroke-width="0.13" stroke-linecap="butt" stroke-linejoin="miter" fill="none"><path d="M 177.662 297.132 L 179.248 295.089"/></g><g stroke="rgb(0, 0, 0)" stroke-width="0.35" stroke-linecap="butt" stroke-linejoin="miter" fill="none"><path d="M 176.942 281.924 A 4.5 2.13727 -322.189 0 0 178.179 281.718"/><path d="M 178.016 282.787 A 2 0.94989 -322.189 0 0 176.942 281.925"/><path d="M 173.719 288.508 L 169.776 279.885"/></g><g stroke="rgb(0, 0, 0)" stroke-width="0.13" stroke-linecap="butt" stroke-linejoin="miter" fill="none"><path d="M 169.776 279.885 L 171.285 277.941"/></g><g stroke="rgb(0, 0, 0)" stroke-width="0.35" stroke-linecap="butt" stroke-linejoin="miter" fill="none"><path d="M 176.914 281.961 L 176.942 281.924"/><path d="M 169.195 278.729 A 4.5 2.13727 -322.189 0 0 171.189 282.975"/><path d="M 176.297 280.935 A 4.5 2.13727 -322.189 0 0 176.867 281.116"/><path d="M 176.867 281.116 A 4.5 2.13727 -322.189 0 0 177.484 281.229"/><path d="M 184.191 301.494 L 185.733 299.507"/><path d="M 177.08 295.976 L 177.114 295.933"/><path d="M 169.195 278.729 L 170.736 276.742"/></g><g stroke="rgb(0, 0, 0)" stroke-width="0.13" stroke-linecap="butt" stroke-linejoin="miter" fill="none"><path d="M 175.412 298.22 L 175.952 297.525"/></g><g stroke="rgb(0, 0, 0)" stroke-width="0.35" stroke-linecap="butt" stroke-linejoin="miter" fill="none"><path d="M 175.412 298.22 A 6 2.8497 -322.189 0 0 184.836 303.109"/><path d="M 175.952 297.525 A 6 2.8497 -322.189 0 0 185.376 302.413"/><path d="M 163.527 269.881 A 6 2.8497 -322.189 0 0 163.583 272.349"/></g><g stroke="rgb(0, 0, 0)" stroke-width="0.13" stroke-linecap="butt" stroke-linejoin="miter" fill="none"><path d="M 163.583 272.349 L 164.123 271.654"/></g><g stroke="rgb(0, 0, 0)" stroke-width="0.35" stroke-linecap="butt" stroke-linejoin="miter" fill="none"><path d="M 164.588 268.77 A 6 2.8497 -322.189 0 0 164.067 269.186"/><path d="M 164.067 269.186 A 6 2.8497 -322.189 0 0 164.123 271.654"/><path d="M 175.412 298.22 L 163.583 272.349"/><path d="M 175.952 297.525 L 164.123 271.654"/><path d="M 163.527 269.881 L 164.067 269.186"/><path d="M 168.068 263.614 L 168.045 263.724"/><path d="M 165.41 276.343 L 163.961 283.279"/></g><g stroke="rgb(0, 0, 0)" stroke-width="0.13" stroke-linecap="butt" stroke-linejoin="miter" fill="none"><path d="M 163.961 283.279 L 164.5 282.584"/></g><g stroke="rgb(0, 0, 0)" stroke-width="0.35" stroke-linecap="butt" stroke-linejoin="miter" fill="none"><path d="M 165.68 276.935 L 164.5 282.584"/><path d="M 163.961 283.279 A 6 2.8497 -322.189 0 0 171.957 290.664"/><path d="M 164.501 282.584 A 6 2.8497 -322.189 0 0 171.581 289.841"/><path d="M 179.265 266.037 L 179.145 266.612"/><path d="M 174.624 266.206 A 2 0.94989 -322.189 0 0 173.221 265.204"/><path d="M 195.666 265.216 L 193.236 264.108"/><path d="M 175.074 263.574 A 6 2.8497 -322.189 0 0 175.164 263.619"/><path d="M 171.332 259.245 A 6 2.8497 -322.189 0 0 171.488 259.461"/><path d="M 191.143 270.905 L 185.85 268.493"/><path d="M 191.693 270.214 L 186.029 267.633"/></g><g stroke="rgb(0, 0, 0)" stroke-width="0.13" stroke-linecap="butt" stroke-linejoin="miter" fill="none"><path d="M 173.938 264.084 L 173.398 264.78"/></g><g stroke="rgb(0, 0, 0)" stroke-width="0.35" stroke-linecap="butt" stroke-linejoin="miter" fill="none"><path d="M 173.938 264.084 A 10 4.74951 -142.189 0 0 173.619 264.418"/><path d="M 173.619 264.418 A 10 4.74951 -142.189 0 0 173.103 265.942"/><path d="M 173.398 264.78 A 10 4.74951 -142.189 0 0 173.383 264.793"/><path d="M 165.655 269.368 A 6 2.8497 -142.189 0 0 169.222 273.429"/></g><g stroke="rgb(0, 0, 0)" stroke-width="0.13" stroke-linecap="butt" stroke-linejoin="miter" fill="none"><path d="M 165.655 269.368 L 165.115 270.063"/></g><g stroke="rgb(0, 0, 0)" stroke-width="0.35" stroke-linecap="butt" stroke-linejoin="miter" fill="none"><path d="M 165.115 270.063 A 6 2.8497 -142.189 0 0 169.871 274.85"/><path d="M 165.655 269.368 L 162.65 262.003"/></g><g stroke="rgb(0, 0, 0)" stroke-width="0.13" stroke-linecap="butt" stroke-linejoin="miter" fill="none"><path d="M 162.65 262.003 L 162.111 262.698"/></g><g stroke="rgb(0, 0, 0)" stroke-width="0.35" stroke-linecap="butt" stroke-linejoin="miter" fill="none"><path d="M 165.115 270.063 L 162.111 262.698"/><path d="M 162.701 258.222 A 10 4.74951 -142.189 0 0 162.65 262.003"/><path d="M 163.019 257.888 A 10 4.74951 -142.189 0 0 162.701 258.222"/><path d="M 162.161 258.917 A 10 4.74951 -142.189 0 0 162.111 262.698"/><path d="M 171.569 250.555 L 163.019 257.888"/><path d="M 177.595 251.979 A 6 2.8497 -142.189 0 0 171.569 250.555"/><path d="M 175.314 262.904 L 173.938 264.084"/><path d="M 175.255 263.187 L 173.398 264.78"/><path d="M 177.154 254.093 A 2 0.94989 -142.189 0 0 174.538 253.208"/><path d="M 175.385 255.062 A 2 0.94989 -142.189 0 0 176.792 255.824"/><path d="M 176.929 255.17 A 2 0.94989 -142.189 0 0 174.448 253.695"/><path d="M 174.538 253.208 A 2 0.94989 -142.189 0 0 175.385 255.062"/><path d="M 173.12 259.587 A 2 0.94989 -142.189 0 0 169.96 257.134"/><path d="M 170.807 258.989 A 2 0.94989 -142.189 0 0 173.12 259.587"/><path d="M 172.67 259.795 A 2 0.94989 -142.189 0 0 169.869 257.621"/><path d="M 169.96 257.134 A 2 0.94989 -142.189 0 0 170.807 258.989"/><path d="M 168.542 263.513 A 2 0.94989 -142.189 0 0 165.381 261.061"/><path d="M 166.229 262.916 A 2 0.94989 -142.189 0 0 168.542 263.513"/><path d="M 168.092 263.722 A 2 0.94989 -142.189 0 0 165.291 261.548"/><path d="M 165.381 261.061 A 2 0.94989 -142.189 0 0 166.229 262.916"/><path d="M 162.701 258.222 L 162.161 258.917"/><path d="M 174.342 263.971 A 6 2.8497 -322.189 0 0 175.01 263.63"/></g><g stroke="rgb(0, 0, 0)" stroke-width="0.13" stroke-linecap="butt" stroke-linejoin="miter" fill="none"><path d="M 175.01 263.63 L 175.218 263.361"/></g><g stroke="rgb(0, 0, 0)" stroke-width="0.35" stroke-linecap="butt" stroke-linejoin="miter" fill="none"><path d="M 175.01 263.63 L 175.195 263.471"/></g><g stroke="rgb(0, 0, 0)" stroke-width="0.13" stroke-linecap="butt" stroke-linejoin="miter" fill="none"><path d="M 187.359 261.268 L 187.436 261.168"/></g><g stroke="rgb(0, 0, 0)" stroke-width="0.35" stroke-linecap="butt" stroke-linejoin="miter" fill="none"><path d="M 187.388 261.127 L 187.436 261.168"/><path d="M 187.184 262.102 A 6 2.8497 -322.189 0 0 193.834 263.657"/><path d="M 187.436 261.168 A 6 2.8497 -322.189 0 0 194.374 262.962"/><path d="M 194.374 262.962 A 6 2.8497 -322.189 0 0 194.549 261.104"/><path d="M 178.506 246.884 A 5 2.37476 -322.189 0 0 175.974 247.009"/><path d="M 172.238 250.213 L 175.974 247.009"/><path d="M 171.597 259.519 A 2 0.94989 -322.189 0 0 171.193 259.123"/><path d="M 172.67 259.795 A 2 0.94989 -322.189 0 0 171.733 258.427"/><path d="M 171.193 259.123 A 2 0.94989 -322.189 0 0 170.403 258.593"/><path d="M 171.733 258.427 A 2 0.94989 -322.189 0 0 169.869 257.621"/><path d="M 176.175 255.593 A 2 0.94989 -322.189 0 0 175.771 255.196"/><path d="M 176.929 255.17 A 2 0.94989 -322.189 0 0 176.311 254.501"/><path d="M 175.771 255.196 A 2 0.94989 -322.189 0 0 174.981 254.666"/><path d="M 176.311 254.501 A 2 0.94989 -322.189 0 0 174.448 253.695"/><path d="M 193.834 263.657 L 194.374 262.962"/><path d="M 182.923 274.902 A 4 1.89981 -142.189 0 0 182.904 273.297"/><path d="M 181.038 275.212 A 4 1.89981 -142.189 0 0 182.923 274.902"/><path d="M 180.498 275.908 A 4 1.89981 -142.189 0 0 182.384 275.597"/><path d="M 176.603 269.997 A 4 1.89981 -142.189 0 0 181.038 275.212"/><path d="M 178.164 269.618 A 4 1.89981 -142.189 0 0 176.603 269.997"/><path d="M 176.064 270.693 A 4 1.89981 -142.189 0 0 180.498 275.908"/><path d="M 182.924 274.902 L 182.384 275.597"/><path d="M 176.603 269.997 L 176.064 270.693"/><path d="M 167.538 284.126 A 2.5 1.18738 -322.189 0 0 170.278 287.378"/><path d="M 170.278 287.378 A 2.5 1.18738 -322.189 0 0 170.475 287.422"/><path d="M 167.538 284.126 L 168.438 282.966"/><path d="M 174.012 275.784 A 2.5 1.18738 -322.189 0 0 175.574 278.481"/><path d="M 175.574 278.481 A 2.5 1.18738 -322.189 0 0 177.962 278.849"/><path d="M 174.012 275.784 L 175.121 274.354"/><path d="M 177.962 278.849 L 179.071 277.419"/><path d="M 165.472 270.783 A 4 1.89981 -322.189 0 0 167.289 274.075"/><path d="M 167.289 274.075 A 4 1.89981 -322.189 0 0 170.244 275.665"/><path d="M 167.081 268.745 A 4 1.89981 -322.189 0 0 168.291 271.394"/><path d="M 172.101 269.852 A 2 0.94989 -322.189 0 0 171.398 269.222"/><path d="M 171.398 269.222 A 2 0.94989 -322.189 0 0 170.907 268.925"/><path d="M 171.935 268.525 A 2 0.94989 -142.189 0 0 170.373 267.953"/><path d="M 171.395 269.22 A 2 0.94989 -142.189 0 0 170.907 268.925"/><path d="M 173.175 270.127 A 2 0.94989 -142.189 0 0 171.935 268.525"/><path d="M 172.101 269.852 A 2 0.94989 -142.189 0 0 171.395 269.22"/><path d="M 164.445 287.296 A 3 1.42487 -322.189 0 0 167.65 291.174"/><path d="M 167.65 291.174 A 3 1.42487 -322.189 0 0 169.185 290.974"/><path d="M 164.445 287.296 L 165.09 286.465"/><path d="M 169.185 290.974 L 169.83 290.143"/><path d="M 177.393 270.61 A 3 1.42487 -322.189 0 0 180.599 274.489"/><path d="M 180.453 268.299 A 3 1.42487 -322.189 0 0 179.012 268.525"/><path d="M 179.012 268.525 A 3 1.42487 -322.189 0 0 182.217 272.403"/><path d="M 180.599 274.489 A 3 1.42487 -322.189 0 0 182.133 274.289"/><path d="M 182.217 272.403 A 3 1.42487 -322.189 0 0 183.752 272.203"/><path d="M 183.752 272.203 A 3 1.42487 -322.189 0 0 183.613 270.752"/><path d="M 179.802 269.138 A 2 0.94989 -322.189 1 0 182.962 271.59"/><path d="M 177.393 270.61 L 179.012 268.525"/><path d="M 182.133 274.289 L 183.752 272.203"/><path d="M 164.426 288.952 A 2 0.94989 -322.189 0 0 166.563 291.537"/><path d="M 183.771 270.547 A 2 0.94989 -322.189 1 0 180.611 268.095"/><path d="M 180.611 268.095 A 2 0.94989 -322.189 0 0 182.748 270.68"/><path d="M 166.563 291.537 A 2 0.94989 -322.189 0 0 167.586 291.404"/><path d="M 182.748 270.68 A 2 0.94989 -322.189 0 0 183.771 270.547"/><path d="M 164.426 288.952 L 164.584 288.748"/><path d="M 179.802 269.138 L 180.611 268.095"/><path d="M 167.586 291.404 L 167.744 291.2"/><path d="M 182.962 271.59 L 183.771 270.547"/><path d="M 187.501 260.587 A 5 2.37476 -322.189 0 0 191.121 262.709"/><path d="M 191.121 262.709 A 5 2.37476 -322.189 0 0 193.584 262.349"/><path d="M 193.584 262.349 L 196.673 258.367"/><path d="M 181.907 261.085 A 5 2.37476 -322.189 0 0 181.736 261.393"/><path d="M 186.138 267.113 A 5 2.37476 -322.189 0 0 187.345 267.576"/><path d="M 187.345 267.576 A 5 2.37476 -322.189 0 0 189.807 267.215"/><path d="M 181.907 261.085 L 182.284 260.599"/><path d="M 189.807 267.215 L 192.078 264.288"/><path d="M 199.576 249.733 A 2 0.94989 -322.189 1 0 196.416 247.281"/><path d="M 196.416 247.281 A 2 0.94989 -322.189 0 0 198.491 249.847"/><path d="M 198.491 249.847 A 2 0.94989 -322.189 0 0 199.576 249.733"/><path d="M 180.47 267.829 L 180.928 267.239"/><path d="M 195.067 249.019 L 196.416 247.281"/><path d="M 198.227 251.471 L 199.576 249.733"/><path d="M 191.329 250.574 A 4 1.89981 -322.189 0 0 195.48 255.707"/><path d="M 193.429 249.499 A 4 1.89981 -322.189 0 0 191.868 249.879"/><path d="M 191.868 249.879 A 4 1.89981 -322.189 0 0 196.019 255.012"/><path d="M 195.48 255.707 A 4 1.89981 -322.189 0 0 197.649 255.478"/><path d="M 196.019 255.012 A 4 1.89981 -322.189 0 0 198.188 254.783"/><path d="M 198.188 254.783 A 4 1.89981 -322.189 0 0 198.169 253.177"/><path d="M 191.329 250.574 L 191.868 249.879"/><path d="M 197.649 255.478 L 198.188 254.783"/><path d="M 180.726 266.794 A 3 1.42487 -322.189 0 0 181.397 267.906"/><path d="M 185.69 269.259 L 186.171 268.639"/><path d="M 192.658 250.492 A 3 1.42487 -322.189 0 0 195.772 254.341"/><path d="M 195.718 248.18 A 3 1.42487 -322.189 0 0 194.277 248.406"/><path d="M 194.277 248.406 A 3 1.42487 -322.189 0 0 197.39 252.256"/><path d="M 195.772 254.341 A 3 1.42487 -322.189 0 0 197.398 254.17"/><path d="M 197.39 252.256 A 3 1.42487 -322.189 0 0 199.017 252.084"/><path d="M 199.017 252.084 A 3 1.42487 -322.189 0 0 198.878 250.632"/><path d="M 195.067 249.019 A 2 0.94989 -322.189 1 0 198.227 251.471"/><path d="M 192.658 250.492 L 194.277 248.406"/><path d="M 197.398 254.17 L 199.017 252.084"/><path d="M 183.263 280.818 L 181.275 279.847"/><path d="M 158.53 271.727 A 6 2.8497 -322.189 0 0 158.34 273.535"/><path d="M 159.07 271.032 A 6 2.8497 -322.189 0 0 158.809 271.585"/><path d="M 164.405 275.172 A 2 0.94989 -322.189 0 0 163.214 274.248"/><path d="M 164.282 273.877 A 2 0.94989 -322.189 0 0 162.679 273.276"/><path d="M 158.53 271.727 L 159.07 271.032"/></g><g stroke="rgb(0, 0, 0)" stroke-width="0.13" stroke-linecap="butt" stroke-linejoin="miter" fill="none"><path d="M 152.76 296.73 L 153.299 296.034"/></g><g stroke="rgb(0, 0, 0)" stroke-width="0.35" stroke-linecap="butt" stroke-linejoin="miter" fill="none"><path d="M 152.76 296.73 A 6 2.8497 -322.189 0 0 162.501 303.533"/><path d="M 153.299 296.034 A 6 2.8497 -322.189 0 0 163.041 302.838"/><path d="M 163.041 302.838 A 6 2.8497 -322.189 0 0 163.302 302.284"/><path d="M 163.302 302.284 L 165.95 291.276"/><path d="M 159.07 271.032 A 6 2.8497 -322.189 0 0 158.809 271.585"/></g><g stroke="rgb(0, 0, 0)" stroke-width="0.13" stroke-linecap="butt" stroke-linejoin="miter" fill="none"><path d="M 158.809 271.585 L 159.348 270.89"/></g><g stroke="rgb(0, 0, 0)" stroke-width="0.35" stroke-linecap="butt" stroke-linejoin="miter" fill="none"><path d="M 163.355 270.171 A 6 2.8497 -322.189 0 0 159.609 270.337"/><path d="M 159.609 270.337 A 6 2.8497 -322.189 0 0 159.348 270.89"/><path d="M 152.76 296.73 L 158.809 271.585"/><path d="M 153.299 296.034 L 159.348 270.89"/><path d="M 164.282 273.877 A 2 0.94989 -322.189 0 0 164.048 273.719"/><path d="M 162.769 272.789 A 2 0.94989 -322.189 0 0 164.975 275.393"/><path d="M 164.048 273.719 A 2 0.94989 -322.189 0 0 162.679 273.276"/><path d="M 163.714 272.634 A 2 0.94989 -322.189 0 0 162.769 272.789"/><path d="M 163.968 281.736 A 2 0.94989 -322.189 0 0 162.536 280.006"/><path d="M 161.257 279.075 A 2 0.94989 -322.189 0 0 164.306 281.63"/><path d="M 164.464 280.871 A 2 0.94989 -322.189 0 0 163.076 279.31"/><path d="M 162.536 280.006 A 2 0.94989 -322.189 0 0 161.167 279.562"/><path d="M 163.076 279.31 A 2 0.94989 -322.189 0 0 161.257 279.075"/><path d="M 162.456 288.022 A 2 0.94989 -322.189 0 0 161.024 286.292"/><path d="M 159.745 285.361 A 2 0.94989 -322.189 0 0 162.905 287.813"/><path d="M 162.905 287.813 A 2 0.94989 -322.189 0 0 161.563 285.596"/><path d="M 161.024 286.292 A 2 0.94989 -322.189 0 0 159.654 285.848"/><path d="M 161.563 285.596 A 2 0.94989 -322.189 0 0 159.745 285.361"/><path d="M 160.858 294.025 A 2 0.94989 -322.189 0 0 159.512 292.578"/><path d="M 158.233 291.647 A 2 0.94989 -322.189 0 0 159.81 294"/><path d="M 161.271 294.209 A 2 0.94989 -322.189 0 0 161.393 294.099"/><path d="M 161.393 294.099 A 2 0.94989 -322.189 0 0 160.051 291.883"/><path d="M 159.512 292.578 A 2 0.94989 -322.189 0 0 158.142 292.134"/><path d="M 160.051 291.883 A 2 0.94989 -322.189 0 0 158.233 291.647"/><path d="M 162.501 303.533 L 163.041 302.838"/><path d="M 159.07 271.032 L 159.609 270.337"/></g><g stroke="rgb(0, 0, 0)" stroke-width="0.13" stroke-linecap="butt" stroke-linejoin="miter" fill="none"><path d="M 157.503 319.967 L 158.042 319.271"/></g><g stroke="rgb(0, 0, 0)" stroke-width="0.35" stroke-linecap="butt" stroke-linejoin="miter" fill="none"><path d="M 157.503 319.967 A 6 2.8497 -322.189 0 0 166.946 324.898"/><path d="M 158.042 319.271 A 6 2.8497 -322.189 0 0 167.486 324.203"/><path d="M 167.486 324.203 A 6 2.8497 -322.189 0 0 167.449 321.778"/><path d="M 167.449 321.778 L 159.482 303.947"/><path d="M 145.943 291.751 A 6 2.8497 -322.189 0 0 145.979 294.176"/></g><g stroke="rgb(0, 0, 0)" stroke-width="0.13" stroke-linecap="butt" stroke-linejoin="miter" fill="none"><path d="M 145.979 294.176 L 146.519 293.481"/></g><g stroke="rgb(0, 0, 0)" stroke-width="0.35" stroke-linecap="butt" stroke-linejoin="miter" fill="none"><path d="M 153.646 293.047 A 6 2.8497 -322.189 0 0 146.482 291.055"/><path d="M 146.482 291.055 A 6 2.8497 -322.189 0 0 146.519 293.481"/><path d="M 157.503 319.967 L 145.979 294.176"/><path d="M 158.042 319.271 L 146.519 293.481"/><path d="M 163.876 321.959 A 2 0.94989 -322.189 0 0 161.592 319.845"/><path d="M 161.166 319.299 A 2 0.94989 -322.189 1 0 164.326 321.751"/><path d="M 164.326 321.751 A 2 0.94989 -322.189 0 0 162.131 319.149"/><path d="M 161.592 319.845 A 2 0.94989 -322.189 0 0 161.075 319.786"/><path d="M 162.131 319.149 A 2 0.94989 -322.189 0 0 161.166 319.299"/><path d="M 152.353 296.168 A 2 0.94989 -322.189 0 0 150.068 294.054"/><path d="M 149.642 293.508 A 2 0.94989 -322.189 1 0 152.802 295.96"/><path d="M 152.802 295.96 A 2 0.94989 -322.189 0 0 150.608 293.358"/><path d="M 150.068 294.054 A 2 0.94989 -322.189 0 0 149.552 293.995"/><path d="M 150.608 293.358 A 2 0.94989 -322.189 0 0 149.642 293.508"/><path d="M 158.115 309.064 A 2 0.94989 -322.189 0 0 155.83 306.949"/><path d="M 155.404 306.403 A 2 0.94989 -322.189 1 0 158.564 308.855"/><path d="M 158.564 308.855 A 2 0.94989 -322.189 0 0 156.369 306.254"/><path d="M 155.83 306.949 A 2 0.94989 -322.189 0 0 155.314 306.89"/><path d="M 156.369 306.254 A 2 0.94989 -322.189 0 0 155.404 306.403"/><path d="M 160.035 313.362 A 2 0.94989 -322.189 0 0 157.75 311.248"/><path d="M 157.324 310.702 A 2 0.94989 -322.189 1 0 160.485 313.154"/><path d="M 160.485 313.154 A 2 0.94989 -322.189 0 0 158.29 310.552"/><path d="M 157.75 311.248 A 2 0.94989 -322.189 0 0 157.234 311.189"/><path d="M 158.29 310.552 A 2 0.94989 -322.189 0 0 157.324 310.702"/><path d="M 166.946 324.898 L 167.486 324.203"/><path d="M 145.943 291.751 L 146.482 291.055"/><path d="M 155.953 321.938 A 4.5 2.13727 -322.189 0 0 160.891 327.791"/><path d="M 160.891 327.791 A 4.5 2.13727 -322.189 0 0 163.064 327.455"/><path d="M 163.876 321.959 A 2 0.94989 -322.189 0 0 161.592 319.845"/><path d="M 161.592 319.845 A 2 0.94989 -322.189 0 0 161.075 319.786"/><path d="M 152.44 313.928 A 3.92038 1.86197 -322.189 0 0 153.77 316.905"/><path d="M 160.035 313.362 A 2 0.94989 -322.189 0 0 157.75 311.248"/><path d="M 157.75 311.248 A 2 0.94989 -322.189 0 0 157.234 311.189"/><path d="M 156.521 323.061 L 152.679 314.464"/></g><g stroke="rgb(0, 0, 0)" stroke-width="0.13" stroke-linecap="butt" stroke-linejoin="miter" fill="none"><path d="M 156.521 323.061 L 158.102 321.023"/></g><g stroke="rgb(0, 0, 0)" stroke-width="0.35" stroke-linecap="butt" stroke-linejoin="miter" fill="none"><path d="M 155.986 307.936 A 4.5 2.13727 -322.189 0 0 157.234 307.746"/><path d="M 157.041 308.788 A 2 0.94989 -322.189 0 0 155.986 307.936"/><path d="M 152.679 314.464 L 148.838 305.867"/></g><g stroke="rgb(0, 0, 0)" stroke-width="0.13" stroke-linecap="butt" stroke-linejoin="miter" fill="none"><path d="M 148.838 305.867 L 150.339 303.933"/></g><g stroke="rgb(0, 0, 0)" stroke-width="0.35" stroke-linecap="butt" stroke-linejoin="miter" fill="none"><path d="M 155.954 307.977 L 155.986 307.936"/><path d="M 148.271 304.744 A 4.5 2.13727 -322.189 0 0 150.214 308.946"/><path d="M 155.321 306.929 A 4.5 2.13727 -322.189 0 0 155.907 307.121"/><path d="M 155.907 307.121 A 4.5 2.13727 -322.189 0 0 156.527 307.241"/><path d="M 163.064 327.455 L 164.606 325.468"/><path d="M 155.953 321.938 L 155.995 321.884"/><path d="M 148.271 304.744 L 149.813 302.756"/></g><g stroke="rgb(0, 0, 0)" stroke-width="0.13" stroke-linecap="butt" stroke-linejoin="miter" fill="none"><path d="M 154.266 324.138 L 154.805 323.443"/></g><g stroke="rgb(0, 0, 0)" stroke-width="0.35" stroke-linecap="butt" stroke-linejoin="miter" fill="none"><path d="M 154.266 324.138 A 6 2.8497 -322.189 0 0 163.709 329.07"/><path d="M 154.805 323.443 A 6 2.8497 -322.189 0 0 164.249 328.375"/><path d="M 164.249 328.375 A 6 2.8497 -322.189 0 0 164.219 325.966"/><path d="M 142.706 295.922 A 6 2.8497 -322.189 0 0 142.742 298.347"/></g><g stroke="rgb(0, 0, 0)" stroke-width="0.13" stroke-linecap="butt" stroke-linejoin="miter" fill="none"><path d="M 142.742 298.347 L 143.282 297.652"/></g><g stroke="rgb(0, 0, 0)" stroke-width="0.35" stroke-linecap="butt" stroke-linejoin="miter" fill="none"><path d="M 143.89 294.757 A 6 2.8497 -322.189 0 0 143.245 295.227"/><path d="M 143.245 295.227 A 6 2.8497 -322.189 0 0 143.282 297.652"/><path d="M 154.266 324.138 L 142.742 298.347"/><path d="M 154.805 323.443 L 143.282 297.652"/><path d="M 163.709 329.07 L 164.249 328.375"/><path d="M 142.706 295.922 L 143.245 295.227"/><path d="M 147.892 289.114 L 147.674 290.017"/><path d="M 144.646 302.607 L 143.049 309.244"/></g><g stroke="rgb(0, 0, 0)" stroke-width="0.13" stroke-linecap="butt" stroke-linejoin="miter" fill="none"><path d="M 143.049 309.244 L 143.588 308.549"/></g><g stroke="rgb(0, 0, 0)" stroke-width="0.35" stroke-linecap="butt" stroke-linejoin="miter" fill="none"><path d="M 148.18 289.462 L 148.018 290.134"/><path d="M 144.888 303.148 L 143.588 308.549"/><path d="M 143.049 309.244 A 6 2.8497 -322.189 0 0 150.93 316.673"/><path d="M 143.588 308.549 A 6 2.8497 -322.189 0 0 150.554 315.831"/><path d="M 159 292.31 L 158.782 293.22"/><path d="M 153.854 292.183 A 2 0.94989 -322.189 0 0 153.832 292.165"/><path d="M 170.046 297.444 L 165.053 295.005"/><path d="M 170.595 296.753 L 165.259 294.147"/><path d="M 153.933 291.853 A 10 4.74951 -142.189 0 0 153.834 291.971"/><path d="M 153.834 291.971 A 10 4.74951 -142.189 0 0 153.412 292.843"/><path d="M 153.863 292.144 A 10 4.74951 -142.189 0 0 153.598 292.345"/><path d="M 144.665 294.918 A 6 2.8497 -142.189 0 0 148.32 299.413"/></g><g stroke="rgb(0, 0, 0)" stroke-width="0.13" stroke-linecap="butt" stroke-linejoin="miter" fill="none"><path d="M 144.665 294.918 L 144.125 295.613"/></g><g stroke="rgb(0, 0, 0)" stroke-width="0.35" stroke-linecap="butt" stroke-linejoin="miter" fill="none"><path d="M 144.125 295.613 A 6 2.8497 -142.189 0 0 148.959 300.843"/><path d="M 144.665 294.918 L 142.745 287.923"/></g><g stroke="rgb(0, 0, 0)" stroke-width="0.13" stroke-linecap="butt" stroke-linejoin="miter" fill="none"><path d="M 142.745 287.923 L 142.206 288.618"/></g><g stroke="rgb(0, 0, 0)" stroke-width="0.35" stroke-linecap="butt" stroke-linejoin="miter" fill="none"><path d="M 144.125 295.613 L 142.206 288.618"/><path d="M 143.076 284.961 A 10 4.74951 -142.189 0 0 142.745 287.923"/><path d="M 143.904 284.289 A 10 4.74951 -142.189 0 0 143.076 284.961"/><path d="M 142.537 285.656 A 10 4.74951 -142.189 0 0 142.206 288.618"/><path d="M 154.569 278.871 L 143.904 284.289"/><path d="M 157.061 278.851 A 6 2.8497 -142.189 0 0 154.569 278.871"/><path d="M 162.224 287.457 L 161.525 287.812"/><path d="M 162.391 287.793 L 162.02 287.982"/><path d="M 154.682 287.08 A 2 0.94989 -142.189 0 0 151.522 284.628"/><path d="M 152.188 286.318 A 2 0.94989 -142.189 0 0 154.682 287.08"/><path d="M 154.232 287.289 A 2 0.94989 -142.189 0 0 151.431 285.115"/><path d="M 151.522 284.628 A 2 0.94989 -142.189 0 0 152.188 286.318"/><path d="M 148.971 289.981 A 2 0.94989 -142.189 0 0 145.811 287.529"/><path d="M 146.477 289.219 A 2 0.94989 -142.189 0 0 148.971 289.981"/><path d="M 148.521 290.19 A 2 0.94989 -142.189 0 0 145.72 288.016"/><path d="M 145.811 287.529 A 2 0.94989 -142.189 0 0 146.477 289.219"/><path d="M 143.076 284.961 L 142.537 285.656"/><path d="M 162.02 287.982 L 162.391 287.793"/><path d="M 169.177 290.985 L 169.544 291.338"/></g><g stroke="rgb(0, 0, 0)" stroke-width="0.13" stroke-linecap="butt" stroke-linejoin="miter" fill="none"><path d="M 169.544 291.338 L 170.083 290.643"/></g><g stroke="rgb(0, 0, 0)" stroke-width="0.35" stroke-linecap="butt" stroke-linejoin="miter" fill="none"><path d="M 169.717 290.29 L 170.083 290.643"/><path d="M 169.544 291.338 A 6 2.8497 -322.189 0 0 173.032 293.688"/><path d="M 170.083 290.643 A 6 2.8497 -322.189 0 0 172.87 292.658"/><path d="M 155.846 278.644 L 157.287 277.912"/><path d="M 153.158 287.012 A 2 0.94989 -322.189 0 0 152.936 286.78"/><path d="M 154.232 287.289 A 2 0.94989 -322.189 0 0 153.476 286.085"/><path d="M 152.936 286.78 A 2 0.94989 -322.189 0 0 151.966 286.087"/><path d="M 153.476 286.085 A 2 0.94989 -322.189 0 0 151.431 285.115"/><path d="M 162.3 279.869 A 2 0.94989 -322.189 0 0 163.735 281.731"/><path d="M 162.547 280.013 A 2 0.94989 -322.189 0 0 162.314 280.008"/><path d="M 162 300.916 A 4 1.89981 -142.189 0 0 161.98 299.311"/><path d="M 159.963 301.185 A 4 1.89981 -142.189 0 0 162 300.916"/><path d="M 159.423 301.881 A 4 1.89981 -142.189 0 0 161.461 301.612"/><path d="M 155.68 296.012 A 4 1.89981 -142.189 0 0 159.963 301.185"/><path d="M 157.24 295.632 A 4 1.89981 -142.189 0 0 155.68 296.012"/><path d="M 155.14 296.707 A 4 1.89981 -142.189 0 0 159.423 301.881"/><path d="M 162 300.916 L 161.461 301.612"/><path d="M 155.68 296.012 L 155.14 296.707"/><path d="M 146.614 310.141 A 2.5 1.18738 -322.189 0 0 149.197 313.346"/><path d="M 149.197 313.346 A 2.5 1.18738 -322.189 0 0 149.478 313.422"/><path d="M 146.614 310.141 L 147.501 308.998"/><path d="M 153.088 301.798 A 2.5 1.18738 -322.189 0 0 154.561 304.434"/><path d="M 154.561 304.434 A 2.5 1.18738 -322.189 0 0 157.039 304.864"/><path d="M 153.088 301.798 L 154.198 300.369"/><path d="M 157.039 304.864 L 158.148 303.433"/><path d="M 144.651 296.825 A 4 1.89981 -322.189 0 0 145.509 299.124"/><path d="M 145.509 299.124 A 4 1.89981 -322.189 0 0 149.335 301.687"/><path d="M 146.257 294.796 A 4 1.89981 -322.189 0 0 147.403 297.363"/><path d="M 151.279 295.892 A 2 0.94989 -322.189 0 0 151.067 295.67"/><path d="M 151.067 295.67 A 2 0.94989 -322.189 0 0 150.087 294.967"/><path d="M 151.657 295.024 A 2 0.94989 -142.189 0 0 149.552 293.995"/><path d="M 151.118 295.72 A 2 0.94989 -142.189 0 0 150.086 294.966"/><path d="M 152.353 296.168 A 2 0.94989 -142.189 0 0 151.657 295.024"/><path d="M 151.279 295.893 A 2 0.94989 -142.189 0 0 151.118 295.72"/><path d="M 143.522 313.311 A 3 1.42487 -322.189 0 0 146.622 317.156"/><path d="M 146.622 317.156 A 3 1.42487 -322.189 0 0 148.262 316.989"/><path d="M 143.522 313.311 L 144.167 312.479"/><path d="M 148.262 316.989 L 148.907 316.158"/><path d="M 156.47 296.625 A 3 1.42487 -322.189 0 0 159.57 300.47"/><path d="M 159.53 294.313 A 3 1.42487 -322.189 0 0 158.088 294.539"/><path d="M 158.088 294.539 A 3 1.42487 -322.189 0 0 161.188 298.385"/><path d="M 159.57 300.47 A 3 1.42487 -322.189 0 0 161.21 300.303"/><path d="M 161.188 298.385 A 3 1.42487 -322.189 0 0 162.829 298.218"/><path d="M 162.829 298.218 A 3 1.42487 -322.189 0 0 162.69 296.766"/><path d="M 158.878 295.152 A 2 0.94989 -322.189 0 0 162.039 297.605"/><path d="M 156.47 296.625 L 158.088 294.539"/><path d="M 161.21 300.303 L 162.829 298.218"/><path d="M 143.503 314.967 A 2 0.94989 -322.189 0 0 145.569 317.53"/><path d="M 162.848 296.562 A 2 0.94989 -322.189 0 0 159.688 294.109"/><path d="M 159.688 294.109 A 2 0.94989 -322.189 0 0 161.754 296.673"/><path d="M 145.569 317.53 A 2 0.94989 -322.189 0 0 146.663 317.419"/><path d="M 161.754 296.673 A 2 0.94989 -322.189 0 0 162.848 296.562"/><path d="M 143.503 314.967 L 143.661 314.763"/><path d="M 158.878 295.152 L 159.688 294.109"/><path d="M 146.663 317.419 L 146.821 317.215"/><path d="M 162.039 297.605 L 162.848 296.562"/><path d="M 165.386 293.62 A 5 2.37476 -322.189 0 0 166.881 294.301"/><path d="M 166.881 294.301 A 5 2.37476 -322.189 0 0 169.633 294.029"/><path d="M 169.633 294.029 L 170.865 292.442"/><path d="M 160.506 293.452 A 3 1.42487 -322.189 0 0 160.713 293.976"/><path d="M 164.671 296.592 A 3 1.42487 -322.189 0 0 165.356 296.279"/><path d="M 165.356 296.279 L 165.989 295.463"/><path d="M 276.492 359.348 A 6 2.8497 -142.189 0 0 276.579 359.247"/><path d="M 275.555 360.339 A 6 2.8497 -142.189 0 0 276.039 359.942"/><path d="M 264.517 341.236 L 262.264 329.423"/><path d="M 263.81 341.054 L 261.722 330.105"/><path d="M 270.826 326.208 A 6 2.8497 -142.189 0 0 270.74 325.859"/><path d="M 273.083 338.041 L 270.826 326.208"/><path d="M 265.748 330.695 A 2 0.94989 -142.189 0 0 268.908 333.147"/><path d="M 267.091 330.679 A 2 0.94989 -142.189 0 0 265.748 330.695"/><path d="M 266.551 331.374 A 2 0.94989 -142.189 0 0 265.657 331.182"/><path d="M 268.908 333.147 A 2 0.94989 -142.189 0 0 267.091 330.679"/><path d="M 268.459 333.355 A 2 0.94989 -142.189 0 0 266.551 331.374"/><path d="M 267.251 338.577 A 2 0.94989 -142.189 0 0 270.411 341.03"/><path d="M 268.594 338.561 A 2 0.94989 -142.189 0 0 267.251 338.577"/><path d="M 268.055 339.256 A 2 0.94989 -142.189 0 0 267.161 339.064"/><path d="M 270.411 341.03 A 2 0.94989 -142.189 0 0 268.594 338.561"/><path d="M 269.962 341.238 A 2 0.94989 -142.189 0 0 268.055 339.256"/><path d="M 276.579 359.247 L 276.039 359.942"/><path d="M 286.29 346.733 A 6 2.8497 -142.189 0 0 286.551 345.224"/><path d="M 276.548 340.884 A 6 2.8497 -142.189 0 0 286.29 346.733"/></g><g stroke="rgb(0, 0, 0)" stroke-width="0.13" stroke-linecap="butt" stroke-linejoin="miter" fill="none"><path d="M 276.548 340.884 L 276.008 341.579"/></g><g stroke="rgb(0, 0, 0)" stroke-width="0.35" stroke-linecap="butt" stroke-linejoin="miter" fill="none"><path d="M 276.008 341.579 A 6 2.8497 -142.189 0 0 285.75 347.428"/><path d="M 276.548 340.884 L 272.021 317.15"/><path d="M 276.008 341.579 L 271.479 317.831"/><path d="M 280.537 313.694 A 6 2.8497 -142.189 0 0 278.763 310.628"/><path d="M 286.551 345.224 L 280.537 313.694"/><path d="M 279.97 341.828 A 2 0.94989 -142.189 0 0 283.13 344.28"/><path d="M 281.313 341.812 A 2 0.94989 -142.189 0 0 279.97 341.828"/><path d="M 280.773 342.507 A 2 0.94989 -142.189 0 0 279.879 342.315"/><path d="M 283.13 344.28 A 2 0.94989 -142.189 0 0 281.313 341.812"/><path d="M 282.68 344.489 A 2 0.94989 -142.189 0 0 280.773 342.507"/><path d="M 275.578 312.675 A 2 0.94989 -142.189 0 0 277.116 312.75"/><path d="M 275.459 318.18 A 2 0.94989 -142.189 0 0 278.619 320.633"/><path d="M 276.802 318.164 A 2 0.94989 -142.189 0 0 275.459 318.18"/><path d="M 276.263 318.86 A 2 0.94989 -142.189 0 0 275.368 318.668"/><path d="M 278.619 320.633 A 2 0.94989 -142.189 0 0 276.802 318.164"/><path d="M 278.17 320.841 A 2 0.94989 -142.189 0 0 276.263 318.86"/><path d="M 276.962 326.063 A 2 0.94989 -142.189 0 0 280.123 328.515"/><path d="M 278.306 326.047 A 2 0.94989 -142.189 0 0 276.962 326.063"/><path d="M 277.766 326.742 A 2 0.94989 -142.189 0 0 276.872 326.55"/><path d="M 280.123 328.515 A 2 0.94989 -142.189 0 0 278.306 326.047"/><path d="M 279.673 328.724 A 2 0.94989 -142.189 0 0 277.766 326.742"/><path d="M 278.466 333.945 A 2 0.94989 -142.189 0 0 281.626 336.398"/><path d="M 279.809 333.929 A 2 0.94989 -142.189 0 0 278.466 333.945"/><path d="M 279.27 334.625 A 2 0.94989 -142.189 0 0 278.375 334.433"/><path d="M 281.626 336.398 A 2 0.94989 -142.189 0 0 279.809 333.929"/><path d="M 281.177 336.606 A 2 0.94989 -142.189 0 0 279.27 334.625"/><path d="M 286.29 346.733 L 285.75 347.428"/><path d="M 277.118 358.552 A 6 2.8497 -142.189 0 0 276.795 355.568"/><path d="M 277.031 358.653 A 6 2.8497 -142.189 0 0 277.118 358.552"/></g><g stroke="rgb(0, 0, 0)" stroke-width="0.13" stroke-linecap="butt" stroke-linejoin="miter" fill="none"><path d="M 277.031 358.653 L 276.492 359.348"/></g><g stroke="rgb(0, 0, 0)" stroke-width="0.35" stroke-linecap="butt" stroke-linejoin="miter" fill="none"><path d="M 276.492 359.348 A 6 2.8497 -142.189 0 0 276.579 359.247"/><path d="M 277.031 358.653 L 273.477 362.406"/></g><g stroke="rgb(0, 0, 0)" stroke-width="0.13" stroke-linecap="butt" stroke-linejoin="miter" fill="none"><path d="M 273.477 362.406 L 272.938 363.102"/></g><g stroke="rgb(0, 0, 0)" stroke-width="0.35" stroke-linecap="butt" stroke-linejoin="miter" fill="none"><path d="M 276.492 359.348 L 272.938 363.102"/><path d="M 268.888 363.009 A 10 4.74951 -142.189 0 0 273.477 362.406"/></g><g stroke="rgb(0, 0, 0)" stroke-width="0.13" stroke-linecap="butt" stroke-linejoin="miter" fill="none"><path d="M 268.888 363.009 L 268.349 363.704"/></g><g stroke="rgb(0, 0, 0)" stroke-width="0.35" stroke-linecap="butt" stroke-linejoin="miter" fill="none"><path d="M 268.349 363.704 A 10 4.74951 -142.189 0 0 272.938 363.102"/><path d="M 250.676 358.326 L 268.888 363.009"/></g><g stroke="rgb(0, 0, 0)" stroke-width="0.13" stroke-linecap="butt" stroke-linejoin="miter" fill="none"><path d="M 250.676 358.326 L 250.137 359.021"/></g><g stroke="rgb(0, 0, 0)" stroke-width="0.35" stroke-linecap="butt" stroke-linejoin="miter" fill="none"><path d="M 250.137 359.021 L 268.349 363.704"/><path d="M 243.908 352.513 A 6 2.8497 -142.189 0 0 250.676 358.326"/><path d="M 246.377 349.937 A 6 2.8497 -142.189 0 0 245.995 349.888"/><path d="M 243.365 353.197 A 6 2.8497 -142.189 0 0 250.137 359.021"/><path d="M 277.118 358.552 L 276.579 359.247"/><path d="M 269.843 342.606 A 10 4.74951 -142.189 0 0 274.432 342.003"/><path d="M 275.811 340.546 L 274.432 342.003"/><path d="M 285.663 347.529 A 6 2.8497 -142.189 0 0 285.75 347.428"/></g><g stroke="rgb(0, 0, 0)" stroke-width="0.13" stroke-linecap="butt" stroke-linejoin="miter" fill="none"><path d="M 285.663 347.529 L 285.124 348.224"/></g><g stroke="rgb(0, 0, 0)" stroke-width="0.35" stroke-linecap="butt" stroke-linejoin="miter" fill="none"><path d="M 285.124 348.224 A 6 2.8497 -142.189 0 0 285.211 348.123"/><path d="M 285.663 347.529 L 282.109 351.283"/></g><g stroke="rgb(0, 0, 0)" stroke-width="0.13" stroke-linecap="butt" stroke-linejoin="miter" fill="none"><path d="M 282.109 351.283 L 281.57 351.978"/></g><g stroke="rgb(0, 0, 0)" stroke-width="0.35" stroke-linecap="butt" stroke-linejoin="miter" fill="none"><path d="M 285.124 348.224 L 281.57 351.978"/><path d="M 277.52 351.885 A 10 4.74951 -142.189 0 0 282.109 351.283"/></g><g stroke="rgb(0, 0, 0)" stroke-width="0.13" stroke-linecap="butt" stroke-linejoin="miter" fill="none"><path d="M 277.52 351.885 L 276.981 352.581"/></g><g stroke="rgb(0, 0, 0)" stroke-width="0.35" stroke-linecap="butt" stroke-linejoin="miter" fill="none"><path d="M 276.981 352.581 A 10 4.74951 -142.189 0 0 281.57 351.978"/><path d="M 259.309 347.202 L 277.52 351.885"/></g><g stroke="rgb(0, 0, 0)" stroke-width="0.13" stroke-linecap="butt" stroke-linejoin="miter" fill="none"><path d="M 259.309 347.202 L 258.769 347.897"/></g><g stroke="rgb(0, 0, 0)" stroke-width="0.35" stroke-linecap="butt" stroke-linejoin="miter" fill="none"><path d="M 258.769 347.897 L 276.981 352.581"/><path d="M 252.606 341.57 A 6 2.8497 -142.189 0 0 259.309 347.202"/><path d="M 255.509 338.919 A 6 2.8497 -142.189 0 0 254.822 338.785"/><path d="M 252.062 342.254 A 6 2.8497 -142.189 0 0 258.769 347.897"/><path d="M 255.509 338.919 L 269.843 342.606"/><path d="M 255.829 341.835 A 2 0.94989 -142.189 0 0 258.989 344.287"/><path d="M 258.969 343.462 A 2 0.94989 -142.189 0 0 255.829 341.835"/><path d="M 258.429 344.157 A 2 0.94989 -142.189 0 0 255.738 342.322"/><path d="M 258.989 344.287 A 2 0.94989 -142.189 0 0 258.969 343.462"/><path d="M 258.539 344.495 A 2 0.94989 -142.189 0 0 258.429 344.157"/><path d="M 265.581 344.342 A 2 0.94989 -142.189 0 0 268.741 346.795"/><path d="M 268.721 345.97 A 2 0.94989 -142.189 0 0 265.581 344.342"/><path d="M 268.182 346.665 A 2 0.94989 -142.189 0 0 265.49 344.83"/><path d="M 268.741 346.795 A 2 0.94989 -142.189 0 0 268.721 345.97"/><path d="M 268.291 347.003 A 2 0.94989 -142.189 0 0 268.182 346.665"/><path d="M 275.333 346.85 A 2 0.94989 -142.189 0 0 278.493 349.303"/><path d="M 278.473 348.478 A 2 0.94989 -142.189 0 0 275.333 346.85"/><path d="M 277.934 349.173 A 2 0.94989 -142.189 0 0 275.243 347.338"/><path d="M 278.493 349.303 A 2 0.94989 -142.189 0 0 278.473 348.478"/><path d="M 278.044 349.511 A 2 0.94989 -142.189 0 0 277.934 349.173"/><path d="M 282.57 344.151 A 2 0.94989 -142.189 0 0 279.879 342.315"/><path d="M 281.606 344.212 A 2 0.94989 -142.189 0 0 280.413 343.287"/><path d="M 282.68 344.489 A 2 0.94989 -142.189 0 0 282.57 344.151"/><path d="M 285.75 347.428 L 285.211 348.123"/><path d="M 285.3 312.415 L 285.441 313.045"/><path d="M 279.308 309.924 L 285.3 312.415"/><path d="M 281.004 316.141 L 285.441 313.045"/><path d="M 275.936 319.676 L 276.742 319.114"/><path d="M 269.393 320.455 L 272.202 321.622"/><path d="M 276.121 319.866 L 276.974 319.271"/><path d="M 281.057 316.422 L 284.901 313.74"/><path d="M 285.441 313.045 L 284.901 313.74"/><path d="M 286.182 299.337 L 292.713 302.051"/><path d="M 285.84 299.767 L 292.853 302.681"/><path d="M 292.713 302.051 L 292.853 302.681"/><path d="M 285.3 312.415 L 292.853 302.681"/><path d="M 282.297 306.051 A 2.04999 1.56473 -12.5736 0 0 285.068 304.391"/><path d="M 281.955 306.514 A 2.04999 1.56473 -192.574 0 0 284.882 305.851"/><path d="M 284.882 305.851 A 2.04999 1.56473 -192.574 0 0 285.181 304.697"/><path d="M 285.181 304.697 A 2.04999 1.56473 -192.574 0 0 282.765 303.634"/><path d="M 269.185 320.718 A 5 2.37476 -142.189 0 0 272.281 322.038"/><path d="M 264.8 326.232 A 5 2.37476 -142.189 0 0 269.775 327.104"/><path d="M 272.562 323.512 L 269.775 327.104"/><path d="M 269.733 320.029 A 5 2.37476 -142.189 0 0 272.12 321.193"/><path d="M 276.194 318.831 L 275.732 319.427"/><path d="M 280.794 306.114 A 2 0.94989 -322.189 0 0 282.241 306.146"/><path d="M 282.241 306.146 A 2 0.94989 -322.189 0 0 282.228 305.337"/><path d="M 282.228 305.337 A 2 0.94989 -322.189 0 0 281.865 304.767"/><path d="M 277.116 312.75 L 282.241 306.146"/><path d="M 266.749 360.712 A 4.5 2.13727 -322.189 0 0 271.836 361.959"/><path d="M 269.447 357.236 A 4.5 2.13727 -322.189 0 0 274.534 358.483"/><path d="M 257.679 358.38 A 3.92038 1.86197 -322.189 0 0 261.362 359.326"/><path d="M 260.376 354.904 A 3.92038 1.86197 -322.189 0 0 264.06 355.85"/><path d="M 258.511 354.424 A 3.92038 1.86197 -322.189 0 0 263.784 356.315"/><path d="M 270.245 361.611 L 260.493 359.103"/></g><g stroke="rgb(0, 0, 0)" stroke-width="0.13" stroke-linecap="butt" stroke-linejoin="miter" fill="none"><path d="M 270.245 361.611 L 271.864 359.525"/></g><g stroke="rgb(0, 0, 0)" stroke-width="0.35" stroke-linecap="butt" stroke-linejoin="miter" fill="none"><path d="M 271.864 359.525 L 262.112 357.017"/><path d="M 255.628 353.682 A 2 0.94989 -322.189 0 0 257.11 354.063"/><path d="M 252.36 354.509 A 4.5 2.13727 -322.189 0 0 254.49 354.162"/><path d="M 262.112 357.017 L 252.36 354.509"/><path d="M 267.765 356.803 A 4.5 2.13727 -322.189 0 0 271.864 359.525"/><path d="M 265.38 356.19 A 2 0.94989 -322.189 0 0 266.862 356.571"/><path d="M 260.493 359.103 L 250.741 356.595"/></g><g stroke="rgb(0, 0, 0)" stroke-width="0.13" stroke-linecap="butt" stroke-linejoin="miter" fill="none"><path d="M 250.741 356.595 L 252.36 354.509"/></g><g stroke="rgb(0, 0, 0)" stroke-width="0.35" stroke-linecap="butt" stroke-linejoin="miter" fill="none"><path d="M 265.66 356.343 L 265.712 356.275"/><path d="M 245.221 351.426 A 4.5 2.13727 -322.189 0 0 252.29 356.994"/><path d="M 247.919 347.949 A 4.5 2.13727 -322.189 0 0 254.988 353.517"/><path d="M 263.784 356.315 L 264.13 355.869"/><path d="M 271.836 361.959 L 274.534 358.483"/><path d="M 254.49 354.162 L 254.99 353.518"/><path d="M 245.221 351.426 L 247.919 347.949"/><path d="M 247.919 347.949 A 4.5 2.13727 -322.189 0 0 247.963 349.805"/><path d="M 247.963 349.805 A 4.5 2.13727 -322.189 0 0 254.988 353.517"/><path d="M 250.617 344.473 A 4.5 2.13727 -322.189 0 0 250.661 346.329"/><path d="M 250.661 346.329 A 4.5 2.13727 -322.189 0 0 257.685 350.041"/><path d="M 260.376 354.904 A 3.92038 1.86197 -322.189 0 0 264.06 355.85"/><path d="M 263.074 351.427 A 3.92038 1.86197 -322.189 0 0 266.757 352.374"/><path d="M 261.209 350.947 A 3.92038 1.86197 -322.189 0 0 266.481 352.839"/><path d="M 274.561 356.049 L 255.057 351.033"/><path d="M 270.463 353.327 A 4.5 2.13727 -322.189 0 0 274.561 356.049"/><path d="M 268.078 352.714 A 2 0.94989 -322.189 0 0 269.56 353.094"/><path d="M 258.326 350.206 A 2 0.94989 -322.189 0 0 259.807 350.587"/><path d="M 255.057 351.033 A 4.5 2.13727 -322.189 0 0 257.187 350.686"/><path d="M 272.943 358.135 L 253.439 353.119"/></g><g stroke="rgb(0, 0, 0)" stroke-width="0.13" stroke-linecap="butt" stroke-linejoin="miter" fill="none"><path d="M 253.439 353.119 L 255.057 351.033"/><path d="M 272.943 358.135 L 274.561 356.049"/></g><g stroke="rgb(0, 0, 0)" stroke-width="0.35" stroke-linecap="butt" stroke-linejoin="miter" fill="none"><path d="M 268.357 352.867 L 268.41 352.799"/><path d="M 269.447 357.236 A 4.5 2.13727 -322.189 0 0 274.534 358.483"/><path d="M 272.144 353.759 A 4.5 2.13727 -322.189 0 0 277.231 355.007"/><path d="M 266.482 352.839 L 266.828 352.392"/><path d="M 257.187 350.686 L 257.687 350.042"/><path d="M 247.919 347.949 L 250.617 344.473"/><path d="M 274.534 358.483 L 277.231 355.007"/><path d="M 250.617 344.473 A 4.5 2.13727 -322.189 0 0 250.661 346.329"/><path d="M 250.661 346.329 A 4.5 2.13727 -322.189 0 0 257.685 350.041"/><path d="M 258.539 344.495 A 2 0.94989 -322.189 0 0 258.429 344.157"/><path d="M 258.429 344.157 A 2 0.94989 -322.189 0 0 255.738 342.322"/><path d="M 263.074 351.427 A 3.92038 1.86197 -322.189 0 0 266.757 352.374"/><path d="M 268.291 347.003 A 2 0.94989 -322.189 0 0 268.182 346.665"/><path d="M 268.182 346.665 A 2 0.94989 -322.189 0 0 265.49 344.83"/><path d="M 275.64 354.659 L 256.136 349.643"/></g><g stroke="rgb(0, 0, 0)" stroke-width="0.13" stroke-linecap="butt" stroke-linejoin="miter" fill="none"><path d="M 256.136 349.643 L 257.755 347.557"/><path d="M 275.64 354.659 L 277.21 352.636"/></g><g stroke="rgb(0, 0, 0)" stroke-width="0.35" stroke-linecap="butt" stroke-linejoin="miter" fill="none"><path d="M 272.144 353.759 A 4.5 2.13727 -322.189 0 0 277.231 355.007"/><path d="M 278.044 349.511 A 2 0.94989 -322.189 0 0 277.934 349.173"/><path d="M 277.934 349.173 A 2 0.94989 -322.189 0 0 275.243 347.338"/><path d="M 250.617 344.473 L 252.158 342.486"/><path d="M 277.231 355.007 L 278.893 352.865"/></g><g stroke="rgb(0, 0, 0)" stroke-width="0.13" stroke-linecap="butt" stroke-linejoin="miter" fill="none"><path d="M 262.487 337.473 L 261.408 338.863"/></g><g stroke="rgb(0, 0, 0)" stroke-width="0.35" stroke-linecap="butt" stroke-linejoin="miter" fill="none"><path d="M 262.705 336.216 A 5 2.37476 -142.189 0 0 262.487 337.473"/><path d="M 262.857 336.055 A 5 2.37476 -142.189 0 0 262.705 336.216"/><path d="M 261.626 337.606 A 5 2.37476 -142.189 0 0 261.408 338.863"/><path d="M 280.888 358.283 L 276.572 363.845"/><path d="M 279.843 352.806 L 280.888 358.283"/><path d="M 276.817 362.093 L 280.054 357.922"/><path d="M 276.817 362.093 L 274.744 361.194"/><path d="M 276.572 363.845 L 273.497 362.511"/><path d="M 280.054 357.922 L 280.888 358.283"/><path d="M 262.487 337.473 L 263.137 340.881"/><path d="M 261.408 338.863 L 261.723 340.518"/><path d="M 276.817 362.093 L 276.334 359.562"/><path d="M 280.054 357.922 L 279.09 352.866"/><path d="M 268.026 339.255 A 2.04999 0.973663 -142.189 0 0 267.419 339.072"/><path d="M 269.891 340.99 A 2.04999 0.973663 -142.189 0 0 268.026 339.255"/><path d="M 262.705 336.216 L 261.626 337.606"/><path d="M 291.239 292.975 L 192.519 417.156"/><path d="M 291.239 292.975 L 228.797 255.244"/><path d="M 228.797 255.244 L 130.077 379.425"/><path d="M 192.519 417.156 L 130.077 379.425"/><path d="M 228.797 255.244 L 234.629 216.204"/><path d="M 234.629 216.204 L 182.283 282.052"/><path d="M 173.227 293.442 L 161.423 308.291"/><path d="M 152.308 319.757 L 135.909 340.385"/><path d="M 130.077 379.425 L 135.909 340.385"/><path d="M 234.629 216.204 L 297.071 253.935"/><path d="M 297.071 253.935 L 291.239 292.975"/></g><g stroke="rgb(0, 0, 0)" stroke-width="0.13" stroke-linecap="butt" stroke-linejoin="miter" fill="none"><path d="M 214.86 428.589 L 214.214 428.589 L 214.214 429.013 L 215.97 429.013 L 215.97 428.589 L 215.324 428.589 L 215.324 425.937 L 215.97 425.937 L 215.97 425.513 L 214.214 425.513 L 214.214 425.937 L 214.86 425.937 L 214.86 428.589 L 214.86 428.589 z M 218.41 427.434 L 217.982 427.334 L 217.664 427.218 L 217.558 426.981 L 217.588 426.814 L 217.694 426.693 L 217.866 426.617 L 218.113 426.587 L 218.35 426.617 L 218.537 426.708 L 218.658 426.844 L 218.708 427.026 L 219.142 427.026 L 219.142 427.016 L 219.066 426.688 L 218.859 426.431 L 218.537 426.269 L 218.113 426.209 L 217.684 426.269 L 217.372 426.436 L 217.175 426.683 L 217.114 426.996 L 217.16 427.298 L 217.301 427.51 L 217.533 427.661 L 217.871 427.767 L 218.365 427.888 L 218.668 428.014 L 218.748 428.115 L 218.779 428.267 L 218.733 428.453 L 218.612 428.594 L 218.415 428.685 L 218.153 428.715 L 217.876 428.685 L 217.674 428.579 L 217.538 428.408 L 217.482 428.171 L 217.054 428.171 L 217.124 428.574 L 217.331 428.867 L 217.659 429.043 L 218.113 429.109 L 218.587 429.043 L 218.935 428.867 L 219.147 428.584 L 219.222 428.216 L 219.167 427.898 L 219.011 427.682 L 218.753 427.54 L 218.41 427.434 L 218.41 427.434 z M 219.989 427.661 L 220.07 428.277 L 220.302 428.731 L 220.67 429.013 L 221.164 429.109 L 221.653 429.013 L 222.021 428.736 L 222.253 428.282 L 222.339 427.661 L 222.253 427.046 L 222.021 426.587 L 221.653 426.31 L 221.164 426.209 L 220.67 426.31 L 220.302 426.592 L 220.07 427.046 L 219.989 427.661 L 219.989 427.661 z M 220.443 427.656 L 220.488 427.202 L 220.629 426.875 L 220.856 426.673 L 221.164 426.602 L 221.467 426.673 L 221.694 426.87 L 221.835 427.202 L 221.885 427.656 L 221.835 428.115 L 221.694 428.448 L 221.467 428.65 L 221.164 428.715 L 220.856 428.65 L 220.629 428.448 L 220.488 428.115 L 220.443 427.656 L 220.443 427.656 z M 222.98 429.013 L 223.388 429.013 L 223.388 427.202 L 223.413 426.93 L 223.489 426.733 L 223.605 426.617 L 223.756 426.572 L 223.877 426.612 L 223.958 426.713 L 223.998 426.885 L 224.013 427.112 L 224.013 429.013 L 224.397 429.013 L 224.397 427.202 L 224.422 426.935 L 224.498 426.738 L 224.619 426.617 L 224.77 426.572 L 224.891 426.612 L 224.972 426.713 L 225.022 427.112 L 225.022 429.013 L 225.431 429.013 L 225.431 427.142 L 225.405 426.754 L 225.325 426.456 L 225.163 426.274 L 224.901 426.209 L 224.593 426.31 L 224.356 426.602 L 224.17 426.315 L 223.857 426.209 L 223.57 426.31 L 223.373 426.592 L 223.373 426.305 L 222.98 426.305 L 222.98 429.013 L 222.98 429.013 z M 226.58 427.787 L 228.356 427.787 L 228.361 427.581 L 228.28 427.001 L 228.058 426.567 L 227.705 426.305 L 227.236 426.209 L 226.777 426.31 L 226.424 426.592 L 226.197 427.051 L 226.116 427.656 L 226.192 428.277 L 226.419 428.731 L 226.767 429.013 L 227.221 429.109 L 227.614 429.043 L 227.937 428.872 L 228.174 428.599 L 228.31 428.236 L 227.871 428.236 L 227.781 428.438 L 227.65 428.589 L 227.276 428.71 L 226.989 428.655 L 226.772 428.478 L 226.631 428.191 L 226.58 427.803 L 226.58 427.787 L 226.58 427.787 z M 226.58 427.414 L 226.636 427.066 L 226.772 426.809 L 226.979 426.653 L 227.251 426.597 L 227.518 426.653 L 227.725 426.809 L 227.851 427.066 L 227.897 427.414 L 226.58 427.414 L 226.58 427.414 z M 229.823 426.774 L 229.823 428.13 L 229.853 428.569 L 229.995 428.872 L 230.277 429.048 L 230.756 429.109 L 231.281 429.084 L 231.281 428.7 L 230.897 428.731 L 230.549 428.69 L 230.363 428.564 L 230.282 428.352 L 230.267 428.055 L 230.267 426.774 L 231.281 426.774 L 231.281 426.396 L 230.267 426.396 L 230.267 425.604 L 229.823 425.604 L 229.823 426.396 L 229.057 426.396 L 229.057 426.774 L 229.823 426.774 L 229.823 426.774 z M 232.431 429.013 L 232.874 429.013 L 232.874 427.465 L 232.92 427.091 L 233.056 426.824 L 233.278 426.663 L 233.575 426.607 L 233.797 426.643 L 233.964 426.743 L 234.065 426.915 L 234.1 427.147 L 234.549 427.147 L 234.488 426.738 L 234.322 426.446 L 234.044 426.269 L 233.666 426.209 L 233.409 426.249 L 233.187 426.35 L 232.99 426.522 L 232.834 426.754 L 232.834 426.305 L 232.431 426.305 L 232.431 429.013 L 232.431 429.013 z M 236.657 428.64 L 236.657 426.396 L 235.517 426.396 L 235.517 426.774 L 236.213 426.774 L 236.213 428.64 L 235.305 428.64 L 235.305 429.013 L 237.575 429.013 L 237.575 428.64 L 236.657 428.64 L 236.657 428.64 z M 236.672 425.392 L 236.203 425.392 L 236.203 425.896 L 236.672 425.896 L 236.672 425.392 L 236.672 425.392 z M 240.061 427.202 L 240.5 427.202 L 240.409 426.799 L 240.192 426.481 L 239.854 426.285 L 239.415 426.209 L 238.931 426.31 L 238.563 426.592 L 238.331 427.051 L 238.25 427.666 L 238.326 428.277 L 238.553 428.731 L 238.911 429.013 L 239.4 429.109 L 239.834 429.033 L 240.172 428.821 L 240.404 428.488 L 240.505 428.045 L 240.081 428.045 L 240.005 428.327 L 239.864 428.539 L 239.663 428.67 L 239.415 428.71 L 239.108 428.645 L 238.886 428.443 L 238.75 428.115 L 238.704 427.651 L 238.75 427.197 L 238.891 426.87 L 239.118 426.668 L 239.415 426.597 L 239.678 426.643 L 239.874 426.759 L 240.005 426.95 L 240.061 427.202 L 240.061 427.202 z M 245.22 429.013 L 245.689 429.013 L 246.678 426.305 L 246.219 426.305 L 245.457 428.488 L 244.68 426.305 L 244.217 426.305 L 245.22 429.013 L 245.22 429.013 z M 248.801 428.64 L 248.801 426.396 L 247.661 426.396 L 247.661 426.774 L 248.357 426.774 L 248.357 428.64 L 247.449 428.64 L 247.449 429.013 L 249.719 429.013 L 249.719 428.64 L 248.801 428.64 L 248.801 428.64 z M 248.816 425.392 L 248.347 425.392 L 248.347 425.896 L 248.816 425.896 L 248.816 425.392 L 248.816 425.392 z M 250.869 427.787 L 252.644 427.787 L 252.649 427.581 L 252.568 427.001 L 252.346 426.567 L 251.993 426.305 L 251.524 426.209 L 251.065 426.31 L 250.712 426.592 L 250.485 427.051 L 250.405 427.656 L 250.48 428.277 L 250.707 428.731 L 251.055 429.013 L 251.509 429.109 L 251.902 429.043 L 252.225 428.872 L 252.462 428.599 L 252.598 428.236 L 252.16 428.236 L 252.069 428.438 L 251.938 428.589 L 251.564 428.71 L 251.277 428.655 L 251.06 428.478 L 250.919 428.191 L 250.869 427.803 L 250.869 427.787 L 250.869 427.787 z M 250.869 427.414 L 250.924 427.066 L 251.06 426.809 L 251.267 426.653 L 251.539 426.597 L 251.807 426.653 L 252.013 426.809 L 252.139 427.066 L 252.185 427.414 L 250.869 427.414 L 250.869 427.414 z M 254.157 429.013 L 254.56 426.713 L 254.964 429.013 L 255.387 429.013 L 256.053 426.305 L 255.624 426.305 L 255.175 428.604 L 254.777 426.305 L 254.338 426.305 L 253.94 428.604 L 253.491 426.305 L 253.067 426.305 L 253.733 429.013 L 254.157 429.013 L 254.157 429.013 z" stroke="none" fill-rule="evenodd" fill="rgb(0, 0, 0)"/></g><g stroke="rgb(0, 0, 0)" stroke-width="0.13" stroke-linecap="butt" stroke-linejoin="miter" fill="none"><path d="M 214.295 433.905 L 213.836 433.905 L 213.937 434.439 L 214.189 434.833 L 214.578 435.07 L 215.102 435.156 L 215.622 435.075 L 216.01 434.853 L 216.257 434.505 L 216.348 434.046 L 216.272 433.633 L 216.06 433.365 L 215.717 433.189 L 215.258 433.058 L 214.865 432.962 L 214.608 432.851 L 214.462 432.689 L 214.416 432.437 L 214.462 432.21 L 214.593 432.039 L 214.794 431.923 L 215.072 431.883 L 215.354 431.933 L 215.576 432.069 L 215.722 432.296 L 215.793 432.604 L 216.252 432.604 L 216.252 432.594 L 216.171 432.12 L 215.934 431.767 L 215.561 431.545 L 215.057 431.469 L 214.603 431.545 L 214.25 431.756 L 214.023 432.084 L 213.942 432.508 L 214.008 432.886 L 214.199 433.143 L 214.502 433.315 L 214.915 433.446 L 215.324 433.562 L 215.632 433.673 L 215.818 433.834 L 215.884 434.096 L 215.823 434.364 L 215.667 434.566 L 215.43 434.692 L 215.122 434.732 L 214.779 434.676 L 214.517 434.515 L 214.351 434.253 L 214.295 433.905 L 214.295 433.905 z M 218.809 433.249 L 219.248 433.249 L 219.157 432.846 L 218.94 432.528 L 218.602 432.331 L 218.163 432.256 L 217.679 432.357 L 217.311 432.639 L 217.079 433.098 L 216.998 433.713 L 217.074 434.323 L 217.301 434.777 L 217.659 435.06 L 218.148 435.156 L 218.582 435.08 L 218.92 434.868 L 219.152 434.535 L 219.253 434.091 L 218.829 434.091 L 218.753 434.374 L 218.612 434.586 L 218.41 434.717 L 218.163 434.757 L 217.856 434.692 L 217.634 434.49 L 217.498 434.162 L 217.452 433.698 L 217.498 433.244 L 217.639 432.916 L 217.866 432.715 L 218.163 432.644 L 218.426 432.689 L 218.622 432.805 L 218.753 432.997 L 218.809 433.249 L 218.809 433.249 z M 221.729 434.707 L 221.729 434.722 L 221.754 434.893 L 221.83 435.014 L 222.147 435.11 L 222.395 435.07 L 222.395 434.727 L 222.289 434.742 L 222.147 434.676 L 222.122 434.475 L 222.122 433.073 L 222.062 432.715 L 221.885 432.462 L 221.578 432.311 L 221.144 432.256 L 220.72 432.316 L 220.408 432.488 L 220.211 432.755 L 220.145 433.108 L 220.145 433.138 L 220.544 433.138 L 220.579 432.926 L 220.69 432.775 L 220.872 432.684 L 221.129 432.649 L 221.376 432.674 L 221.552 432.75 L 221.658 432.881 L 221.694 433.063 L 221.673 433.274 L 221.593 433.38 L 221.391 433.431 L 221.013 433.471 L 220.579 433.562 L 220.271 433.723 L 220.09 433.975 L 220.034 434.349 L 220.085 434.682 L 220.241 434.929 L 220.493 435.085 L 220.841 435.14 L 221.31 435.035 L 221.729 434.707 L 221.729 434.707 z M 221.678 434.112 L 221.618 434.374 L 221.457 434.576 L 221.214 434.707 L 220.917 434.752 L 220.725 434.727 L 220.589 434.646 L 220.503 434.505 L 220.478 434.308 L 220.498 434.132 L 220.579 434.006 L 220.902 433.865 L 221.31 433.804 L 221.678 433.683 L 221.678 434.112 L 221.678 434.112 z M 224.039 431.812 L 224.039 434.687 L 223.126 434.687 L 223.126 435.06 L 225.39 435.06 L 225.39 434.687 L 224.482 434.687 L 224.482 431.439 L 223.343 431.439 L 223.343 431.812 L 224.039 431.812 L 224.039 431.812 z M 226.58 433.834 L 228.356 433.834 L 228.361 433.627 L 228.28 433.048 L 228.058 432.614 L 227.705 432.352 L 227.236 432.256 L 226.777 432.357 L 226.424 432.639 L 226.197 433.098 L 226.116 433.703 L 226.192 434.323 L 226.419 434.777 L 226.767 435.06 L 227.221 435.156 L 227.614 435.09 L 227.937 434.919 L 228.174 434.646 L 228.31 434.283 L 227.871 434.283 L 227.781 434.485 L 227.65 434.636 L 227.276 434.757 L 226.989 434.702 L 226.772 434.525 L 226.631 434.238 L 226.58 433.849 L 226.58 433.834 L 226.58 433.834 z M 226.58 433.461 L 226.636 433.113 L 226.772 432.856 L 226.979 432.7 L 227.251 432.644 L 227.518 432.7 L 227.725 432.856 L 227.851 433.113 L 227.897 433.461 L 226.58 433.461 L 226.58 433.461 z M 229.924 435.06 L 230.62 435.06 L 230.62 434.308 L 229.924 434.308 L 229.924 435.06 L 229.924 435.06 z M 229.924 433.103 L 230.62 433.103 L 230.62 432.352 L 229.924 432.352 L 229.924 433.103 L 229.924 433.103 z" stroke="none" fill-rule="evenodd" fill="rgb(0, 0, 0)"/></g><g stroke="rgb(0, 0, 0)" stroke-width="0.13" stroke-linecap="butt" stroke-linejoin="miter" fill="none"><path d="M 239.289 435.06 L 239.748 435.06 L 239.748 431.535 L 239.405 431.535 L 239.315 431.842 L 239.133 432.049 L 238.856 432.17 L 238.472 432.21 L 238.472 432.568 L 239.289 432.568 L 239.289 435.06 L 239.289 435.06 z M 242.068 435.06 L 242.764 435.06 L 242.764 434.308 L 242.068 434.308 L 242.068 435.06 L 242.068 435.06 z M 242.068 433.103 L 242.764 433.103 L 242.764 432.352 L 242.068 432.352 L 242.068 433.103 L 242.068 433.103 z M 245.361 435.06 L 245.82 435.06 L 245.82 431.535 L 245.477 431.535 L 245.387 431.842 L 245.205 432.049 L 244.928 432.17 L 244.544 432.21 L 244.544 432.568 L 245.361 432.568 L 245.361 435.06 L 245.361 435.06 z" stroke="none" fill-rule="evenodd" fill="rgb(0, 0, 0)"/></g></svg>