<?xml version="1.0" encoding="utf-8" ?><!DOCTYPE svg PUBLIC "-//W3C//DTD SVG 1.1//EN" "http://www.w3.org/Graphics/SVG/1.1/DTD/svg11.dtd" 
[ <!ATTLIST svg 
  xmlns:dsy CDATA #FIXED "http://www.3ds.com/print"  
    dsy:text-version CDATA #IMPLIED > 

  <!ATTLIST text 
  xmlns:dsy CDATA #FIXED "http://www.3ds.com/print" 
    dsy:text-version CDATA #IMPLIED > 
]><svg xmlns="http://www.w3.org/2000/svg" xmlns:dsy="http://www.3ds.com/print" dsy:text-version="18000" width="297" height="210" viewBox="0 0 297 210" version="1.1"><g stroke="rgb(0, 0, 0)" stroke-width="0.35" stroke-linecap="butt" stroke-linejoin="miter" fill="none"><path d="M 149.17 90.5503 A 6 5.11087 -201.219 0 0 143.495 87.5249"/></g><g stroke="rgb(0, 0, 0)" stroke-width="0.13" stroke-linecap="butt" stroke-linejoin="miter" fill="none"><path d="M 143.495 87.5249 L 143.684 88.0132"/></g><g stroke="rgb(0, 0, 0)" stroke-width="0.35" stroke-linecap="butt" stroke-linejoin="miter" fill="none"><path d="M 143.849 98.407 A 6 5.11087 -201.219 0 0 149.36 91.0387"/><path d="M 149.36 91.0387 A 6 5.11087 -201.219 0 0 143.684 88.0132"/><path d="M 143.495 87.5249 L 82.1344 94.1756"/></g><g stroke="rgb(0, 0, 0)" stroke-width="0.13" stroke-linecap="butt" stroke-linejoin="miter" fill="none"><path d="M 82.1344 94.1756 L 82.3241 94.6639"/></g><g stroke="rgb(0, 0, 0)" stroke-width="0.35" stroke-linecap="butt" stroke-linejoin="miter" fill="none"><path d="M 143.684 88.0132 L 82.3241 94.6639"/><path d="M 82.1344 94.1756 A 6 5.11087 -201.219 0 0 76.3607 100.503"/><path d="M 82.324 94.6639 A 6 5.11087 -201.219 0 0 76.6515 99.3003"/><path d="M 143.849 98.4069 L 87.4776 104.517"/><path d="M 141.829 93.6808 A 2 1.70361 -201.219 0 0 145.514 92.2503"/><path d="M 141.902 93.934 A 2 1.70361 -201.219 0 0 145.631 92.4862"/><path d="M 145.631 92.4862 A 2 1.70361 -201.219 0 0 141.803 93.4229"/><path d="M 141.803 93.4229 A 2 1.70361 -201.219 0 0 141.902 93.934"/><path d="M 80.6587 100.82 A 2 1.70361 -201.219 0 0 84.3433 99.3892"/><path d="M 80.6319 100.549 A 2 1.70361 -201.219 0 0 84.1804 99.1719"/><path d="M 105.013 97.6712 A 2 1.70361 -201.219 0 0 108.698 96.2407"/><path d="M 105.086 97.9244 A 2 1.70361 -201.219 0 0 108.815 96.4766"/><path d="M 108.815 96.4766 A 2 1.70361 -201.219 0 0 104.987 97.4133"/><path d="M 104.987 97.4133 A 2 1.70361 -201.219 0 0 105.086 97.9244"/><path d="M 117.285 96.3411 A 2 1.70361 -201.219 0 0 120.97 94.9105"/><path d="M 117.358 96.5943 A 2 1.70361 -201.219 0 0 121.087 95.1464"/><path d="M 121.087 95.1464 A 2 1.70361 -201.219 0 0 117.259 96.0832"/><path d="M 117.259 96.0832 A 2 1.70361 -201.219 0 0 117.358 96.5943"/><path d="M 133.359 93.8163 A 2 1.70361 -201.219 0 0 129.531 94.7531"/><path d="M 129.531 94.7531 A 2 1.70361 -201.219 0 0 129.63 95.2642"/><path d="M 149.17 90.5503 L 149.36 91.0387"/></g><g stroke="rgb(0, 0, 0)" stroke-width="0.13" stroke-linecap="butt" stroke-linejoin="miter" fill="none"><path d="M 65.9899 143.341 L 66.1795 143.829"/></g><g stroke="rgb(0, 0, 0)" stroke-width="0.35" stroke-linecap="butt" stroke-linejoin="miter" fill="none"><path d="M 65.9899 143.341 A 6 5.11087 -201.219 0 0 66.1515 146.073"/><path d="M 66.1795 143.829 A 6 5.11087 -201.219 0 0 66.341 146.562"/><path d="M 66.341 146.562 A 6 5.11087 -201.219 0 0 77.6891 144.951"/><path d="M 77.6891 144.951 L 88.3508 100.91"/><path d="M 87.9996 97.6893 A 6 5.11087 -201.219 0 0 76.6516 99.3"/></g><g stroke="rgb(0, 0, 0)" stroke-width="0.13" stroke-linecap="butt" stroke-linejoin="miter" fill="none"><path d="M 76.6516 99.3 L 76.8412 99.7883"/></g><g stroke="rgb(0, 0, 0)" stroke-width="0.35" stroke-linecap="butt" stroke-linejoin="miter" fill="none"><path d="M 88.3508 100.91 A 6 5.11087 -201.219 0 0 88.1892 98.1777"/><path d="M 88.1892 98.1777 A 6 5.11087 -201.219 0 0 76.8412 99.7883"/><path d="M 65.9899 143.341 L 76.6516 99.3"/><path d="M 66.1795 143.829 L 76.8412 99.7883"/><path d="M 80.6587 100.82 A 2 1.70361 -201.219 0 0 84.3434 99.3897"/><path d="M 80.7316 101.073 A 2 1.70361 -201.219 1 0 84.4604 99.6252"/><path d="M 84.4604 99.6252 A 2 1.70361 -201.219 0 0 83.016 98.6139"/><path d="M 83.016 98.6139 A 2 1.70361 -201.219 0 0 80.7316 101.073"/><path d="M 77.9933 111.83 A 2 1.70361 -201.219 0 0 81.678 110.4"/><path d="M 78.0661 112.083 A 2 1.70361 -201.219 1 0 81.7949 110.636"/><path d="M 81.7949 110.636 A 2 1.70361 -201.219 0 0 80.3506 109.624"/><path d="M 80.3506 109.624 A 2 1.70361 -201.219 0 0 78.0661 112.083"/><path d="M 75.3279 122.84 A 2 1.70361 -201.219 0 0 79.0125 121.41"/><path d="M 75.4007 123.094 A 2 1.70361 -201.219 1 0 79.1295 121.646"/><path d="M 79.1295 121.646 A 2 1.70361 -201.219 0 0 77.6852 120.634"/><path d="M 77.6852 120.634 A 2 1.70361 -201.219 0 0 75.4007 123.094"/><path d="M 72.6625 133.851 A 2 1.70361 -201.219 0 0 76.3471 132.42"/><path d="M 72.7353 134.104 A 2 1.70361 -201.219 1 0 76.4641 132.656"/><path d="M 76.4641 132.656 A 2 1.70361 -201.219 0 0 75.0198 131.645"/><path d="M 75.0198 131.645 A 2 1.70361 -201.219 0 0 72.7353 134.104"/><path d="M 66.1514 146.073 L 66.341 146.562"/><path d="M 87.9996 97.6893 L 88.1892 98.1777"/></g><g stroke="rgb(0, 0, 0)" stroke-width="0.13" stroke-linecap="butt" stroke-linejoin="miter" fill="none"><path d="M 72.1982 163.079 L 72.3878 163.568"/></g><g stroke="rgb(0, 0, 0)" stroke-width="0.35" stroke-linecap="butt" stroke-linejoin="miter" fill="none"><path d="M 72.1982 163.079 A 6 5.11087 -201.219 0 0 72.2355 163.179"/><path d="M 72.3878 163.568 A 6 5.11087 -201.219 0 0 72.4251 163.667"/><path d="M 72.4251 163.667 A 6 5.11087 -201.219 0 0 83.6487 159.423"/><path d="M 83.6487 159.423 L 77.9877 143.718"/><path d="M 74.6945 134.581 L 73.7308 131.907"/><path d="M 70.1286 126.245 A 6 5.11087 -201.219 0 0 61.3659 133.026"/></g><g stroke="rgb(0, 0, 0)" stroke-width="0.13" stroke-linecap="butt" stroke-linejoin="miter" fill="none"><path d="M 61.3659 133.026 L 61.5555 133.515"/></g><g stroke="rgb(0, 0, 0)" stroke-width="0.35" stroke-linecap="butt" stroke-linejoin="miter" fill="none"><path d="M 70.0391 126.615 A 6 5.11087 -201.219 0 0 61.5555 133.515"/><path d="M 72.1982 163.079 L 61.3659 133.026"/><path d="M 72.3878 163.568 L 61.5555 133.515"/><path d="M 76.0811 161.966 A 2 1.70361 -201.219 0 0 79.7656 160.536"/><path d="M 76.1538 162.219 A 2 1.70361 -201.219 0 0 79.8827 160.772"/><path d="M 79.8827 160.772 A 2 1.70361 -201.219 0 0 77.4405 159.893"/><path d="M 77.4405 159.893 A 2 1.70361 -201.219 0 0 76.1538 162.219"/><path d="M 65.2488 131.914 A 2 1.70361 -201.219 0 0 68.9333 130.483"/><path d="M 65.3215 132.166 A 2 1.70361 -201.219 0 0 68.6157 132.495"/><path d="M 69.0474 130.711 A 2 1.70361 -201.219 0 0 66.6082 129.84"/><path d="M 66.6082 129.84 A 2 1.70361 -201.219 0 0 65.3215 132.166"/><path d="M 72.4704 151.949 A 2 1.70361 -201.219 0 0 76.1549 150.518"/><path d="M 72.5431 152.202 A 2 1.70361 -201.219 0 0 76.2719 150.754"/><path d="M 76.2719 150.754 A 2 1.70361 -201.219 0 0 73.8298 149.875"/><path d="M 73.8298 149.875 A 2 1.70361 -201.219 0 0 72.5431 152.202"/><path d="M 72.2355 163.179 L 72.4251 163.667"/><path d="M 76.7294 160.31 A 2 1.70361 -201.219 0 0 78.1696 159.751"/><path d="M 76.0811 161.966 A 2 1.70361 -201.219 0 0 79.7656 160.536"/><path d="M 73.1187 150.292 A 2 1.70361 -201.219 0 0 74.5588 149.733"/><path d="M 72.4704 151.949 A 2 1.70361 -201.219 0 0 76.1549 150.518"/></g><g stroke="rgb(0, 0, 0)" stroke-width="0.13" stroke-linecap="butt" stroke-linejoin="miter" fill="none"><path d="M 71.0606 160.149 L 71.2502 160.638"/></g><g stroke="rgb(0, 0, 0)" stroke-width="0.35" stroke-linecap="butt" stroke-linejoin="miter" fill="none"><path d="M 71.0606 160.149 A 6 5.11087 -201.219 0 0 71.0979 160.249"/><path d="M 71.2502 160.638 A 6 5.11087 -201.219 0 0 71.2875 160.737"/><path d="M 71.2875 160.737 A 6 5.11087 -201.219 0 0 71.5622 161.315"/><path d="M 59.9698 128.733 A 6 5.11087 -201.219 0 0 60.2283 130.096"/></g><g stroke="rgb(0, 0, 0)" stroke-width="0.13" stroke-linecap="butt" stroke-linejoin="miter" fill="none"><path d="M 60.2283 130.096 L 60.4179 130.585"/></g><g stroke="rgb(0, 0, 0)" stroke-width="0.35" stroke-linecap="butt" stroke-linejoin="miter" fill="none"><path d="M 60.1704 129.426 A 6 5.11087 -201.219 0 0 60.4179 130.585"/><path d="M 71.0606 160.149 L 60.2283 130.096"/><path d="M 71.2502 160.638 L 60.4179 130.585"/><path d="M 76.7294 160.31 A 2 1.70361 -201.219 0 0 78.1696 159.751"/><path d="M 65.8971 130.257 A 2 1.70361 -201.219 0 0 67.3372 129.698"/><path d="M 73.1187 150.292 A 2 1.70361 -201.219 0 0 74.5588 149.733"/><path d="M 71.0979 160.249 L 71.2875 160.737"/><path d="M 77.6982 86.1172 A 6 5.11087 -201.219 0 0 73.2388 90.5099"/></g><g stroke="rgb(0, 0, 0)" stroke-width="0.13" stroke-linecap="butt" stroke-linejoin="miter" fill="none"><path d="M 73.2388 90.5099 L 73.4284 90.9982"/></g><g stroke="rgb(0, 0, 0)" stroke-width="0.35" stroke-linecap="butt" stroke-linejoin="miter" fill="none"><path d="M 77.2415 86.8311 A 6 5.11087 -201.219 0 0 73.4284 90.9982"/><path d="M 73.2388 90.5099 L 72.2333 94.6633"/><path d="M 68.8809 108.511 L 68.4322 110.365"/><path d="M 73.4284 90.9982 L 72.7287 93.8886"/><path d="M 69.2383 108.307 L 68.7095 110.491"/><path d="M 62.4974 136.393 A 6 5.11087 -201.219 0 0 62.7387 137.283"/><path d="M 62.699 136.952 A 6 5.11087 -201.219 0 0 62.9282 137.772"/><path d="M 62.9282 137.772 A 6 5.11087 -201.219 0 0 63.2027 138.349"/><path d="M 75.3548 131.706 L 74.6731 134.522"/><path d="M 78.0203 120.696 L 77.3222 123.579"/><path d="M 80.6857 109.685 L 79.9876 112.569"/><path d="M 83.3511 98.6749 L 82.7942 100.975"/><path d="M 70.9407 122.892 A 2 1.70361 -201.219 0 0 70.8307 122.918"/><path d="M 62.7387 137.283 L 62.9282 137.772"/><path d="M 133.921 80.4203 L 87.8351 85.4155"/><path d="M 133.314 80.995 L 88.7702 85.823"/><path d="M 77.2413 86.8312 A 6 5.11087 -201.219 0 0 73.3592 92.9024"/><path d="M 76.7124 87.6586 A 6 5.11087 -201.219 0 0 73.4826 92.7097"/><path d="M 101.98 89.8578 A 2 1.70361 -201.219 0 0 105.664 88.4273"/><path d="M 102.053 90.111 A 2 1.70361 -201.219 0 0 105.781 88.6632"/><path d="M 105.781 88.6632 A 2 1.70361 -201.219 0 0 101.953 89.5999"/><path d="M 101.953 89.5999 A 2 1.70361 -201.219 0 0 102.053 90.111"/><path d="M 114.252 88.5277 A 2 1.70361 -201.219 0 0 117.936 87.0971"/><path d="M 114.325 88.7809 A 2 1.70361 -201.219 0 0 118.053 87.333"/><path d="M 118.053 87.333 A 2 1.70361 -201.219 0 0 114.225 88.2698"/><path d="M 114.225 88.2698 A 2 1.70361 -201.219 0 0 114.325 88.7809"/><path d="M 72.0607 116.689 A 10 8.51813 -21.219 0 0 70.8818 123.133"/><path d="M 61.0239 132.149 A 6 5.11087 -21.219 0 0 61.2434 132.627"/><path d="M 60.8998 131.782 A 6 5.11087 -21.219 0 0 61.0239 132.149"/></g><g stroke="rgb(0, 0, 0)" stroke-width="0.13" stroke-linecap="butt" stroke-linejoin="miter" fill="none"><path d="M 60.8998 131.782 L 60.7102 131.294"/></g><g stroke="rgb(0, 0, 0)" stroke-width="0.35" stroke-linecap="butt" stroke-linejoin="miter" fill="none"><path d="M 60.7102 131.294 A 6 5.11087 -21.219 0 0 60.8343 131.661"/><path d="M 60.8998 131.782 L 58.3325 122.899"/></g><g stroke="rgb(0, 0, 0)" stroke-width="0.13" stroke-linecap="butt" stroke-linejoin="miter" fill="none"><path d="M 58.3325 122.899 L 58.1429 122.411"/></g><g stroke="rgb(0, 0, 0)" stroke-width="0.35" stroke-linecap="butt" stroke-linejoin="miter" fill="none"><path d="M 60.7102 131.294 L 58.1429 122.411"/><path d="M 59.4492 116.226 A 10 8.51813 -21.219 0 0 58.3325 122.899"/></g><g stroke="rgb(0, 0, 0)" stroke-width="0.13" stroke-linecap="butt" stroke-linejoin="miter" fill="none"><path d="M 59.4492 116.226 L 59.2596 115.737"/></g><g stroke="rgb(0, 0, 0)" stroke-width="0.35" stroke-linecap="butt" stroke-linejoin="miter" fill="none"><path d="M 59.2596 115.737 A 10 8.51813 -21.219 0 0 58.1429 122.411"/><path d="M 71.2695 97.7402 L 59.4492 116.226"/></g><g stroke="rgb(0, 0, 0)" stroke-width="0.13" stroke-linecap="butt" stroke-linejoin="miter" fill="none"><path d="M 71.2695 97.7402 L 71.0799 97.2519"/></g><g stroke="rgb(0, 0, 0)" stroke-width="0.35" stroke-linecap="butt" stroke-linejoin="miter" fill="none"><path d="M 71.0799 97.2519 L 59.2596 115.737"/><path d="M 79.2664 95.1508 A 6 5.11087 -21.219 0 0 71.2695 97.7402"/><path d="M 81.8818 101.113 A 6 5.11087 -21.219 0 0 82.1576 98.6999"/><path d="M 79.643 94.9372 A 6 5.11087 -21.219 0 0 71.0799 97.2519"/><path d="M 72.6742 115.73 L 72.0607 116.689"/><path d="M 75.3041 101.524 A 2 1.70361 -21.219 0 0 76.0737 101.685"/><path d="M 75.1145 101.035 A 2 1.70361 -21.219 0 0 76.1965 101.179"/><path d="M 74.4524 100.664 A 2 1.70361 -21.219 0 0 75.3041 101.524"/><path d="M 76.6512 98.1981 A 2 1.70361 -21.219 0 0 74.4524 100.664"/><path d="M 74.3796 100.411 A 2 1.70361 -21.219 0 0 75.1145 101.035"/><path d="M 71.8516 109.115 A 2 1.70361 -21.219 0 0 68.1227 110.563"/><path d="M 68.9744 111.423 A 2 1.70361 -21.219 0 0 71.8516 109.115"/><path d="M 68.7848 110.934 A 2 1.70361 -21.219 0 0 71.7345 108.879"/><path d="M 68.1227 110.563 A 2 1.70361 -21.219 0 0 68.9744 111.423"/><path d="M 68.0499 110.31 A 2 1.70361 -21.219 0 0 68.7848 110.934"/><path d="M 65.522 119.014 A 2 1.70361 -21.219 0 0 61.7931 120.461"/><path d="M 62.6448 121.321 A 2 1.70361 -21.219 0 0 65.522 119.014"/><path d="M 62.4552 120.833 A 2 1.70361 -21.219 0 0 65.4049 118.778"/><path d="M 61.7931 120.461 A 2 1.70361 -21.219 0 0 62.6448 121.321"/><path d="M 61.7203 120.208 A 2 1.70361 -21.219 0 0 62.4552 120.833"/><path d="M 65.6044 131.561 A 2 1.70361 -21.219 0 0 68.5558 130.068"/><path d="M 65.4148 131.073 A 2 1.70361 -21.219 0 0 68.2769 129.895"/><path d="M 65.2477 131.353 A 2 1.70361 -21.219 0 0 65.6044 131.561"/><path d="M 65.3367 131.037 A 2 1.70361 -21.219 0 0 65.4148 131.073"/><path d="M 61.0239 132.149 L 60.8343 131.661"/></g><g stroke="rgb(0, 0, 0)" stroke-width="0.13" stroke-linecap="butt" stroke-linejoin="miter" fill="none"><path d="M 64.5607 106.662 L 64.7503 107.151"/></g><g stroke="rgb(0, 0, 0)" stroke-width="0.35" stroke-linecap="butt" stroke-linejoin="miter" fill="none"><path d="M 64.5607 106.662 A 6 5.11087 -201.219 0 0 63.7785 108.671"/><path d="M 82.1463 100.132 L 82.9468 98.8797"/><path d="M 83.1268 98.6281 A 3 2.55542 -201.219 0 0 82.9468 98.8797"/><path d="M 98.3757 91.4759 A 6 5.11087 -201.219 0 0 95.8207 88.8958"/></g><g stroke="rgb(0, 0, 0)" stroke-width="0.13" stroke-linecap="butt" stroke-linejoin="miter" fill="none"><path d="M 95.8207 88.8958 L 96.0103 89.3842"/></g><g stroke="rgb(0, 0, 0)" stroke-width="0.35" stroke-linecap="butt" stroke-linejoin="miter" fill="none"><path d="M 98.703 92.3795 A 6 5.11087 -201.219 0 0 98.5653 91.9642"/><path d="M 98.5653 91.9642 A 6 5.11087 -201.219 0 0 96.0103 89.3842"/><path d="M 84.4643 83.9464 L 95.8207 88.8958"/></g><g stroke="rgb(0, 0, 0)" stroke-width="0.13" stroke-linecap="butt" stroke-linejoin="miter" fill="none"><path d="M 84.4643 83.9464 L 84.6539 84.4348"/></g><g stroke="rgb(0, 0, 0)" stroke-width="0.35" stroke-linecap="butt" stroke-linejoin="miter" fill="none"><path d="M 84.6539 84.4348 L 96.0103 89.3842"/><path d="M 84.4643 83.9464 A 5 4.25906 -201.219 0 0 77.7263 86.0728"/></g><g stroke="rgb(0, 0, 0)" stroke-width="0.13" stroke-linecap="butt" stroke-linejoin="miter" fill="none"><path d="M 77.7263 86.0728 L 77.916 86.5612"/></g><g stroke="rgb(0, 0, 0)" stroke-width="0.35" stroke-linecap="butt" stroke-linejoin="miter" fill="none"><path d="M 84.6539 84.4347 A 5 4.25906 -201.219 0 0 77.916 86.5611"/><path d="M 64.5607 106.662 L 77.7263 86.0728"/><path d="M 64.7503 107.151 L 77.916 86.5612"/><path d="M 68.0235 110.039 A 2 1.70361 -201.219 0 0 71.5716 108.661"/><path d="M 68.0499 110.31 A 2 1.70361 -201.219 0 0 71.7345 108.879"/><path d="M 74.3531 100.14 A 2 1.70361 -201.219 0 0 76.3304 100.626"/><path d="M 74.3796 100.411 A 2 1.70361 -201.219 0 0 76.1965 101.179"/><path d="M 80.5196 90.0236 A 2 1.70361 -201.219 0 0 84.2042 88.5929"/><path d="M 80.5924 90.2766 A 2 1.70361 -201.219 0 0 84.3213 88.829"/><path d="M 84.3213 88.829 A 2 1.70361 -201.219 0 0 83.4696 87.969"/><path d="M 83.4696 87.969 A 2 1.70361 -201.219 0 0 80.5924 90.2766"/><path d="M 98.3757 91.4759 L 98.5653 91.9642"/><path d="M 75.8528 143.431 A 4 3.40726 -21.219 0 0 68.3951 146.326"/><path d="M 75.6386 146.09 A 4 3.40726 -21.219 0 0 75.8528 143.431"/><path d="M 75.6632 142.943 A 4 3.40726 -21.219 0 0 68.2055 145.838"/><path d="M 68.3951 146.326 A 4 3.40726 -21.219 0 0 70.3473 148.144"/><path d="M 75.8528 143.431 L 75.6632 142.943"/><path d="M 68.3951 146.326 L 68.2055 145.838"/><path d="M 65.8964 130.257 A 2 1.70361 -201.219 0 0 67.3376 129.698"/><path d="M 65.5192 130.685 A 2 1.70361 -201.219 0 0 67.9044 129.759"/><path d="M 65.5193 130.685 A 2 1.70361 -201.219 0 0 67.9045 129.759"/><path d="M 65.3363 131.037 A 2 1.70361 -201.219 0 0 68.277 129.895"/><path d="M 65.2477 131.353 A 2 1.70361 -201.219 0 0 68.5558 130.068"/><path d="M 65.2222 131.643 A 2 1.70361 -201.219 0 0 68.7704 130.266"/><path d="M 65.2487 131.913 A 2 1.70361 -21.219 0 0 68.9333 130.483"/><path d="M 65.2222 131.643 A 2 1.70361 -21.219 0 0 68.7704 130.266"/><path d="M 74.9205 143.793 A 3 2.55542 -201.219 0 0 69.3273 145.964"/><path d="M 75.4893 145.258 A 3 2.55542 -201.219 0 0 69.8961 147.429"/><path d="M 69.8961 147.429 A 3 2.55542 -201.219 0 0 73.4122 148.798"/><path d="M 73.4122 148.798 A 3 2.55542 -201.219 0 0 75.4893 145.258"/><path d="M 74.5571 145.62 A 2 1.70361 -201.219 0 0 72.2131 144.707"/><path d="M 72.2131 144.707 A 2 1.70361 -201.219 0 0 70.8283 147.068"/><path d="M 69.3273 145.964 L 69.8961 147.429"/><path d="M 74.9205 143.793 L 75.4893 145.258"/><path d="M 74.8415 146.352 A 2 1.70361 -201.219 0 0 71.1127 147.8"/><path d="M 71.1127 147.8 A 2 1.70361 -201.219 0 0 73.4567 148.713"/><path d="M 73.4567 148.713 A 2 1.70361 -201.219 0 0 74.8415 146.352"/><path d="M 70.8283 147.067 L 71.1127 147.8"/><path d="M 74.5571 145.62 L 74.8415 146.352"/><path d="M 97.6331 92.3261 A 5 4.25906 -201.219 0 0 88.2161 93.5164"/><path d="M 97.6331 92.3261 L 97.6963 92.4889"/><path d="M 96.3059 88.9077 A 5 4.25906 -201.219 0 0 90.5439 86.5957"/><path d="M 96.3059 88.9077 L 96.421 89.204"/><path d="M 97.7752 100.981 A 2 1.70361 -201.219 1 0 94.0464 102.429"/><path d="M 94.0464 102.429 A 2 1.70361 -201.219 0 0 96.3078 103.366"/><path d="M 96.3078 103.366 A 2 1.70361 -201.219 0 0 97.7752 100.981"/><path d="M 93.5724 101.208 L 94.0464 102.429"/><path d="M 97.3012 99.7601 L 97.7752 100.981"/><path d="M 98.4072 97.0828 A 4 3.40726 -201.219 1 0 90.9496 99.9785"/><path d="M 98.5968 97.5712 A 4 3.40726 -201.219 1 0 91.1392 100.467"/><path d="M 91.1392 100.467 A 4 3.40726 -201.219 0 0 93.0917 102.285"/><path d="M 98.3823 100.231 A 4 3.40726 -201.219 0 0 98.5968 97.5712"/><path d="M 90.9496 99.9785 L 91.1393 100.467"/><path d="M 98.4072 97.0828 L 98.5968 97.5712"/><path d="M 97.6646 97.9331 A 3 2.55542 -201.219 1 0 92.0714 100.105"/><path d="M 98.2334 99.3981 A 3 2.55542 -201.219 1 0 92.6402 101.57"/><path d="M 92.6402 101.57 A 3 2.55542 -201.219 0 0 94.49 103.039"/><path d="M 97.8601 101.731 A 3 2.55542 -201.219 0 0 98.2334 99.3981"/><path d="M 97.3012 99.7601 A 2 1.70361 -201.219 0 0 95.0399 98.8229"/><path d="M 95.0399 98.8229 A 2 1.70361 -201.219 0 0 93.5724 101.208"/><path d="M 92.0714 100.105 L 92.6402 101.57"/><path d="M 97.6646 97.9331 L 98.2334 99.3981"/><path d="M 134.603 97.0214 A 2 1.70361 -201.219 0 0 130.875 98.4691"/><path d="M 130.875 98.4691 A 2 1.70361 -201.219 0 0 133.343 99.3382"/><path d="M 133.343 99.3382 A 2 1.70361 -201.219 0 0 134.603 97.0214"/><path d="M 129.63 95.2641 L 130.875 98.4691"/><path d="M 133.359 93.8164 L 134.603 97.0214"/><path d="M 129.455 84.6482 A 2.5 2.12952 -201.219 0 0 126.123 87.6116"/><path d="M 149.149 81.2401 A 2.05 0.168121 -103.531 0 0 148.19 77.2539"/><path d="M 148.19 77.2539 A 2.05 0.168121 -103.531 0 0 148.995 80.9709"/><path d="M 148.995 80.9709 A 2.05 0.168121 -103.531 0 0 149.149 81.2401"/><path d="M 152.498 103.141 L 151.529 103.374"/><path d="M 146.234 69.9246 L 152.498 103.141"/><path d="M 146.234 69.9246 L 145.538 70.092"/><path d="M 128.716 86.0151 L 145.538 70.092"/><path d="M 139.96 98.8284 L 151.529 103.374"/><path d="M 145.349 69.6036 L 147.013 69.203"/><path d="M 147.013 69.203 L 149.857 76.5281"/><path d="M 149.857 76.5281 L 148.888 76.7613"/><path d="M 146.234 69.9246 L 148.888 76.7613"/><path d="M 145.538 70.092 L 145.349 69.6036"/><path d="M 125.381 88.6584 L 125.337 88.5456"/><path d="M 125.337 88.5456 L 125.364 88.6892"/><path d="M 125.337 88.5456 L 125.578 88.3182"/><path d="M 127.423 86.5711 L 145.349 69.6036"/><path d="M 149.857 76.5281 L 156.121 109.745"/><path d="M 148.888 76.7613 L 155.152 109.978"/><path d="M 156.121 109.745 L 155.152 109.978"/><path d="M 152.498 103.141 L 155.152 109.978"/><path d="M 151.162 91.9115 A 2.05 0.168121 -103.531 0 0 150.202 87.9253"/><path d="M 150.202 87.9253 A 2.05 0.168121 -103.531 0 0 151.007 91.6423"/><path d="M 151.007 91.6423 A 2.05 0.168121 -103.531 0 0 151.162 91.9115"/><path d="M 153.174 102.583 A 2.05 0.168121 -103.531 0 0 152.215 98.5966"/><path d="M 152.215 98.5966 A 2.05 0.168121 -103.531 0 0 153.019 102.314"/><path d="M 153.019 102.314 A 2.05 0.168121 -103.531 0 0 153.174 102.583"/><path d="M 134.449 88.3356 A 5 4.25906 -201.219 0 0 125.032 89.526"/><path d="M 134.449 88.3356 L 134.513 88.4985"/><path d="M 140.937 73.7792 A 6 5.11087 -201.219 0 0 137.421 72.5682"/></g><g stroke="rgb(0, 0, 0)" stroke-width="0.13" stroke-linecap="butt" stroke-linejoin="miter" fill="none"><path d="M 137.421 72.5682 L 137.611 73.0565"/></g><g stroke="rgb(0, 0, 0)" stroke-width="0.35" stroke-linecap="butt" stroke-linejoin="miter" fill="none"><path d="M 140.73 73.9752 A 6 5.11087 -201.219 0 0 137.611 73.0565"/><path d="M 137.421 72.5682 L 76.5141 71.795"/></g><g stroke="rgb(0, 0, 0)" stroke-width="0.13" stroke-linecap="butt" stroke-linejoin="miter" fill="none"><path d="M 76.5141 71.795 L 76.7037 72.2833"/></g><g stroke="rgb(0, 0, 0)" stroke-width="0.35" stroke-linecap="butt" stroke-linejoin="miter" fill="none"><path d="M 137.611 73.0565 L 76.7037 72.2833"/><path d="M 76.5141 71.795 A 6 5.11087 -201.219 0 0 71.1293 74.2998"/><path d="M 76.7037 72.2833 A 6 5.11087 -201.219 0 0 73.3725 73.1037"/><path d="M 108.497 83.176 L 78.095 82.79"/><path d="M 137.862 76.6904 A 2 1.70361 -201.219 0 0 134.942 78.2672"/><path d="M 134.954 78.7629 A 2 1.70361 -201.219 0 0 135.278 79.1359"/><path d="M 134.942 78.2672 A 2 1.70361 -201.219 0 0 135.027 79.0159"/><path d="M 135.027 79.0159 A 2 1.70361 -201.219 0 0 135.148 79.2588"/><path d="M 74.2105 78.208 A 2 1.70361 -201.219 0 0 77.7582 76.8301"/><path d="M 74.2367 78.4781 A 2 1.70361 -201.219 0 0 77.9211 77.0472"/><path d="M 98.4098 78.299 A 2 1.70361 -201.219 0 0 102.094 76.8681"/><path d="M 98.4825 78.5519 A 2 1.70361 -201.219 1 0 102.211 77.104"/><path d="M 102.211 77.104 A 2 1.70361 -201.219 0 0 98.3979 77.8033"/><path d="M 98.3979 77.8033 A 2 1.70361 -201.219 0 0 98.4825 78.5519"/><path d="M 110.591 78.4536 A 2 1.70361 -201.219 0 0 114.276 77.0228"/><path d="M 110.664 78.7066 A 2 1.70361 -201.219 1 0 114.393 77.2587"/><path d="M 114.393 77.2587 A 2 1.70361 -201.219 0 0 110.579 77.9579"/><path d="M 110.579 77.9579 A 2 1.70361 -201.219 0 0 110.664 78.7066"/><path d="M 126.574 77.4133 A 2 1.70361 -201.219 0 0 122.761 78.1125"/><path d="M 122.761 78.1125 A 2 1.70361 -201.219 0 0 122.845 78.8612"/></g><g stroke="rgb(0, 0, 0)" stroke-width="0.13" stroke-linecap="butt" stroke-linejoin="miter" fill="none"><path d="M 28.6981 96.916 L 28.8877 97.4043"/></g><g stroke="rgb(0, 0, 0)" stroke-width="0.35" stroke-linecap="butt" stroke-linejoin="miter" fill="none"><path d="M 28.6981 96.916 A 6 5.11087 -201.219 0 0 25.7165 103.503"/><path d="M 28.8877 97.4043 A 6 5.11087 -201.219 0 0 25.9061 103.991"/><path d="M 25.9061 103.991 A 6 5.11087 -201.219 0 0 34.1109 106.234"/><path d="M 34.1109 106.234 L 78.7854 82.4221"/><path d="M 81.5774 75.3471 A 6 5.11087 -201.219 0 0 73.3726 73.1037"/></g><g stroke="rgb(0, 0, 0)" stroke-width="0.13" stroke-linecap="butt" stroke-linejoin="miter" fill="none"><path d="M 73.3726 73.1037 L 73.5622 73.592"/></g><g stroke="rgb(0, 0, 0)" stroke-width="0.35" stroke-linecap="butt" stroke-linejoin="miter" fill="none"><path d="M 78.7854 82.4221 A 6 5.11087 -201.219 0 0 81.767 75.8354"/><path d="M 81.767 75.8354 A 6 5.11087 -201.219 0 0 73.5622 73.592"/><path d="M 28.6981 96.916 L 73.3726 73.1037"/><path d="M 28.8877 97.4043 L 73.5622 73.592"/><path d="M 74.2366 78.478 A 2 1.70361 -201.219 0 0 77.9211 77.0472"/><path d="M 74.3094 78.7309 A 2 1.70361 -201.219 0 0 78.0382 77.2832"/><path d="M 78.0382 77.2832 A 2 1.70361 -201.219 0 0 77.934 77.0688"/><path d="M 77.934 77.0688 A 2 1.70361 -201.219 0 0 74.3094 78.7309"/><path d="M 63.068 84.431 A 2 1.70361 -201.219 0 0 66.7525 83.0003"/><path d="M 63.1407 84.684 A 2 1.70361 -201.219 0 0 66.8696 83.2363"/><path d="M 66.8696 83.2363 A 2 1.70361 -201.219 0 0 66.7654 83.0219"/><path d="M 66.7654 83.0219 A 2 1.70361 -201.219 0 0 63.1407 84.684"/><path d="M 51.8994 90.3841 A 2 1.70361 -201.219 0 0 55.5839 88.9533"/><path d="M 51.9721 90.637 A 2 1.70361 -201.219 0 0 55.701 89.1893"/><path d="M 55.701 89.1893 A 2 1.70361 -201.219 0 0 55.5968 88.975"/><path d="M 55.5968 88.975 A 2 1.70361 -201.219 0 0 51.9721 90.637"/><path d="M 40.7308 96.3372 A 2 1.70361 -201.219 0 0 44.4153 94.9064"/><path d="M 40.8035 96.5901 A 2 1.70361 -201.219 0 0 44.5324 95.1424"/><path d="M 44.5324 95.1424 A 2 1.70361 -201.219 0 0 44.4282 94.928"/><path d="M 44.4282 94.928 A 2 1.70361 -201.219 0 0 40.8035 96.5901"/><path d="M 25.7165 103.503 L 25.9061 103.991"/><path d="M 81.5774 75.3471 L 81.767 75.8354"/></g><g stroke="rgb(0, 0, 0)" stroke-width="0.13" stroke-linecap="butt" stroke-linejoin="miter" fill="none"><path d="M 6.40966 108.211 L 6.59925 108.699"/></g><g stroke="rgb(0, 0, 0)" stroke-width="0.35" stroke-linecap="butt" stroke-linejoin="miter" fill="none"><path d="M 6.40964 108.211 A 6 5.11087 -201.219 0 0 4.04389 114.427"/><path d="M 6.59925 108.699 A 6 5.11087 -201.219 0 0 4.2335 114.915"/><path d="M 4.2335 114.915 A 6 5.11087 -201.219 0 0 13.0543 116.788"/><path d="M 13.0543 116.788 L 28.3044 106.5"/><path d="M 42.2032 97.1223 L 43.8567 96.0067"/><path d="M 45.3008 88.0664 A 6 5.11087 -201.219 0 0 37.2121 87.4291"/></g><g stroke="rgb(0, 0, 0)" stroke-width="0.13" stroke-linecap="butt" stroke-linejoin="miter" fill="none"><path d="M 37.2121 87.4292 L 37.4017 87.9175"/></g><g stroke="rgb(0, 0, 0)" stroke-width="0.35" stroke-linecap="butt" stroke-linejoin="miter" fill="none"><path d="M 43.8567 96.0067 A 6 5.11087 -201.219 0 0 44.3853 95.6115"/><path d="M 45.1207 88.1625 A 6 5.11087 -201.219 0 0 37.4017 87.9175"/><path d="M 6.40966 108.211 L 37.2121 87.4292"/><path d="M 6.59925 108.699 L 37.4017 87.9175"/><path d="M 7.88948 113.214 A 2 1.70361 -201.219 0 0 11.5741 111.784"/><path d="M 7.96237 113.468 A 2 1.70361 -201.219 1 0 11.6911 112.02"/><path d="M 11.6911 112.02 A 2 1.70361 -201.219 0 0 11.4696 111.635"/><path d="M 11.4696 111.635 A 2 1.70361 -201.219 0 0 7.96237 113.468"/><path d="M 41.2073 90.2484 A 2 1.70361 -201.219 0 0 38.7869 91.5385"/><path d="M 23.2907 102.824 A 2 1.70361 -201.219 0 0 25.692 103.438"/><path d="M 23.3636 103.077 A 2 1.70361 -201.219 0 0 25.8811 103.927"/><path d="M 25.5949 100.613 A 2 1.70361 -201.219 0 0 23.3636 103.077"/><path d="M 18.157 106.287 A 2 1.70361 -201.219 0 0 21.8416 104.857"/><path d="M 18.2299 106.54 A 2 1.70361 -201.219 1 0 21.9586 105.093"/><path d="M 21.9586 105.093 A 2 1.70361 -201.219 0 0 21.737 104.708"/><path d="M 21.737 104.708 A 2 1.70361 -201.219 0 0 18.2299 106.54"/><path d="M 4.0439 114.427 L 4.23349 114.915"/><path d="M 8.42394 105.942 A 4.5 3.83316 -201.219 0 0 4.28881 110.589"/><path d="M 8.53731 111.558 A 2 1.70361 -201.219 0 0 9.97828 110.999"/><path d="M 7.88948 113.214 A 2 1.70361 -201.219 0 0 11.5741 111.784"/><path d="M 17.1327 100.067 A 3.92036 3.33942 -201.219 0 0 16.5776 100.441"/><path d="M 18.8048 104.631 A 2 1.70361 -201.219 0 0 20.2458 104.072"/><path d="M 18.157 106.287 A 2 1.70361 -201.219 0 0 21.8416 104.857"/><path d="M 6.45813 107.269 L 16.7256 100.341"/></g><g stroke="rgb(0, 0, 0)" stroke-width="0.13" stroke-linecap="butt" stroke-linejoin="miter" fill="none"><path d="M 6.45813 107.269 L 6.73795 107.989"/></g><g stroke="rgb(0, 0, 0)" stroke-width="0.35" stroke-linecap="butt" stroke-linejoin="miter" fill="none"><path d="M 23.2643 102.553 A 2 1.70361 -201.219 0 0 25.5394 102.934"/><path d="M 23.5612 101.595 A 2 1.70361 -201.219 0 0 25.4746 101.174"/><path d="M 16.7256 100.341 L 26.9931 93.4142"/></g><g stroke="rgb(0, 0, 0)" stroke-width="0.13" stroke-linecap="butt" stroke-linejoin="miter" fill="none"><path d="M 26.9931 93.4142 L 27.2729 94.1349"/></g><g stroke="rgb(0, 0, 0)" stroke-width="0.35" stroke-linecap="butt" stroke-linejoin="miter" fill="none"><path d="M 30.3288 92.0732 A 4.5 3.83316 -201.219 0 0 25.2874 94.5649"/></g><g stroke="rgb(0, 0, 0)" stroke-width="0.13" stroke-linecap="butt" stroke-linejoin="miter" fill="none"><path d="M 5.27205 105.281 L 5.46166 105.769"/></g><g stroke="rgb(0, 0, 0)" stroke-width="0.35" stroke-linecap="butt" stroke-linejoin="miter" fill="none"><path d="M 5.27205 105.281 A 6 5.11087 -201.219 0 0 2.9063 111.497"/><path d="M 5.46164 105.769 A 6 5.11087 -201.219 0 0 3.09589 111.985"/><path d="M 3.09589 111.985 A 6 5.11087 -201.219 0 0 3.75663 113.134"/><path d="M 36.4571 84.2589 A 6 5.11087 -201.219 0 0 36.0745 84.4991"/></g><g stroke="rgb(0, 0, 0)" stroke-width="0.13" stroke-linecap="butt" stroke-linejoin="miter" fill="none"><path d="M 36.0745 84.4991 L 36.1955 84.8106"/></g><g stroke="rgb(0, 0, 0)" stroke-width="0.35" stroke-linecap="butt" stroke-linejoin="miter" fill="none"><path d="M 5.27205 105.281 L 36.0745 84.4991"/><path d="M 5.46166 105.769 L 36.0398 85.1389"/><path d="M 8.53731 111.558 A 2 1.70361 -201.219 0 0 9.97828 110.999"/><path d="M 39.3398 90.7766 A 2 1.70361 -201.219 0 0 40.7808 90.2171"/><path d="M 23.9386 101.167 A 2 1.70361 -201.219 0 0 25.3795 100.608"/><path d="M 18.8048 104.631 A 2 1.70361 -201.219 0 0 20.2458 104.072"/><path d="M 2.9063 111.497 L 3.0959 111.985"/><path d="M 37.7825 81.4647 L 25.2853 88.1259"/></g><g stroke="rgb(0, 0, 0)" stroke-width="0.13" stroke-linecap="butt" stroke-linejoin="miter" fill="none"><path d="M 25.2853 88.1259 L 25.4749 88.6142"/></g><g stroke="rgb(0, 0, 0)" stroke-width="0.35" stroke-linecap="butt" stroke-linejoin="miter" fill="none"><path d="M 44.5509 78.4464 L 43.7442 78.8764"/><path d="M 37.4083 82.2535 L 25.4749 88.6142"/><path d="M 25.2853 88.1259 A 6 5.11087 -201.219 0 0 22.0829 93.9389"/><path d="M 25.4749 88.6142 A 6 5.11087 -201.219 0 0 22.203 93.8587"/><path d="M 126.369 64.653 L 85.5833 64.1352"/><path d="M 80.8645 64.0753 L 77.287 64.0299"/><path d="M 125.925 65.1333 L 85.808 64.624"/><path d="M 80.7072 64.5592 L 77.1572 64.5142"/><path d="M 67.0393 68.5267 A 6 5.11087 -201.219 0 0 66.9788 70.7691"/><path d="M 67.4521 68.3647 A 6 5.11087 -201.219 0 0 67.0882 70.7825"/><path d="M 70.2046 74.5743 A 6 5.11087 -201.219 0 0 70.4525 74.6594"/><path d="M 95.3762 70.4856 A 2 1.70361 -201.219 0 0 99.0607 69.0548"/><path d="M 95.4489 70.7385 A 2 1.70361 -201.219 1 0 99.1777 69.2906"/><path d="M 99.1777 69.2906 A 2 1.70361 -201.219 0 0 95.3643 69.9899"/><path d="M 95.3643 69.9899 A 2 1.70361 -201.219 0 0 95.4489 70.7385"/><path d="M 107.558 70.6402 A 2 1.70361 -201.219 0 0 111.242 69.2094"/><path d="M 107.63 70.8932 A 2 1.70361 -201.219 1 0 111.359 69.4453"/><path d="M 111.359 69.4453 A 2 1.70361 -201.219 0 0 107.546 70.1445"/><path d="M 107.546 70.1445 A 2 1.70361 -201.219 0 0 107.63 70.8932"/><path d="M 53.1972 82.0681 A 10 8.51813 -21.219 0 0 48.086 86.5818"/><path d="M 34.6664 88.9224 A 6 5.11087 -21.219 0 0 34.5278 89.2402"/></g><g stroke="rgb(0, 0, 0)" stroke-width="0.13" stroke-linecap="butt" stroke-linejoin="miter" fill="none"><path d="M 34.6664 88.9224 L 34.4768 88.434"/></g><g stroke="rgb(0, 0, 0)" stroke-width="0.35" stroke-linecap="butt" stroke-linejoin="miter" fill="none"><path d="M 34.4768 88.434 A 6 5.11087 -21.219 0 0 34.0966 89.5312"/><path d="M 34.6664 88.9224 L 38.9468 79.8981"/></g><g stroke="rgb(0, 0, 0)" stroke-width="0.13" stroke-linecap="butt" stroke-linejoin="miter" fill="none"><path d="M 38.9468 79.8981 L 38.7572 79.4098"/></g><g stroke="rgb(0, 0, 0)" stroke-width="0.35" stroke-linecap="butt" stroke-linejoin="miter" fill="none"><path d="M 34.4768 88.434 L 38.7572 79.4098"/><path d="M 44.3713 74.7819 A 10 8.51813 -21.219 0 0 38.9468 79.8981"/></g><g stroke="rgb(0, 0, 0)" stroke-width="0.13" stroke-linecap="butt" stroke-linejoin="miter" fill="none"><path d="M 44.3713 74.7819 L 44.1817 74.2936"/></g><g stroke="rgb(0, 0, 0)" stroke-width="0.35" stroke-linecap="butt" stroke-linejoin="miter" fill="none"><path d="M 44.1816 74.2936 A 10 8.51813 -21.219 0 0 38.7572 79.4098"/><path d="M 65.7263 65.3768 L 44.3713 74.7819"/></g><g stroke="rgb(0, 0, 0)" stroke-width="0.13" stroke-linecap="butt" stroke-linejoin="miter" fill="none"><path d="M 65.7263 65.3768 L 65.5367 64.8884"/></g><g stroke="rgb(0, 0, 0)" stroke-width="0.35" stroke-linecap="butt" stroke-linejoin="miter" fill="none"><path d="M 65.5367 64.8884 L 44.1817 74.2936"/><path d="M 73.4588 67.8495 A 6 5.11087 -21.219 0 0 65.7263 65.3768"/><path d="M 70.005 74.6657 A 6 5.11087 -21.219 0 0 73.4588 67.8495"/><path d="M 73.2692 67.3611 A 6 5.11087 -21.219 0 0 65.5367 64.8884"/><path d="M 70.005 74.6657 L 53.1972 82.0681"/><path d="M 69.7301 69.2974 A 2 1.70361 -21.219 0 0 66.0012 70.7451"/><path d="M 66.036 70.827 A 2 1.70361 -21.219 0 0 69.7301 69.2974"/><path d="M 65.9284 70.492 A 2 1.70361 -21.219 0 0 69.6131 69.0616"/><path d="M 66.0012 70.7451 A 2 1.70361 -21.219 0 0 66.036 70.827"/><path d="M 58.2947 74.3338 A 2 1.70361 -21.219 0 0 54.5658 75.7814"/><path d="M 54.6006 75.8634 A 2 1.70361 -21.219 0 0 58.2947 74.3338"/><path d="M 54.493 75.5283 A 2 1.70361 -21.219 0 0 58.1777 74.098"/><path d="M 54.5658 75.7814 A 2 1.70361 -21.219 0 0 54.6006 75.8634"/><path d="M 46.8593 79.3701 A 2 1.70361 -21.219 0 0 43.1305 80.8178"/><path d="M 43.1652 80.8997 A 2 1.70361 -21.219 0 0 46.8593 79.3701"/><path d="M 43.0576 80.5647 A 2 1.70361 -21.219 0 0 46.7423 79.1344"/><path d="M 43.1305 80.8178 A 2 1.70361 -21.219 0 0 43.1652 80.8997"/><path d="M 73.4588 67.8495 L 73.2692 67.3611"/></g><g stroke="rgb(0, 0, 0)" stroke-width="0.13" stroke-linecap="butt" stroke-linejoin="miter" fill="none"><path d="M 53.9117 69.4365 L 54.1013 69.9248"/></g><g stroke="rgb(0, 0, 0)" stroke-width="0.35" stroke-linecap="butt" stroke-linejoin="miter" fill="none"><path d="M 53.9117 69.4364 A 6 5.11087 -201.219 0 0 51.7115 70.9773"/><path d="M 72.2053 73.1248 L 72.6581 72.9254"/><path d="M 84.0543 60.8167 L 87.8141 68.979"/></g><g stroke="rgb(0, 0, 0)" stroke-width="0.13" stroke-linecap="butt" stroke-linejoin="miter" fill="none"><path d="M 84.0543 60.8167 L 84.2439 61.305"/></g><g stroke="rgb(0, 0, 0)" stroke-width="0.35" stroke-linecap="butt" stroke-linejoin="miter" fill="none"><path d="M 84.2439 61.305 L 87.7761 68.9731"/><path d="M 84.0543 60.8167 A 5 4.25906 -201.219 0 0 77.6973 58.9608"/></g><g stroke="rgb(0, 0, 0)" stroke-width="0.13" stroke-linecap="butt" stroke-linejoin="miter" fill="none"><path d="M 77.6973 58.9608 L 77.8869 59.4492"/></g><g stroke="rgb(0, 0, 0)" stroke-width="0.35" stroke-linecap="butt" stroke-linejoin="miter" fill="none"><path d="M 84.2439 61.305 A 5 4.25906 -201.219 0 0 77.8869 59.4491"/><path d="M 53.9117 69.4365 L 77.6973 58.9608"/><path d="M 54.1013 69.9248 L 77.8869 59.4492"/><path d="M 54.4667 75.2582 A 2 1.70361 -201.219 0 0 58.0148 73.8811"/><path d="M 54.493 75.5283 A 2 1.70361 -201.219 0 0 58.1777 74.098"/><path d="M 65.9021 70.2218 A 2 1.70361 -201.219 0 0 69.4501 68.8448"/><path d="M 65.9284 70.492 A 2 1.70361 -201.219 0 0 69.6131 69.0616"/><path d="M 77.1742 64.9673 A 2 1.70361 -201.219 0 0 80.8589 63.5369"/><path d="M 77.247 65.2204 A 2 1.70361 -201.219 0 0 80.9759 63.7727"/><path d="M 80.9759 63.7727 A 2 1.70361 -201.219 0 0 80.9411 63.6907"/><path d="M 80.9411 63.6907 A 2 1.70361 -201.219 0 0 77.247 65.2204"/><path d="M 139.007 51.7898 L 138.039 52.0313"/><path d="M 119.264 72.3375 L 138.039 52.0313"/><path d="M 119.898 72.3457 L 138.229 52.5197"/><path d="M 138.039 52.0313 L 138.229 52.5197"/><path d="M 143.953 70.9247 L 140.164 52.0365"/><path d="M 138.229 52.5197 L 140.164 52.0365"/><path d="M 137.82 52.2685 L 136.352 44.953"/><path d="M 137.32 44.7115 L 136.352 44.953"/><path d="M 140.164 52.0365 L 137.32 44.7115"/><path d="M 139.007 51.7898 L 136.352 44.953"/><path d="M 35.4177 100.86 A 4 3.40726 -21.219 0 0 27.9601 103.755"/><path d="M 35.2039 103.518 A 4 3.40726 -21.219 0 0 35.4177 100.86"/><path d="M 29.3762 105.335 A 4 3.40726 -21.219 0 0 29.9117 105.573"/><path d="M 35.2281 100.372 A 4 3.40726 -21.219 0 0 27.7705 103.267"/><path d="M 27.9601 103.755 A 4 3.40726 -21.219 0 0 29.3762 105.335"/><path d="M 35.4177 100.86 L 35.2281 100.372"/><path d="M 27.9601 103.755 L 27.7705 103.267"/><path d="M 39.3407 90.7765 A 2 1.70361 -201.219 0 0 40.7803 90.2175"/><path d="M 38.9625 91.2042 A 2 1.70361 -201.219 0 0 39.3096 91.2599"/><path d="M 38.9625 91.2042 A 2 1.70361 -201.219 0 0 39.3097 91.2599"/><path d="M 34.4856 101.222 A 3 2.55542 -201.219 1 0 28.8923 103.393"/><path d="M 35.0544 102.687 A 3 2.55542 -201.219 1 0 29.4611 104.858"/><path d="M 29.4611 104.858 A 3 2.55542 -201.219 0 0 30.4137 105.979"/><path d="M 30.4137 105.979 A 3 2.55542 -201.219 0 0 35.0544 102.687"/><path d="M 34.1222 103.049 A 2 1.70361 -201.219 0 0 33.4871 102.302"/><path d="M 33.4871 102.302 A 2 1.70361 -201.219 0 0 30.3933 104.496"/><path d="M 28.8923 103.393 L 29.4611 104.858"/><path d="M 34.4856 101.222 L 35.0544 102.687"/><path d="M 34.4066 103.781 A 2 1.70361 -201.219 1 0 30.6777 105.229"/><path d="M 30.6777 105.229 A 2 1.70361 -201.219 0 0 31.3128 105.976"/><path d="M 31.3128 105.976 A 2 1.70361 -201.219 0 0 34.4066 103.781"/><path d="M 30.3933 104.496 L 30.6777 105.229"/><path d="M 34.1222 103.049 L 34.4066 103.781"/><path d="M 91.1201 71.4686 A 5 4.25906 -201.219 0 0 82.0136 71.8648"/><path d="M 91.1201 71.4686 L 91.3198 71.9829"/><path d="M 89.7929 68.0502 A 5 4.25906 -201.219 0 0 86.2236 65.526"/><path d="M 91.0163 71.2273 A 5 4.25906 -201.219 0 0 90.9305 70.9802"/><path d="M 90.9305 70.9802 A 5 4.25906 -201.219 0 0 87.5873 68.4849"/><path d="M 89.7929 68.0502 L 90.9305 70.9802"/><path d="M 91.2623 80.1236 A 2 1.70361 -201.219 1 0 87.5335 81.5714"/><path d="M 87.5335 81.5714 A 2 1.70361 -201.219 0 0 89.6044 82.5532"/><path d="M 89.6044 82.5532 A 2 1.70361 -201.219 0 0 91.2623 80.1236"/><path d="M 87.0595 80.3506 L 87.5336 81.5714"/><path d="M 90.7883 78.9028 L 91.2623 80.1236"/><path d="M 91.8943 76.2255 A 4 3.40726 -201.219 1 0 84.4368 79.1212"/><path d="M 92.0839 76.7139 A 4 3.40726 -201.219 1 0 84.6264 79.6095"/><path d="M 84.6264 79.6095 A 4 3.40726 -201.219 0 0 86.5785 81.4272"/><path d="M 91.8698 79.3728 A 4 3.40726 -201.219 0 0 92.0839 76.7139"/><path d="M 84.4368 79.1212 L 84.6264 79.6095"/><path d="M 91.8943 76.2255 L 92.0839 76.7139"/><path d="M 91.1517 77.0758 A 3 2.55542 -201.219 1 0 85.5586 79.2475"/><path d="M 91.7205 78.5408 A 3 2.55542 -201.219 1 0 86.1273 80.7126"/><path d="M 86.1273 80.7126 A 3 2.55542 -201.219 0 0 87.9767 82.1821"/><path d="M 91.3469 80.8739 A 3 2.55542 -201.219 0 0 91.7205 78.5408"/><path d="M 90.7883 78.9028 A 2 1.70361 -201.219 0 0 88.7175 77.9211"/><path d="M 88.7175 77.9211 A 2 1.70361 -201.219 0 0 87.0595 80.3506"/><path d="M 85.5585 79.2475 L 86.1274 80.7126"/><path d="M 91.1517 77.0758 L 91.7205 78.5408"/><path d="M 127.818 80.6185 A 2 1.70361 -201.219 0 0 123.991 81.4975"/><path d="M 127.916 81.0711 A 2 1.70361 -201.219 0 0 127.818 80.6185"/><path d="M 122.845 78.8611 L 123.873 81.5094"/><path d="M 126.574 77.4135 L 127.818 80.6185"/><path d="M 124.605 66.5615 A 5 4.25906 -201.219 0 0 117.015 72.1334"/><path d="M 120.807 70.6689 A 5 4.25906 -201.219 0 0 119.028 72.3347"/><path d="M 117.015 72.1334 L 117.084 72.31"/><path d="M 155.846 108.284 L 267.413 81.4361"/><path d="M 263.179 58.9834 L 267.413 81.4361"/><path d="M 263.179 58.9834 L 287.97 53.0176"/><path d="M 287.97 53.0176 L 285.94 42.2538"/><path d="M 149.315 75.1315 L 285.94 42.2538"/><path d="M 262.21 59.2166 L 266.285 80.8284"/><path d="M 156.389 107.274 L 266.285 80.8284"/><path d="M 152.314 85.6621 L 156.389 107.274"/><path d="M 152.314 85.6621 L 262.21 59.2166"/><path d="M 137.56 44.8546 L 149.315 75.1315"/><path d="M 137.734 45.78 L 137.56 44.8546"/><path d="M 142.9 62.416 A 2.05 0.168121 -103.531 0 0 141.941 58.4297"/><path d="M 141.941 58.4297 A 2.05 0.168121 -103.531 0 0 142.032 59.4218"/><path d="M 142.032 59.4218 A 2.05 0.168121 -103.531 0 0 142.9 62.416"/><path d="M 145.306 68.613 A 2.05 0.168121 -103.531 0 0 144.347 64.6268"/><path d="M 144.347 64.6268 A 2.05 0.168121 -103.531 0 0 144.438 65.6188"/><path d="M 144.438 65.6188 A 2.05 0.168121 -103.531 0 0 145.306 68.613"/><path d="M 144.445 70.4591 A 2.05 0.168121 -103.531 0 0 143.953 69.1011"/><path d="M 143.953 69.1011 A 2.05 0.168121 -103.531 0 0 144.044 70.0931"/><path d="M 144.044 70.0931 A 2.05 0.168121 -103.531 0 0 144.173 70.7166"/><path d="M 274.185 11.9769 L 137.56 44.8546"/><path d="M 252.809 41.4231 L 252.919 42.0089"/><path d="M 253.959 47.5261 L 254.19 48.7505"/><path d="M 285.94 42.2538 L 274.185 11.9769"/><path d="M 258.317 20.0954 A 2.05 1.06067 -10.6791 0 0 254.63 20.7907"/><path d="M 270.613 17.1364 A 2.05 1.06067 -10.6791 0 0 266.926 17.8317"/><path d="M 260.723 26.2924 A 2.05 1.06067 -10.6791 0 0 257.036 26.9877"/><path d="M 273.019 23.3334 A 2.05 1.06067 -10.6791 0 0 269.332 24.0287"/><path d="M 263.129 32.4894 A 2.05 1.06067 -10.6791 0 0 259.442 33.1847"/><path d="M 275.425 29.5304 A 2.05 1.06067 -10.6791 0 0 271.738 30.2257"/><path d="M 265.535 38.6864 A 2.05 1.06067 -10.6791 0 0 261.848 39.3817"/><path d="M 277.831 35.7274 A 2.05 1.06067 -10.6791 0 0 274.144 36.4227"/><path d="M 267.941 44.8834 A 2.05 1.06067 -10.6791 0 0 264.254 45.5787"/><path d="M 280.237 41.9244 A 2.05 1.06067 -10.6791 0 0 276.55 42.6197"/><path d="M 258.409 19.6426 A 2.05 1.06067 -10.6791 1 0 254.38 20.4024"/><path d="M 254.38 20.4024 A 2.05 1.06067 -10.6791 0 0 254.408 20.5005"/><path d="M 254.408 20.5005 A 2.05 1.06067 -10.6791 0 0 258.409 19.6426"/><path d="M 270.705 16.6836 A 2.05 1.06067 -10.6791 1 0 266.676 17.4434"/><path d="M 266.676 17.4434 A 2.05 1.06067 -10.6791 0 0 266.704 17.5415"/><path d="M 266.704 17.5415 A 2.05 1.06067 -10.6791 0 0 270.705 16.6836"/><path d="M 260.815 25.8396 A 2.05 1.06067 -10.6791 1 0 256.786 26.5994"/><path d="M 256.786 26.5994 A 2.05 1.06067 -10.6791 0 0 256.814 26.6975"/><path d="M 256.814 26.6975 A 2.05 1.06067 -10.6791 0 0 260.815 25.8396"/><path d="M 273.111 22.8806 A 2.05 1.06067 -10.6791 1 0 269.082 23.6404"/><path d="M 269.082 23.6404 A 2.05 1.06067 -10.6791 0 0 269.11 23.7385"/><path d="M 269.11 23.7385 A 2.05 1.06067 -10.6791 0 0 273.111 22.8806"/><path d="M 263.221 32.0366 A 2.05 1.06067 -10.6791 1 0 259.192 32.7964"/><path d="M 259.192 32.7964 A 2.05 1.06067 -10.6791 0 0 259.22 32.8945"/><path d="M 259.22 32.8945 A 2.05 1.06067 -10.6791 0 0 263.221 32.0366"/><path d="M 275.517 29.0776 A 2.05 1.06067 -10.6791 1 0 271.488 29.8374"/><path d="M 271.488 29.8374 A 2.05 1.06067 -10.6791 0 0 271.516 29.9355"/><path d="M 271.516 29.9355 A 2.05 1.06067 -10.6791 0 0 275.517 29.0776"/><path d="M 265.627 38.2336 A 2.05 1.06067 -10.6791 1 0 261.598 38.9934"/><path d="M 261.598 38.9934 A 2.05 1.06067 -10.6791 0 0 261.626 39.0915"/><path d="M 261.626 39.0915 A 2.05 1.06067 -10.6791 0 0 265.627 38.2336"/><path d="M 277.923 35.2746 A 2.05 1.06067 -10.6791 1 0 273.894 36.0344"/><path d="M 273.894 36.0344 A 2.05 1.06067 -10.6791 0 0 273.922 36.1325"/><path d="M 273.922 36.1325 A 2.05 1.06067 -10.6791 0 0 277.923 35.2746"/><path d="M 268.033 44.4306 A 2.05 1.06067 -10.6791 1 0 264.004 45.1904"/><path d="M 264.004 45.1904 A 2.05 1.06067 -10.6791 0 0 264.032 45.2885"/><path d="M 264.032 45.2885 A 2.05 1.06067 -10.6791 0 0 268.033 44.4306"/><path d="M 280.329 41.4716 A 2.05 1.06067 -10.6791 1 0 276.3 42.2314"/><path d="M 276.3 42.2314 A 2.05 1.06067 -10.6791 0 0 276.328 42.3295"/><path d="M 276.328 42.3295 A 2.05 1.06067 -10.6791 0 0 280.329 41.4716"/><path d="M 251.707 48.1494 A 2.05 1.06067 -10.6791 0 0 255.736 47.3896"/><path d="M 255.736 47.3896 A 2.05 1.06067 -10.6791 0 0 255.708 47.2915"/><path d="M 255.645 47.8424 A 2.05 1.06067 -10.6791 0 0 251.958 48.5377"/><path d="M 255.708 47.2915 A 2.05 1.06067 -10.6791 0 0 251.707 48.1494"/><path d="M 239.411 51.1084 A 2.05 1.06067 -10.6791 0 0 243.44 50.3486"/><path d="M 243.44 50.3486 A 2.05 1.06067 -10.6791 0 0 243.412 50.2505"/><path d="M 243.348 50.8014 A 2.05 1.06067 -10.6791 0 0 239.662 51.4967"/><path d="M 243.412 50.2505 A 2.05 1.06067 -10.6791 0 0 239.411 51.1084"/><path d="M 227.115 54.0674 A 2.05 1.06067 -10.6791 0 0 231.144 53.3076"/><path d="M 231.144 53.3076 A 2.05 1.06067 -10.6791 0 0 231.116 53.2095"/><path d="M 231.052 53.7604 A 2.05 1.06067 -10.6791 0 0 227.365 54.4556"/><path d="M 231.116 53.2095 A 2.05 1.06067 -10.6791 0 0 227.115 54.0674"/><path d="M 214.819 57.0264 A 2.05 1.06067 -10.6791 0 0 218.848 56.2666"/><path d="M 218.848 56.2666 A 2.05 1.06067 -10.6791 0 0 218.82 56.1685"/><path d="M 218.756 56.7194 A 2.05 1.06067 -10.6791 0 0 215.069 57.4146"/><path d="M 218.82 56.1685 A 2.05 1.06067 -10.6791 0 0 214.819 57.0264"/><path d="M 202.522 59.9854 A 2.05 1.06067 -10.6791 0 0 206.551 59.2256"/><path d="M 206.551 59.2256 A 2.05 1.06067 -10.6791 0 0 206.523 59.1275"/><path d="M 206.46 59.6784 A 2.05 1.06067 -10.6791 0 0 202.773 60.3736"/><path d="M 206.523 59.1275 A 2.05 1.06067 -10.6791 0 0 202.522 59.9854"/><path d="M 190.226 62.9444 A 2.05 1.06067 -10.6791 0 0 194.255 62.1846"/><path d="M 194.255 62.1846 A 2.05 1.06067 -10.6791 0 0 194.227 62.0865"/><path d="M 194.163 62.6374 A 2.05 1.06067 -10.6791 0 0 190.477 63.3326"/><path d="M 194.227 62.0865 A 2.05 1.06067 -10.6791 0 0 190.226 62.9444"/><path d="M 177.93 65.9034 A 2.05 1.06067 -10.6791 0 0 181.959 65.1436"/><path d="M 181.959 65.1436 A 2.05 1.06067 -10.6791 0 0 181.931 65.0455"/><path d="M 181.867 65.5964 A 2.05 1.06067 -10.6791 0 0 178.18 66.2916"/><path d="M 181.931 65.0455 A 2.05 1.06067 -10.6791 0 0 177.93 65.9034"/><path d="M 165.634 68.8624 A 2.05 1.06067 -10.6791 0 0 169.663 68.1025"/><path d="M 169.663 68.1025 A 2.05 1.06067 -10.6791 0 0 169.635 68.0044"/><path d="M 169.571 68.5554 A 2.05 1.06067 -10.6791 0 0 165.884 69.2506"/><path d="M 169.635 68.0044 A 2.05 1.06067 -10.6791 0 0 165.634 68.8624"/><path d="M 153.337 71.8214 A 2.05 1.06067 -10.6791 0 0 157.366 71.0615"/><path d="M 157.366 71.0615 A 2.05 1.06067 -10.6791 0 0 157.338 70.9634"/><path d="M 157.275 71.5144 A 2.05 1.06067 -10.6791 0 0 153.588 72.2096"/><path d="M 157.338 70.9634 A 2.05 1.06067 -10.6791 0 0 153.337 71.8214"/><path d="M 249.301 41.9524 A 2.05 1.06067 -10.6791 0 0 253.33 41.1926"/><path d="M 253.33 41.1926 A 2.05 1.06067 -10.6791 0 0 253.302 41.0945"/><path d="M 253.239 41.6454 A 2.05 1.06067 -10.6791 0 0 249.552 42.3407"/><path d="M 253.302 41.0945 A 2.05 1.06067 -10.6791 0 0 249.301 41.9524"/><path d="M 237.005 44.9114 A 2.05 1.06067 -10.6791 0 0 241.034 44.1516"/><path d="M 241.034 44.1516 A 2.05 1.06067 -10.6791 0 0 241.006 44.0535"/><path d="M 240.942 44.6044 A 2.05 1.06067 -10.6791 0 0 237.256 45.2997"/><path d="M 241.006 44.0535 A 2.05 1.06067 -10.6791 0 0 237.005 44.9114"/><path d="M 224.709 47.8704 A 2.05 1.06067 -10.6791 0 0 228.738 47.1106"/><path d="M 228.738 47.1106 A 2.05 1.06067 -10.6791 0 0 228.71 47.0125"/><path d="M 228.646 47.5634 A 2.05 1.06067 -10.6791 0 0 224.959 48.2587"/><path d="M 228.71 47.0125 A 2.05 1.06067 -10.6791 0 0 224.709 47.8704"/><path d="M 212.413 50.8294 A 2.05 1.06067 -10.6791 0 0 216.442 50.0696"/><path d="M 216.442 50.0696 A 2.05 1.06067 -10.6791 0 0 216.414 49.9715"/><path d="M 216.35 50.5224 A 2.05 1.06067 -10.6791 0 0 212.663 51.2176"/><path d="M 216.414 49.9715 A 2.05 1.06067 -10.6791 0 0 212.413 50.8294"/><path d="M 200.116 53.7884 A 2.05 1.06067 -10.6791 0 0 204.145 53.0286"/><path d="M 204.145 53.0286 A 2.05 1.06067 -10.6791 0 0 204.117 52.9305"/><path d="M 204.054 53.4814 A 2.05 1.06067 -10.6791 0 0 200.367 54.1766"/><path d="M 204.117 52.9305 A 2.05 1.06067 -10.6791 0 0 200.116 53.7884"/><path d="M 187.82 56.7474 A 2.05 1.06067 -10.6791 0 0 191.849 55.9875"/><path d="M 191.849 55.9875 A 2.05 1.06067 -10.6791 0 0 191.821 55.8895"/><path d="M 191.757 56.4404 A 2.05 1.06067 -10.6791 0 0 188.071 57.1356"/><path d="M 191.821 55.8895 A 2.05 1.06067 -10.6791 0 0 187.82 56.7474"/><path d="M 175.524 59.7064 A 2.05 1.06067 -10.6791 0 0 179.553 58.9465"/><path d="M 179.553 58.9465 A 2.05 1.06067 -10.6791 0 0 179.525 58.8484"/><path d="M 179.461 59.3994 A 2.05 1.06067 -10.6791 0 0 175.774 60.0946"/><path d="M 179.525 58.8484 A 2.05 1.06067 -10.6791 0 0 175.524 59.7064"/><path d="M 163.228 62.6654 A 2.05 1.06067 -10.6791 0 0 167.257 61.9055"/><path d="M 167.257 61.9055 A 2.05 1.06067 -10.6791 0 0 167.229 61.8074"/><path d="M 167.165 62.3584 A 2.05 1.06067 -10.6791 0 0 163.478 63.0536"/><path d="M 167.229 61.8074 A 2.05 1.06067 -10.6791 0 0 163.228 62.6654"/><path d="M 150.931 65.6244 A 2.05 1.06067 -10.6791 0 0 154.96 64.8645"/><path d="M 154.96 64.8645 A 2.05 1.06067 -10.6791 0 0 154.932 64.7664"/><path d="M 154.869 65.3174 A 2.05 1.06067 -10.6791 0 0 151.182 66.0126"/><path d="M 154.932 64.7664 A 2.05 1.06067 -10.6791 0 0 150.931 65.6244"/><path d="M 246.895 35.7554 A 2.05 1.06067 -10.6791 0 0 250.924 34.9956"/><path d="M 250.924 34.9956 A 2.05 1.06067 -10.6791 0 0 250.896 34.8975"/><path d="M 250.833 35.4484 A 2.05 1.06067 -10.6791 0 0 247.146 36.1437"/><path d="M 250.896 34.8975 A 2.05 1.06067 -10.6791 0 0 246.895 35.7554"/><path d="M 234.599 38.7144 A 2.05 1.06067 -10.6791 0 0 238.628 37.9546"/><path d="M 238.628 37.9546 A 2.05 1.06067 -10.6791 0 0 238.6 37.8565"/><path d="M 238.536 38.4074 A 2.05 1.06067 -10.6791 0 0 234.85 39.1026"/><path d="M 238.6 37.8565 A 2.05 1.06067 -10.6791 0 0 234.599 38.7144"/><path d="M 222.303 41.6734 A 2.05 1.06067 -10.6791 0 0 226.332 40.9136"/><path d="M 226.332 40.9136 A 2.05 1.06067 -10.6791 0 0 226.304 40.8155"/><path d="M 226.24 41.3664 A 2.05 1.06067 -10.6791 0 0 222.553 42.0616"/><path d="M 226.304 40.8155 A 2.05 1.06067 -10.6791 0 0 222.303 41.6734"/><path d="M 210.007 44.6324 A 2.05 1.06067 -10.6791 0 0 214.036 43.8726"/><path d="M 214.036 43.8726 A 2.05 1.06067 -10.6791 0 0 214.008 43.7745"/><path d="M 213.944 44.3254 A 2.05 1.06067 -10.6791 0 0 210.257 45.0206"/><path d="M 214.008 43.7745 A 2.05 1.06067 -10.6791 0 0 210.007 44.6324"/><path d="M 197.71 47.5914 A 2.05 1.06067 -10.6791 0 0 201.739 46.8316"/><path d="M 201.739 46.8316 A 2.05 1.06067 -10.6791 0 0 201.711 46.7335"/><path d="M 201.648 47.2844 A 2.05 1.06067 -10.6791 0 0 197.961 47.9796"/><path d="M 201.711 46.7335 A 2.05 1.06067 -10.6791 0 0 197.71 47.5914"/><path d="M 185.414 50.5504 A 2.05 1.06067 -10.6791 0 0 189.443 49.7906"/><path d="M 189.443 49.7906 A 2.05 1.06067 -10.6791 0 0 189.415 49.6925"/><path d="M 189.351 50.2434 A 2.05 1.06067 -10.6791 0 0 185.665 50.9386"/><path d="M 189.415 49.6925 A 2.05 1.06067 -10.6791 0 0 185.414 50.5504"/><path d="M 173.118 53.5094 A 2.05 1.06067 -10.6791 0 0 177.147 52.7495"/><path d="M 177.147 52.7495 A 2.05 1.06067 -10.6791 0 0 177.119 52.6514"/><path d="M 177.055 53.2024 A 2.05 1.06067 -10.6791 0 0 173.368 53.8976"/><path d="M 177.119 52.6514 A 2.05 1.06067 -10.6791 0 0 173.118 53.5094"/><path d="M 160.822 56.4684 A 2.05 1.06067 -10.6791 0 0 164.851 55.7085"/><path d="M 164.851 55.7085 A 2.05 1.06067 -10.6791 0 0 164.823 55.6104"/><path d="M 164.759 56.1614 A 2.05 1.06067 -10.6791 0 0 161.072 56.8566"/><path d="M 164.823 55.6104 A 2.05 1.06067 -10.6791 0 0 160.822 56.4684"/><path d="M 148.525 59.4274 A 2.05 1.06067 -10.6791 0 0 152.554 58.6675"/><path d="M 152.554 58.6675 A 2.05 1.06067 -10.6791 0 0 152.526 58.5694"/><path d="M 152.463 59.1204 A 2.05 1.06067 -10.6791 0 0 148.776 59.8156"/><path d="M 152.526 58.5694 A 2.05 1.06067 -10.6791 0 0 148.525 59.4274"/><path d="M 244.489 29.5584 A 2.05 1.06067 -10.6791 0 0 248.518 28.7986"/><path d="M 248.518 28.7986 A 2.05 1.06067 -10.6791 0 0 248.49 28.7005"/><path d="M 248.426 29.2514 A 2.05 1.06067 -10.6791 0 0 244.74 29.9467"/><path d="M 248.49 28.7005 A 2.05 1.06067 -10.6791 0 0 244.489 29.5584"/><path d="M 232.193 32.5174 A 2.05 1.06067 -10.6791 0 0 236.222 31.7576"/><path d="M 236.222 31.7576 A 2.05 1.06067 -10.6791 0 0 236.194 31.6595"/><path d="M 236.13 32.2104 A 2.05 1.06067 -10.6791 0 0 232.444 32.9057"/><path d="M 236.194 31.6595 A 2.05 1.06067 -10.6791 0 0 232.193 32.5174"/><path d="M 219.897 35.4764 A 2.05 1.06067 -10.6791 0 0 223.926 34.7166"/><path d="M 223.926 34.7166 A 2.05 1.06067 -10.6791 0 0 223.898 34.6185"/><path d="M 223.834 35.1694 A 2.05 1.06067 -10.6791 0 0 220.147 35.8646"/><path d="M 223.898 34.6185 A 2.05 1.06067 -10.6791 0 0 219.897 35.4764"/><path d="M 207.601 38.4354 A 2.05 1.06067 -10.6791 0 0 211.63 37.6756"/><path d="M 211.63 37.6756 A 2.05 1.06067 -10.6791 0 0 211.601 37.5775"/><path d="M 211.538 38.1284 A 2.05 1.06067 -10.6791 0 0 207.851 38.8236"/><path d="M 211.601 37.5775 A 2.05 1.06067 -10.6791 0 0 207.601 38.4354"/><path d="M 195.304 41.3944 A 2.05 1.06067 -10.6791 0 0 199.333 40.6346"/><path d="M 199.333 40.6346 A 2.05 1.06067 -10.6791 0 0 199.305 40.5365"/><path d="M 199.242 41.0874 A 2.05 1.06067 -10.6791 0 0 195.555 41.7826"/><path d="M 199.305 40.5365 A 2.05 1.06067 -10.6791 0 0 195.304 41.3944"/><path d="M 183.008 44.3534 A 2.05 1.06067 -10.6791 0 0 187.037 43.5936"/><path d="M 187.037 43.5936 A 2.05 1.06067 -10.6791 0 0 187.009 43.4955"/><path d="M 186.945 44.0464 A 2.05 1.06067 -10.6791 0 0 183.259 44.7416"/><path d="M 187.009 43.4955 A 2.05 1.06067 -10.6791 0 0 183.008 44.3534"/><path d="M 170.712 47.3124 A 2.05 1.06067 -10.6791 0 0 174.741 46.5526"/><path d="M 174.741 46.5526 A 2.05 1.06067 -10.6791 0 0 174.713 46.4545"/><path d="M 174.649 47.0054 A 2.05 1.06067 -10.6791 0 0 170.962 47.7006"/><path d="M 174.713 46.4545 A 2.05 1.06067 -10.6791 0 0 170.712 47.3124"/><path d="M 158.416 50.2714 A 2.05 1.06067 -10.6791 0 0 162.445 49.5115"/><path d="M 162.445 49.5115 A 2.05 1.06067 -10.6791 0 0 162.417 49.4134"/><path d="M 162.353 49.9644 A 2.05 1.06067 -10.6791 0 0 158.666 50.6596"/><path d="M 162.417 49.4134 A 2.05 1.06067 -10.6791 0 0 158.416 50.2714"/><path d="M 146.119 53.2304 A 2.05 1.06067 -10.6791 0 0 150.148 52.4705"/><path d="M 150.148 52.4705 A 2.05 1.06067 -10.6791 0 0 150.12 52.3724"/><path d="M 150.057 52.9234 A 2.05 1.06067 -10.6791 0 0 146.37 53.6186"/><path d="M 150.12 52.3724 A 2.05 1.06067 -10.6791 0 0 146.119 53.2304"/><path d="M 242.083 23.3614 A 2.05 1.06067 -10.6791 0 0 246.112 22.6016"/><path d="M 246.112 22.6016 A 2.05 1.06067 -10.6791 0 0 246.084 22.5035"/><path d="M 246.02 23.0544 A 2.05 1.06067 -10.6791 0 0 242.334 23.7497"/><path d="M 246.084 22.5035 A 2.05 1.06067 -10.6791 0 0 242.083 23.3614"/><path d="M 229.787 26.3204 A 2.05 1.06067 -10.6791 0 0 233.816 25.5606"/><path d="M 233.816 25.5606 A 2.05 1.06067 -10.6791 0 0 233.788 25.4625"/><path d="M 233.724 26.0134 A 2.05 1.06067 -10.6791 0 0 230.037 26.7086"/><path d="M 233.788 25.4625 A 2.05 1.06067 -10.6791 0 0 229.787 26.3204"/><path d="M 217.491 29.2794 A 2.05 1.06067 -10.6791 0 0 221.52 28.5196"/><path d="M 221.52 28.5196 A 2.05 1.06067 -10.6791 0 0 221.492 28.4215"/><path d="M 221.428 28.9724 A 2.05 1.06067 -10.6791 0 0 217.741 29.6676"/><path d="M 221.492 28.4215 A 2.05 1.06067 -10.6791 0 0 217.491 29.2794"/><path d="M 205.195 32.2384 A 2.05 1.06067 -10.6791 0 0 209.224 31.4786"/><path d="M 209.224 31.4786 A 2.05 1.06067 -10.6791 0 0 209.195 31.3805"/><path d="M 209.132 31.9314 A 2.05 1.06067 -10.6791 0 0 205.445 32.6266"/><path d="M 209.195 31.3805 A 2.05 1.06067 -10.6791 0 0 205.195 32.2384"/><path d="M 192.898 35.1974 A 2.05 1.06067 -10.6791 0 0 196.927 34.4376"/><path d="M 196.927 34.4376 A 2.05 1.06067 -10.6791 0 0 196.899 34.3395"/><path d="M 196.835 34.8904 A 2.05 1.06067 -10.6791 0 0 193.149 35.5856"/><path d="M 196.899 34.3395 A 2.05 1.06067 -10.6791 0 0 192.898 35.1974"/><path d="M 180.602 38.1564 A 2.05 1.06067 -10.6791 0 0 184.631 37.3966"/><path d="M 184.631 37.3966 A 2.05 1.06067 -10.6791 0 0 184.603 37.2985"/><path d="M 184.539 37.8494 A 2.05 1.06067 -10.6791 0 0 180.853 38.5446"/><path d="M 184.603 37.2985 A 2.05 1.06067 -10.6791 0 0 180.602 38.1564"/><path d="M 168.306 41.1154 A 2.05 1.06067 -10.6791 0 0 172.335 40.3555"/><path d="M 172.335 40.3555 A 2.05 1.06067 -10.6791 0 0 172.307 40.2574"/><path d="M 172.243 40.8084 A 2.05 1.06067 -10.6791 0 0 168.556 41.5036"/><path d="M 172.307 40.2574 A 2.05 1.06067 -10.6791 0 0 168.306 41.1154"/><path d="M 143.713 47.0334 A 2.05 1.06067 -10.6791 0 0 147.742 46.2735"/><path d="M 147.742 46.2735 A 2.05 1.06067 -10.6791 0 0 147.714 46.1754"/><path d="M 147.651 46.7264 A 2.05 1.06067 -190.679 0 0 143.964 47.4216"/><path d="M 147.714 46.1754 A 2.05 1.06067 -10.6791 0 0 143.713 47.0334"/><path d="M 156.01 44.0744 A 2.05 1.06067 -10.6791 0 0 160.039 43.3145"/><path d="M 160.039 43.3145 A 2.05 1.06067 -10.6791 0 0 160.01 43.2164"/><path d="M 159.947 43.7674 A 2.05 1.06067 -10.6791 0 0 156.26 44.4626"/><path d="M 160.01 43.2164 A 2.05 1.06067 -10.6791 0 0 156.01 44.0744"/><path d="M 265.008 75.6709 A 2.05 0.168121 -103.531 0 0 264.049 71.6847"/><path d="M 264.049 71.6847 A 2.05 0.168121 -103.531 0 0 264.139 72.6767"/><path d="M 264.139 72.6767 A 2.05 0.168121 -103.531 0 0 265.008 75.6709"/><path d="M 262.602 69.4739 A 2.05 0.168121 -103.531 0 0 261.643 65.4877"/><path d="M 261.643 65.4877 A 2.05 0.168121 -103.531 0 0 261.733 66.4797"/><path d="M 261.733 66.4797 A 2.05 0.168121 -103.531 0 0 262.602 69.4739"/><path d="M 260.196 63.2769 A 2.05 0.168121 -103.531 0 0 259.5 59.8687"/><path d="M 259.265 59.9252 A 2.05 0.168121 -103.531 0 0 259.327 60.2827"/><path d="M 259.327 60.2827 A 2.05 0.168121 -103.531 0 0 260.196 63.2769"/><path d="M 254.966 48.4454 A 2.05 0.168121 -103.531 0 0 254.701 47.5163"/><path d="M 254.448 47.5021 A 2.05 0.168121 -103.531 0 0 254.515 47.8887"/><path d="M 254.515 47.8887 A 2.05 0.168121 -103.531 0 0 254.662 48.5915"/><path d="M 262.995 64.9996 A 2.05 0.168121 -103.531 0 0 262.036 61.0134"/><path d="M 262.036 61.0134 A 2.05 0.168121 -103.531 0 0 262.127 62.0054"/><path d="M 262.127 62.0054 A 2.05 0.168121 -103.531 0 0 262.995 64.9996"/><path d="M 258.263 60.1663 L 266.285 80.8284"/><path d="M 156.254 84.8462 A 2.05 1.06067 -10.6791 0 0 156.216 84.7241"/><path d="M 152.354 85.8747 A 2.05 1.06067 -10.6791 0 0 156.254 84.8462"/><path d="M 168.55 81.8872 A 2.05 1.06067 -10.6791 0 0 168.512 81.7651"/><path d="M 164.54 82.7199 A 2.05 1.06067 -10.6791 0 0 164.549 82.7451"/><path d="M 164.549 82.7451 A 2.05 1.06067 -10.6791 0 0 168.55 81.8872"/><path d="M 180.846 78.9282 A 2.05 1.06067 -10.6791 0 0 180.808 78.8061"/><path d="M 176.836 79.7609 A 2.05 1.06067 -10.6791 0 0 176.845 79.7861"/><path d="M 176.845 79.7861 A 2.05 1.06067 -10.6791 0 0 180.846 78.9282"/><path d="M 193.142 75.9692 A 2.05 1.06067 -10.6791 0 0 193.104 75.8471"/><path d="M 189.132 76.8019 A 2.05 1.06067 -10.6791 0 0 189.141 76.8271"/><path d="M 189.141 76.8271 A 2.05 1.06067 -10.6791 0 0 193.142 75.9692"/><path d="M 205.439 73.0102 A 2.05 1.06067 -10.6791 0 0 205.401 72.8881"/><path d="M 201.429 73.8429 A 2.05 1.06067 -10.6791 0 0 201.438 73.8681"/><path d="M 201.438 73.8681 A 2.05 1.06067 -10.6791 0 0 205.439 73.0102"/><path d="M 217.735 70.0512 A 2.05 1.06067 -10.6791 0 0 217.697 69.9292"/><path d="M 213.725 70.8839 A 2.05 1.06067 -10.6791 0 0 213.734 70.9091"/><path d="M 213.734 70.9091 A 2.05 1.06067 -10.6791 0 0 217.735 70.0512"/><path d="M 230.031 67.0922 A 2.05 1.06067 -10.6791 0 0 229.993 66.9702"/><path d="M 226.021 67.9249 A 2.05 1.06067 -10.6791 0 0 226.03 67.9501"/><path d="M 226.03 67.9501 A 2.05 1.06067 -10.6791 0 0 230.031 67.0922"/><path d="M 242.327 64.1332 A 2.05 1.06067 -10.6791 0 0 242.289 64.0112"/><path d="M 238.317 64.9659 A 2.05 1.06067 -10.6791 0 0 238.326 64.9911"/><path d="M 238.326 64.9911 A 2.05 1.06067 -10.6791 0 0 242.327 64.1332"/><path d="M 254.624 61.1742 A 2.05 1.06067 -10.6791 0 0 254.586 61.0522"/><path d="M 250.614 62.0069 A 2.05 1.06067 -10.6791 0 0 250.623 62.0322"/><path d="M 250.623 62.0322 A 2.05 1.06067 -10.6791 0 0 254.624 61.1742"/><path d="M 158.66 91.0432 A 2.05 1.06067 -10.6791 1 0 154.631 91.803"/><path d="M 154.631 91.803 A 2.05 1.06067 -10.6791 0 0 154.659 91.9011"/><path d="M 154.659 91.9011 A 2.05 1.06067 -10.6791 0 0 158.66 91.0432"/><path d="M 170.956 88.0842 A 2.05 1.06067 -10.6791 1 0 166.927 88.844"/><path d="M 166.927 88.844 A 2.05 1.06067 -10.6791 0 0 166.955 88.9421"/><path d="M 166.955 88.9421 A 2.05 1.06067 -10.6791 0 0 170.956 88.0842"/><path d="M 183.252 85.1252 A 2.05 1.06067 -10.6791 1 0 179.223 85.885"/><path d="M 179.223 85.885 A 2.05 1.06067 -10.6791 0 0 179.251 85.9831"/><path d="M 179.251 85.9831 A 2.05 1.06067 -10.6791 0 0 183.252 85.1252"/><path d="M 195.548 82.1662 A 2.05 1.06067 -10.6791 1 0 191.519 82.926"/><path d="M 191.519 82.926 A 2.05 1.06067 -10.6791 0 0 191.547 83.0241"/><path d="M 191.547 83.0241 A 2.05 1.06067 -10.6791 0 0 195.548 82.1662"/><path d="M 207.845 79.2072 A 2.05 1.06067 -10.6791 1 0 203.816 79.967"/><path d="M 203.816 79.967 A 2.05 1.06067 -10.6791 0 0 203.844 80.0651"/><path d="M 203.844 80.0651 A 2.05 1.06067 -10.6791 0 0 207.845 79.2072"/><path d="M 220.141 76.2482 A 2.05 1.06067 -10.6791 1 0 216.112 77.008"/><path d="M 216.112 77.008 A 2.05 1.06067 -10.6791 0 0 216.14 77.1061"/><path d="M 216.14 77.1061 A 2.05 1.06067 -10.6791 0 0 220.141 76.2482"/><path d="M 232.437 73.2892 A 2.05 1.06067 -10.6791 1 0 228.408 74.049"/><path d="M 228.408 74.049 A 2.05 1.06067 -10.6791 0 0 228.436 74.1471"/><path d="M 228.436 74.1471 A 2.05 1.06067 -10.6791 0 0 232.437 73.2892"/><path d="M 244.733 70.3302 A 2.05 1.06067 -10.6791 1 0 240.704 71.09"/><path d="M 240.704 71.09 A 2.05 1.06067 -10.6791 0 0 240.732 71.1881"/><path d="M 240.732 71.1881 A 2.05 1.06067 -10.6791 0 0 244.733 70.3302"/><path d="M 257.03 67.3712 A 2.05 1.06067 -10.6791 1 0 253.001 68.1311"/><path d="M 253.001 68.1311 A 2.05 1.06067 -10.6791 0 0 253.029 68.2292"/><path d="M 253.029 68.2292 A 2.05 1.06067 -10.6791 0 0 257.03 67.3712"/><path d="M 161.066 97.2402 A 2.05 1.06067 -10.6791 1 0 157.037 98"/><path d="M 157.037 98 A 2.05 1.06067 -10.6791 0 0 157.065 98.0981"/><path d="M 157.065 98.0981 A 2.05 1.06067 -10.6791 0 0 161.066 97.2402"/><path d="M 173.362 94.2812 A 2.05 1.06067 -10.6791 1 0 169.333 95.041"/><path d="M 169.333 95.041 A 2.05 1.06067 -10.6791 0 0 169.361 95.1391"/><path d="M 169.361 95.1391 A 2.05 1.06067 -10.6791 0 0 173.362 94.2812"/><path d="M 185.658 91.3222 A 2.05 1.06067 -10.6791 1 0 181.629 92.082"/><path d="M 181.629 92.082 A 2.05 1.06067 -10.6791 0 0 181.657 92.1801"/><path d="M 181.657 92.1801 A 2.05 1.06067 -10.6791 0 0 185.658 91.3222"/><path d="M 197.954 88.3632 A 2.05 1.06067 -10.6791 1 0 193.925 89.123"/><path d="M 193.925 89.123 A 2.05 1.06067 -10.6791 0 0 193.953 89.2211"/><path d="M 193.953 89.2211 A 2.05 1.06067 -10.6791 0 0 197.954 88.3632"/><path d="M 210.251 85.4042 A 2.05 1.06067 -10.6791 1 0 206.222 86.164"/><path d="M 206.222 86.164 A 2.05 1.06067 -10.6791 0 0 206.25 86.2621"/><path d="M 206.25 86.2621 A 2.05 1.06067 -10.6791 0 0 210.251 85.4042"/><path d="M 222.547 82.4452 A 2.05 1.06067 -10.6791 1 0 218.518 83.205"/><path d="M 218.518 83.205 A 2.05 1.06067 -10.6791 0 0 218.546 83.3031"/><path d="M 218.546 83.3031 A 2.05 1.06067 -10.6791 0 0 222.547 82.4452"/><path d="M 234.843 79.4862 A 2.05 1.06067 -10.6791 1 0 230.814 80.246"/><path d="M 230.814 80.246 A 2.05 1.06067 -10.6791 0 0 230.842 80.3441"/><path d="M 230.842 80.3441 A 2.05 1.06067 -10.6791 0 0 234.843 79.4862"/><path d="M 247.139 76.5272 A 2.05 1.06067 -10.6791 1 0 243.11 77.287"/><path d="M 243.11 77.287 A 2.05 1.06067 -10.6791 0 0 243.138 77.3851"/><path d="M 243.138 77.3851 A 2.05 1.06067 -10.6791 0 0 247.139 76.5272"/><path d="M 259.436 73.5682 A 2.05 1.06067 -10.6791 1 0 255.407 74.328"/><path d="M 255.407 74.328 A 2.05 1.06067 -10.6791 0 0 255.435 74.4261"/><path d="M 255.435 74.4261 A 2.05 1.06067 -10.6791 0 0 259.436 73.5682"/><path d="M 163.472 103.437 A 2.05 1.06067 -10.6791 1 0 159.443 104.197"/><path d="M 159.443 104.197 A 2.05 1.06067 -10.6791 0 0 159.471 104.295"/><path d="M 159.471 104.295 A 2.05 1.06067 -10.6791 0 0 163.472 103.437"/><path d="M 175.768 100.478 A 2.05 1.06067 -10.6791 1 0 171.739 101.238"/><path d="M 171.739 101.238 A 2.05 1.06067 -10.6791 0 0 171.767 101.336"/><path d="M 171.767 101.336 A 2.05 1.06067 -10.6791 0 0 175.768 100.478"/><path d="M 188.064 97.5192 A 2.05 1.06067 -10.6791 1 0 184.035 98.279"/><path d="M 184.035 98.279 A 2.05 1.06067 -10.6791 0 0 184.063 98.3771"/><path d="M 184.063 98.3771 A 2.05 1.06067 -10.6791 0 0 188.064 97.5192"/><path d="M 200.36 94.5602 A 2.05 1.06067 -10.6791 1 0 196.331 95.32"/><path d="M 196.331 95.32 A 2.05 1.06067 -10.6791 0 0 196.359 95.4181"/><path d="M 196.359 95.4181 A 2.05 1.06067 -10.6791 0 0 200.36 94.5602"/><path d="M 212.657 91.6012 A 2.05 1.06067 -10.6791 1 0 208.628 92.361"/><path d="M 208.628 92.361 A 2.05 1.06067 -10.6791 0 0 208.656 92.4591"/><path d="M 208.656 92.4591 A 2.05 1.06067 -10.6791 0 0 212.657 91.6012"/><path d="M 224.953 88.6422 A 2.05 1.06067 -10.6791 1 0 220.924 89.402"/><path d="M 220.924 89.402 A 2.05 1.06067 -10.6791 0 0 220.952 89.5001"/><path d="M 220.952 89.5001 A 2.05 1.06067 -10.6791 0 0 224.953 88.6422"/><path d="M 237.249 85.6832 A 2.05 1.06067 -10.6791 1 0 233.22 86.443"/><path d="M 233.22 86.443 A 2.05 1.06067 -10.6791 0 0 233.248 86.5411"/><path d="M 233.248 86.5411 A 2.05 1.06067 -10.6791 0 0 237.249 85.6832"/><path d="M 249.545 82.7242 A 2.05 1.06067 -10.6791 1 0 245.516 83.4841"/><path d="M 245.516 83.4841 A 2.05 1.06067 -10.6791 0 0 245.544 83.5821"/><path d="M 245.544 83.5821 A 2.05 1.06067 -10.6791 0 0 249.545 82.7242"/><path d="M 261.842 79.7652 A 2.05 1.06067 -10.6791 1 0 257.813 80.5251"/><path d="M 257.813 80.5251 A 2.05 1.06067 -10.6791 0 0 257.841 80.6232"/><path d="M 257.841 80.6232 A 2.05 1.06067 -10.6791 0 0 261.842 79.7652"/><path d="M 152.961 85.5065 A 2.05 1.06067 -190.679 0 0 152.475 85.9942"/><path d="M 156.162 85.299 A 2.05 1.06067 -190.679 0 0 155.19 84.9701"/><path d="M 165.258 82.5475 A 2.05 1.06067 -190.679 0 0 164.771 83.0352"/><path d="M 168.458 82.34 A 2.05 1.06067 -190.679 0 0 167.486 82.0111"/><path d="M 177.554 79.5885 A 2.05 1.06067 -190.679 0 0 177.067 80.0763"/><path d="M 180.754 79.381 A 2.05 1.06067 -190.679 0 0 179.783 79.0521"/><path d="M 189.85 76.6295 A 2.05 1.06067 -190.679 0 0 189.364 77.1173"/><path d="M 193.05 76.422 A 2.05 1.06067 -190.679 0 0 192.079 76.0931"/><path d="M 202.146 73.6705 A 2.05 1.06067 -190.679 0 0 201.66 74.1583"/><path d="M 205.347 73.463 A 2.05 1.06067 -190.679 0 0 204.375 73.1341"/><path d="M 214.443 70.7115 A 2.05 1.06067 -190.679 0 0 213.956 71.1993"/><path d="M 217.643 70.504 A 2.05 1.06067 -190.679 0 0 216.671 70.1751"/><path d="M 226.739 67.7525 A 2.05 1.06067 -190.679 0 0 226.252 68.2403"/><path d="M 229.939 67.545 A 2.05 1.06067 -190.679 0 0 228.968 67.2161"/><path d="M 239.035 64.7935 A 2.05 1.06067 -190.679 0 0 238.549 65.2813"/><path d="M 242.235 64.5861 A 2.05 1.06067 -190.679 0 0 241.264 64.2572"/><path d="M 251.331 61.8345 A 2.05 1.06067 -190.679 0 0 250.845 62.3223"/><path d="M 254.532 61.6271 A 2.05 1.06067 -190.679 0 0 253.56 61.2982"/><path d="M 158.568 91.496 A 2.05 1.06067 -190.679 0 0 154.881 92.1912"/><path d="M 170.864 88.537 A 2.05 1.06067 -190.679 0 0 167.177 89.2323"/><path d="M 183.16 85.578 A 2.05 1.06067 -190.679 0 0 179.474 86.2733"/><path d="M 195.457 82.619 A 2.05 1.06067 -190.679 0 0 191.77 83.3143"/><path d="M 207.753 79.66 A 2.05 1.06067 -190.679 0 0 204.066 80.3553"/><path d="M 220.049 76.701 A 2.05 1.06067 -190.679 0 0 216.362 77.3963"/><path d="M 232.345 73.7421 A 2.05 1.06067 -190.679 0 0 228.658 74.4373"/><path d="M 244.641 70.7831 A 2.05 1.06067 -190.679 0 0 240.955 71.4783"/><path d="M 256.938 67.8241 A 2.05 1.06067 -190.679 0 0 253.251 68.5193"/><path d="M 160.974 97.693 A 2.05 1.06067 -190.679 0 0 157.287 98.3882"/><path d="M 173.27 94.734 A 2.05 1.06067 -190.679 0 0 169.583 95.4293"/><path d="M 185.566 91.775 A 2.05 1.06067 -190.679 0 0 181.88 92.4703"/><path d="M 197.863 88.816 A 2.05 1.06067 -190.679 0 0 194.176 89.5113"/><path d="M 210.159 85.857 A 2.05 1.06067 -190.679 0 0 206.472 86.5523"/><path d="M 222.455 82.898 A 2.05 1.06067 -190.679 0 0 218.768 83.5933"/><path d="M 234.751 79.9391 A 2.05 1.06067 -190.679 0 0 231.064 80.6343"/><path d="M 247.048 76.9801 A 2.05 1.06067 -190.679 0 0 243.361 77.6753"/><path d="M 259.344 74.0211 A 2.05 1.06067 -190.679 0 0 255.657 74.7163"/><path d="M 163.38 103.89 A 2.05 1.06067 -190.679 0 0 159.693 104.585"/><path d="M 175.676 100.931 A 2.05 1.06067 -190.679 0 0 171.989 101.626"/><path d="M 187.972 97.972 A 2.05 1.06067 -190.679 0 0 184.286 98.6673"/><path d="M 200.269 95.013 A 2.05 1.06067 -190.679 0 0 196.582 95.7083"/><path d="M 212.565 92.054 A 2.05 1.06067 -190.679 0 0 208.878 92.7493"/><path d="M 224.861 89.0951 A 2.05 1.06067 -190.679 0 0 221.174 89.7903"/><path d="M 237.157 86.1361 A 2.05 1.06067 -190.679 0 0 233.471 86.8313"/><path d="M 249.454 83.1771 A 2.05 1.06067 -190.679 0 0 245.767 83.8723"/><path d="M 261.75 80.2181 A 2.05 1.06067 -190.679 0 0 258.063 80.9133"/></g><g stroke="rgb(0, 0, 0)" stroke-width="0.13" stroke-linecap="butt" stroke-linejoin="miter" fill="none"><path d="M 149.303 143.113 L 149.188 142.817"/></g><g stroke="rgb(0, 0, 0)" stroke-width="0.35" stroke-linecap="butt" stroke-linejoin="miter" fill="none"><path d="M 149.188 142.817 A 6 5.11087 -21.219 0 0 148.634 143.591"/><path d="M 149.898 142.687 L 177.146 110.325"/><path d="M 149.188 142.817 L 176.797 110.027"/><path d="M 152.209 147.1 A 2 1.70361 -21.219 0 0 155.894 145.669"/><path d="M 152.182 146.829 A 2 1.70361 -21.219 0 0 155.731 145.452"/><path d="M 175.609 118.934 A 2 1.70361 -21.219 0 0 179.338 117.486"/><path d="M 178.709 116.742 A 2 1.70361 -21.219 0 0 175.609 118.934"/><path d="M 175.537 118.681 A 2 1.70361 -21.219 0 0 179.221 117.25"/><path d="M 179.338 117.486 A 2 1.70361 -21.219 0 0 178.709 116.742"/><path d="M 167.77 128.244 A 2 1.70361 -21.219 0 0 171.499 126.796"/><path d="M 170.87 126.053 A 2 1.70361 -21.219 0 0 167.77 128.244"/><path d="M 167.698 127.991 A 2 1.70361 -21.219 0 0 171.382 126.56"/><path d="M 171.499 126.796 A 2 1.70361 -21.219 0 0 170.87 126.053"/><path d="M 159.931 137.554 A 2 1.70361 -21.219 0 0 163.66 136.106"/><path d="M 163.031 135.363 A 2 1.70361 -21.219 0 0 159.931 137.554"/><path d="M 159.859 137.301 A 2 1.70361 -21.219 0 0 163.543 135.87"/><path d="M 163.66 136.106 A 2 1.70361 -21.219 0 0 163.031 135.363"/><path d="M 151.776 157.102 A 6 5.11087 -21.219 0 0 161.949 157.765"/><path d="M 152.79 152.095 A 6 5.11087 -21.219 0 0 151.776 157.102"/></g><g stroke="rgb(0, 0, 0)" stroke-width="0.13" stroke-linecap="butt" stroke-linejoin="miter" fill="none"><path d="M 152.79 152.095 L 152.601 151.607"/></g><g stroke="rgb(0, 0, 0)" stroke-width="0.35" stroke-linecap="butt" stroke-linejoin="miter" fill="none"><path d="M 152.601 151.607 A 6 5.11087 -21.219 0 0 151.587 156.614"/><path d="M 152.79 152.095 L 184.146 114.855"/></g><g stroke="rgb(0, 0, 0)" stroke-width="0.13" stroke-linecap="butt" stroke-linejoin="miter" fill="none"><path d="M 184.146 114.855 L 183.957 114.366"/></g><g stroke="rgb(0, 0, 0)" stroke-width="0.35" stroke-linecap="butt" stroke-linejoin="miter" fill="none"><path d="M 152.601 151.607 L 183.957 114.366"/><path d="M 194.319 115.518 A 6 5.11087 -21.219 0 0 184.146 114.855"/><path d="M 193.305 120.525 A 6 5.11087 -21.219 0 0 194.319 115.518"/><path d="M 194.129 115.03 A 6 5.11087 -21.219 0 0 183.957 114.366"/><path d="M 192.392 121.608 L 193.305 120.525"/><path d="M 161.949 157.765 L 190.316 124.074"/><path d="M 155.505 155.654 A 2 1.70361 -21.219 0 0 159.234 154.207"/><path d="M 158.605 153.463 A 2 1.70361 -21.219 0 0 155.505 155.654"/><path d="M 155.432 155.401 A 2 1.70361 -21.219 0 0 159.117 153.971"/><path d="M 159.234 154.207 A 2 1.70361 -21.219 0 0 158.605 153.463"/><path d="M 189.961 116.222 A 2 1.70361 -21.219 0 0 186.861 118.413"/><path d="M 190.59 116.966 A 2 1.70361 -21.219 0 0 189.961 116.222"/><path d="M 179.022 127.724 A 2 1.70361 -21.219 0 0 182.751 126.276"/><path d="M 182.122 125.533 A 2 1.70361 -21.219 0 0 179.022 127.724"/><path d="M 178.949 127.471 A 2 1.70361 -21.219 0 0 182.634 126.04"/><path d="M 182.751 126.276 A 2 1.70361 -21.219 0 0 182.122 125.533"/><path d="M 171.183 137.034 A 2 1.70361 -21.219 0 0 174.912 135.586"/><path d="M 174.283 134.843 A 2 1.70361 -21.219 0 0 171.183 137.034"/><path d="M 171.11 136.781 A 2 1.70361 -21.219 0 0 174.795 135.35"/><path d="M 174.912 135.586 A 2 1.70361 -21.219 0 0 174.283 134.843"/><path d="M 163.344 146.344 A 2 1.70361 -21.219 0 0 167.073 144.896"/><path d="M 166.444 144.153 A 2 1.70361 -21.219 0 0 163.344 146.344"/><path d="M 163.271 146.091 A 2 1.70361 -21.219 0 0 166.956 144.66"/><path d="M 167.073 144.896 A 2 1.70361 -21.219 0 0 166.444 144.153"/><path d="M 151.776 157.102 L 151.587 156.614"/><path d="M 194.319 115.518 L 194.129 115.03"/></g><g stroke="rgb(0, 0, 0)" stroke-width="0.13" stroke-linecap="butt" stroke-linejoin="miter" fill="none"><path d="M 138.707 148.212 L 138.518 147.724"/></g><g stroke="rgb(0, 0, 0)" stroke-width="0.35" stroke-linecap="butt" stroke-linejoin="miter" fill="none"><path d="M 138.707 148.212 A 10 8.51813 -21.219 0 0 146.043 146.068"/></g><g stroke="rgb(0, 0, 0)" stroke-width="0.13" stroke-linecap="butt" stroke-linejoin="miter" fill="none"><path d="M 146.043 146.068 L 145.854 145.579"/></g><g stroke="rgb(0, 0, 0)" stroke-width="0.35" stroke-linecap="butt" stroke-linejoin="miter" fill="none"><path d="M 138.518 147.724 A 10 8.51813 -21.219 0 0 145.854 145.579"/><path d="M 150.765 142.691 L 146.043 146.068"/></g><g stroke="rgb(0, 0, 0)" stroke-width="0.13" stroke-linecap="butt" stroke-linejoin="miter" fill="none"><path d="M 150.765 142.691 L 150.576 142.202"/></g><g stroke="rgb(0, 0, 0)" stroke-width="0.35" stroke-linecap="butt" stroke-linejoin="miter" fill="none"><path d="M 150.576 142.202 L 145.854 145.579"/><path d="M 159.314 143.633 A 6 5.11087 -21.219 0 0 150.765 142.69"/><path d="M 159.37 143.567 A 6 5.11087 -21.219 0 0 150.576 142.202"/><path d="M 114.327 154.553 A 6 5.11087 -21.219 0 0 116.949 157.161"/><path d="M 120.941 147.156 A 6 5.11087 -21.219 0 0 114.327 154.553"/></g><g stroke="rgb(0, 0, 0)" stroke-width="0.13" stroke-linecap="butt" stroke-linejoin="miter" fill="none"><path d="M 120.941 147.156 L 120.751 146.668"/></g><g stroke="rgb(0, 0, 0)" stroke-width="0.35" stroke-linecap="butt" stroke-linejoin="miter" fill="none"><path d="M 120.751 146.668 A 6 5.11087 -21.219 0 0 114.137 154.064"/><path d="M 120.941 147.156 L 138.707 148.212"/><path d="M 120.751 146.668 L 138.518 147.724"/><path d="M 156.011 145.905 A 2 1.70361 -21.219 0 0 152.282 147.352"/><path d="M 156.08 146.744 A 2 1.70361 -21.219 0 0 156.011 145.905"/><path d="M 155.891 146.255 A 2 1.70361 -21.219 0 0 155.894 145.669"/><path d="M 152.282 147.352 A 2 1.70361 -21.219 0 0 156.08 146.744"/><path d="M 152.209 147.099 A 2 1.70361 -21.219 0 0 155.891 146.255"/><path d="M 114.327 154.553 L 114.137 154.064"/></g><g stroke="rgb(0, 0, 0)" stroke-width="0.13" stroke-linecap="butt" stroke-linejoin="miter" fill="none"><path d="M 141.741 156.025 L 141.551 155.537"/></g><g stroke="rgb(0, 0, 0)" stroke-width="0.35" stroke-linecap="butt" stroke-linejoin="miter" fill="none"><path d="M 141.741 156.025 A 10 8.51813 -21.219 0 0 149.077 153.881"/></g><g stroke="rgb(0, 0, 0)" stroke-width="0.13" stroke-linecap="butt" stroke-linejoin="miter" fill="none"><path d="M 149.077 153.881 L 148.887 153.393"/></g><g stroke="rgb(0, 0, 0)" stroke-width="0.35" stroke-linecap="butt" stroke-linejoin="miter" fill="none"><path d="M 141.551 155.537 A 10 8.51813 -21.219 0 0 148.887 153.393"/><path d="M 153.121 150.989 L 149.077 153.881"/></g><g stroke="rgb(0, 0, 0)" stroke-width="0.13" stroke-linecap="butt" stroke-linejoin="miter" fill="none"><path d="M 153.714 150.285 L 153.609 150.016"/></g><g stroke="rgb(0, 0, 0)" stroke-width="0.35" stroke-linecap="butt" stroke-linejoin="miter" fill="none"><path d="M 153.609 150.016 L 148.887 153.393"/><path d="M 154.312 149.575 A 6 5.11087 -21.219 0 0 153.609 150.016"/><path d="M 158.334 159.973 L 151.842 164.616"/><path d="M 144.506 166.76 A 10 8.51813 -21.219 0 0 151.842 164.616"/><path d="M 121.933 165.419 L 144.506 166.76"/><path d="M 117.36 162.366 A 6 5.11087 -21.219 0 0 121.933 165.419"/><path d="M 123.974 154.97 A 6 5.11087 -21.219 0 0 117.36 162.366"/></g><g stroke="rgb(0, 0, 0)" stroke-width="0.13" stroke-linecap="butt" stroke-linejoin="miter" fill="none"><path d="M 123.974 154.97 L 123.785 154.481"/></g><g stroke="rgb(0, 0, 0)" stroke-width="0.35" stroke-linecap="butt" stroke-linejoin="miter" fill="none"><path d="M 123.785 154.481 A 6 5.11087 -21.219 0 0 117.171 161.878"/><path d="M 123.974 154.97 L 141.741 156.025"/><path d="M 123.785 154.481 L 141.551 155.537"/><path d="M 124.818 159.47 A 2 1.70361 -21.219 0 0 121.089 160.918"/><path d="M 124.888 160.309 A 2 1.70361 -21.219 0 0 124.818 159.47"/><path d="M 124.698 159.821 A 2 1.70361 -21.219 0 0 124.701 159.234"/><path d="M 121.089 160.918 A 2 1.70361 -21.219 0 0 124.888 160.309"/><path d="M 121.016 160.665 A 2 1.70361 -21.219 0 0 124.698 159.821"/><path d="M 136.906 160.189 A 2 1.70361 -21.219 0 0 133.177 161.636"/><path d="M 136.975 161.027 A 2 1.70361 -21.219 0 0 136.906 160.189"/><path d="M 136.786 160.539 A 2 1.70361 -21.219 0 0 136.789 159.953"/><path d="M 133.177 161.636 A 2 1.70361 -21.219 0 0 136.975 161.027"/><path d="M 133.104 161.383 A 2 1.70361 -21.219 0 0 136.786 160.539"/><path d="M 148.993 160.907 A 2 1.70361 -21.219 0 0 145.264 162.354"/><path d="M 149.063 161.746 A 2 1.70361 -21.219 0 0 148.993 160.907"/><path d="M 148.873 161.257 A 2 1.70361 -21.219 0 0 148.876 160.671"/><path d="M 145.264 162.354 A 2 1.70361 -21.219 0 0 149.063 161.746"/><path d="M 145.191 162.101 A 2 1.70361 -21.219 0 0 148.873 161.257"/><path d="M 159.114 154.557 A 2 1.70361 -21.219 0 0 159.117 153.97"/><path d="M 158.924 154.069 A 2 1.70361 -21.219 0 0 158.954 153.753"/><path d="M 155.432 155.401 A 2 1.70361 -21.219 0 0 159.114 154.557"/><path d="M 155.406 155.131 A 2 1.70361 -21.219 0 0 158.924 154.069"/><path d="M 117.36 162.366 L 117.171 161.878"/><path d="M 175.778 100.603 A 2.05 1.05789 -9.63142 0 0 172.177 101.747"/><path d="M 175.386 101.27 A 2.05 1.05789 -189.631 0 0 172.679 101.916"/><path d="M 182.212 114.637 L 172.603 106.457"/><path d="M 192.326 112.852 L 200.037 100.246"/><path d="M 168.694 106.466 L 168.837 107.31"/><path d="M 168.073 105.341 L 168.837 107.31"/><path d="M 168.694 106.466 L 207.062 97.7789"/><path d="M 168.837 107.31 L 207.206 98.6234"/><path d="M 207.062 97.7789 L 207.206 98.6234"/><path d="M 206.416 96.1145 L 207.062 97.7789"/><path d="M 186.216 97.6647 A 2.05 1.05789 -9.63142 0 0 184.516 98.81"/><path d="M 200.061 94.8815 A 2.05 1.05789 -9.63142 0 0 196.886 95.8839"/><path d="M 187.503 98.4479 A 2.05 1.05789 -189.631 0 0 185.18 98.9881"/><path d="M 199.553 95.6386 A 2.05 1.05789 -189.631 0 0 197.749 96.0494"/><path d="M 182.169 114.616 A 5 4.25906 -21.219 0 0 182.272 114.857"/><path d="M 182.159 114.592 A 5 4.25906 -21.219 0 0 182.169 114.616"/><path d="M 182.168 114.616 L 182.159 114.592"/><path d="M 191.68 111.485 A 5 4.25906 -21.219 0 0 182.358 115.104"/><path d="M 192.175 112.759 L 191.68 111.485"/><path d="M 182.666 115.899 L 182.358 115.104"/><path d="M 192.391 121.605 A 2 1.70361 -201.219 1 0 188.662 123.053"/><path d="M 188.662 123.053 A 2 1.70361 -201.219 0 0 192.297 122.91"/><path d="M 192.297 122.91 A 2 1.70361 -201.219 0 0 192.391 121.605"/><path d="M 186.861 118.414 L 188.662 123.053"/><path d="M 190.59 116.966 L 192.391 121.605"/><path d="M 148.29 152.189 A 4.5 3.83316 -201.219 0 0 142.699 150.247"/><path d="M 148.595 153.596 A 4.5 3.83316 -201.219 0 0 143.647 152.689"/><path d="M 135.206 152.188 A 3.92036 3.33942 -201.219 0 0 131.489 151.967"/><path d="M 121.444 150.416 L 145.619 151.852"/><path d="M 124.092 151.528 A 4.5 3.83316 -201.219 0 0 121.444 150.416"/><path d="M 145.619 151.852 A 4.5 3.83316 -201.219 0 0 142.602 152.628"/><path d="M 120.875 148.951 L 145.05 150.387"/></g><g stroke="rgb(0, 0, 0)" stroke-width="0.13" stroke-linecap="butt" stroke-linejoin="miter" fill="none"><path d="M 145.05 150.387 L 145.619 151.852"/><path d="M 120.875 148.951 L 121.444 150.416"/></g><g stroke="rgb(0, 0, 0)" stroke-width="0.35" stroke-linecap="butt" stroke-linejoin="miter" fill="none"><path d="M 122.663 149.057 A 4.5 3.83316 -201.219 0 0 115.725 154.009"/><path d="M 123.611 151.499 A 4.5 3.83316 -201.219 0 0 116.673 156.451"/><path d="M 148.29 152.189 L 148.786 153.465"/><path d="M 115.725 154.009 L 116.673 156.451"/><path d="M 123.611 151.499 A 4.5 3.83316 -201.219 0 0 116.516 154.564"/><path d="M 116.516 154.564 A 4.5 3.83316 -201.219 0 0 116.673 156.451"/><path d="M 124.559 153.94 A 4.5 3.83316 -201.219 0 0 117.464 157.006"/><path d="M 117.464 157.006 A 4.5 3.83316 -201.219 0 0 117.416 158.038"/><path d="M 121.664 159.009 A 2 1.70361 -201.219 0 0 123.105 158.449"/><path d="M 133.752 159.727 A 2 1.70361 -201.219 0 0 135.193 159.167"/><path d="M 136.154 154.629 A 3.92036 3.33942 -201.219 0 0 132.437 154.408"/><path d="M 121.823 151.392 L 133.911 152.111"/></g><g stroke="rgb(0, 0, 0)" stroke-width="0.13" stroke-linecap="butt" stroke-linejoin="miter" fill="none"><path d="M 121.823 151.392 L 122.392 152.857"/></g><g stroke="rgb(0, 0, 0)" stroke-width="0.35" stroke-linecap="butt" stroke-linejoin="miter" fill="none"><path d="M 122.392 152.857 L 134.48 153.576"/><path d="M 146.567 154.294 A 4.5 3.83316 -201.219 0 0 143.55 155.069"/><path d="M 134.48 153.576 L 146.567 154.294"/><path d="M 125.04 153.97 A 4.5 3.83316 -201.219 0 0 122.392 152.857"/><path d="M 133.911 152.111 L 145.998 152.829"/></g><g stroke="rgb(0, 0, 0)" stroke-width="0.13" stroke-linecap="butt" stroke-linejoin="miter" fill="none"><path d="M 145.998 152.829 L 146.567 154.294"/></g><g stroke="rgb(0, 0, 0)" stroke-width="0.35" stroke-linecap="butt" stroke-linejoin="miter" fill="none"><path d="M 148.595 153.596 A 4.5 3.83316 -201.219 0 0 143.647 152.689"/><path d="M 146.32 154.776 A 4.5 3.83316 -201.219 0 0 144.595 155.131"/><path d="M 145.839 160.445 A 2 1.70361 -201.219 0 0 147.28 159.886"/><path d="M 116.673 156.451 L 117.346 158.184"/><path d="M 124.559 153.94 A 4.5 3.83316 -201.219 0 0 117.464 157.006"/><path d="M 117.464 157.006 A 4.5 3.83316 -201.219 0 0 117.416 158.038"/><path d="M 121.664 159.009 A 2 1.70361 -201.219 0 0 123.105 158.449"/><path d="M 121.016 160.665 A 2 1.70361 -201.219 0 0 124.698 159.821"/><path d="M 124.698 159.821 A 2 1.70361 -201.219 0 0 124.701 159.234"/><path d="M 133.752 159.727 A 2 1.70361 -201.219 0 0 135.193 159.167"/><path d="M 133.104 161.383 A 2 1.70361 -201.219 0 0 136.786 160.539"/><path d="M 136.786 160.539 A 2 1.70361 -201.219 0 0 136.789 159.953"/><path d="M 122.771 153.834 L 134.859 154.552"/></g><g stroke="rgb(0, 0, 0)" stroke-width="0.13" stroke-linecap="butt" stroke-linejoin="miter" fill="none"><path d="M 122.771 153.834 L 123.023 154.482"/></g><g stroke="rgb(0, 0, 0)" stroke-width="0.35" stroke-linecap="butt" stroke-linejoin="miter" fill="none"><path d="M 134.859 154.552 L 145.135 155.163"/><path d="M 146.32 154.776 A 4.5 3.83316 -201.219 0 0 144.595 155.131"/><path d="M 145.839 160.445 A 2 1.70361 -201.219 0 0 147.28 159.886"/><path d="M 145.191 162.101 A 2 1.70361 -201.219 0 0 148.873 161.257"/><path d="M 148.873 161.257 A 2 1.70361 -201.219 0 0 148.876 160.671"/><path d="M 159.952 136.848 A 2.05 1.74622 -21.219 0 0 163.197 135.481"/><path d="M 159.851 136.78 A 2.05 1.74622 -21.219 0 0 159.952 136.848"/></g><g stroke="rgb(0, 0, 0)" stroke-width="0.13" stroke-linecap="butt" stroke-linejoin="miter" fill="none"><path d="M 164.84 123.093 L 164.461 122.117"/></g><g stroke="rgb(0, 0, 0)" stroke-width="0.35" stroke-linecap="butt" stroke-linejoin="miter" fill="none"><path d="M 167.164 121.467 A 5 4.25906 -21.219 0 0 164.84 123.093"/><path d="M 168.281 120.141 A 5 4.25906 -21.219 0 0 164.461 122.117"/><path d="M 158.644 153.488 L 156.782 155.699"/><path d="M 166.483 144.178 L 164.268 146.807"/><path d="M 174.322 134.867 L 172.107 137.497"/><path d="M 155.406 155.069 L 155.448 155.176"/><path d="M 147.976 143.122 A 5 4.25906 -21.219 0 0 147.088 144.697"/></g><g stroke="rgb(0, 0, 0)" stroke-width="0.13" stroke-linecap="butt" stroke-linejoin="miter" fill="none"><path d="M 147.976 143.122 L 147.597 142.146"/></g><g stroke="rgb(0, 0, 0)" stroke-width="0.35" stroke-linecap="butt" stroke-linejoin="miter" fill="none"><path d="M 147.597 142.146 A 5 4.25906 -21.219 0 0 146.506 145.113"/><path d="M 164.84 123.093 L 147.976 143.122"/><path d="M 164.461 122.117 L 147.597 142.146"/><path d="M 171.322 137.051 L 173.411 134.57"/><path d="M 163.483 146.361 L 165.572 143.88"/><path d="M 155.822 155.46 L 157.733 153.19"/><path d="M 167.69 127.47 A 2.05 1.74622 -21.219 0 0 171.036 126.171"/><path d="M 152.286 146.252 A 2.05 1.74622 -21.219 0 0 155.265 145.096"/></g><g stroke="rgb(0, 0, 0)" stroke-width="0.13" stroke-linecap="butt" stroke-linejoin="miter" fill="none"><path d="M 146.575 178.212 L 145.93 178.212 L 145.93 178.636 L 147.685 178.636 L 147.685 178.212 L 147.039 178.212 L 147.039 175.559 L 147.685 175.559 L 147.685 175.136 L 145.93 175.136 L 145.93 175.559 L 146.575 175.559 L 146.575 178.212 L 146.575 178.212 z M 150.126 177.057 L 149.697 176.956 L 149.379 176.84 L 149.273 176.603 L 149.304 176.437 L 149.409 176.316 L 149.581 176.24 L 149.828 176.21 L 150.065 176.24 L 150.252 176.331 L 150.373 176.467 L 150.423 176.649 L 150.857 176.649 L 150.857 176.638 L 150.781 176.311 L 150.574 176.053 L 150.252 175.892 L 149.828 175.832 L 149.399 175.892 L 149.087 176.059 L 148.89 176.306 L 148.829 176.618 L 148.875 176.921 L 149.016 177.133 L 149.248 177.284 L 149.586 177.39 L 150.08 177.511 L 150.383 177.637 L 150.463 177.738 L 150.494 177.889 L 150.448 178.076 L 150.327 178.217 L 150.131 178.308 L 149.868 178.338 L 149.591 178.308 L 149.389 178.202 L 149.253 178.03 L 149.198 177.793 L 148.769 177.793 L 148.84 178.197 L 149.046 178.489 L 149.374 178.666 L 149.828 178.731 L 150.302 178.666 L 150.65 178.489 L 150.862 178.207 L 150.938 177.839 L 150.882 177.521 L 150.726 177.304 L 150.469 177.163 L 150.126 177.057 L 150.126 177.057 z M 151.704 177.284 L 151.785 177.899 L 152.017 178.353 L 152.385 178.636 L 152.879 178.731 L 153.368 178.636 L 153.737 178.358 L 153.969 177.904 L 154.054 177.284 L 153.969 176.669 L 153.737 176.21 L 153.368 175.932 L 152.879 175.832 L 152.385 175.932 L 152.017 176.215 L 151.785 176.669 L 151.704 177.284 L 151.704 177.284 z M 152.158 177.279 L 152.203 176.825 L 152.345 176.497 L 152.572 176.296 L 152.879 176.225 L 153.182 176.296 L 153.409 176.492 L 153.55 176.825 L 153.6 177.279 L 153.55 177.738 L 153.409 178.071 L 153.182 178.272 L 152.879 178.338 L 152.572 178.272 L 152.345 178.071 L 152.203 177.738 L 152.158 177.279 L 152.158 177.279 z M 154.695 178.636 L 155.103 178.636 L 155.103 176.825 L 155.128 176.553 L 155.204 176.356 L 155.32 176.24 L 155.471 176.195 L 155.592 176.235 L 155.673 176.336 L 155.713 176.507 L 155.729 176.734 L 155.729 178.636 L 156.112 178.636 L 156.112 176.825 L 156.137 176.558 L 156.213 176.361 L 156.334 176.24 L 156.485 176.195 L 156.606 176.235 L 156.687 176.336 L 156.737 176.734 L 156.737 178.636 L 157.146 178.636 L 157.146 176.765 L 157.121 176.376 L 157.04 176.079 L 156.878 175.897 L 156.616 175.832 L 156.309 175.932 L 156.072 176.225 L 155.885 175.937 L 155.572 175.832 L 155.285 175.932 L 155.088 176.215 L 155.088 175.927 L 154.695 175.927 L 154.695 178.636 L 154.695 178.636 z M 158.296 177.41 L 160.071 177.41 L 160.076 177.203 L 159.995 176.623 L 159.773 176.19 L 159.42 175.927 L 158.951 175.832 L 158.492 175.932 L 158.139 176.215 L 157.912 176.674 L 157.832 177.279 L 157.907 177.899 L 158.134 178.353 L 158.482 178.636 L 158.936 178.731 L 159.329 178.666 L 159.652 178.494 L 159.889 178.222 L 160.025 177.859 L 159.587 177.859 L 159.496 178.061 L 159.365 178.212 L 158.992 178.333 L 158.704 178.278 L 158.487 178.101 L 158.346 177.814 L 158.296 177.425 L 158.296 177.41 L 158.296 177.41 z M 158.296 177.037 L 158.351 176.689 L 158.487 176.432 L 158.694 176.275 L 158.966 176.22 L 159.234 176.275 L 159.44 176.432 L 159.566 176.689 L 159.612 177.037 L 158.296 177.037 L 158.296 177.037 z M 161.538 176.396 L 161.538 177.753 L 161.569 178.192 L 161.71 178.494 L 161.992 178.671 L 162.471 178.731 L 162.996 178.706 L 162.996 178.323 L 162.613 178.353 L 162.265 178.313 L 162.078 178.187 L 161.997 177.975 L 161.982 177.677 L 161.982 176.396 L 162.996 176.396 L 162.996 176.018 L 161.982 176.018 L 161.982 175.226 L 161.538 175.226 L 161.538 176.018 L 160.772 176.018 L 160.772 176.396 L 161.538 176.396 L 161.538 176.396 z M 164.146 178.636 L 164.59 178.636 L 164.59 177.087 L 164.635 176.714 L 164.771 176.447 L 164.993 176.285 L 165.291 176.23 L 165.512 176.265 L 165.679 176.366 L 165.78 176.538 L 165.815 176.77 L 166.264 176.77 L 166.203 176.361 L 166.037 176.069 L 165.76 175.892 L 165.381 175.832 L 165.124 175.872 L 164.902 175.973 L 164.706 176.144 L 164.549 176.376 L 164.549 175.927 L 164.146 175.927 L 164.146 178.636 L 164.146 178.636 z M 168.372 178.262 L 168.372 176.018 L 167.232 176.018 L 167.232 176.396 L 167.928 176.396 L 167.928 178.262 L 167.02 178.262 L 167.02 178.636 L 169.29 178.636 L 169.29 178.262 L 168.372 178.262 L 168.372 178.262 z M 168.387 175.015 L 167.918 175.015 L 167.918 175.519 L 168.387 175.519 L 168.387 175.015 L 168.387 175.015 z M 171.776 176.825 L 172.215 176.825 L 172.124 176.422 L 171.907 176.104 L 171.569 175.907 L 171.131 175.832 L 170.646 175.932 L 170.278 176.215 L 170.046 176.674 L 169.966 177.289 L 170.041 177.899 L 170.268 178.353 L 170.626 178.636 L 171.115 178.731 L 171.549 178.656 L 171.887 178.444 L 172.119 178.111 L 172.22 177.667 L 171.796 177.667 L 171.721 177.95 L 171.579 178.162 L 171.378 178.293 L 171.131 178.333 L 170.823 178.267 L 170.601 178.066 L 170.465 177.738 L 170.42 177.274 L 170.465 176.82 L 170.606 176.492 L 170.833 176.29 L 171.131 176.22 L 171.393 176.265 L 171.59 176.381 L 171.721 176.573 L 171.776 176.825 L 171.776 176.825 z M 176.935 178.636 L 177.404 178.636 L 178.393 175.927 L 177.934 175.927 L 177.172 178.111 L 176.396 175.927 L 175.932 175.927 L 176.935 178.636 L 176.935 178.636 z M 180.516 178.262 L 180.516 176.018 L 179.376 176.018 L 179.376 176.396 L 180.072 176.396 L 180.072 178.262 L 179.165 178.262 L 179.165 178.636 L 181.434 178.636 L 181.434 178.262 L 180.516 178.262 L 180.516 178.262 z M 180.531 175.015 L 180.062 175.015 L 180.062 175.519 L 180.531 175.519 L 180.531 175.015 L 180.531 175.015 z M 182.584 177.41 L 184.359 177.41 L 184.364 177.203 L 184.283 176.623 L 184.061 176.19 L 183.708 175.927 L 183.239 175.832 L 182.781 175.932 L 182.427 176.215 L 182.201 176.674 L 182.12 177.279 L 182.195 177.899 L 182.422 178.353 L 182.77 178.636 L 183.224 178.731 L 183.618 178.666 L 183.94 178.494 L 184.177 178.222 L 184.314 177.859 L 183.875 177.859 L 183.784 178.061 L 183.653 178.212 L 183.28 178.333 L 182.992 178.278 L 182.775 178.101 L 182.634 177.814 L 182.584 177.425 L 182.584 177.41 L 182.584 177.41 z M 182.584 177.037 L 182.639 176.689 L 182.775 176.432 L 182.982 176.275 L 183.255 176.22 L 183.522 176.275 L 183.729 176.432 L 183.855 176.689 L 183.9 177.037 L 182.584 177.037 L 182.584 177.037 z M 185.872 178.636 L 186.275 176.336 L 186.679 178.636 L 187.103 178.636 L 187.768 175.927 L 187.34 175.927 L 186.891 178.227 L 186.492 175.927 L 186.054 175.927 L 185.655 178.227 L 185.206 175.927 L 184.783 175.927 L 185.448 178.636 L 185.872 178.636 L 185.872 178.636 z" stroke="none" fill-rule="evenodd" fill="rgb(0, 0, 0)"/></g><g stroke="rgb(0, 0, 0)" stroke-width="0.13" stroke-linecap="butt" stroke-linejoin="miter" fill="none"><path d="M 146.01 183.528 L 145.551 183.528 L 145.652 184.062 L 145.904 184.455 L 146.293 184.693 L 146.817 184.778 L 147.337 184.698 L 147.725 184.476 L 147.972 184.128 L 148.063 183.669 L 147.987 183.255 L 147.775 182.988 L 147.432 182.811 L 146.974 182.68 L 146.58 182.584 L 146.323 182.473 L 146.177 182.312 L 146.131 182.06 L 146.177 181.833 L 146.308 181.662 L 146.51 181.546 L 146.787 181.505 L 147.069 181.556 L 147.291 181.692 L 147.438 181.919 L 147.508 182.226 L 147.967 182.226 L 147.967 182.216 L 147.886 181.742 L 147.649 181.389 L 147.276 181.167 L 146.772 181.092 L 146.318 181.167 L 145.965 181.379 L 145.738 181.707 L 145.657 182.131 L 145.723 182.509 L 145.914 182.766 L 146.217 182.937 L 146.631 183.069 L 147.039 183.185 L 147.347 183.296 L 147.533 183.457 L 147.599 183.719 L 147.538 183.986 L 147.382 184.188 L 147.145 184.314 L 146.837 184.355 L 146.494 184.299 L 146.232 184.138 L 146.066 183.876 L 146.01 183.528 L 146.01 183.528 z M 150.524 182.872 L 150.963 182.872 L 150.872 182.468 L 150.655 182.151 L 150.317 181.954 L 149.878 181.878 L 149.394 181.979 L 149.026 182.262 L 148.794 182.721 L 148.713 183.336 L 148.789 183.946 L 149.016 184.4 L 149.374 184.682 L 149.863 184.778 L 150.297 184.703 L 150.635 184.491 L 150.867 184.158 L 150.968 183.714 L 150.544 183.714 L 150.469 183.997 L 150.327 184.208 L 150.126 184.339 L 149.878 184.38 L 149.571 184.314 L 149.349 184.113 L 149.213 183.785 L 149.167 183.321 L 149.213 182.867 L 149.354 182.539 L 149.581 182.337 L 149.878 182.267 L 150.141 182.312 L 150.337 182.428 L 150.469 182.62 L 150.524 182.872 L 150.524 182.872 z M 153.444 184.329 L 153.444 184.345 L 153.469 184.516 L 153.545 184.637 L 153.863 184.733 L 154.11 184.693 L 154.11 184.35 L 154.004 184.365 L 153.863 184.299 L 153.837 184.097 L 153.837 182.695 L 153.777 182.337 L 153.6 182.085 L 153.293 181.934 L 152.859 181.878 L 152.435 181.939 L 152.123 182.11 L 151.926 182.378 L 151.86 182.731 L 151.86 182.761 L 152.259 182.761 L 152.294 182.549 L 152.405 182.398 L 152.587 182.307 L 152.844 182.272 L 153.091 182.297 L 153.268 182.373 L 153.373 182.504 L 153.409 182.685 L 153.389 182.897 L 153.308 183.003 L 153.106 183.053 L 152.728 183.094 L 152.294 183.185 L 151.987 183.346 L 151.805 183.598 L 151.749 183.971 L 151.8 184.304 L 151.956 184.551 L 152.208 184.708 L 152.556 184.763 L 153.025 184.657 L 153.444 184.329 L 153.444 184.329 z M 153.394 183.734 L 153.333 183.997 L 153.172 184.198 L 152.93 184.329 L 152.632 184.375 L 152.44 184.35 L 152.304 184.269 L 152.219 184.128 L 152.193 183.931 L 152.213 183.754 L 152.294 183.628 L 152.617 183.487 L 153.025 183.427 L 153.394 183.306 L 153.394 183.734 L 153.394 183.734 z M 155.754 181.435 L 155.754 184.309 L 154.841 184.309 L 154.841 184.682 L 157.105 184.682 L 157.105 184.309 L 156.198 184.309 L 156.198 181.061 L 155.058 181.061 L 155.058 181.435 L 155.754 181.435 L 155.754 181.435 z M 158.296 183.457 L 160.071 183.457 L 160.076 183.25 L 159.995 182.67 L 159.773 182.236 L 159.42 181.974 L 158.951 181.878 L 158.492 181.979 L 158.139 182.262 L 157.912 182.721 L 157.832 183.326 L 157.907 183.946 L 158.134 184.4 L 158.482 184.682 L 158.936 184.778 L 159.329 184.713 L 159.652 184.541 L 159.889 184.269 L 160.025 183.906 L 159.587 183.906 L 159.496 184.107 L 159.365 184.259 L 158.992 184.38 L 158.704 184.324 L 158.487 184.148 L 158.346 183.86 L 158.296 183.472 L 158.296 183.457 L 158.296 183.457 z M 158.296 183.084 L 158.351 182.736 L 158.487 182.479 L 158.694 182.322 L 158.966 182.267 L 159.234 182.322 L 159.44 182.479 L 159.566 182.736 L 159.612 183.084 L 158.296 183.084 L 158.296 183.084 z M 161.639 184.682 L 162.335 184.682 L 162.335 183.931 L 161.639 183.931 L 161.639 184.682 L 161.639 184.682 z M 161.639 182.726 L 162.335 182.726 L 162.335 181.974 L 161.639 181.974 L 161.639 182.726 L 161.639 182.726 z" stroke="none" fill-rule="evenodd" fill="rgb(0, 0, 0)"/></g><g stroke="rgb(0, 0, 0)" stroke-width="0.13" stroke-linecap="butt" stroke-linejoin="miter" fill="none"><path d="M 171.005 184.682 L 171.463 184.682 L 171.463 181.157 L 171.121 181.157 L 171.03 181.465 L 170.848 181.672 L 170.571 181.793 L 170.188 181.833 L 170.188 182.191 L 171.005 182.191 L 171.005 184.682 L 171.005 184.682 z M 173.783 184.682 L 174.479 184.682 L 174.479 183.931 L 173.783 183.931 L 173.783 184.682 L 173.783 184.682 z M 173.783 182.726 L 174.479 182.726 L 174.479 181.974 L 173.783 181.974 L 173.783 182.726 L 173.783 182.726 z M 177.077 184.682 L 177.536 184.682 L 177.536 181.157 L 177.193 181.157 L 177.102 181.465 L 176.92 181.672 L 176.643 181.793 L 176.26 181.833 L 176.26 182.191 L 177.077 182.191 L 177.077 184.682 L 177.077 184.682 z" stroke="none" fill-rule="evenodd" fill="rgb(0, 0, 0)"/></g></svg>